<svg width="181" height="53" viewBox="0 0 181 53" fill="none" xmlns="http://www.w3.org/2000/svg">
<rect width="181" height="53" rx="26.5" fill="#9AC5E5"/>
<path d="M93.0527 39H86.168V17.7891H93.2578C99.5127 17.7891 103.233 21.7588 103.248 28.3652C103.233 34.9863 99.5127 39 93.0527 39ZM89.3906 36.1875H92.877C97.6816 36.1729 100.055 33.375 100.055 28.3652C100.055 23.3701 97.6816 20.6016 93.0527 20.6016H89.3906V36.1875ZM112.755 39.3223C108.244 39.3223 105.299 36.041 105.314 31.1191C105.299 26.168 108.244 22.8867 112.755 22.8867C117.238 22.8867 120.168 26.168 120.168 31.1191C120.168 36.041 117.238 39.3223 112.755 39.3223ZM108.449 31.1191C108.449 34.1514 109.84 36.7148 112.755 36.7148C115.627 36.7148 117.004 34.1514 117.004 31.1191C117.004 28.0723 115.627 25.4795 112.755 25.4648C109.84 25.4795 108.449 28.0723 108.449 31.1191ZM129.382 39.3223C124.738 39.3223 121.926 35.9092 121.941 31.1191C121.926 26.2705 124.841 22.8867 129.323 22.8867C132.956 22.8867 135.578 25.0254 135.915 28.248H132.868C132.546 26.7539 131.36 25.5088 129.382 25.4941C126.804 25.5088 125.075 27.6475 125.075 31.0312C125.075 34.5176 126.76 36.6709 129.382 36.6562C131.154 36.6709 132.473 35.6748 132.868 33.9609H135.915C135.578 37.0518 133.132 39.3223 129.382 39.3223ZM147.21 27.4277C146.917 26.168 145.921 25.3477 144.192 25.3477C142.405 25.3477 141.131 26.2705 141.145 27.4863C141.131 28.4238 141.878 29.0977 143.636 29.5078L146.155 30.0938C149.085 30.7529 150.506 32.1445 150.52 34.4004C150.506 37.2715 148.074 39.3223 144.016 39.3223C140.193 39.3223 137.937 37.623 137.542 34.6641H140.735C141.013 36.0996 142.097 36.8174 143.987 36.8027C146.009 36.8174 147.312 35.9678 147.327 34.6348C147.312 33.6094 146.551 32.9502 144.866 32.5547L142.376 32.0273C139.505 31.3975 138.011 29.8594 138.011 27.6621C138.011 24.835 140.471 22.8867 144.163 22.8867C147.708 22.8867 149.92 24.6885 150.227 27.4277H147.21Z" fill="white"/>
<path d="M63 42.1317C63 43.1635 62.1792 44 61.1667 44H31.8333C30.8208 44 30 43.1635 30 42.1317V22.4936C30 21.9171 30.2612 21.3728 30.7078 21.0188L45.3745 9.39356C46.0365 8.86881 46.9635 8.86881 47.6255 9.39356L62.2921 21.0188C62.7387 21.3728 63 21.9171 63 22.4936V42.1317ZM59.3333 40.2633V23.4074L46.5 13.2353L33.6667 23.4074V40.2633H59.3333Z" fill="white"/>
</svg>
