<svg width="227" height="53" viewBox="0 0 227 53" fill="none" xmlns="http://www.w3.org/2000/svg">
<rect width="227" height="53" rx="26.5" fill="#2A6490"/>
<path d="M81.791 16.7891H85.0137V30.7344C85.0283 35.1875 81.6738 38.3516 76.6055 38.3516C71.4932 38.3516 68.1533 35.1875 68.168 30.7344V16.7891H71.3906V30.4707C71.376 33.3418 73.3828 35.4072 76.6055 35.4219C79.8135 35.4072 81.791 33.3418 81.791 30.4707V16.7891ZM97.4215 26.4277C97.1285 25.168 96.1324 24.3477 94.4039 24.3477C92.6168 24.3477 91.3424 25.2705 91.357 26.4863C91.3424 27.4238 92.0895 28.0977 93.8473 28.5078L96.3668 29.0938C99.2965 29.7529 100.717 31.1445 100.732 33.4004C100.717 36.2715 98.2857 38.3223 94.2281 38.3223C90.4049 38.3223 88.149 36.623 87.7535 33.6641H90.9469C91.2252 35.0996 92.3092 35.8174 94.1988 35.8027C96.2203 35.8174 97.524 34.9678 97.5387 33.6348C97.524 32.6094 96.7623 31.9502 95.0777 31.5547L92.5875 31.0273C89.7164 30.3975 88.2223 28.8594 88.2223 26.6621C88.2223 23.835 90.6832 21.8867 94.3746 21.8867C97.9195 21.8867 100.131 23.6885 100.439 26.4277H97.4215ZM110.034 38.3223C105.347 38.3223 102.461 35.085 102.476 30.1484C102.461 25.2559 105.391 21.8867 109.829 21.8867C113.447 21.8867 116.89 24.1279 116.89 29.8848V30.998H105.581C105.669 34.0303 107.456 35.7441 110.064 35.7441C111.836 35.7441 112.993 34.9824 113.521 34.0156H116.685C115.982 36.5938 113.535 38.3223 110.034 38.3223ZM105.596 28.6543H113.814C113.814 26.2373 112.246 24.4502 109.859 24.4648C107.354 24.4502 105.728 26.4131 105.596 28.6543ZM119.395 38V22.0918H122.413V24.6113H122.589C123.175 22.9121 124.771 21.8428 126.632 21.8574C127.013 21.8428 127.628 21.8867 127.95 21.916V24.9043C127.686 24.8457 126.954 24.7139 126.309 24.7285C124.141 24.7139 122.53 26.2227 122.53 28.3027V38H119.395ZM136.682 38V16.7891H144.24C149.177 16.7891 151.594 19.748 151.594 23.6738C151.594 27.585 149.162 30.5586 144.24 30.5586H139.904V38H136.682ZM139.904 27.8047H143.918C147.038 27.8193 148.342 26.0615 148.342 23.6738C148.342 21.2715 147.038 19.5576 143.918 19.543H139.904V27.8047ZM153.25 33.5176C153.235 29.8848 156.326 28.9473 159.197 28.7422C160.252 28.6836 162.639 28.5518 163.372 28.5225L163.357 27.248C163.372 25.4463 162.258 24.4062 160.134 24.4062C158.289 24.4062 157.175 25.2559 156.853 26.4277H153.748C154.026 23.791 156.487 21.8867 160.252 21.8867C162.786 21.8867 166.477 22.8096 166.492 27.4238V38H163.445V35.832H163.328C162.713 37.0186 161.248 38.3516 158.611 38.3516C155.593 38.3516 153.235 36.623 153.25 33.5176ZM156.296 33.5469C156.296 35.0703 157.556 35.8467 159.314 35.8613C161.863 35.8467 163.386 34.1475 163.386 32.2578L163.372 30.8076C162.654 30.8516 160.383 31.0127 159.636 31.0566C157.586 31.2031 156.296 31.9795 156.296 33.5469ZM176.351 44.2988C172.337 44.2988 169.686 42.5264 169.407 39.5527H172.601C172.908 41.0615 174.315 41.7939 176.38 41.7793C178.87 41.7939 180.438 40.71 180.452 38.2344V35.0996H180.247C179.691 36.125 178.548 37.7656 175.618 37.7656C171.868 37.7656 168.968 34.9678 168.968 29.8848C168.968 24.8018 171.824 21.8867 175.648 21.8867C178.607 21.8867 179.691 23.6738 180.277 24.6699H180.482V22.0918H183.529V38.3516C183.543 42.4385 180.452 44.2988 176.351 44.2988ZM172.161 29.9434C172.147 33.0635 173.582 35.1729 176.321 35.1875C178.988 35.1729 180.482 33.2246 180.482 29.9434C180.482 26.7207 179.017 24.5381 176.321 24.5527C173.553 24.5381 172.147 26.8965 172.161 29.9434ZM193.593 38.3223C188.905 38.3223 186.019 35.085 186.034 30.1484C186.019 25.2559 188.949 21.8867 193.387 21.8867C197.006 21.8867 200.448 24.1279 200.448 29.8848V30.998H189.139C189.227 34.0303 191.014 35.7441 193.622 35.7441C195.394 35.7441 196.552 34.9824 197.079 34.0156H200.243C199.54 36.5938 197.094 38.3223 193.593 38.3223ZM189.154 28.6543H197.372C197.372 26.2373 195.804 24.4502 193.417 24.4648C190.912 24.4502 189.286 26.4131 189.154 28.6543Z" fill="#DEDEDE"/>
<path d="M25 44C25 36.8466 30.5964 31.0476 37.5 31.0476C44.4036 31.0476 50 36.8466 50 44H46.875C46.875 38.635 42.6777 34.2857 37.5 34.2857C32.3223 34.2857 28.125 38.635 28.125 44H25ZM37.5 29.4286C32.3203 29.4286 28.125 25.0814 28.125 19.7143C28.125 14.3471 32.3203 10 37.5 10C42.6797 10 46.875 14.3471 46.875 19.7143C46.875 25.0814 42.6797 29.4286 37.5 29.4286ZM37.5 26.1905C40.9531 26.1905 43.75 23.2924 43.75 19.7143C43.75 16.1362 40.9531 13.2381 37.5 13.2381C34.0469 13.2381 31.25 16.1362 31.25 19.7143C31.25 23.2924 34.0469 26.1905 37.5 26.1905Z" fill="#DEDEDE"/>
</svg>
