<svg width="1910" height="1511" viewBox="0 0 1910 1511" fill="none" xmlns="http://www.w3.org/2000/svg">
<rect width="1910" height="1511" fill="white"/>
<path d="M537.419 832.159C538.526 831.723 539.705 831.5 540.895 831.5H983.233C993.725 831.5 996.473 846.003 986.709 849.841L789.581 927.341C788.474 927.777 787.295 928 786.105 928H343.767C333.275 928 330.527 913.497 340.291 909.659L537.419 832.159Z" stroke="#9AC5E5"/>
<path d="M537.419 825.159C538.526 824.723 539.705 824.5 540.895 824.5H983.233C993.725 824.5 996.473 839.003 986.709 842.841L789.581 920.341C788.474 920.777 787.295 921 786.105 921H343.767C333.275 921 330.527 906.497 340.291 902.659L537.419 825.159Z" stroke="#9AC5E5"/>
<g filter="url(#filter0_di_1253_2)">
<ellipse cx="528" cy="897" rx="50" ry="9" fill="#9AC5E5"/>
</g>
<g filter="url(#filter1_i_1253_2)">
<rect x="488" y="784" width="274" height="93" rx="46.5" fill="#ECD9A5"/>
</g>
<path d="M594.65 850.89C594.65 853.01 593.84 854.78 592.22 856.2C590.62 857.6 588.73 858.3 586.55 858.3C584.25 858.3 582.32 857.6 580.76 856.2C579.22 854.78 578.45 853.01 578.45 850.89C578.45 848.77 579.23 847.01 580.79 845.61C582.37 844.19 584.29 843.48 586.55 843.48C588.77 843.48 590.67 844.18 592.25 845.58C593.85 846.98 594.65 848.75 594.65 850.89ZM588.68 850.86C588.68 850.58 588.66 850.02 588.62 849.18C588.58 848.34 588.56 847.84 588.56 847.68C588.56 846.6 588.39 845.71 588.05 845.01C587.73 844.31 587.22 843.96 586.52 843.96C585.88 843.96 585.39 844.33 585.05 845.07C584.71 845.79 584.54 846.66 584.54 847.68C584.54 848.06 584.52 848.53 584.48 849.09C584.46 849.63 584.44 850.22 584.42 850.86C584.42 851.14 584.44 851.72 584.48 852.6C584.52 853.46 584.54 853.96 584.54 854.1C584.54 855.18 584.7 856.07 585.02 856.77C585.36 857.47 585.87 857.82 586.55 857.82C587.21 857.82 587.71 857.46 588.05 856.74C588.39 856.02 588.56 855.14 588.56 854.1C588.56 853.7 588.57 853.23 588.59 852.69C588.61 852.13 588.64 851.52 588.68 850.86ZM623.369 858H614.339V857.52C615.039 857.52 615.449 857.41 615.569 857.19C615.709 856.97 615.779 856.45 615.779 855.63L615.809 854.25V848.19L615.779 846.96C615.779 846.1 615.669 845.48 615.449 845.1C615.249 844.72 614.879 844.53 614.339 844.53C613.979 844.53 613.589 844.7 613.169 845.04C612.769 845.36 612.499 846 612.359 846.96V854.25L612.389 855.63C612.389 856.27 612.419 856.73 612.479 857.01C612.559 857.29 612.949 857.46 613.649 857.52V858H605.129V857.52C605.809 857.52 606.219 857.41 606.359 857.19C606.499 856.97 606.569 856.45 606.569 855.63L606.599 854.25V848.19L606.569 846.96C606.569 846.1 606.459 845.48 606.239 845.1C606.039 844.72 605.669 844.53 605.129 844.53C604.449 844.53 603.979 844.75 603.719 845.19C603.479 845.63 603.289 846.08 603.149 846.54V854.25L603.179 855.63C603.179 856.27 603.209 856.73 603.269 857.01C603.349 857.29 603.739 857.46 604.439 857.52V858H595.469V857.52L596.129 857.49C596.709 857.43 597.059 857.29 597.179 857.07C597.299 856.85 597.359 856.37 597.359 855.63L597.389 854.25V847.08L597.359 845.85C597.319 845.37 597.259 845.01 597.179 844.77C597.099 844.53 596.739 844.38 596.099 844.32L595.409 844.26V843.78H603.029V846.03C603.209 845.47 603.559 844.91 604.079 844.35C604.619 843.77 605.699 843.48 607.319 843.48C608.439 843.48 609.409 843.72 610.229 844.2C611.069 844.66 611.689 845.36 612.089 846.3C612.189 845.94 612.449 845.38 612.869 844.62C613.309 843.86 614.529 843.48 616.529 843.48C617.889 843.48 619.069 843.86 620.069 844.62C621.069 845.38 621.569 846.36 621.569 847.56V854.25L621.599 855.63C621.599 856.39 621.649 856.87 621.749 857.07C621.869 857.27 622.229 857.41 622.829 857.49L623.369 857.52V858ZM631.448 855.93C631.528 856.43 631.748 856.81 632.108 857.07C632.488 857.33 632.908 857.46 633.368 857.46C633.988 857.46 634.448 857.16 634.748 856.56C635.068 855.96 635.268 855.3 635.348 854.58C635.428 853.86 635.478 853.22 635.498 852.66C635.538 852.1 635.558 851.49 635.558 850.83V848.88C635.498 848.3 635.428 847.7 635.348 847.08C635.288 846.44 635.098 845.83 634.778 845.25C634.458 844.65 633.968 844.35 633.308 844.35C632.908 844.35 632.518 844.53 632.138 844.89C631.778 845.23 631.558 845.65 631.478 846.15C631.438 846.63 631.408 847.26 631.388 848.04C631.368 848.8 631.358 849.56 631.358 850.32V853.62C631.358 854.54 631.388 855.31 631.448 855.93ZM623.168 864.93V864.45L624.218 864.39C624.798 864.33 625.168 864.2 625.328 864C625.488 863.82 625.568 863.44 625.568 862.86L625.598 861.63V847.08L625.568 845.85C625.568 845.29 625.478 844.91 625.298 844.71C625.138 844.51 624.768 844.38 624.188 844.32L623.228 844.26V843.78H631.298V845.55C631.518 845.09 631.868 844.63 632.348 844.17C632.848 843.71 633.778 843.48 635.138 843.48C637.058 843.48 638.618 844.15 639.818 845.49C641.018 846.83 641.618 848.65 641.618 850.95C641.618 853.17 641.018 854.95 639.818 856.29C638.618 857.63 637.058 858.3 635.138 858.3C633.738 858.3 632.808 858.11 632.348 857.73C631.888 857.35 631.548 856.95 631.328 856.53L631.358 858.3V861.15L631.418 862.53C631.478 863.21 631.608 863.66 631.808 863.88C632.028 864.12 632.448 864.28 633.068 864.36L634.508 864.45V864.93H623.168ZM658.722 850.89C658.722 853.01 657.912 854.78 656.292 856.2C654.692 857.6 652.802 858.3 650.622 858.3C648.322 858.3 646.392 857.6 644.832 856.2C643.292 854.78 642.522 853.01 642.522 850.89C642.522 848.77 643.302 847.01 644.862 845.61C646.442 844.19 648.362 843.48 650.622 843.48C652.842 843.48 654.742 844.18 656.322 845.58C657.922 846.98 658.722 848.75 658.722 850.89ZM652.752 850.86C652.752 850.58 652.732 850.02 652.692 849.18C652.652 848.34 652.632 847.84 652.632 847.68C652.632 846.6 652.462 845.71 652.122 845.01C651.802 844.31 651.292 843.96 650.592 843.96C649.952 843.96 649.462 844.33 649.122 845.07C648.782 845.79 648.612 846.66 648.612 847.68C648.612 848.06 648.592 848.53 648.552 849.09C648.532 849.63 648.512 850.22 648.492 850.86C648.492 851.14 648.512 851.72 648.552 852.6C648.592 853.46 648.612 853.96 648.612 854.1C648.612 855.18 648.772 856.07 649.092 856.77C649.432 857.47 649.942 857.82 650.622 857.82C651.282 857.82 651.782 857.46 652.122 856.74C652.462 856.02 652.632 855.14 652.632 854.1C652.632 853.7 652.642 853.23 652.662 852.69C652.682 852.13 652.712 851.52 652.752 850.86ZM671.062 848.13L671.032 846.9C671.032 845.34 670.482 844.56 669.382 844.56C668.682 844.56 668.182 844.78 667.882 845.22C667.602 845.66 667.372 846.11 667.192 846.57V854.25L667.222 855.63C667.222 856.45 667.292 856.97 667.432 857.19C667.592 857.41 668.042 857.52 668.782 857.52V858H659.452V857.52L660.172 857.49C660.752 857.43 661.102 857.29 661.222 857.07C661.342 856.85 661.402 856.37 661.402 855.63L661.432 854.25V847.08L661.402 845.85C661.362 845.37 661.302 845.01 661.222 844.77C661.142 844.53 660.782 844.38 660.142 844.32L659.452 844.26V843.78H667.072V846.03C667.292 845.47 667.682 844.91 668.242 844.35C668.822 843.77 669.932 843.48 671.572 843.48C672.992 843.48 674.222 843.88 675.262 844.68C676.302 845.48 676.822 846.42 676.822 847.5V854.25L676.852 855.63C676.852 856.35 676.912 856.83 677.032 857.07C677.152 857.29 677.502 857.43 678.082 857.49L678.742 857.52V858H669.472V857.52C670.192 857.52 670.632 857.41 670.792 857.19C670.952 856.95 671.032 856.43 671.032 855.63L671.062 854.25V848.13ZM688.741 858H679.021V857.52L679.741 857.49C680.321 857.43 680.671 857.29 680.791 857.07C680.911 856.85 680.971 856.37 680.971 855.63L681.001 854.25V847.08L680.971 845.85C680.931 845.37 680.871 845.01 680.791 844.77C680.711 844.53 680.351 844.38 679.711 844.32L678.901 844.26V843.78H686.761V854.25L686.791 855.63C686.791 856.35 686.851 856.83 686.971 857.07C687.091 857.29 687.441 857.43 688.021 857.49L688.741 857.52V858ZM680.941 838.77C680.941 837.99 681.221 837.33 681.781 836.79C682.361 836.23 683.051 835.95 683.851 835.95C684.671 835.95 685.361 836.22 685.921 836.76C686.501 837.28 686.791 837.95 686.791 838.77C686.791 839.57 686.501 840.25 685.921 840.81C685.361 841.35 684.671 841.62 683.851 841.62C683.051 841.62 682.361 841.35 681.781 840.81C681.221 840.25 680.941 839.57 680.941 838.77ZM705.507 843.63L705.447 847.53V861.63L705.477 862.86C705.477 863.4 705.557 863.77 705.717 863.97C705.897 864.19 706.267 864.33 706.827 864.39L707.667 864.45V864.93H696.957V864.45C697.157 864.45 697.387 864.44 697.647 864.42C697.927 864.42 698.247 864.4 698.607 864.36C698.987 864.32 699.257 864.2 699.417 864C699.577 863.82 699.657 863.44 699.657 862.86L699.687 861.63V856.53C699.487 856.93 699.147 857.33 698.667 857.73C698.207 858.11 697.287 858.3 695.907 858.3C694.007 858.3 692.447 857.63 691.227 856.29C690.027 854.93 689.427 853.15 689.427 850.95C689.427 848.69 690.187 846.88 691.707 845.52C693.227 844.16 695.157 843.48 697.497 843.48C698.997 843.48 700.157 843.77 700.977 844.35C701.797 844.91 702.487 845.49 703.047 846.09L705.207 843.63H705.507ZM699.687 850.86V848.19C699.647 847.95 699.627 847.78 699.627 847.68C699.627 846.54 699.467 845.64 699.147 844.98C698.847 844.3 698.327 843.96 697.587 843.96C696.947 843.96 696.457 844.33 696.117 845.07C695.777 845.79 695.607 846.66 695.607 847.68C695.607 848.06 695.587 848.53 695.547 849.09C695.527 849.63 695.507 850.22 695.487 850.86C695.487 851.14 695.507 851.72 695.547 852.6C695.587 853.46 695.607 853.96 695.607 854.1C695.607 855.08 695.777 855.9 696.117 856.56C696.457 857.2 696.967 857.52 697.647 857.52C698.247 857.52 698.697 857.34 698.997 856.98C699.297 856.6 699.467 856.23 699.507 855.87C699.547 855.51 699.587 854.66 699.627 853.32C699.667 851.96 699.687 851.14 699.687 850.86ZM726.876 858H719.016V856.08C718.556 856.8 717.986 857.35 717.306 857.73C716.646 858.11 715.726 858.3 714.546 858.3C713.166 858.3 711.946 857.89 710.886 857.07C709.806 856.27 709.266 855.16 709.266 853.74V847.08L709.236 845.85C709.236 845.31 709.146 844.94 708.966 844.74C708.806 844.52 708.446 844.38 707.886 844.32L707.046 844.26V843.78H715.026V853.59L715.056 854.82C715.056 855.64 715.196 856.26 715.476 856.68C715.776 857.08 716.216 857.28 716.796 857.28C717.436 857.28 717.896 857.1 718.176 856.74C718.476 856.38 718.716 856.01 718.896 855.63V847.53L718.836 846.15C718.836 845.49 718.726 845.04 718.506 844.8C718.286 844.56 717.846 844.4 717.186 844.32L716.256 844.26V843.78H724.656V854.7L724.686 855.93C724.686 856.47 724.766 856.85 724.926 857.07C725.106 857.27 725.476 857.4 726.036 857.46L726.876 857.52V858ZM742.517 853.5C741.957 855 741.057 856.18 739.817 857.04C738.577 857.88 737.117 858.3 735.437 858.3C733.077 858.3 731.137 857.65 729.617 856.35C728.097 855.03 727.337 853.21 727.337 850.89C727.337 848.73 728.117 846.96 729.677 845.58C731.257 844.18 733.147 843.48 735.347 843.48C737.647 843.48 739.407 844.13 740.627 845.43C741.847 846.73 742.457 848.32 742.457 850.2H733.247C733.247 850.92 733.297 851.66 733.397 852.42C733.517 853.16 733.727 853.88 734.027 854.58C734.347 855.28 734.787 855.85 735.347 856.29C735.927 856.71 736.647 856.92 737.507 856.92C738.727 856.92 739.687 856.58 740.387 855.9C741.107 855.2 741.657 854.33 742.037 853.29L742.517 853.5ZM737.237 849.6C737.217 849.38 737.197 849.12 737.177 848.82C737.177 848.52 737.177 848.14 737.177 847.68C737.177 846.46 737.027 845.54 736.727 844.92C736.427 844.28 735.907 843.96 735.167 843.96C734.527 843.96 734.077 844.27 733.817 844.89C733.577 845.49 733.407 846.42 733.307 847.68L733.247 849.6H737.237Z" fill="white"/>
<path d="M516.389 904.87C515.304 901.605 515.418 898.585 516.73 895.81C518.067 893.048 520.282 891.152 523.376 890.124C526.545 889.071 529.461 889.251 532.122 890.664C534.809 892.09 536.698 894.444 537.789 897.728C538.255 899.132 538.422 900.426 538.288 901.608L537.582 905.194C537.771 905.763 538.087 906.08 538.53 906.143C538.992 906.201 539.596 906.147 540.342 905.984L540.531 906.553L531.535 909.542L531.374 909.058C533.412 907.454 534.779 906.336 535.476 905.704C536.178 905.091 536.774 904.251 537.262 903.182C537.75 902.114 537.782 900.944 537.36 899.672C536.811 898.021 535.474 897.106 533.349 896.927C531.225 896.747 528.919 897.071 526.433 897.897C523.757 898.786 521.589 900.033 519.931 901.638C518.297 903.256 517.79 904.994 518.408 906.854C518.982 908.582 520.068 909.759 521.668 910.387C523.267 911.014 525.13 911.165 527.255 910.838L527.33 911.35C524.965 911.841 522.789 911.605 520.804 910.642C518.819 909.679 517.347 907.755 516.389 904.87Z" fill="white"/>
<g filter="url(#filter2_i_1253_2)">
<circle cx="533.5" cy="830.5" r="38.5" fill="white"/>
</g>
<path d="M1094.2 594.011L1094.2 592.111L1103.6 592.117L1103.61 576.117L1076.51 576.1L1076.52 574.2L1104.75 524.017L1122.05 524.028L1122.02 573.728L1131.92 573.734L1131.92 565.034L1133.82 565.035L1133.81 583.535L1131.91 583.534L1131.91 576.134L1122.01 576.128L1122 592.128L1128.9 592.132L1128.9 594.032L1094.2 594.011ZM1079.72 573.702L1103.62 573.717L1103.64 531.617L1079.72 573.702ZM1168.86 595.056C1159.19 595.05 1151.83 591.779 1146.76 585.243C1141.77 578.706 1139.27 569.572 1139.28 557.838C1139.29 546.105 1141.99 537.373 1147.4 531.643C1152.8 525.846 1160.17 522.951 1169.5 522.956C1178.9 522.962 1186.27 525.833 1191.6 531.57C1196.99 537.306 1199.69 546.441 1199.68 558.975C1199.67 571.508 1196.97 580.673 1191.56 586.47C1186.16 592.2 1178.59 595.062 1168.86 595.056ZM1159.78 555.251L1159.78 564.151C1159.77 570.617 1159.8 575.184 1159.87 577.851C1160 580.517 1160.36 583.284 1160.96 586.151C1161.56 589.018 1162.53 590.886 1163.86 591.753C1165.19 592.554 1166.76 592.955 1168.56 592.956C1170.36 592.957 1171.69 592.858 1172.56 592.658C1173.49 592.459 1174.29 592.059 1174.96 591.46C1175.69 590.794 1176.29 590.161 1176.76 589.561C1177.23 588.894 1177.59 587.895 1177.86 586.561C1178.2 585.228 1178.46 583.995 1178.66 582.862C1178.86 581.729 1179 580.062 1179.07 577.862C1179.2 573.596 1179.27 569.296 1179.27 564.962L1179.28 556.162C1179.29 543.096 1178.79 534.662 1177.8 530.861C1176.86 526.994 1174.13 525.059 1169.6 525.056C1165.07 525.054 1162.3 527.019 1161.3 530.951C1160.29 534.884 1159.79 542.984 1159.78 555.251ZM1220.86 594.087L1220.86 592.187L1230.26 592.193L1230.27 576.193L1203.17 576.177L1203.18 574.277L1231.41 524.094L1248.71 524.104L1248.68 573.804L1258.58 573.81L1258.58 565.11L1260.48 565.111L1260.47 583.611L1258.57 583.61L1258.57 576.21L1248.67 576.204L1248.66 592.204L1255.56 592.208L1255.56 594.108L1220.86 594.087ZM1206.38 573.779L1230.28 573.793L1230.3 531.693L1206.38 573.779Z" fill="#9AC5E5"/>
<path d="M387.2 540.65C387.2 527.85 390.65 517 397.55 508.1C404.45 499.2 412.5 494.75 421.7 494.75C431 494.75 438.2 497.75 443.3 503.75C448.5 509.75 451.1 517.7 451.1 527.6C451.1 540.8 447.75 551.8 441.05 560.6C434.45 569.3 426.1 573.65 416 573.65C407.7 573.65 400.8 570.55 395.3 564.35C389.9 558.05 387.2 550.15 387.2 540.65ZM434.3 535.4C434.3 520.9 429.35 513.65 419.45 513.65C409.15 513.65 404 520.45 404 534.05C404 541.15 405.45 546.7 408.35 550.7C411.25 554.7 415.05 556.7 419.75 556.7C424.55 556.7 428.15 554.9 430.55 551.3C433.05 547.6 434.3 542.3 434.3 535.4ZM459.563 540.65C459.563 527.85 463.013 517 469.913 508.1C476.813 499.2 484.863 494.75 494.063 494.75C503.363 494.75 510.563 497.75 515.663 503.75C520.863 509.75 523.463 517.7 523.463 527.6C523.463 540.8 520.113 551.8 513.413 560.6C506.813 569.3 498.463 573.65 488.363 573.65C480.063 573.65 473.163 570.55 467.663 564.35C462.263 558.05 459.563 550.15 459.563 540.65ZM506.663 535.4C506.663 520.9 501.713 513.65 491.813 513.65C481.513 513.65 476.363 520.45 476.363 534.05C476.363 541.15 477.813 546.7 480.713 550.7C483.613 554.7 487.413 556.7 492.113 556.7C496.913 556.7 500.513 554.9 502.913 551.3C505.413 547.6 506.663 542.3 506.663 535.4ZM576.477 496.25C582.877 496.25 588.227 499.05 592.527 504.65C596.927 510.25 599.127 517.8 599.127 527.3C599.127 540.6 595.677 551.4 588.777 559.7C581.977 567.9 573.477 572 563.277 572C561.177 572 558.827 571.85 556.227 571.55L556.977 600.2L536.427 603.95L538.377 535.55H538.527C538.127 522.15 537.027 510.15 535.227 499.55L553.377 495.65C553.977 500.95 554.477 506.2 554.877 511.4C555.077 510.9 556.077 509.55 557.877 507.35C559.777 505.05 562.527 502.65 566.127 500.15C569.727 497.55 573.177 496.25 576.477 496.25ZM570.627 515.75C565.327 515.75 560.177 517.2 555.177 520.1V533L555.777 554.45C561.177 555.35 565.277 555.8 568.077 555.8C577.677 555.8 582.477 549.15 582.477 535.85C582.477 522.45 578.527 515.75 570.627 515.75ZM634.223 558.05C639.423 558.05 642.023 555.75 642.023 551.15C642.023 549.55 640.873 548.05 638.573 546.65C636.373 545.25 633.623 543.85 630.323 542.45C627.123 541.05 623.873 539.5 620.573 537.8C617.373 536 614.623 533.55 612.323 530.45C610.123 527.35 609.023 523.8 609.023 519.8C609.023 513.1 611.973 507.25 617.873 502.25C623.773 497.25 630.573 494.75 638.273 494.75C641.873 494.75 645.373 495.2 648.773 496.1C652.273 496.9 655.623 498.2 658.823 500L648.773 518.3C648.073 517.7 647.173 516.95 646.073 516.05C644.973 515.15 642.873 514 639.773 512.6C636.773 511.1 634.073 510.35 631.673 510.35C629.373 510.35 627.573 510.9 626.273 512C625.073 513 624.473 514.45 624.473 516.35C624.473 518.15 626.173 520 629.573 521.9C633.073 523.7 636.873 525.4 640.973 527C645.073 528.5 648.823 531.05 652.223 534.65C655.723 538.15 657.473 542.35 657.473 547.25C657.473 554.25 654.573 560.4 648.773 565.7C643.073 571 636.473 573.65 628.973 573.65C624.173 573.65 619.673 572.6 615.473 570.5C611.373 568.4 608.423 566.3 606.623 564.2L603.923 561.05L615.773 547.25C616.373 548.05 617.223 549.05 618.323 550.25C619.423 551.45 621.573 553.05 624.773 555.05C628.073 557.05 631.223 558.05 634.223 558.05ZM666.406 561.95C666.406 558.75 667.556 555.95 669.856 553.55C672.256 551.05 675.106 549.8 678.406 549.8C684.906 549.8 688.156 553.1 688.156 559.7C688.156 563.5 686.956 566.65 684.556 569.15C682.256 571.65 679.506 572.9 676.306 572.9C673.206 572.9 670.756 571.9 668.956 569.9C667.256 567.8 666.406 565.15 666.406 561.95ZM697.168 561.95C697.168 558.75 698.318 555.95 700.618 553.55C703.018 551.05 705.868 549.8 709.168 549.8C715.668 549.8 718.918 553.1 718.918 559.7C718.918 563.5 717.718 566.65 715.318 569.15C713.018 571.65 710.268 572.9 707.068 572.9C703.968 572.9 701.518 571.9 699.718 569.9C698.018 567.8 697.168 565.15 697.168 561.95Z" fill="#E8E8E8"/>
<path d="M387.65 669.15C396.15 677.65 404.65 681.9 413.15 681.9C417.55 681.9 421.05 680.9 423.65 678.9C426.35 676.8 427.7 674.15 427.7 670.95C427.7 667.65 426.1 664.9 422.9 662.7C419.7 660.4 415.8 658.4 411.2 656.7C406.7 655 402.2 653.1 397.7 651C393.2 648.8 389.35 645.7 386.15 641.7C382.95 637.7 381.35 632.85 381.35 627.15C381.35 618.15 385.1 610.4 392.6 603.9C400.1 597.3 409 594 419.3 594C424 594 428.55 594.5 432.95 595.5C437.35 596.5 441.6 597.95 445.7 599.85L435.5 621.75C432.7 619.55 428.85 617.55 423.95 615.75C419.15 613.85 414.9 612.9 411.2 612.9C407.6 612.9 404.65 613.8 402.35 615.6C400.15 617.3 399.05 619.6 399.05 622.5C399.05 625.4 400.65 628 403.85 630.3C407.05 632.5 410.9 634.45 415.4 636.15C420 637.85 424.55 639.75 429.05 641.85C433.65 643.85 437.55 646.85 440.75 650.85C443.95 654.85 445.55 659.7 445.55 665.4C445.55 674.8 441.8 683.05 434.3 690.15C426.8 697.15 418.05 700.65 408.05 700.65C400.55 700.65 393.9 698.85 388.1 695.25C383 692.15 379.4 689.4 377.3 687L375.95 685.35L387.65 669.15ZM453.639 667.65C453.639 654.85 457.089 644 463.989 635.1C470.889 626.2 478.939 621.75 488.139 621.75C497.439 621.75 504.639 624.75 509.739 630.75C514.939 636.75 517.539 644.7 517.539 654.6C517.539 667.8 514.189 678.8 507.489 687.6C500.889 696.3 492.539 700.65 482.439 700.65C474.139 700.65 467.239 697.55 461.739 691.35C456.339 685.05 453.639 677.15 453.639 667.65ZM500.739 662.4C500.739 647.9 495.789 640.65 485.889 640.65C475.589 640.65 470.439 647.45 470.439 661.05C470.439 668.15 471.889 673.7 474.789 677.7C477.689 681.7 481.489 683.7 486.189 683.7C490.989 683.7 494.589 681.9 496.989 678.3C499.489 674.6 500.739 669.3 500.739 662.4ZM528.853 626.55L547.003 622.65C547.903 630.35 548.503 637.65 548.803 644.55C557.903 630.45 566.453 623.4 574.453 623.4L572.803 646.8C567.003 646.8 562.403 647.35 559.003 648.45C555.703 649.45 552.303 651.5 548.803 654.6V660L550.453 695.25L530.353 699L532.153 662.55C531.753 649.15 530.653 637.15 528.853 626.55ZM582.32 626.55L600.47 622.65C601.37 630.35 601.97 637.65 602.27 644.55C611.37 630.45 619.92 623.4 627.92 623.4L626.27 646.8C620.47 646.8 615.87 647.35 612.47 648.45C609.17 649.45 605.77 651.5 602.27 654.6V660L603.92 695.25L583.82 699L585.62 662.55C585.22 649.15 584.12 637.15 582.32 626.55ZM639.536 727.95L654.986 693.3L643.886 663L628.736 626.55L648.686 622.8L658.286 654.75L663.236 669.9H665.186L668.786 658.95L679.586 622.65L698.036 624.9L671.486 694.65L658.886 732L639.536 727.95ZM702.963 688.95C702.963 685.75 704.113 682.95 706.413 680.55C708.813 678.05 711.663 676.8 714.963 676.8C721.463 676.8 724.713 680.1 724.713 686.7C724.713 690.5 723.513 693.65 721.113 696.15C718.813 698.65 716.063 699.9 712.863 699.9C709.763 699.9 707.313 698.9 705.513 696.9C703.813 694.8 702.963 692.15 702.963 688.95ZM733.725 688.95C733.725 685.75 734.875 682.95 737.175 680.55C739.575 678.05 742.425 676.8 745.725 676.8C752.225 676.8 755.475 680.1 755.475 686.7C755.475 690.5 754.275 693.65 751.875 696.15C749.575 698.65 746.825 699.9 743.625 699.9C740.525 699.9 738.075 698.9 736.275 696.9C734.575 694.8 733.725 692.15 733.725 688.95Z" fill="#F8F8F8"/>
<path d="M1077.38 772.166V770.789H1092.43V772.166H1085.7V792H1084.14V772.166H1077.38ZM1097.53 781.805V792H1096.07V770.789H1097.53V778.611H1097.68C1098.42 776.956 1100.07 775.887 1102.39 775.887C1105.62 775.887 1107.83 777.981 1107.84 781.57V792H1106.35V781.658C1106.35 778.963 1104.67 777.234 1102.07 777.234C1099.45 777.234 1097.53 779.036 1097.53 781.805ZM1112.41 792V776.092H1113.91V792H1112.41ZM1112 772.195C1112.02 771.595 1112.53 771.097 1113.18 771.082C1113.79 771.097 1114.3 771.595 1114.32 772.195C1114.3 772.811 1113.79 773.309 1113.18 773.309C1112.53 773.309 1112.02 772.811 1112 772.195ZM1127.33 779.842C1126.97 778.201 1125.64 777.19 1123.58 777.176C1121.29 777.161 1119.71 778.45 1119.71 780.193C1119.71 781.585 1120.69 782.566 1122.7 783.064L1125.16 783.68C1127.71 784.295 1129.01 785.73 1129 787.781C1129.01 790.447 1126.81 792.337 1123.28 792.322C1120.1 792.337 1118.07 790.784 1117.66 788.074H1119.21C1119.55 789.993 1120.97 791.004 1123.28 791.004C1125.83 791.004 1127.5 789.773 1127.5 787.869C1127.5 786.463 1126.58 785.452 1124.63 784.998L1122.17 784.383C1119.59 783.768 1118.23 782.317 1118.21 780.252C1118.23 777.674 1120.41 775.843 1123.58 775.857C1126.54 775.872 1128.44 777.498 1128.82 779.842H1127.33ZM1139.72 792V776.092H1141.21V792H1139.72ZM1139.31 772.195C1139.32 771.595 1139.84 771.097 1140.48 771.082C1141.1 771.097 1141.61 771.595 1141.62 772.195C1141.61 772.811 1141.1 773.309 1140.48 773.309C1139.84 773.309 1139.32 772.811 1139.31 772.195ZM1154.63 779.842C1154.28 778.201 1152.95 777.19 1150.88 777.176C1148.6 777.161 1147.01 778.45 1147.01 780.193C1147.01 781.585 1148 782.566 1150 783.064L1152.46 783.68C1155.01 784.295 1156.32 785.73 1156.3 787.781C1156.32 790.447 1154.12 792.337 1150.59 792.322C1147.41 792.337 1145.37 790.784 1144.96 788.074H1146.52C1146.85 789.993 1148.27 791.004 1150.59 791.004C1153.14 791.004 1154.81 789.773 1154.81 787.869C1154.81 786.463 1153.88 785.452 1151.94 784.998L1149.47 784.383C1146.9 783.768 1145.53 782.317 1145.52 780.252C1145.53 777.674 1147.72 775.843 1150.88 775.857C1153.84 775.872 1155.74 777.498 1156.12 779.842H1154.63ZM1168.46 781.805V792H1166.99V776.092H1168.43V778.611H1168.58C1169.31 776.956 1170.99 775.887 1173.26 775.887C1176.49 775.887 1178.68 777.996 1178.68 781.57V792H1177.22V781.658C1177.2 778.978 1175.52 777.234 1172.94 777.234C1170.35 777.234 1168.46 779.036 1168.46 781.805ZM1189.26 792.322C1185.26 792.337 1182.39 788.895 1182.38 784.09C1182.39 779.285 1185.26 775.857 1189.26 775.857C1193.26 775.857 1196.13 779.3 1196.14 784.09C1196.13 788.895 1193.26 792.337 1189.26 792.322ZM1183.87 784.09C1183.85 787.928 1185.95 790.975 1189.26 790.975C1192.57 790.975 1194.65 787.928 1194.65 784.09C1194.65 780.296 1192.56 777.205 1189.26 777.205C1185.96 777.205 1183.85 780.296 1183.87 784.09ZM1205.67 776.092V777.381H1202.33V788.104C1202.34 790.052 1203.57 790.828 1204.93 790.828C1205.24 790.828 1205.77 790.813 1206.08 790.799V792.176C1205.78 792.22 1205.42 792.249 1204.82 792.264C1202.79 792.249 1200.86 790.887 1200.86 788.396V777.381H1198.52V776.092H1200.86V772.283H1202.33V776.092H1205.67ZM1216.59 797.977V776.092H1218.03V779.49H1218.21C1218.92 777.615 1220.46 775.857 1223.24 775.857C1227.11 775.857 1229.66 779.241 1229.66 784.09C1229.66 788.924 1227.1 792.337 1223.27 792.322C1220.5 792.337 1218.91 790.579 1218.21 788.689H1218.06V797.977H1216.59ZM1218.06 784.061C1218.04 788.045 1219.93 790.975 1223.1 790.975C1226.31 790.975 1228.18 787.972 1228.17 784.061C1228.18 780.179 1226.33 777.22 1223.1 777.205C1219.9 777.22 1218.04 780.091 1218.06 784.061ZM1232.53 787.605C1232.53 784.793 1234.57 783.182 1238.27 782.889C1239.42 782.801 1242.05 782.61 1242.81 782.566V780.867C1242.8 778.611 1241.26 777.19 1238.68 777.176C1236.52 777.19 1234.89 778.187 1234.49 779.842H1232.97C1233.32 777.41 1235.68 775.857 1238.74 775.857C1241.44 775.857 1244.28 777.278 1244.28 780.984V792H1242.81V789.246H1242.7C1241.92 790.916 1240.19 792.352 1237.63 792.352C1234.85 792.352 1232.53 790.638 1232.53 787.605ZM1234 787.664C1234.01 789.744 1235.64 791.004 1237.8 791.004C1240.76 791.004 1242.8 788.689 1242.81 785.643V783.841C1242.01 783.885 1239.42 784.09 1238.57 784.148C1235.27 784.397 1234.01 785.745 1234 787.664ZM1254.74 798.299C1251.54 798.299 1249.01 796.966 1248.56 794.344H1250.11C1250.55 796.102 1252.39 796.966 1254.74 796.98C1257.79 796.966 1259.62 795.472 1259.6 792.322V788.484H1259.48C1258.77 790.359 1257.1 791.897 1254.42 791.883C1250.64 791.897 1248.01 788.792 1248 783.973C1248.01 779.168 1250.56 775.857 1254.45 775.857C1257.23 775.857 1258.75 777.615 1259.48 779.49H1259.63V776.092H1261.07V792.381C1261.08 796.38 1258.49 798.299 1254.74 798.299ZM1249.49 784.002C1249.49 787.884 1251.37 790.535 1254.56 790.535C1257.71 790.535 1259.63 788.06 1259.63 784.002C1259.63 780.091 1257.77 777.22 1254.56 777.205C1251.34 777.22 1249.49 780.179 1249.49 784.002ZM1271.96 792.322C1267.61 792.337 1264.83 788.895 1264.82 784.119C1264.83 779.344 1267.67 775.857 1271.67 775.857C1275.23 775.857 1278.35 778.685 1278.35 783.592V784.412H1266.31C1266.35 788.25 1268.49 790.975 1271.96 790.975C1274.46 790.975 1275.83 789.539 1276.39 788.514H1277.97C1277.3 790.491 1275.14 792.337 1271.96 792.322ZM1266.33 783.094H1276.86C1276.84 779.783 1274.65 777.205 1271.67 777.205C1268.71 777.205 1266.5 779.812 1266.33 783.094ZM1289.89 797.977C1289.6 797.962 1289.29 797.962 1289.1 797.947L1289.13 796.6C1289.26 796.6 1289.57 796.614 1289.81 796.629C1290.86 796.614 1292.03 796.395 1292.88 794.08L1293.56 792.205L1287.73 776.092H1289.31L1294.23 790.096H1294.38L1299.3 776.092H1300.88L1294.17 794.637C1293.37 796.849 1291.99 797.962 1289.89 797.977ZM1309.58 792.322C1305.58 792.337 1302.71 788.895 1302.7 784.09C1302.71 779.285 1305.58 775.857 1309.58 775.857C1313.58 775.857 1316.45 779.3 1316.47 784.09C1316.45 788.895 1313.58 792.337 1309.58 792.322ZM1304.19 784.09C1304.18 787.928 1306.27 790.975 1309.58 790.975C1312.89 790.975 1314.97 787.928 1314.97 784.09C1314.97 780.296 1312.88 777.205 1309.58 777.205C1306.29 777.205 1304.18 780.296 1304.19 784.09ZM1330.32 786.199V776.092H1331.79V792H1330.32V789.393H1330.21C1329.46 791.033 1327.75 792.205 1325.46 792.205C1322.36 792.205 1320.16 790.081 1320.16 786.521V776.092H1321.62V786.434C1321.62 789.041 1323.35 790.77 1325.81 790.77C1328.2 790.77 1330.32 789.07 1330.32 786.199ZM1338.73 770.789L1336.71 777.996H1335.45L1337.12 770.789H1338.73ZM1341.37 792V776.092H1342.8V778.582H1342.92C1343.6 776.941 1345.35 775.857 1347.4 775.857C1347.67 775.857 1347.95 775.872 1348.17 775.887V777.381C1347.99 777.352 1347.7 777.293 1347.32 777.293C1344.72 777.293 1342.83 779.109 1342.83 781.6V792H1341.37ZM1356.69 792.322C1352.34 792.337 1349.56 788.895 1349.54 784.119C1349.56 779.344 1352.4 775.857 1356.4 775.857C1359.96 775.857 1363.08 778.685 1363.08 783.592V784.412H1351.04C1351.08 788.25 1353.22 790.975 1356.69 790.975C1359.18 790.975 1360.56 789.539 1361.12 788.514H1362.7C1362.02 790.491 1359.87 792.337 1356.69 792.322ZM1351.05 783.094H1361.58C1361.57 779.783 1359.37 777.205 1356.4 777.205C1353.44 777.205 1351.23 779.812 1351.05 783.094ZM1375.21 770.789V792H1373.74V770.789H1375.21ZM1385.78 792.322C1381.78 792.337 1378.91 788.895 1378.9 784.09C1378.91 779.285 1381.78 775.857 1385.78 775.857C1389.78 775.857 1392.65 779.3 1392.67 784.09C1392.65 788.895 1389.78 792.337 1385.78 792.322ZM1380.39 784.09C1380.38 787.928 1382.47 790.975 1385.78 790.975C1389.09 790.975 1391.17 787.928 1391.17 784.09C1391.17 780.296 1389.08 777.205 1385.78 777.205C1382.49 777.205 1380.38 780.296 1380.39 784.09ZM1402.37 792.322C1398.37 792.337 1395.5 788.895 1395.48 784.09C1395.5 779.285 1398.37 775.857 1402.37 775.857C1406.36 775.857 1409.24 779.3 1409.25 784.09C1409.24 788.895 1406.36 792.337 1402.37 792.322ZM1396.97 784.09C1396.96 787.928 1399.05 790.975 1402.37 790.975C1405.68 790.975 1407.76 787.928 1407.76 784.09C1407.76 780.296 1405.66 777.205 1402.37 777.205C1399.07 777.205 1396.96 780.296 1396.97 784.09ZM1412.94 792V770.789H1414.41V783.826H1414.58L1422.35 776.092H1424.25L1417.39 782.918L1424.6 792H1422.73L1416.33 783.885L1414.41 785.73V792H1412.94ZM1427.38 792V776.092H1428.88V792H1427.38ZM1426.97 772.195C1426.99 771.595 1427.5 771.097 1428.15 771.082C1428.76 771.097 1429.27 771.595 1429.29 772.195C1429.27 772.811 1428.76 773.309 1428.15 773.309C1427.5 773.309 1426.99 772.811 1426.97 772.195ZM1434.94 781.805V792H1433.48V776.092H1434.91V778.611H1435.06C1435.79 776.956 1437.48 775.887 1439.75 775.887C1442.97 775.887 1445.17 777.996 1445.17 781.57V792H1443.7V781.658C1443.69 778.978 1442 777.234 1439.43 777.234C1436.83 777.234 1434.94 779.036 1434.94 781.805ZM1455.6 798.299C1452.4 798.299 1449.87 796.966 1449.42 794.344H1450.97C1451.41 796.102 1453.25 796.966 1455.6 796.98C1458.64 796.966 1460.48 795.472 1460.46 792.322V788.484H1460.34C1459.63 790.359 1457.96 791.897 1455.28 791.883C1451.5 791.897 1448.87 788.792 1448.86 783.973C1448.87 779.168 1451.42 775.857 1455.3 775.857C1458.09 775.857 1459.61 777.615 1460.34 779.49H1460.49V776.092H1461.93V792.381C1461.94 796.38 1459.35 798.299 1455.6 798.299ZM1450.35 784.002C1450.35 787.884 1452.23 790.535 1455.42 790.535C1458.57 790.535 1460.49 788.06 1460.49 784.002C1460.49 780.091 1458.63 777.22 1455.42 777.205C1452.2 777.22 1450.35 780.179 1450.35 784.002ZM1479.71 776.092V777.381H1476.25L1476.22 792H1474.76V777.381H1472.41V776.092H1474.76V773.689C1474.76 771.287 1476.16 769.808 1478.57 769.822C1479.04 769.808 1479.61 769.866 1479.97 769.939V771.316C1479.59 771.229 1479.15 771.199 1478.8 771.199C1477.09 771.199 1476.24 772.151 1476.25 773.924V776.092H1479.71ZM1488.35 792.322C1484.35 792.337 1481.48 788.895 1481.47 784.09C1481.48 779.285 1484.35 775.857 1488.35 775.857C1492.35 775.857 1495.22 779.3 1495.24 784.09C1495.22 788.895 1492.35 792.337 1488.35 792.322ZM1482.96 784.09C1482.95 787.928 1485.04 790.975 1488.35 790.975C1491.66 790.975 1493.74 787.928 1493.74 784.09C1493.74 780.296 1491.65 777.205 1488.35 777.205C1485.06 777.205 1482.95 780.296 1482.96 784.09ZM1498.93 792V776.092H1500.36V778.582H1500.48C1501.15 776.941 1502.91 775.857 1504.96 775.857C1505.23 775.857 1505.5 775.872 1505.72 775.887V777.381C1505.55 777.352 1505.26 777.293 1504.88 777.293C1502.28 777.293 1500.39 779.109 1500.39 781.6V792H1498.93ZM1507.92 792.146C1507.25 792.146 1506.68 791.59 1506.69 790.887C1506.68 790.213 1507.25 789.656 1507.92 789.656C1508.62 789.656 1509.18 790.213 1509.18 790.887C1509.18 791.59 1508.62 792.146 1507.92 792.146Z" fill="black"/>
<path d="M1093.46 813.439C1092.92 810.568 1090.37 807.946 1086.72 807.932C1082.59 807.946 1079.16 811.286 1079.16 817.395C1079.16 823.532 1082.59 826.843 1086.72 826.828C1090.37 826.843 1092.9 824.235 1093.46 821.35H1095.01C1094.4 824.938 1091.41 828.293 1086.72 828.293C1081.39 828.293 1077.67 823.986 1077.67 817.395C1077.67 810.803 1081.39 806.496 1086.72 806.496C1091.4 806.496 1094.38 809.807 1095.01 813.439H1093.46ZM1104.89 828.322C1100.89 828.337 1098.02 824.895 1098 820.09C1098.02 815.285 1100.89 811.857 1104.89 811.857C1108.89 811.857 1111.76 815.3 1111.77 820.09C1111.76 824.895 1108.89 828.337 1104.89 828.322ZM1099.5 820.09C1099.48 823.928 1101.58 826.975 1104.89 826.975C1108.2 826.975 1110.28 823.928 1110.28 820.09C1110.28 816.296 1108.18 813.205 1104.89 813.205C1101.59 813.205 1099.48 816.296 1099.5 820.09ZM1115.46 828V812.092H1116.9V814.523H1117.04C1117.65 812.897 1119.21 811.887 1121.29 811.887C1123.56 811.887 1124.98 813.044 1125.63 814.904H1125.75C1126.38 813.073 1128.06 811.887 1130.4 811.887C1133.45 811.887 1135.17 813.908 1135.18 817.336V828H1133.69V817.336C1133.7 814.743 1132.38 813.234 1130.02 813.234C1127.47 813.234 1126.05 815.007 1126.07 817.453V828H1124.57V817.248C1124.57 814.86 1123.33 813.234 1120.94 813.234C1118.52 813.234 1116.93 815.065 1116.93 817.658V828H1115.46ZM1145.99 828.322C1141.64 828.337 1138.86 824.895 1138.84 820.119C1138.86 815.344 1141.7 811.857 1145.7 811.857C1149.26 811.857 1152.38 814.685 1152.38 819.592V820.412H1140.34C1140.38 824.25 1142.52 826.975 1145.99 826.975C1148.48 826.975 1149.86 825.539 1150.41 824.514H1152C1151.32 826.491 1149.17 828.337 1145.99 828.322ZM1140.35 819.094H1150.88C1150.87 815.783 1148.67 813.205 1145.7 813.205C1142.74 813.205 1140.53 815.812 1140.35 819.094ZM1163.45 828V806.789H1164.95V815.49H1165.06C1165.78 813.615 1167.33 811.857 1170.1 811.857C1173.95 811.857 1176.53 815.256 1176.52 820.09C1176.53 824.938 1173.97 828.337 1170.13 828.322C1167.35 828.337 1165.79 826.564 1165.06 824.689H1164.89V828H1163.45ZM1164.92 820.061C1164.92 824.045 1166.79 826.975 1169.96 826.975C1173.19 826.975 1175.04 823.972 1175.05 820.061C1175.04 816.179 1173.19 813.22 1169.96 813.205C1166.79 813.22 1164.92 816.091 1164.92 820.061ZM1179.42 823.605C1179.42 820.793 1181.45 819.182 1185.16 818.889C1186.3 818.801 1188.94 818.61 1189.7 818.566V816.867C1189.69 814.611 1188.15 813.19 1185.57 813.176C1183.4 813.19 1181.78 814.187 1181.38 815.842H1179.86C1180.21 813.41 1182.57 811.857 1185.63 811.857C1188.32 811.857 1191.17 813.278 1191.17 816.984V828H1189.7V825.246H1189.58C1188.81 826.916 1187.08 828.352 1184.52 828.352C1181.73 828.352 1179.42 826.638 1179.42 823.605ZM1180.88 823.664C1180.9 825.744 1182.52 827.004 1184.69 827.004C1187.65 827.004 1189.69 824.689 1189.7 821.643V819.841C1188.9 819.885 1186.3 820.09 1185.45 820.148C1182.16 820.397 1180.9 821.745 1180.88 823.664ZM1201.83 828.322C1197.68 828.337 1194.9 824.836 1194.89 820.09C1194.9 815.358 1197.73 811.857 1201.8 811.857C1204.88 811.857 1207.31 813.85 1207.75 816.809H1206.25C1205.87 814.758 1204.16 813.205 1201.83 813.205C1198.65 813.205 1196.37 816.047 1196.38 820.061C1196.37 824.06 1198.56 826.975 1201.83 826.975C1204.07 826.975 1205.87 825.568 1206.28 823.342H1207.78C1207.35 826.271 1205.01 828.337 1201.83 828.322ZM1211.41 828V806.789H1212.88V819.826H1213.05L1220.81 812.092H1222.72L1215.86 818.918L1223.07 828H1221.2L1214.79 819.885L1212.88 821.73V828H1211.41ZM1227.08 828.146C1226.41 828.146 1225.84 827.59 1225.85 826.887C1225.84 826.213 1226.41 825.656 1227.08 825.656C1227.79 825.656 1228.34 826.213 1228.34 826.887C1228.34 827.59 1227.79 828.146 1227.08 828.146ZM1234.2 828.146C1233.53 828.146 1232.96 827.59 1232.97 826.887C1232.96 826.213 1233.53 825.656 1234.2 825.656C1234.91 825.656 1235.46 826.213 1235.46 826.887C1235.46 827.59 1234.91 828.146 1234.2 828.146ZM1240.62 820.969C1240.65 818.171 1241.56 817.028 1243.64 815.637C1245.37 814.479 1246.14 813.366 1246.16 811.799C1246.14 809.455 1244.31 807.829 1241.97 807.844C1239.64 807.829 1237.75 809.455 1237.66 812.092H1236.14C1236.2 808.752 1238.7 806.496 1241.97 806.496C1245.28 806.496 1247.64 808.752 1247.65 811.857C1247.64 813.85 1246.71 815.227 1244.63 816.633C1242.73 817.922 1242.14 818.903 1242.11 820.969V821.848H1240.62V820.969ZM1240.18 826.887C1240.17 826.213 1240.74 825.656 1241.41 825.656C1242.11 825.656 1242.67 826.213 1242.67 826.887C1242.67 827.59 1242.11 828.146 1241.41 828.146C1240.74 828.146 1240.17 827.59 1240.18 826.887Z" fill="black"/>
<path d="M1081.45 661V618.578H1094.75C1103.13 618.578 1107.93 624.057 1107.93 631.469C1107.93 638.822 1103.13 644.33 1094.81 644.301H1084.49V661H1081.45ZM1084.49 641.547H1094.69C1101.22 641.547 1104.91 637.299 1104.88 631.469C1104.91 625.58 1101.22 621.361 1094.69 621.332H1084.49V641.547ZM1113.97 652.211C1113.97 646.586 1118.04 643.363 1125.45 642.777C1127.74 642.602 1133.01 642.221 1134.53 642.133V638.734C1134.5 634.223 1131.43 631.381 1126.27 631.352C1121.94 631.381 1118.68 633.373 1117.89 636.684H1114.85C1115.55 631.82 1120.27 628.715 1126.39 628.715C1131.78 628.715 1137.46 631.557 1137.46 638.969V661H1134.53V655.492H1134.3C1132.75 658.832 1129.29 661.703 1124.16 661.703C1118.6 661.703 1113.97 658.275 1113.97 652.211ZM1116.9 652.328C1116.93 656.488 1120.18 659.008 1124.51 659.008C1130.43 659.008 1134.5 654.379 1134.53 648.285V644.682C1132.92 644.77 1127.74 645.18 1126.04 645.297C1119.45 645.795 1116.93 648.49 1116.9 652.328ZM1158.38 673.598C1151.99 673.598 1146.93 670.932 1146.02 665.688H1149.12C1150 669.203 1153.69 670.932 1158.38 670.961C1164.47 670.932 1168.14 667.943 1168.11 661.645V653.969H1167.87C1166.44 657.719 1163.1 660.795 1157.74 660.766C1150.18 660.795 1144.93 654.584 1144.9 644.945C1144.93 635.336 1150.03 628.715 1157.79 628.715C1163.36 628.715 1166.41 632.23 1167.87 635.98H1168.17V629.184H1171.04V661.762C1171.07 669.76 1165.88 673.598 1158.38 673.598ZM1147.89 645.004C1147.89 652.768 1151.64 658.07 1158.03 658.07C1164.33 658.07 1168.17 653.119 1168.17 645.004C1168.17 637.182 1164.45 631.439 1158.03 631.41C1151.58 631.439 1147.89 637.357 1147.89 645.004ZM1192.83 661.645C1184.13 661.674 1178.57 654.789 1178.54 645.238C1178.57 635.688 1184.25 628.715 1192.25 628.715C1199.37 628.715 1205.61 634.369 1205.61 644.184V645.824H1181.53C1181.61 653.5 1185.89 658.949 1192.83 658.949C1197.81 658.949 1200.57 656.078 1201.68 654.027H1204.85C1203.5 657.982 1199.19 661.674 1192.83 661.645ZM1181.55 643.188H1202.62C1202.59 636.566 1198.2 631.41 1192.25 631.41C1186.33 631.41 1181.91 636.625 1181.55 643.188ZM1229.87 640.609V661H1226.94V629.184H1229.81V634.223H1230.1C1231.56 630.912 1234.93 628.773 1239.47 628.773C1245.92 628.773 1250.31 632.992 1250.31 640.141V661H1247.38V640.316C1247.36 634.955 1243.99 631.469 1238.83 631.469C1233.64 631.469 1229.87 635.072 1229.87 640.609ZM1271.47 661.645C1263.47 661.674 1257.73 654.789 1257.7 645.18C1257.73 635.57 1263.47 628.715 1271.47 628.715C1279.46 628.715 1285.21 635.6 1285.24 645.18C1285.21 654.789 1279.46 661.674 1271.47 661.645ZM1260.69 645.18C1260.66 652.855 1264.85 658.949 1271.47 658.949C1278.09 658.949 1282.25 652.855 1282.25 645.18C1282.25 637.592 1278.06 631.41 1271.47 631.41C1264.88 631.41 1260.66 637.592 1260.69 645.18ZM1304.28 629.184V631.762H1297.6V653.207C1297.63 657.104 1300.09 658.656 1302.81 658.656C1303.43 658.656 1304.48 658.627 1305.1 658.598V661.352C1304.51 661.439 1303.78 661.498 1302.58 661.527C1298.54 661.498 1294.67 658.773 1294.67 653.793V631.762H1289.98V629.184H1294.67V621.566H1297.6V629.184H1304.28ZM1326.96 661V618.578H1350.98V621.332H1330V638.383H1348.99V641.137H1330V661H1326.96ZM1368.85 661.645C1360.85 661.674 1355.11 654.789 1355.08 645.18C1355.11 635.57 1360.85 628.715 1368.85 628.715C1376.85 628.715 1382.59 635.6 1382.62 645.18C1382.59 654.789 1376.85 661.674 1368.85 661.645ZM1358.07 645.18C1358.04 652.855 1362.23 658.949 1368.85 658.949C1375.47 658.949 1379.63 652.855 1379.63 645.18C1379.63 637.592 1375.44 631.41 1368.85 631.41C1362.26 631.41 1358.04 637.592 1358.07 645.18ZM1410.33 649.398V629.184H1413.26V661H1410.33V655.785H1410.1C1408.61 659.066 1405.18 661.41 1400.61 661.41C1394.4 661.41 1390 657.162 1390 650.043V629.184H1392.93V649.867C1392.93 655.082 1396.39 658.539 1401.31 658.539C1406.09 658.539 1410.33 655.141 1410.33 649.398ZM1425.33 640.609V661H1422.4V629.184H1425.28V634.223H1425.57C1427.03 630.912 1430.4 628.773 1434.94 628.773C1441.39 628.773 1445.78 632.992 1445.78 640.141V661H1442.85V640.316C1442.82 634.955 1439.46 631.469 1434.3 631.469C1429.11 631.469 1425.33 635.072 1425.33 640.609ZM1466 661.645C1458.29 661.674 1453.2 654.877 1453.17 645.18C1453.2 635.512 1458.32 628.715 1466.06 628.715C1471.56 628.715 1474.7 632.23 1476.13 635.98H1476.37V618.578H1479.3V661H1476.43V654.379H1476.13C1474.64 658.129 1471.54 661.674 1466 661.645ZM1456.15 645.121C1456.15 652.943 1459.88 658.949 1466.29 658.949C1472.65 658.949 1476.43 653.09 1476.43 645.121C1476.43 637.182 1472.68 631.439 1466.29 631.41C1459.85 631.439 1456.15 637.357 1456.15 645.121Z" fill="#838383"/>
<circle cx="1083.56" cy="703.5" r="2.5" fill="#CDCDCD"/>
<circle cx="1083.56" cy="713.5" r="2.5" fill="#D8D8D8"/>
<circle cx="1083.56" cy="723.5" r="2.5" fill="#E3E3E3"/>
<circle cx="1083.56" cy="733.5" r="2.5" fill="#EFEFEF"/>
<path d="M915.5 928.5C915.5 929.84 914.707 931.23 913.008 932.651C911.313 934.068 908.784 935.458 905.479 936.795C898.873 939.467 889.285 941.884 877.4 943.917C853.639 947.983 820.793 950.5 784.5 950.5C748.207 950.5 715.361 947.983 691.6 943.917C679.715 941.884 670.127 939.467 663.521 936.795C660.216 935.458 657.687 934.068 655.992 932.651C654.293 931.23 653.5 929.84 653.5 928.5C653.5 927.16 654.293 925.77 655.992 924.349C657.687 922.932 660.216 921.542 663.521 920.205C670.127 917.533 679.715 915.116 691.6 913.083C715.361 909.017 748.207 906.5 784.5 906.5C820.793 906.5 853.639 909.017 877.4 913.083C889.285 915.116 898.873 917.533 905.479 920.205C908.784 921.542 911.313 922.932 913.008 924.349C914.707 925.77 915.5 927.16 915.5 928.5Z" stroke="#ECD9A5"/>
<defs>
<filter id="filter0_di_1253_2" x="474" y="888" width="108" height="26" filterUnits="userSpaceOnUse" color-interpolation-filters="sRGB">
<feFlood flood-opacity="0" result="BackgroundImageFix"/>
<feColorMatrix in="SourceAlpha" type="matrix" values="0 0 0 0 0 0 0 0 0 0 0 0 0 0 0 0 0 0 127 0" result="hardAlpha"/>
<feOffset dy="4"/>
<feGaussianBlur stdDeviation="2"/>
<feComposite in2="hardAlpha" operator="out"/>
<feColorMatrix type="matrix" values="0 0 0 0 0 0 0 0 0 0 0 0 0 0 0 0 0 0 0.25 0"/>
<feBlend mode="normal" in2="BackgroundImageFix" result="effect1_dropShadow_1253_2"/>
<feBlend mode="normal" in="SourceGraphic" in2="effect1_dropShadow_1253_2" result="shape"/>
<feColorMatrix in="SourceAlpha" type="matrix" values="0 0 0 0 0 0 0 0 0 0 0 0 0 0 0 0 0 0 127 0" result="hardAlpha"/>
<feOffset dx="-2" dy="-2"/>
<feComposite in2="hardAlpha" operator="arithmetic" k2="-1" k3="1"/>
<feColorMatrix type="matrix" values="0 0 0 0 0 0 0 0 0 0 0 0 0 0 0 0 0 0 0.1 0"/>
<feBlend mode="normal" in2="shape" result="effect2_innerShadow_1253_2"/>
</filter>
<filter id="filter1_i_1253_2" x="488" y="784" width="279" height="98" filterUnits="userSpaceOnUse" color-interpolation-filters="sRGB">
<feFlood flood-opacity="0" result="BackgroundImageFix"/>
<feBlend mode="normal" in="SourceGraphic" in2="BackgroundImageFix" result="shape"/>
<feColorMatrix in="SourceAlpha" type="matrix" values="0 0 0 0 0 0 0 0 0 0 0 0 0 0 0 0 0 0 127 0" result="hardAlpha"/>
<feOffset dx="5" dy="5"/>
<feGaussianBlur stdDeviation="2.5"/>
<feComposite in2="hardAlpha" operator="arithmetic" k2="-1" k3="1"/>
<feColorMatrix type="matrix" values="0 0 0 0 0 0 0 0 0 0 0 0 0 0 0 0 0 0 0.25 0"/>
<feBlend mode="normal" in2="shape" result="effect1_innerShadow_1253_2"/>
</filter>
<filter id="filter2_i_1253_2" x="495" y="792" width="79" height="79" filterUnits="userSpaceOnUse" color-interpolation-filters="sRGB">
<feFlood flood-opacity="0" result="BackgroundImageFix"/>
<feBlend mode="normal" in="SourceGraphic" in2="BackgroundImageFix" result="shape"/>
<feColorMatrix in="SourceAlpha" type="matrix" values="0 0 0 0 0 0 0 0 0 0 0 0 0 0 0 0 0 0 127 0" result="hardAlpha"/>
<feOffset dx="2" dy="2"/>
<feGaussianBlur stdDeviation="1"/>
<feComposite in2="hardAlpha" operator="arithmetic" k2="-1" k3="1"/>
<feColorMatrix type="matrix" values="0 0 0 0 0 0 0 0 0 0 0 0 0 0 0 0 0 0 0.1 0"/>
<feBlend mode="normal" in2="shape" result="effect1_innerShadow_1253_2"/>
</filter>
</defs>
</svg>
