<svg width="343" height="251" viewBox="0 0 343 251" fill="none" xmlns="http://www.w3.org/2000/svg">
<g filter="url(#filter0_d_751_587)">
<rect x="15" y="10" width="313" height="221" rx="18" fill="#333742"/>
</g>
<path d="M48.5605 116H47.3154L51.6816 103.98H52.96L57.3262 116H56.0811L54.8193 112.431H49.8223L48.5605 116ZM50.2041 111.385H54.4541L52.3623 105.508H52.2793L50.2041 111.385ZM64.5811 112.514V106.985H65.71V116H64.5811V114.506H64.498C64.083 115.419 63.1533 116.116 61.8252 116.116C60.0986 116.116 58.8535 114.954 58.8535 112.812V106.985H59.999V112.729C59.999 114.107 60.8789 115.021 62.1572 115.021C63.3359 115.021 64.5811 114.157 64.5811 112.514ZM71.7695 106.985V107.948H69.877V113.593C69.877 114.738 70.5078 115.054 71.1885 115.054C71.4209 115.054 71.7529 115.021 71.9355 115.021V116.083C71.7529 116.1 71.4707 116.133 71.0889 116.133C69.9102 116.133 68.7314 115.369 68.7314 113.875V107.948H67.3867V106.985H68.7314V104.827H69.877V106.985H71.7695ZM77.248 116.183C74.8906 116.183 73.2471 114.29 73.2471 111.534C73.2471 108.762 74.8906 106.853 77.248 106.853C79.6055 106.853 81.2324 108.762 81.2324 111.534C81.2324 114.29 79.6055 116.183 77.248 116.183ZM77.248 115.17C79.0908 115.17 80.1035 113.51 80.1035 111.534C80.1035 109.559 79.0908 107.882 77.248 107.882C75.3887 107.882 74.376 109.559 74.376 111.534C74.376 113.51 75.3887 115.17 77.248 115.17ZM91.708 107.749C91.376 106.105 89.9482 104.927 88.1221 104.927C85.8643 104.927 84.0547 106.703 84.0547 109.99C84.0547 113.277 85.8643 115.054 88.1221 115.054C89.9482 115.054 91.376 113.875 91.708 112.231H92.9033C92.5049 114.473 90.6621 116.166 88.1221 116.166C85.0674 116.166 82.8926 113.759 82.8926 109.99C82.8926 106.222 85.0674 103.814 88.1221 103.814C90.6621 103.814 92.4883 105.475 92.9033 107.749H91.708ZM98.4814 116.183C96.124 116.183 94.4805 114.29 94.4805 111.534C94.4805 108.762 96.124 106.853 98.4814 106.853C100.839 106.853 102.466 108.762 102.466 111.534C102.466 114.29 100.839 116.183 98.4814 116.183ZM98.4814 115.17C100.324 115.17 101.337 113.51 101.337 111.534C101.337 109.559 100.324 107.882 98.4814 107.882C96.6221 107.882 95.6094 109.559 95.6094 111.534C95.6094 113.51 96.6221 115.17 98.4814 115.17ZM104.441 116V106.985H105.537V108.38H105.637C106.002 107.434 106.882 106.869 108.061 106.869C109.289 106.869 110.103 107.483 110.501 108.496H110.567C110.982 107.5 111.929 106.869 113.24 106.869C114.917 106.869 115.979 107.932 115.979 109.957V116H114.834V109.974C114.834 108.579 114.054 107.898 112.892 107.898C111.547 107.898 110.783 108.812 110.783 110.09V116H109.638V109.874C109.638 108.695 108.924 107.898 107.729 107.898C106.5 107.898 105.587 108.861 105.587 110.256V116H104.441ZM118.403 119.387V106.985H119.499V108.662H119.632C119.997 107.898 120.711 106.853 122.371 106.853C124.596 106.853 126.106 108.712 126.106 111.518C126.106 114.323 124.596 116.183 122.388 116.183C120.744 116.183 119.997 115.153 119.632 114.373H119.549V119.387H118.403ZM119.532 111.501C119.532 113.643 120.512 115.17 122.238 115.17C123.998 115.17 124.978 113.56 124.978 111.501C124.978 109.459 124.015 107.882 122.238 107.882C120.495 107.882 119.532 109.376 119.532 111.501ZM129.228 103.98V116H128.082V103.98H129.228ZM135.337 116.183C132.797 116.183 131.203 114.29 131.203 111.551C131.203 108.812 132.83 106.853 135.171 106.853C137.13 106.853 139.022 108.247 139.022 111.302V111.833H132.332C132.382 113.867 133.536 115.17 135.337 115.17C136.582 115.17 137.312 114.522 137.628 113.958H138.84C138.441 115.203 137.163 116.183 135.337 116.183ZM132.349 110.854H137.86C137.86 109.16 136.765 107.882 135.188 107.882C133.552 107.882 132.44 109.227 132.349 110.854ZM144.617 106.985V107.948H142.725V113.593C142.725 114.738 143.355 115.054 144.036 115.054C144.269 115.054 144.601 115.021 144.783 115.021V116.083C144.601 116.1 144.318 116.133 143.937 116.133C142.758 116.133 141.579 115.369 141.579 113.875V107.948H140.234V106.985H141.579V104.827H142.725V106.985H144.617ZM150.229 116.183C147.688 116.183 146.095 114.29 146.095 111.551C146.095 108.812 147.722 106.853 150.062 106.853C152.021 106.853 153.914 108.247 153.914 111.302V111.833H147.224C147.273 113.867 148.427 115.17 150.229 115.17C151.474 115.17 152.204 114.522 152.52 113.958H153.731C153.333 115.203 152.055 116.183 150.229 116.183ZM147.24 110.854H152.752C152.752 109.16 151.656 107.882 150.079 107.882C148.444 107.882 147.332 109.227 147.24 110.854Z" fill="#6A6868"/>
<rect x="32.25" y="95.25" width="278.5" height="29.5" rx="6.75" stroke="#DFDFDF" stroke-width="0.5"/>
<path d="M40.1875 215H38.3516L43.5273 200.859H45.3828L50.5586 215H48.7031L47.2969 211.016H41.6133L40.1875 215ZM42.1406 209.473H46.75L44.5039 203.145H44.3867L42.1406 209.473ZM58.957 210.645V204.395H60.6172V215H58.957V213.203H58.8398C58.332 214.277 57.2969 215.137 55.6953 215.137C53.6836 215.137 52.2578 213.828 52.2578 211.133V204.395H53.9375V211.016C53.9375 212.539 54.8945 213.516 56.2422 213.516C57.4336 213.516 58.957 212.617 58.957 210.645ZM67.9414 204.395V205.801H65.7148V211.953C65.7148 213.32 66.3789 213.535 67.1016 213.535C67.4141 213.535 67.8438 213.516 68.0977 213.496V215.059C67.8438 215.098 67.4141 215.137 66.9258 215.137C65.5195 215.137 64.0156 214.258 64.0156 212.383V205.801H62.4141V204.395H64.0156V201.855H65.7148V204.395H67.9414ZM74.3281 215.215C71.4375 215.215 69.4844 213.047 69.4844 209.746C69.4844 206.445 71.4375 204.258 74.3281 204.258C77.1992 204.258 79.1328 206.445 79.1328 209.746C79.1328 213.047 77.1992 215.215 74.3281 215.215ZM74.3281 213.73C76.457 213.73 77.4531 211.855 77.4531 209.746C77.4531 207.637 76.457 205.742 74.3281 205.742C72.1602 205.742 71.1641 207.637 71.1641 209.746C71.1641 211.855 72.1602 213.73 74.3281 213.73ZM91.2031 205.312C90.793 203.359 89.1133 202.305 87.2578 202.305C84.6992 202.305 82.707 204.277 82.707 207.93C82.707 211.582 84.6992 213.555 87.2578 213.555C89.1133 213.555 90.7734 212.5 91.2031 210.566H92.9609C92.4531 213.457 90.1289 215.195 87.2578 215.195C83.625 215.195 81.0078 212.402 81.0078 207.93C81.0078 203.457 83.625 200.664 87.2578 200.664C90.1094 200.664 92.4336 202.383 92.9609 205.312H91.2031ZM99.543 215.215C96.6523 215.215 94.6992 213.047 94.6992 209.746C94.6992 206.445 96.6523 204.258 99.543 204.258C102.414 204.258 104.348 206.445 104.348 209.746C104.348 213.047 102.414 215.215 99.543 215.215ZM99.543 213.73C101.672 213.73 102.668 211.855 102.668 209.746C102.668 207.637 101.672 205.742 99.543 205.742C97.375 205.742 96.3789 207.637 96.3789 209.746C96.3789 211.855 97.375 213.73 99.543 213.73ZM106.555 215V204.395H108.176V206.055H108.312C108.762 204.922 109.777 204.258 111.164 204.258C112.551 204.258 113.488 204.922 113.996 206.055H114.113C114.66 204.961 115.773 204.258 117.297 204.258C119.191 204.258 120.539 205.41 120.539 207.91V215H118.859V207.93C118.859 206.367 117.863 205.762 116.711 205.762C115.227 205.762 114.387 206.758 114.387 208.105V215H112.688V207.754C112.688 206.562 111.828 205.762 110.617 205.762C109.348 205.762 108.234 206.836 108.234 208.379V215H106.555ZM123.234 218.984V204.395H124.855V206.074H125.051C125.402 205.508 126.066 204.258 128.117 204.258C130.773 204.258 132.629 206.367 132.629 209.727C132.629 213.086 130.773 215.215 128.137 215.215C126.105 215.215 125.402 213.965 125.051 213.379H124.914V218.984H123.234ZM124.875 209.688C124.875 212.07 125.949 213.711 127.902 213.711C129.914 213.711 130.949 211.953 130.949 209.688C130.949 207.48 129.934 205.762 127.902 205.762C125.91 205.762 124.875 207.344 124.875 209.688ZM136.496 200.859V215H134.816V200.859H136.496ZM143.625 215.215C140.559 215.215 138.664 213.047 138.664 209.785C138.664 206.523 140.578 204.258 143.469 204.258C145.695 204.258 148.039 205.625 148.039 209.551V210.254H140.344C140.422 212.5 141.73 213.73 143.625 213.73C144.895 213.73 145.695 213.184 146.086 212.52H147.883C147.375 214.121 145.812 215.215 143.625 215.215ZM140.363 208.828H146.34C146.34 207.051 145.207 205.742 143.469 205.742C141.633 205.742 140.461 207.188 140.363 208.828ZM154.855 204.395V205.801H152.629V211.953C152.629 213.32 153.293 213.535 154.016 213.535C154.328 213.535 154.758 213.516 155.012 213.496V215.059C154.758 215.098 154.328 215.137 153.84 215.137C152.434 215.137 150.93 214.258 150.93 212.383V205.801H149.328V204.395H150.93V201.855H152.629V204.395H154.855ZM161.359 215.215C158.293 215.215 156.398 213.047 156.398 209.785C156.398 206.523 158.312 204.258 161.203 204.258C163.43 204.258 165.773 205.625 165.773 209.551V210.254H158.078C158.156 212.5 159.465 213.73 161.359 213.73C162.629 213.73 163.43 213.184 163.82 212.52H165.617C165.109 214.121 163.547 215.215 161.359 215.215ZM158.098 208.828H164.074C164.074 207.051 162.941 205.742 161.203 205.742C159.367 205.742 158.195 207.188 158.098 208.828Z" fill="#DFDFDF"/>
<path d="M27 189H317.5" stroke="#DFDFDF" stroke-width="0.5"/>
<defs>
<filter id="filter0_d_751_587" x="0" y="0" width="343" height="251" filterUnits="userSpaceOnUse" color-interpolation-filters="sRGB">
<feFlood flood-opacity="0" result="BackgroundImageFix"/>
<feColorMatrix in="SourceAlpha" type="matrix" values="0 0 0 0 0 0 0 0 0 0 0 0 0 0 0 0 0 0 127 0" result="hardAlpha"/>
<feOffset dy="5"/>
<feGaussianBlur stdDeviation="7.5"/>
<feComposite in2="hardAlpha" operator="out"/>
<feColorMatrix type="matrix" values="0 0 0 0 0 0 0 0 0 0 0 0 0 0 0 0 0 0 0.25 0"/>
<feBlend mode="normal" in2="BackgroundImageFix" result="effect1_dropShadow_751_587"/>
<feBlend mode="normal" in="SourceGraphic" in2="effect1_dropShadow_751_587" result="shape"/>
</filter>
</defs>
</svg>
