<svg width="343" height="251" viewBox="0 0 343 251" fill="none" xmlns="http://www.w3.org/2000/svg">
<g filter="url(#filter0_d_487_1004)">
<rect x="15" y="10" width="313" height="221" rx="18" fill="white"/>
</g>
<path d="M48.5605 116H47.3154L51.6816 103.98H52.96L57.3262 116H56.0811L54.8193 112.431H49.8223L48.5605 116ZM50.1958 111.385H54.4458L52.3623 105.508H52.2793L50.1958 111.385ZM64.5811 112.514V106.985H65.71V116H64.5811V114.506H64.498C64.083 115.419 63.1533 116.116 61.8252 116.116C60.0903 116.116 58.8535 114.962 58.8535 112.812V106.985H59.999V112.729C59.9907 114.116 60.8872 115.029 62.1572 115.021C63.3442 115.029 64.5894 114.157 64.5811 112.514ZM71.7695 106.985V107.948H69.877V113.593C69.8687 114.73 70.5078 115.045 71.1885 115.054L71.9355 115.021V116.083C71.7529 116.1 71.4707 116.133 71.0889 116.133C69.9185 116.133 68.7314 115.369 68.7314 113.875V107.948H67.3867V106.985H68.7314V104.827H69.877V106.985H71.7695ZM77.248 116.183C74.8823 116.191 73.2388 114.29 73.2471 111.534C73.2388 108.762 74.8823 106.861 77.248 106.853C79.6055 106.861 81.2407 108.762 81.2324 111.534C81.2407 114.29 79.6055 116.191 77.248 116.183ZM74.376 111.534C74.376 113.51 75.3887 115.17 77.248 115.17C79.0908 115.17 80.1035 113.51 80.1035 111.534C80.1035 109.55 79.0908 107.874 77.248 107.882C75.397 107.874 74.376 109.559 74.376 111.534ZM91.708 107.749C91.376 106.114 89.9482 104.927 88.1221 104.927C85.8643 104.927 84.0464 106.711 84.0547 109.99C84.0464 113.277 85.8643 115.054 88.1221 115.054C89.9482 115.054 91.3677 113.875 91.708 112.231H92.9033C92.5049 114.473 90.6704 116.166 88.1221 116.166C85.0674 116.166 82.8926 113.759 82.8926 109.99C82.8926 106.222 85.0674 103.814 88.1221 103.814C90.6621 103.814 92.4966 105.483 92.9033 107.749H91.708ZM98.4814 116.183C96.1157 116.191 94.4722 114.29 94.4805 111.534C94.4722 108.762 96.1157 106.861 98.4814 106.853C100.839 106.861 102.474 108.762 102.466 111.534C102.474 114.29 100.839 116.191 98.4814 116.183ZM95.6094 111.534C95.6094 113.51 96.6221 115.17 98.4814 115.17C100.324 115.17 101.337 113.51 101.337 111.534C101.337 109.55 100.324 107.874 98.4814 107.882C96.6304 107.874 95.6094 109.559 95.6094 111.534ZM104.441 116V106.985H105.537V108.38H105.637C106.002 107.434 106.882 106.869 108.061 106.869C109.297 106.869 110.094 107.475 110.501 108.496H110.567C110.982 107.5 111.937 106.869 113.24 106.869C114.909 106.869 115.979 107.932 115.979 109.957V116H114.834V109.974C114.842 108.571 114.054 107.89 112.892 107.898C111.539 107.89 110.783 108.82 110.783 110.09V116H109.638V109.874C109.638 108.687 108.924 107.89 107.729 107.898C106.508 107.89 105.579 108.87 105.587 110.256V116H104.441ZM118.403 119.387V106.985H119.499V108.662H119.632C119.997 107.89 120.703 106.861 122.371 106.853C124.596 106.861 126.106 108.712 126.106 111.518C126.106 114.323 124.596 116.191 122.388 116.183C120.744 116.191 119.989 115.153 119.632 114.373H119.549V119.387H118.403ZM119.532 111.501C119.524 113.634 120.512 115.162 122.238 115.17C124.006 115.162 124.969 113.56 124.978 111.501C124.969 109.451 124.023 107.882 122.238 107.882C120.487 107.882 119.524 109.368 119.532 111.501ZM129.228 103.98V116H128.082V103.98H129.228ZM135.337 116.183C132.789 116.191 131.195 114.29 131.203 111.551C131.195 108.812 132.822 106.861 135.171 106.853C137.13 106.861 139.014 108.239 139.022 111.302V111.833H132.332C132.382 113.875 133.544 115.17 135.337 115.17C136.574 115.17 137.304 114.531 137.628 113.958H138.84C138.433 115.203 137.155 116.191 135.337 116.183ZM132.34 110.854H137.86C137.86 109.168 136.765 107.874 135.188 107.882C133.561 107.874 132.44 109.235 132.34 110.854ZM144.617 106.985V107.948H142.725V113.593C142.716 114.73 143.355 115.045 144.036 115.054L144.783 115.021V116.083C144.601 116.1 144.318 116.133 143.937 116.133C142.766 116.133 141.579 115.369 141.579 113.875V107.948H140.234V106.985H141.579V104.827H142.725V106.985H144.617ZM150.229 116.183C147.68 116.191 146.086 114.29 146.095 111.551C146.086 108.812 147.713 106.861 150.062 106.853C152.021 106.861 153.906 108.239 153.914 111.302V111.833H147.224C147.273 113.875 148.436 115.17 150.229 115.17C151.465 115.17 152.196 114.531 152.52 113.958H153.731C153.325 115.203 152.046 116.191 150.229 116.183ZM147.232 110.854H152.752C152.752 109.168 151.656 107.874 150.079 107.882C148.452 107.874 147.332 109.235 147.232 110.854Z" fill="#BABABA"/>
<rect x="32.25" y="95.25" width="278.5" height="29.5" rx="6.75" stroke="black" stroke-width="0.5"/>
<path d="M40.1875 215H38.3516L43.5273 200.859H45.3828L50.5586 215H48.7031L47.2871 211.016H41.6035L40.1875 215ZM42.1406 209.473H46.75L44.5039 203.145H44.3867L42.1406 209.473ZM58.957 210.645V204.395H60.6172V215H58.957V213.203H58.8398C58.3418 214.277 57.2871 215.137 55.6953 215.137C53.6836 215.137 52.248 213.828 52.2578 211.133V204.395H53.9375V211.016C53.9375 212.539 54.8848 213.525 56.2422 213.516C57.4434 213.525 58.9473 212.627 58.957 210.645ZM67.9414 204.395V205.801H65.7148V211.953C65.7051 213.311 66.3887 213.535 67.1016 213.535C67.4043 213.535 67.8535 213.506 68.0977 213.496V215.059C67.834 215.098 67.4238 215.137 66.9258 215.137C65.5098 215.137 64.0254 214.258 64.0156 212.383V205.801H62.4141V204.395H64.0156V201.855H65.7148V204.395H67.9414ZM74.3281 215.215C71.4375 215.225 69.4844 213.037 69.4844 209.746C69.4844 206.436 71.4375 204.258 74.3281 204.258C77.209 204.258 79.1426 206.436 79.1328 209.746C79.1426 213.037 77.209 215.225 74.3281 215.215ZM71.1641 209.746C71.1738 211.865 72.1699 213.73 74.3281 213.73C76.4668 213.73 77.4531 211.865 77.4531 209.746C77.4531 207.637 76.4668 205.742 74.3281 205.742C72.1699 205.742 71.1738 207.637 71.1641 209.746ZM91.2031 205.312C90.793 203.359 89.123 202.305 87.2578 202.305C84.6992 202.305 82.7168 204.277 82.707 207.93C82.7168 211.572 84.6992 213.545 87.2578 213.555C89.123 213.545 90.7832 212.5 91.2031 210.566H92.9609C92.4531 213.457 90.1289 215.195 87.2578 215.195C83.625 215.195 80.998 212.402 81.0078 207.93C80.998 203.457 83.625 200.664 87.2578 200.664C90.1191 200.664 92.4336 202.373 92.9609 205.312H91.2031ZM99.543 215.215C96.6523 215.225 94.6992 213.037 94.6992 209.746C94.6992 206.436 96.6523 204.258 99.543 204.258C102.424 204.258 104.357 206.436 104.348 209.746C104.357 213.037 102.424 215.225 99.543 215.215ZM96.3789 209.746C96.3887 211.865 97.3848 213.73 99.543 213.73C101.682 213.73 102.668 211.865 102.668 209.746C102.668 207.637 101.682 205.742 99.543 205.742C97.3848 205.742 96.3887 207.637 96.3789 209.746ZM106.555 215V204.395H108.176V206.055H108.312C108.752 204.922 109.777 204.258 111.164 204.258C112.551 204.258 113.498 204.922 113.996 206.055H114.113C114.65 204.961 115.773 204.258 117.297 204.258C119.182 204.258 120.539 205.41 120.539 207.91V215H118.859V207.93C118.85 206.367 117.873 205.762 116.711 205.762C115.236 205.762 114.396 206.758 114.387 208.105V215H112.688V207.754C112.697 206.562 111.838 205.762 110.617 205.762C109.348 205.762 108.234 206.836 108.234 208.379V215H106.555ZM123.234 218.984V204.395H124.855V206.074H125.051C125.412 205.508 126.057 204.258 128.117 204.258C130.783 204.258 132.629 206.367 132.629 209.727C132.629 213.096 130.783 215.225 128.137 215.215C126.115 215.225 125.412 213.965 125.051 213.379H124.914V218.984H123.234ZM124.875 209.688C124.885 212.07 125.949 213.711 127.902 213.711C129.914 213.711 130.949 211.943 130.949 209.688C130.949 207.471 129.943 205.762 127.902 205.762C125.92 205.762 124.885 207.334 124.875 209.688ZM136.496 200.859V215H134.816V200.859H136.496ZM143.625 215.215C140.559 215.225 138.664 213.037 138.664 209.785C138.664 206.523 140.588 204.258 143.469 204.258C145.695 204.258 148.049 205.625 148.039 209.551V210.254H140.344C140.432 212.5 141.74 213.73 143.625 213.73C144.895 213.73 145.695 213.174 146.086 212.52H147.883C147.385 214.131 145.812 215.225 143.625 215.215ZM140.354 208.828H146.34C146.33 207.061 145.217 205.742 143.469 205.742C141.633 205.742 140.471 207.188 140.354 208.828ZM154.855 204.395V205.801H152.629V211.953C152.619 213.311 153.303 213.535 154.016 213.535C154.318 213.535 154.768 213.506 155.012 213.496V215.059C154.748 215.098 154.338 215.137 153.84 215.137C152.424 215.137 150.939 214.258 150.93 212.383V205.801H149.328V204.395H150.93V201.855H152.629V204.395H154.855ZM161.359 215.215C158.293 215.225 156.398 213.037 156.398 209.785C156.398 206.523 158.322 204.258 161.203 204.258C163.43 204.258 165.783 205.625 165.773 209.551V210.254H158.078C158.166 212.5 159.475 213.73 161.359 213.73C162.629 213.73 163.43 213.174 163.82 212.52H165.617C165.119 214.131 163.547 215.225 161.359 215.215ZM158.088 208.828H164.074C164.064 207.061 162.951 205.742 161.203 205.742C159.367 205.742 158.205 207.188 158.088 208.828Z" fill="#474747"/>
<path d="M27 189H317.5" stroke="#494949" stroke-width="0.5"/>
<defs>
<filter id="filter0_d_487_1004" x="0" y="0" width="343" height="251" filterUnits="userSpaceOnUse" color-interpolation-filters="sRGB">
<feFlood flood-opacity="0" result="BackgroundImageFix"/>
<feColorMatrix in="SourceAlpha" type="matrix" values="0 0 0 0 0 0 0 0 0 0 0 0 0 0 0 0 0 0 127 0" result="hardAlpha"/>
<feOffset dy="5"/>
<feGaussianBlur stdDeviation="7.5"/>
<feComposite in2="hardAlpha" operator="out"/>
<feColorMatrix type="matrix" values="0 0 0 0 0 0 0 0 0 0 0 0 0 0 0 0 0 0 0.25 0"/>
<feBlend mode="normal" in2="BackgroundImageFix" result="effect1_dropShadow_487_1004"/>
<feBlend mode="normal" in="SourceGraphic" in2="effect1_dropShadow_487_1004" result="shape"/>
</filter>
</defs>
</svg>
