<svg width="343" height="251" viewBox="0 0 343 251" fill="none" xmlns="http://www.w3.org/2000/svg">
<g filter="url(#filter0_d_1378_2)">
<rect x="15" y="10" width="313" height="221" rx="18" fill="white"/>
</g>
<path d="M38.5625 215V200.859H43.5234C46.4922 200.859 47.8887 202.529 47.8789 204.609C47.8887 206.426 46.8047 207.236 45.5742 207.578V207.715C46.8926 207.793 48.4355 209.004 48.4453 211.25C48.4355 213.369 47.0391 215 43.6992 215H38.5625ZM40.3203 213.438H43.6797C45.8965 213.438 46.7559 212.461 46.7461 211.23C46.7559 209.795 45.5938 208.574 43.7773 208.574H40.3203V213.438ZM40.3203 207.051H43.4648C44.998 207.061 46.1992 206.104 46.1992 204.629C46.1992 203.398 45.3691 202.422 43.5234 202.422H40.3203V207.051ZM50.7305 215V204.395H52.3516V206.016H52.4688C52.8496 204.941 53.9531 204.229 55.2031 204.219C55.457 204.229 55.8867 204.238 56.082 204.258V205.957C55.9551 205.928 55.5059 205.84 55.0664 205.84C53.543 205.84 52.4102 206.895 52.4102 208.32V215H50.7305ZM61.8242 215.215C58.7578 215.225 56.8633 213.037 56.8633 209.785C56.8633 206.523 58.7871 204.258 61.668 204.258C63.8945 204.258 66.248 205.625 66.2383 209.551V210.254H58.543C58.6309 212.5 59.9395 213.73 61.8242 213.73C63.0938 213.73 63.8945 213.174 64.2852 212.52H66.082C65.584 214.131 64.0117 215.225 61.8242 215.215ZM58.5527 208.828H64.5391C64.5293 207.061 63.416 205.742 61.668 205.742C59.832 205.742 58.6699 207.188 58.5527 208.828ZM67.918 211.992C67.918 209.561 70.0664 209.004 71.9023 208.867C72.5859 208.818 74.2949 208.721 74.7734 208.711V207.852C74.7734 206.504 73.9727 205.723 72.3711 205.723C71.0332 205.723 70.2227 206.338 69.9883 207.148H68.2305C68.4453 205.439 70.1055 204.258 72.4492 204.258C73.8359 204.258 76.4434 204.668 76.4336 208.008V215H74.7734V213.555H74.6953C74.3438 214.268 73.377 215.244 71.5312 215.254C69.5195 215.244 67.918 214.062 67.918 211.992ZM69.5977 212.07C69.6074 213.193 70.5352 213.76 71.8242 213.75C73.7188 213.76 74.7734 212.49 74.7734 211.152V210.088C74.2754 210.117 72.6055 210.244 72.0977 210.273C70.5742 210.371 69.6074 210.908 69.5977 212.07ZM83.1328 215.215C80.4863 215.225 78.6211 213.096 78.6211 209.727C78.6211 206.367 80.4863 204.258 83.1523 204.258C85.2129 204.258 85.8574 205.508 86.2188 206.074H86.3359V200.859H88.0352V215H86.3945V213.379H86.2188C85.8477 213.965 85.1543 215.225 83.1328 215.215ZM80.3203 209.688C80.3203 211.943 81.3555 213.711 83.3672 213.711C85.3105 213.711 86.3848 212.07 86.3945 209.688C86.3848 207.334 85.3398 205.762 83.3672 205.762C81.3262 205.762 80.3203 207.471 80.3203 209.688ZM95.2812 215.215C92.2734 215.225 90.4375 212.93 90.4375 209.746C90.4375 206.523 92.3613 204.258 95.2422 204.258C97.498 204.258 99.1973 205.596 99.4609 207.598H97.7812C97.5371 206.631 96.6973 205.742 95.2812 205.742C93.3867 205.742 92.127 207.305 92.1172 209.688C92.127 212.139 93.3574 213.711 95.2812 213.711C96.5312 213.711 97.4883 213.037 97.7812 211.875H99.4609C99.1973 213.77 97.6348 215.225 95.2812 215.215ZM101.531 215V204.395H103.152V206.016H103.27C103.65 204.941 104.754 204.229 106.004 204.219C106.258 204.229 106.688 204.238 106.883 204.258V205.957C106.756 205.928 106.307 205.84 105.867 205.84C104.344 205.84 103.211 206.895 103.211 208.32V215H101.531ZM115.223 210.645V204.395H116.883V215H115.223V213.203H115.105C114.607 214.277 113.553 215.137 111.961 215.137C109.949 215.137 108.514 213.828 108.523 211.133V204.395H110.203V211.016C110.203 212.539 111.15 213.525 112.508 213.516C113.709 213.525 115.213 212.627 115.223 210.645ZM119.578 215V204.395H121.199V206.055H121.336C121.775 204.922 122.801 204.258 124.188 204.258C125.574 204.258 126.521 204.922 127.02 206.055H127.137C127.674 204.961 128.797 204.258 130.32 204.258C132.205 204.258 133.562 205.41 133.562 207.91V215H131.883V207.93C131.873 206.367 130.896 205.762 129.734 205.762C128.26 205.762 127.42 206.758 127.41 208.105V215H125.711V207.754C125.721 206.562 124.861 205.762 123.641 205.762C122.371 205.762 121.258 206.836 121.258 208.379V215H119.578ZM136.473 215V200.859H138.152V206.074H138.289C138.65 205.508 139.285 204.258 141.355 204.258C144.012 204.258 145.877 206.367 145.887 209.727C145.877 213.096 144.012 215.225 141.375 215.215C139.344 215.225 138.65 213.965 138.289 213.379H138.094V215H136.473ZM138.113 209.688C138.113 212.07 139.188 213.711 141.121 213.711C143.143 213.711 144.178 211.943 144.188 209.688C144.178 207.471 143.172 205.762 141.121 205.762C139.168 205.762 138.113 207.334 138.113 209.688Z" fill="#474747"/>
<path d="M28.5 189H319" stroke="#494949" stroke-width="0.5"/>
<g filter="url(#filter1_d_1378_2)">
<rect x="39" y="93" width="265" height="32" rx="16" fill="white"/>
</g>
<rect x="162" y="104" width="59" height="10" rx="5" fill="#D9D9D9"/>
<rect x="87" y="101" width="65" height="16" rx="8" fill="#C2E2FA"/>
<rect x="90" y="104" width="59" height="10" rx="5" fill="#9AC5E5"/>
<rect x="234" y="104" width="59" height="10" rx="5" fill="#D9D9D9"/>
<path d="M85.5 101L79 117.5" stroke="#E5E5E5" stroke-linecap="round"/>
<path d="M159.5 102L153 118.5" stroke="#E5E5E5" stroke-linecap="round"/>
<path d="M231.5 101.5L225 118" stroke="#E5E5E5" stroke-linecap="round"/>
<path d="M71.6909 105.123L63.441 98.1662C63.3128 98.0582 63.1585 98 63 98C62.8415 98 62.6872 98.0582 62.559 98.1662L54.3091 105.123C54.1482 105.258 54.0403 105.462 54.0092 105.69C53.9938 105.803 53.9977 105.918 54.0208 106.029C54.0438 106.14 54.0854 106.245 54.1433 106.337C54.2012 106.43 54.2743 106.508 54.3583 106.568C54.4423 106.627 54.5356 106.667 54.6329 106.685C54.8294 106.721 55.0302 106.665 55.1911 106.53L56.2501 105.637V116.261C56.2513 116.722 56.4097 117.163 56.6907 117.489C56.9718 117.815 57.3526 117.999 57.75 118H60.75V110.174C60.75 109.943 60.829 109.722 60.9697 109.559C61.1103 109.396 61.3011 109.304 61.5 109.304H64.5C64.6989 109.304 64.8897 109.396 65.0303 109.559C65.171 109.722 65.25 109.943 65.25 110.174V118H68.25C68.6474 117.999 69.0282 117.815 69.3093 117.489C69.5903 117.163 69.7487 116.722 69.7499 116.261V105.637L70.8089 106.53C70.8886 106.597 70.9789 106.645 71.0747 106.672C71.1705 106.698 71.2698 106.703 71.3671 106.685C71.4644 106.667 71.5577 106.627 71.6417 106.568C71.7257 106.508 71.7988 106.43 71.8567 106.337C71.9146 106.245 71.9562 106.14 71.9792 106.029C72.0023 105.918 72.0062 105.803 71.9908 105.69C71.9754 105.577 71.941 105.469 71.8895 105.372C71.8381 105.275 71.7706 105.19 71.6909 105.123Z" fill="#D9D9D9"/>
<g filter="url(#filter2_d_1378_2)">
<rect x="15" y="10" width="313" height="221" rx="18" fill="white"/>
</g>
<path d="M38.5625 215V200.859H43.5234C46.4922 200.859 47.8887 202.529 47.8789 204.609C47.8887 206.426 46.8047 207.236 45.5742 207.578V207.715C46.8926 207.793 48.4355 209.004 48.4453 211.25C48.4355 213.369 47.0391 215 43.6992 215H38.5625ZM40.3203 213.438H43.6797C45.8965 213.438 46.7559 212.461 46.7461 211.23C46.7559 209.795 45.5938 208.574 43.7773 208.574H40.3203V213.438ZM40.3203 207.051H43.4648C44.998 207.061 46.1992 206.104 46.1992 204.629C46.1992 203.398 45.3691 202.422 43.5234 202.422H40.3203V207.051ZM50.7305 215V204.395H52.3516V206.016H52.4688C52.8496 204.941 53.9531 204.229 55.2031 204.219C55.457 204.229 55.8867 204.238 56.082 204.258V205.957C55.9551 205.928 55.5059 205.84 55.0664 205.84C53.543 205.84 52.4102 206.895 52.4102 208.32V215H50.7305ZM61.8242 215.215C58.7578 215.225 56.8633 213.037 56.8633 209.785C56.8633 206.523 58.7871 204.258 61.668 204.258C63.8945 204.258 66.248 205.625 66.2383 209.551V210.254H58.543C58.6309 212.5 59.9395 213.73 61.8242 213.73C63.0938 213.73 63.8945 213.174 64.2852 212.52H66.082C65.584 214.131 64.0117 215.225 61.8242 215.215ZM58.5527 208.828H64.5391C64.5293 207.061 63.416 205.742 61.668 205.742C59.832 205.742 58.6699 207.188 58.5527 208.828ZM67.918 211.992C67.918 209.561 70.0664 209.004 71.9023 208.867C72.5859 208.818 74.2949 208.721 74.7734 208.711V207.852C74.7734 206.504 73.9727 205.723 72.3711 205.723C71.0332 205.723 70.2227 206.338 69.9883 207.148H68.2305C68.4453 205.439 70.1055 204.258 72.4492 204.258C73.8359 204.258 76.4434 204.668 76.4336 208.008V215H74.7734V213.555H74.6953C74.3438 214.268 73.377 215.244 71.5312 215.254C69.5195 215.244 67.918 214.062 67.918 211.992ZM69.5977 212.07C69.6074 213.193 70.5352 213.76 71.8242 213.75C73.7188 213.76 74.7734 212.49 74.7734 211.152V210.088C74.2754 210.117 72.6055 210.244 72.0977 210.273C70.5742 210.371 69.6074 210.908 69.5977 212.07ZM83.1328 215.215C80.4863 215.225 78.6211 213.096 78.6211 209.727C78.6211 206.367 80.4863 204.258 83.1523 204.258C85.2129 204.258 85.8574 205.508 86.2188 206.074H86.3359V200.859H88.0352V215H86.3945V213.379H86.2188C85.8477 213.965 85.1543 215.225 83.1328 215.215ZM80.3203 209.688C80.3203 211.943 81.3555 213.711 83.3672 213.711C85.3105 213.711 86.3848 212.07 86.3945 209.688C86.3848 207.334 85.3398 205.762 83.3672 205.762C81.3262 205.762 80.3203 207.471 80.3203 209.688ZM95.2812 215.215C92.2734 215.225 90.4375 212.93 90.4375 209.746C90.4375 206.523 92.3613 204.258 95.2422 204.258C97.498 204.258 99.1973 205.596 99.4609 207.598H97.7812C97.5371 206.631 96.6973 205.742 95.2812 205.742C93.3867 205.742 92.127 207.305 92.1172 209.688C92.127 212.139 93.3574 213.711 95.2812 213.711C96.5312 213.711 97.4883 213.037 97.7812 211.875H99.4609C99.1973 213.77 97.6348 215.225 95.2812 215.215ZM101.531 215V204.395H103.152V206.016H103.27C103.65 204.941 104.754 204.229 106.004 204.219C106.258 204.229 106.688 204.238 106.883 204.258V205.957C106.756 205.928 106.307 205.84 105.867 205.84C104.344 205.84 103.211 206.895 103.211 208.32V215H101.531ZM115.223 210.645V204.395H116.883V215H115.223V213.203H115.105C114.607 214.277 113.553 215.137 111.961 215.137C109.949 215.137 108.514 213.828 108.523 211.133V204.395H110.203V211.016C110.203 212.539 111.15 213.525 112.508 213.516C113.709 213.525 115.213 212.627 115.223 210.645ZM119.578 215V204.395H121.199V206.055H121.336C121.775 204.922 122.801 204.258 124.188 204.258C125.574 204.258 126.521 204.922 127.02 206.055H127.137C127.674 204.961 128.797 204.258 130.32 204.258C132.205 204.258 133.562 205.41 133.562 207.91V215H131.883V207.93C131.873 206.367 130.896 205.762 129.734 205.762C128.26 205.762 127.42 206.758 127.41 208.105V215H125.711V207.754C125.721 206.562 124.861 205.762 123.641 205.762C122.371 205.762 121.258 206.836 121.258 208.379V215H119.578ZM136.473 215V200.859H138.152V206.074H138.289C138.65 205.508 139.285 204.258 141.355 204.258C144.012 204.258 145.877 206.367 145.887 209.727C145.877 213.096 144.012 215.225 141.375 215.215C139.344 215.225 138.65 213.965 138.289 213.379H138.094V215H136.473ZM138.113 209.688C138.113 212.07 139.188 213.711 141.121 213.711C143.143 213.711 144.178 211.943 144.188 209.688C144.178 207.471 143.172 205.762 141.121 205.762C139.168 205.762 138.113 207.334 138.113 209.688Z" fill="#474747"/>
<path d="M28.5 189H319" stroke="#494949" stroke-width="0.5"/>
<g filter="url(#filter3_d_1378_2)">
<rect x="39" y="93" width="265" height="32" rx="16" fill="white"/>
</g>
<rect x="162" y="104" width="59" height="10" rx="5" fill="#D9D9D9"/>
<rect x="87" y="101" width="65" height="16" rx="8" fill="#C2E2FA"/>
<rect x="90" y="104" width="59" height="10" rx="5" fill="#9AC5E5"/>
<rect x="234" y="104" width="59" height="10" rx="5" fill="#D9D9D9"/>
<path d="M85.5 101L79 117.5" stroke="#E5E5E5" stroke-linecap="round"/>
<path d="M159.5 102L153 118.5" stroke="#E5E5E5" stroke-linecap="round"/>
<path d="M231.5 101.5L225 118" stroke="#E5E5E5" stroke-linecap="round"/>
<path d="M71.6909 105.123L63.441 98.1662C63.3128 98.0582 63.1585 98 63 98C62.8415 98 62.6872 98.0582 62.559 98.1662L54.3091 105.123C54.1482 105.258 54.0403 105.462 54.0092 105.69C53.9938 105.803 53.9977 105.918 54.0208 106.029C54.0438 106.14 54.0854 106.245 54.1433 106.337C54.2012 106.43 54.2743 106.508 54.3583 106.568C54.4423 106.627 54.5356 106.667 54.6329 106.685C54.8294 106.721 55.0302 106.665 55.1911 106.53L56.2501 105.637V116.261C56.2513 116.722 56.4097 117.163 56.6907 117.489C56.9718 117.815 57.3526 117.999 57.75 118H60.75V110.174C60.75 109.943 60.829 109.722 60.9697 109.559C61.1103 109.396 61.3011 109.304 61.5 109.304H64.5C64.6989 109.304 64.8897 109.396 65.0303 109.559C65.171 109.722 65.25 109.943 65.25 110.174V118H68.25C68.6474 117.999 69.0282 117.815 69.3093 117.489C69.5903 117.163 69.7487 116.722 69.7499 116.261V105.637L70.8089 106.53C70.8886 106.597 70.9789 106.645 71.0747 106.672C71.1705 106.698 71.2698 106.703 71.3671 106.685C71.4644 106.667 71.5577 106.627 71.6417 106.568C71.7257 106.508 71.7988 106.43 71.8567 106.337C71.9146 106.245 71.9562 106.14 71.9792 106.029C72.0023 105.918 72.0062 105.803 71.9908 105.69C71.9754 105.577 71.941 105.469 71.8895 105.372C71.8381 105.275 71.7706 105.19 71.6909 105.123Z" fill="#D9D9D9"/>
<defs>
<filter id="filter0_d_1378_2" x="0" y="0" width="343" height="251" filterUnits="userSpaceOnUse" color-interpolation-filters="sRGB">
<feFlood flood-opacity="0" result="BackgroundImageFix"/>
<feColorMatrix in="SourceAlpha" type="matrix" values="0 0 0 0 0 0 0 0 0 0 0 0 0 0 0 0 0 0 127 0" result="hardAlpha"/>
<feOffset dy="5"/>
<feGaussianBlur stdDeviation="7.5"/>
<feComposite in2="hardAlpha" operator="out"/>
<feColorMatrix type="matrix" values="0 0 0 0 0 0 0 0 0 0 0 0 0 0 0 0 0 0 0.25 0"/>
<feBlend mode="normal" in2="BackgroundImageFix" result="effect1_dropShadow_1378_2"/>
<feBlend mode="normal" in="SourceGraphic" in2="effect1_dropShadow_1378_2" result="shape"/>
</filter>
<filter id="filter1_d_1378_2" x="35" y="89" width="273" height="40" filterUnits="userSpaceOnUse" color-interpolation-filters="sRGB">
<feFlood flood-opacity="0" result="BackgroundImageFix"/>
<feColorMatrix in="SourceAlpha" type="matrix" values="0 0 0 0 0 0 0 0 0 0 0 0 0 0 0 0 0 0 127 0" result="hardAlpha"/>
<feOffset/>
<feGaussianBlur stdDeviation="2"/>
<feComposite in2="hardAlpha" operator="out"/>
<feColorMatrix type="matrix" values="0 0 0 0 0 0 0 0 0 0 0 0 0 0 0 0 0 0 0.25 0"/>
<feBlend mode="normal" in2="BackgroundImageFix" result="effect1_dropShadow_1378_2"/>
<feBlend mode="normal" in="SourceGraphic" in2="effect1_dropShadow_1378_2" result="shape"/>
</filter>
<filter id="filter2_d_1378_2" x="0" y="0" width="343" height="251" filterUnits="userSpaceOnUse" color-interpolation-filters="sRGB">
<feFlood flood-opacity="0" result="BackgroundImageFix"/>
<feColorMatrix in="SourceAlpha" type="matrix" values="0 0 0 0 0 0 0 0 0 0 0 0 0 0 0 0 0 0 127 0" result="hardAlpha"/>
<feOffset dy="5"/>
<feGaussianBlur stdDeviation="7.5"/>
<feComposite in2="hardAlpha" operator="out"/>
<feColorMatrix type="matrix" values="0 0 0 0 0 0 0 0 0 0 0 0 0 0 0 0 0 0 0.25 0"/>
<feBlend mode="normal" in2="BackgroundImageFix" result="effect1_dropShadow_1378_2"/>
<feBlend mode="normal" in="SourceGraphic" in2="effect1_dropShadow_1378_2" result="shape"/>
</filter>
<filter id="filter3_d_1378_2" x="35" y="89" width="273" height="40" filterUnits="userSpaceOnUse" color-interpolation-filters="sRGB">
<feFlood flood-opacity="0" result="BackgroundImageFix"/>
<feColorMatrix in="SourceAlpha" type="matrix" values="0 0 0 0 0 0 0 0 0 0 0 0 0 0 0 0 0 0 127 0" result="hardAlpha"/>
<feOffset/>
<feGaussianBlur stdDeviation="2"/>
<feComposite in2="hardAlpha" operator="out"/>
<feColorMatrix type="matrix" values="0 0 0 0 0 0 0 0 0 0 0 0 0 0 0 0 0 0 0.25 0"/>
<feBlend mode="normal" in2="BackgroundImageFix" result="effect1_dropShadow_1378_2"/>
<feBlend mode="normal" in="SourceGraphic" in2="effect1_dropShadow_1378_2" result="shape"/>
</filter>
</defs>
</svg>
