<svg width="343" height="251" viewBox="0 0 343 251" fill="none" xmlns="http://www.w3.org/2000/svg">
<g filter="url(#filter0_d_487_966)">
<rect x="15" y="10" width="313" height="221" rx="18" fill="white"/>
</g>
<path d="M33.5625 215V200.859H38.5234C41.4922 200.859 42.8887 202.529 42.8789 204.609C42.8887 206.426 41.8047 207.236 40.5742 207.578V207.715C41.8926 207.793 43.4355 209.004 43.4453 211.25C43.4355 213.369 42.0391 215 38.6992 215H33.5625ZM35.3203 213.438H38.6797C40.8965 213.438 41.7559 212.461 41.7461 211.23C41.7559 209.795 40.5938 208.574 38.7773 208.574H35.3203V213.438ZM35.3203 207.051H38.4648C39.998 207.061 41.1992 206.104 41.1992 204.629C41.1992 203.398 40.3691 202.422 38.5234 202.422H35.3203V207.051ZM52.4297 210.645V204.395H54.0898V215H52.4297V213.203H52.3125C51.8145 214.277 50.7598 215.137 49.168 215.137C47.1562 215.137 45.7207 213.828 45.7305 211.133V204.395H47.4102V211.016C47.4102 212.539 48.3574 213.525 49.7148 213.516C50.916 213.525 52.4199 212.627 52.4297 210.645ZM61.4141 204.395V205.801H59.1875V211.953C59.1777 213.311 59.8613 213.535 60.5742 213.535C60.877 213.535 61.3262 213.506 61.5703 213.496V215.059C61.3066 215.098 60.8965 215.137 60.3984 215.137C58.9824 215.137 57.498 214.258 57.4883 212.383V205.801H55.8867V204.395H57.4883V201.855H59.1875V204.395H61.4141ZM68.2109 204.395V205.801H65.9844V211.953C65.9746 213.311 66.6582 213.535 67.3711 213.535C67.6738 213.535 68.123 213.506 68.3672 213.496V215.059C68.1035 215.098 67.6934 215.137 67.1953 215.137C65.7793 215.137 64.2949 214.258 64.2852 212.383V205.801H62.6836V204.395H64.2852V201.855H65.9844V204.395H68.2109ZM74.5977 215.215C71.707 215.225 69.7539 213.037 69.7539 209.746C69.7539 206.436 71.707 204.258 74.5977 204.258C77.4785 204.258 79.4121 206.436 79.4023 209.746C79.4121 213.037 77.4785 215.225 74.5977 215.215ZM71.4336 209.746C71.4434 211.865 72.4395 213.73 74.5977 213.73C76.7363 213.73 77.7227 211.865 77.7227 209.746C77.7227 207.637 76.7363 205.742 74.5977 205.742C72.4395 205.742 71.4434 207.637 71.4336 209.746ZM83.2891 208.633V215H81.6094V204.395H83.2305V206.055H83.3672C83.8652 204.971 84.8613 204.258 86.4727 204.258C88.6211 204.258 90.0566 205.566 90.0469 208.262V215H88.3672V208.379C88.3672 206.738 87.4688 205.762 85.9648 205.762C84.4219 205.762 83.2891 206.797 83.2891 208.633Z" fill="#474747"/>
<path d="M27 189H317.5" stroke="#494949" stroke-width="0.5"/>
<rect x="117" y="83" width="108" height="35" rx="8" fill="#E0E0E0"/>
<rect x="117" y="128" width="108" height="35" rx="8" fill="#E0E0E0"/>
<rect x="117.5" y="38.5" width="107" height="34" rx="7.5" fill="#9AC5E5" stroke="#46AEFC"/>
<path d="M208.909 61.3603L212.001 69.8537L209.182 70.8798L206.09 62.3864L201.918 65.5422L203.409 50.6332L214.134 61.0959L208.909 61.3603Z" fill="white"/>
<defs>
<filter id="filter0_d_487_966" x="0" y="0" width="343" height="251" filterUnits="userSpaceOnUse" color-interpolation-filters="sRGB">
<feFlood flood-opacity="0" result="BackgroundImageFix"/>
<feColorMatrix in="SourceAlpha" type="matrix" values="0 0 0 0 0 0 0 0 0 0 0 0 0 0 0 0 0 0 127 0" result="hardAlpha"/>
<feOffset dy="5"/>
<feGaussianBlur stdDeviation="7.5"/>
<feComposite in2="hardAlpha" operator="out"/>
<feColorMatrix type="matrix" values="0 0 0 0 0 0 0 0 0 0 0 0 0 0 0 0 0 0 0.25 0"/>
<feBlend mode="normal" in2="BackgroundImageFix" result="effect1_dropShadow_487_966"/>
<feBlend mode="normal" in="SourceGraphic" in2="effect1_dropShadow_487_966" result="shape"/>
</filter>
</defs>
</svg>
