<svg width="343" height="251" viewBox="0 0 343 251" fill="none" xmlns="http://www.w3.org/2000/svg">
<g filter="url(#filter0_d_487_1073)">
<rect x="15" y="10" width="313" height="221" rx="18" fill="white"/>
</g>
<path d="M48.2109 205.312C47.8008 203.359 46.1309 202.305 44.2656 202.305C41.707 202.305 39.7246 204.277 39.7148 207.93C39.7246 211.572 41.707 213.545 44.2656 213.555C46.1309 213.545 47.791 212.5 48.2109 210.566H49.9688C49.4609 213.457 47.1367 215.195 44.2656 215.195C40.6328 215.195 38.0059 212.402 38.0156 207.93C38.0059 203.457 40.6328 200.664 44.2656 200.664C47.127 200.664 49.4414 202.373 49.9688 205.312H48.2109ZM51.707 211.992C51.707 209.561 53.8555 209.004 55.6914 208.867C56.375 208.818 58.084 208.721 58.5625 208.711V207.852C58.5625 206.504 57.7617 205.723 56.1602 205.723C54.8223 205.723 54.0117 206.338 53.7773 207.148H52.0195C52.2344 205.439 53.8945 204.258 56.2383 204.258C57.625 204.258 60.2324 204.668 60.2227 208.008V215H58.5625V213.555H58.4844C58.1328 214.268 57.166 215.244 55.3203 215.254C53.3086 215.244 51.707 214.062 51.707 211.992ZM53.3867 212.07C53.3965 213.193 54.3242 213.76 55.6133 213.75C57.5078 213.76 58.5625 212.49 58.5625 211.152V210.088C58.0645 210.117 56.3945 210.244 55.8867 210.273C54.3633 210.371 53.3965 210.908 53.3867 212.07ZM64.5977 200.859V215H62.918V200.859H64.5977ZM71.7266 215.215C68.6602 215.225 66.7656 213.037 66.7656 209.785C66.7656 206.523 68.6895 204.258 71.5703 204.258C73.7969 204.258 76.1504 205.625 76.1406 209.551V210.254H68.4453C68.5332 212.5 69.8418 213.73 71.7266 213.73C72.9961 213.73 73.7969 213.174 74.1875 212.52H75.9844C75.4863 214.131 73.9141 215.225 71.7266 215.215ZM68.4551 208.828H74.4414C74.4316 207.061 73.3184 205.742 71.5703 205.742C69.7344 205.742 68.5723 207.188 68.4551 208.828ZM80.0078 208.633V215H78.3281V204.395H79.9492V206.055H80.0859C80.584 204.971 81.5801 204.258 83.1914 204.258C85.3398 204.258 86.7754 205.566 86.7656 208.262V215H85.0859V208.379C85.0859 206.738 84.1875 205.762 82.6836 205.762C81.1406 205.762 80.0078 206.797 80.0078 208.633ZM93.4648 215.215C90.8184 215.225 88.9531 213.096 88.9531 209.727C88.9531 206.367 90.8184 204.258 93.4844 204.258C95.5449 204.258 96.1895 205.508 96.5508 206.074H96.668V200.859H98.3672V215H96.7266V213.379H96.5508C96.1797 213.965 95.4863 215.225 93.4648 215.215ZM90.6523 209.688C90.6523 211.943 91.6875 213.711 93.6992 213.711C95.6426 213.711 96.7168 212.07 96.7266 209.688C96.7168 207.334 95.6719 205.762 93.6992 205.762C91.6582 205.762 90.6523 207.471 90.6523 209.688ZM105.73 215.215C102.664 215.225 100.77 213.037 100.77 209.785C100.77 206.523 102.693 204.258 105.574 204.258C107.801 204.258 110.154 205.625 110.145 209.551V210.254H102.449C102.537 212.5 103.846 213.73 105.73 213.73C107 213.73 107.801 213.174 108.191 212.52H109.988C109.49 214.131 107.918 215.225 105.73 215.215ZM102.459 208.828H108.445C108.436 207.061 107.322 205.742 105.574 205.742C103.738 205.742 102.576 207.188 102.459 208.828ZM112.332 215V204.395H113.953V206.016H114.07C114.451 204.941 115.555 204.229 116.805 204.219C117.059 204.229 117.488 204.238 117.684 204.258V205.957C117.557 205.928 117.107 205.84 116.668 205.84C115.145 205.84 114.012 206.895 114.012 208.32V215H112.332Z" fill="#474747"/>
<path d="M28.5 189H319" stroke="#494949" stroke-width="0.5"/>
<path d="M60.6548 32.7949C60.5864 32.1357 60.0103 31.7598 59.1997 31.7598C58.3354 31.7598 57.7886 32.2041 57.7837 32.8047C57.7837 33.4736 58.5112 33.7373 59.0728 33.8691L59.7563 34.0547C60.6597 34.2744 61.7925 34.7676 61.7974 36.0469C61.7925 37.2432 60.8403 38.1172 59.1704 38.1172C57.5884 38.1172 56.5923 37.3262 56.5239 36.0371H57.5981C57.6616 36.8086 58.3452 37.1748 59.1704 37.1797C60.0737 37.1748 60.728 36.7207 60.7329 36.0273C60.728 35.4121 60.1421 35.1631 59.395 34.9629L58.5552 34.7383C57.4175 34.4258 56.7144 33.8496 56.7095 32.8633C56.7144 31.6426 57.7983 30.832 59.229 30.832C60.6646 30.832 61.6655 31.6523 61.6997 32.7949H60.6548ZM66.231 35.793V32.6973H67.2661V38H66.2505V37.082H66.1919C65.9478 37.6484 65.4058 38.0684 64.6099 38.0684C63.5845 38.0684 62.8618 37.3799 62.8618 36.0664V32.6973H63.9067V35.9395C63.9067 36.6621 64.3462 37.1211 64.981 37.1211C65.562 37.1211 66.231 36.6963 66.231 35.793ZM69.5806 34.8555V38H68.5356V32.6973H69.5415V33.5664H69.6001C69.8491 32.9951 70.3716 32.6289 71.1626 32.6289C72.2515 32.6289 72.9741 33.3174 72.9692 34.6309V38H71.9341V34.7578C71.9292 33.9863 71.5142 33.5273 70.811 33.5273C70.0933 33.5273 69.5806 34.0107 69.5806 34.8555Z" fill="#FF6E6E"/>
<path d="M92.5327 30.9297H93.8413L96.0776 36.4082H96.1655L98.4019 30.9297H99.7104V38H98.6851V32.8926H98.6167L96.5464 37.9902H95.6968L93.6167 32.8828H93.5581V38H92.5327V30.9297ZM103.314 38.1074C101.81 38.1074 100.829 37.0137 100.833 35.373C100.829 33.7227 101.81 32.6289 103.314 32.6289C104.808 32.6289 105.785 33.7227 105.785 35.373C105.785 37.0137 104.808 38.1074 103.314 38.1074ZM101.878 35.373C101.878 36.3838 102.342 37.2383 103.314 37.2383C104.271 37.2383 104.73 36.3838 104.73 35.373C104.73 34.3574 104.271 33.4932 103.314 33.4883C102.342 33.4932 101.878 34.3574 101.878 35.373ZM107.855 34.8555V38H106.81V32.6973H107.816V33.5664H107.875C108.124 32.9951 108.646 32.6289 109.437 32.6289C110.526 32.6289 111.249 33.3174 111.244 34.6309V38H110.208V34.7578C110.204 33.9863 109.789 33.5273 109.085 33.5273C108.368 33.5273 107.855 34.0107 107.855 34.8555Z" fill="#9C9C9C"/>
<path d="M128.581 31.8574V30.9297H134.059V31.8574H131.862V38H130.788V31.8574H128.581ZM137.711 35.793V32.6973H138.747V38H137.731V37.082H137.672C137.428 37.6484 136.886 38.0684 136.09 38.0684C135.065 38.0684 134.342 37.3799 134.342 36.0664V32.6973H135.387V35.9395C135.387 36.6621 135.827 37.1211 136.461 37.1211C137.042 37.1211 137.711 36.6963 137.711 35.793ZM142.995 34.1426C142.897 33.7227 142.565 33.4492 141.989 33.4492C141.393 33.4492 140.968 33.7568 140.973 34.1621C140.968 34.4746 141.217 34.6992 141.803 34.8359L142.643 35.0312C143.62 35.251 144.093 35.7148 144.098 36.4668C144.093 37.4238 143.283 38.1074 141.93 38.1074C140.656 38.1074 139.904 37.541 139.772 36.5547H140.836C140.929 37.0332 141.291 37.2725 141.92 37.2676C142.594 37.2725 143.029 36.9893 143.034 36.5449C143.029 36.2031 142.775 35.9834 142.213 35.8516L141.383 35.6758C140.426 35.4658 139.928 34.9531 139.928 34.2207C139.928 33.2783 140.749 32.6289 141.979 32.6289C143.161 32.6289 143.898 33.2295 144 34.1426H142.995Z" fill="#9C9C9C"/>
<path d="M162.719 38L160.756 30.9297H161.889L163.266 36.3984H163.325L164.76 30.9297H165.874L167.309 36.3984H167.368L168.745 30.9297H169.877L167.915 38H166.831L165.346 32.7168H165.288L163.803 38H162.719ZM172.426 38.1074C170.864 38.1074 169.902 37.0283 169.907 35.3828C169.902 33.752 170.878 32.6289 172.358 32.6289C173.564 32.6289 174.711 33.376 174.711 35.2949V35.666H170.942C170.971 36.6768 171.567 37.248 172.436 37.248C173.027 37.248 173.413 36.9941 173.588 36.6719H174.643C174.409 37.5312 173.593 38.1074 172.426 38.1074ZM170.947 34.8848H173.686C173.686 34.0791 173.164 33.4834 172.368 33.4883C171.533 33.4834 170.991 34.1377 170.947 34.8848ZM177.729 38.1074C176.45 38.1025 175.512 37.0723 175.512 35.3633C175.512 33.6348 176.464 32.6289 177.739 32.6289C178.725 32.6289 179.082 33.2246 179.272 33.5566H179.321V30.9297H180.366V38H179.35V37.1699H179.272C179.077 37.5166 178.696 38.1025 177.729 38.1074ZM176.577 35.3438C176.572 36.4082 177.05 37.2139 177.963 37.2188C178.852 37.2139 179.35 36.457 179.35 35.3438C179.35 34.2402 178.862 33.5127 177.963 33.5176C177.041 33.5127 176.572 34.2988 176.577 35.3438Z" fill="#9C9C9C"/>
<path d="M198.397 31.8574V30.9297H203.875V31.8574H201.678V38H200.604V31.8574H198.397ZM205.926 34.8555V38H204.881V30.9297H205.907V33.5664H205.975C206.224 32.9902 206.722 32.6289 207.547 32.6289C208.636 32.6289 209.364 33.3027 209.364 34.6309V38H208.319V34.7578C208.319 33.9766 207.899 33.5273 207.196 33.5273C206.458 33.5273 205.926 34.0107 205.926 34.8555ZM213.993 35.793V32.6973H215.028V38H214.012V37.082H213.954C213.709 37.6484 213.167 38.0684 212.372 38.0684C211.346 38.0684 210.624 37.3799 210.624 36.0664V32.6973H211.668V35.9395C211.668 36.6621 212.108 37.1211 212.743 37.1211C213.324 37.1211 213.993 36.6963 213.993 35.793Z" fill="#9C9C9C"/>
<path d="M236.834 38V30.9297H241.219V31.8574H237.909V33.9961H240.907V34.9141H237.909V38H236.834ZM242.264 38V32.6973H243.27V33.5371H243.329C243.524 32.9707 244.056 32.6143 244.676 32.6191C244.803 32.6143 245.008 32.6289 245.116 32.6387V33.6348C245.028 33.6152 244.784 33.5713 244.569 33.5762C243.846 33.5713 243.309 34.0742 243.309 34.7676V38H242.264ZM245.897 38V32.6973H246.942V38H245.897ZM245.76 31.2617C245.765 30.9199 246.063 30.6465 246.424 30.6465C246.781 30.6465 247.079 30.9199 247.079 31.2617C247.079 31.6035 246.781 31.8818 246.424 31.877C246.063 31.8818 245.765 31.6035 245.76 31.2617Z" fill="#9C9C9C"/>
<path d="M273.88 32.7949C273.812 32.1357 273.236 31.7598 272.425 31.7598C271.561 31.7598 271.014 32.2041 271.009 32.8047C271.009 33.4736 271.737 33.7373 272.298 33.8691L272.982 34.0547C273.885 34.2744 275.018 34.7676 275.023 36.0469C275.018 37.2432 274.066 38.1172 272.396 38.1172C270.814 38.1172 269.818 37.3262 269.75 36.0371H270.824C270.887 36.8086 271.571 37.1748 272.396 37.1797C273.299 37.1748 273.954 36.7207 273.958 36.0273C273.954 35.4121 273.368 35.1631 272.621 34.9629L271.781 34.7383C270.643 34.4258 269.94 33.8496 269.935 32.8633C269.94 31.6426 271.024 30.832 272.455 30.832C273.89 30.832 274.891 31.6523 274.925 32.7949H273.88ZM275.843 36.5059C275.838 35.2949 276.869 34.9824 277.826 34.9141C278.177 34.8945 278.973 34.8506 279.217 34.8408L279.212 34.416C279.217 33.8154 278.846 33.4688 278.138 33.4688C277.523 33.4688 277.152 33.752 277.044 34.1426H276.009C276.102 33.2637 276.922 32.6289 278.177 32.6289C279.022 32.6289 280.252 32.9365 280.257 34.4746V38H279.242V37.2773H279.203C278.998 37.6729 278.509 38.1172 277.63 38.1172C276.625 38.1172 275.838 37.541 275.843 36.5059ZM276.859 36.5156C276.859 37.0234 277.279 37.2822 277.865 37.2871C278.714 37.2822 279.222 36.7158 279.222 36.0859L279.217 35.6025C278.978 35.6172 278.221 35.6709 277.972 35.6855C277.289 35.7344 276.859 35.9932 276.859 36.5156ZM283.998 32.6973V33.5273H282.914V36.4375C282.918 37.0381 283.211 37.1455 283.548 37.1504C283.7 37.1504 283.929 37.1357 284.076 37.1211V38.0293C283.934 38.0488 283.709 38.0684 283.421 38.0684C282.606 38.0684 281.869 37.6191 281.878 36.6523V33.5273H281.097V32.6973H281.878V31.4277H282.914V32.6973H283.998Z" fill="#6C7BFF"/>
<rect x="52" y="40.9072" width="29.0861" height="29.0861" rx="5" fill="#FF6E6E"/>
<rect x="156.831" y="40.9072" width="29.0861" height="29.0861" rx="5" fill="#E0E0E0"/>
<rect x="87.1455" y="40.9072" width="29.0861" height="29.0861" rx="5" fill="#E0E0E0"/>
<rect x="191.371" y="40.9072" width="29.0861" height="29.0861" rx="5" fill="#E0E0E0"/>
<rect x="121.686" y="40.9072" width="29.0861" height="29.0861" rx="5" fill="#E0E0E0"/>
<rect x="226.517" y="40.9072" width="29.0861" height="29.0861" rx="5" fill="#E0E0E0"/>
<rect x="261.663" y="40.9072" width="29.0861" height="29.0861" rx="5" fill="#9AC5E5"/>
<rect x="52" y="76.6589" width="29.0861" height="29.0861" rx="5" fill="#FF6E6E"/>
<rect x="156.831" y="76.6589" width="29.0861" height="29.0861" rx="5" fill="#E0E0E0"/>
<rect x="87.1455" y="76.6589" width="29.0861" height="29.0861" rx="5" fill="#E0E0E0"/>
<rect x="191.371" y="76.6589" width="29.0861" height="29.0861" rx="5" fill="#E0E0E0"/>
<rect x="121.686" y="76.6589" width="29.0861" height="29.0861" rx="5" fill="#E0E0E0"/>
<rect x="226.517" y="76.6589" width="29.0861" height="29.0861" rx="5" fill="#E0E0E0"/>
<rect x="261.663" y="76.6589" width="29.0861" height="29.0861" rx="5" fill="#9AC5E5"/>
<rect x="52" y="112.411" width="29.0861" height="29.0861" rx="5" fill="#FF6E6E"/>
<rect x="156.831" y="112.411" width="29.0861" height="29.0861" rx="5" fill="#E0E0E0"/>
<rect x="87.1455" y="112.411" width="29.0861" height="29.0861" rx="5" fill="#E0E0E0"/>
<rect x="191.371" y="112.411" width="29.0861" height="29.0861" rx="5" fill="#E0E0E0"/>
<rect x="121.686" y="112.411" width="29.0861" height="29.0861" rx="5" fill="#E0E0E0"/>
<rect x="226.517" y="112.411" width="29.0861" height="29.0861" rx="5" fill="#E0E0E0"/>
<rect x="261.663" y="112.411" width="29.0861" height="29.0861" rx="5" fill="#9AC5E5"/>
<rect x="52" y="148.162" width="29.0861" height="29.0861" rx="5" fill="#FF6E6E"/>
<rect x="156.831" y="148.162" width="29.0861" height="29.0861" rx="5" fill="#E0E0E0"/>
<rect x="87.1455" y="148.162" width="29.0861" height="29.0861" rx="5" fill="#E0E0E0"/>
<rect x="191.371" y="148.162" width="29.0861" height="29.0861" rx="5" fill="#E0E0E0"/>
<rect x="121.686" y="148.162" width="29.0861" height="29.0861" rx="5" fill="#E0E0E0"/>
<rect x="226.517" y="148.162" width="29.0861" height="29.0861" rx="5" fill="#E0E0E0"/>
<rect x="261.663" y="148.162" width="29.0861" height="29.0861" rx="5" fill="#9AC5E5"/>
<defs>
<filter id="filter0_d_487_1073" x="0" y="0" width="343" height="251" filterUnits="userSpaceOnUse" color-interpolation-filters="sRGB">
<feFlood flood-opacity="0" result="BackgroundImageFix"/>
<feColorMatrix in="SourceAlpha" type="matrix" values="0 0 0 0 0 0 0 0 0 0 0 0 0 0 0 0 0 0 127 0" result="hardAlpha"/>
<feOffset dy="5"/>
<feGaussianBlur stdDeviation="7.5"/>
<feComposite in2="hardAlpha" operator="out"/>
<feColorMatrix type="matrix" values="0 0 0 0 0 0 0 0 0 0 0 0 0 0 0 0 0 0 0.25 0"/>
<feBlend mode="normal" in2="BackgroundImageFix" result="effect1_dropShadow_487_1073"/>
<feBlend mode="normal" in="SourceGraphic" in2="effect1_dropShadow_487_1073" result="shape"/>
</filter>
</defs>
</svg>
