<svg width="343" height="251" viewBox="0 0 343 251" fill="none" xmlns="http://www.w3.org/2000/svg">
<g filter="url(#filter0_d_751_660)">
<rect x="15" y="10" width="313" height="221" rx="18" fill="#333742"/>
</g>
<path d="M48.2109 205.312C47.8008 203.359 46.1211 202.305 44.2656 202.305C41.707 202.305 39.7148 204.277 39.7148 207.93C39.7148 211.582 41.707 213.555 44.2656 213.555C46.1211 213.555 47.7812 212.5 48.2109 210.566H49.9688C49.4609 213.457 47.1367 215.195 44.2656 215.195C40.6328 215.195 38.0156 212.402 38.0156 207.93C38.0156 203.457 40.6328 200.664 44.2656 200.664C47.1172 200.664 49.4414 202.383 49.9688 205.312H48.2109ZM51.707 211.992C51.707 209.551 53.8555 209.004 55.6914 208.867C56.3652 208.818 58.084 208.73 58.5625 208.711V207.852C58.5625 206.504 57.7617 205.723 56.1602 205.723C54.8125 205.723 54.0117 206.348 53.7773 207.148H52.0195C52.2344 205.449 53.8945 204.258 56.2383 204.258C57.625 204.258 60.2227 204.668 60.2227 208.008V215H58.5625V213.555H58.4844C58.1328 214.277 57.1562 215.254 55.3203 215.254C53.3086 215.254 51.707 214.062 51.707 211.992ZM53.3867 212.07C53.3867 213.184 54.3242 213.75 55.6133 213.75C57.5078 213.75 58.5625 212.48 58.5625 211.152V210.078L55.8867 210.273C54.3633 210.371 53.3867 210.918 53.3867 212.07ZM64.5977 200.859V215H62.918V200.859H64.5977ZM71.7266 215.215C68.6602 215.215 66.7656 213.047 66.7656 209.785C66.7656 206.523 68.6797 204.258 71.5703 204.258C73.7969 204.258 76.1406 205.625 76.1406 209.551V210.254H68.4453C68.5234 212.5 69.832 213.73 71.7266 213.73C72.9961 213.73 73.7969 213.184 74.1875 212.52H75.9844C75.4766 214.121 73.9141 215.215 71.7266 215.215ZM68.4648 208.828H74.4414C74.4414 207.051 73.3086 205.742 71.5703 205.742C69.7344 205.742 68.5625 207.188 68.4648 208.828ZM80.0078 208.633V215H78.3281V204.395H79.9492V206.055H80.0859C80.5938 204.98 81.5703 204.258 83.1914 204.258C85.3398 204.258 86.7656 205.566 86.7656 208.262V215H85.0859V208.379C85.0859 206.738 84.1875 205.762 82.6836 205.762C81.1406 205.762 80.0078 206.797 80.0078 208.633ZM93.4648 215.215C90.8281 215.215 88.9531 213.086 88.9531 209.727C88.9531 206.367 90.8281 204.258 93.4844 204.258C95.5352 204.258 96.1992 205.508 96.5508 206.074H96.668V200.859H98.3672V215H96.7266V213.379H96.5508C96.1797 213.965 95.4961 215.215 93.4648 215.215ZM93.6992 213.711C95.6328 213.711 96.7266 212.07 96.7266 209.688C96.7266 207.344 95.6719 205.762 93.6992 205.762C91.668 205.762 90.6523 207.48 90.6523 209.688C90.6523 211.953 91.6875 213.711 93.6992 213.711ZM105.73 215.215C102.664 215.215 100.77 213.047 100.77 209.785C100.77 206.523 102.684 204.258 105.574 204.258C107.801 204.258 110.145 205.625 110.145 209.551V210.254H102.449C102.527 212.5 103.836 213.73 105.73 213.73C107 213.73 107.801 213.184 108.191 212.52H109.988C109.48 214.121 107.918 215.215 105.73 215.215ZM102.469 208.828H108.445C108.445 207.051 107.312 205.742 105.574 205.742C103.738 205.742 102.566 207.188 102.469 208.828ZM112.332 215V204.395H113.953V206.016H114.07C114.461 204.941 115.555 204.219 116.805 204.219C117.059 204.219 117.488 204.238 117.684 204.258V205.957C117.566 205.918 117.098 205.84 116.668 205.84C115.145 205.84 114.012 206.895 114.012 208.32V215H112.332Z" fill="#DFDFDF"/>
<path d="M28.5 189H319" stroke="#DFDFDF" stroke-width="0.5"/>
<path d="M60.6543 32.7949C60.5859 32.1406 60.0098 31.7598 59.1992 31.7598C58.3301 31.7598 57.7832 32.1992 57.7832 32.8047C57.7832 33.4785 58.5156 33.7324 59.0723 33.8691L59.7559 34.0547C60.6641 34.2695 61.7871 34.7676 61.7969 36.0469C61.7871 37.2383 60.8398 38.1172 59.1699 38.1172C57.5879 38.1172 56.5918 37.3262 56.5234 36.0371H57.5977C57.666 36.8086 58.3398 37.1797 59.1699 37.1797C60.0684 37.1797 60.7227 36.7207 60.7324 36.0273C60.7227 35.4121 60.1465 35.1582 59.3945 34.9629L58.5547 34.7383C57.4219 34.4258 56.709 33.8496 56.709 32.8633C56.709 31.6426 57.8027 30.832 59.2285 30.832C60.6641 30.832 61.6699 31.6523 61.6992 32.7949H60.6543ZM66.2305 35.793V32.6973H67.2656V38H66.25V37.082H66.1914C65.9473 37.6484 65.4004 38.0684 64.6094 38.0684C63.584 38.0684 62.8613 37.3848 62.8613 36.0664V32.6973H63.9062V35.9395C63.9062 36.6621 64.3457 37.1211 64.9805 37.1211C65.5566 37.1211 66.2305 36.7012 66.2305 35.793ZM69.5801 34.8555V38H68.5352V32.6973H69.541V33.5664H69.5996C69.8535 33 70.3711 32.6289 71.1621 32.6289C72.2559 32.6289 72.9688 33.3125 72.9688 34.6309V38H71.9336V34.7578C71.9336 33.9863 71.5137 33.5273 70.8105 33.5273C70.0977 33.5273 69.5801 34.0059 69.5801 34.8555Z" fill="#964D4D"/>
<path d="M92.5322 30.9297H93.8408L96.0771 36.4082H96.165L98.4014 30.9297H99.71V38H98.6846V32.8926H98.6162L96.5459 37.9902H95.6963L93.6162 32.8828H93.5576V38H92.5322V30.9297ZM103.313 38.1074C101.81 38.1074 100.833 37.0137 100.833 35.373C100.833 33.7227 101.81 32.6289 103.313 32.6289C104.808 32.6289 105.784 33.7227 105.784 35.373C105.784 37.0137 104.808 38.1074 103.313 38.1074ZM103.313 37.2383C104.271 37.2383 104.729 36.3887 104.729 35.373C104.729 34.3574 104.271 33.4883 103.313 33.4883C102.337 33.4883 101.878 34.3574 101.878 35.373C101.878 36.3887 102.337 37.2383 103.313 37.2383ZM107.854 34.8555V38H106.81V32.6973H107.815V33.5664H107.874C108.128 33 108.646 32.6289 109.437 32.6289C110.53 32.6289 111.243 33.3125 111.243 34.6309V38H110.208V34.7578C110.208 33.9863 109.788 33.5273 109.085 33.5273C108.372 33.5273 107.854 34.0059 107.854 34.8555Z" fill="#9C9C9C"/>
<path d="M128.58 31.8574V30.9297H134.059V31.8574H131.861V38H130.787V31.8574H128.58ZM137.711 35.793V32.6973H138.746V38H137.73V37.082H137.672C137.428 37.6484 136.881 38.0684 136.09 38.0684C135.064 38.0684 134.342 37.3848 134.342 36.0664V32.6973H135.387V35.9395C135.387 36.6621 135.826 37.1211 136.461 37.1211C137.037 37.1211 137.711 36.7012 137.711 35.793ZM142.994 34.1426C142.896 33.7227 142.564 33.4492 141.988 33.4492C141.393 33.4492 140.963 33.7617 140.973 34.1621C140.963 34.4746 141.217 34.6992 141.803 34.8359L142.643 35.0312C143.619 35.2461 144.088 35.7148 144.098 36.4668C144.088 37.4238 143.287 38.1074 141.93 38.1074C140.66 38.1074 139.898 37.541 139.771 36.5547H140.836C140.924 37.0332 141.295 37.2676 141.92 37.2676C142.594 37.2676 143.023 36.9941 143.033 36.5449C143.023 36.2031 142.77 35.9785 142.213 35.8516L141.383 35.6758C140.426 35.4609 139.928 34.9531 139.928 34.2207C139.928 33.2734 140.748 32.6289 141.979 32.6289C143.16 32.6289 143.893 33.2344 144 34.1426H142.994Z" fill="#9C9C9C"/>
<path d="M162.719 38L160.756 30.9297H161.889L163.266 36.3984H163.324L164.76 30.9297H165.873L167.309 36.3984H167.367L168.744 30.9297H169.877L167.914 38H166.83L165.346 32.7168H165.287L163.803 38H162.719ZM172.426 38.1074C170.863 38.1074 169.906 37.0332 169.906 35.3828C169.906 33.752 170.883 32.6289 172.357 32.6289C173.568 32.6289 174.711 33.3809 174.711 35.2949V35.666H170.941C170.971 36.6719 171.562 37.248 172.436 37.248C173.031 37.248 173.412 36.9941 173.588 36.6719H174.643C174.408 37.5312 173.588 38.1074 172.426 38.1074ZM170.951 34.8848H173.686C173.686 34.0742 173.168 33.4883 172.367 33.4883C171.532 33.4883 170.99 34.1328 170.951 34.8848ZM177.729 38.1074C176.449 38.1074 175.512 37.0723 175.512 35.3633C175.512 33.6348 176.459 32.6289 177.738 32.6289C178.725 32.6289 179.086 33.2246 179.271 33.5566H179.32V30.9297H180.365V38H179.35V37.1699H179.271C179.076 37.5215 178.695 38.1074 177.729 38.1074ZM177.963 37.2188C178.852 37.2188 179.35 36.457 179.35 35.3438C179.35 34.2402 178.861 33.5176 177.963 33.5176C177.035 33.5176 176.576 34.2988 176.576 35.3438C176.576 36.4082 177.055 37.2188 177.963 37.2188Z" fill="#9C9C9C"/>
<path d="M198.396 31.8574V30.9297H203.875V31.8574H201.678V38H200.604V31.8574H198.396ZM205.926 34.8555V38H204.881V30.9297H205.906V33.5664H205.975C206.229 32.9902 206.717 32.6289 207.547 32.6289C208.641 32.6289 209.363 33.3027 209.363 34.6309V38H208.318V34.7578C208.318 33.9766 207.898 33.5273 207.195 33.5273C206.463 33.5273 205.926 34.0059 205.926 34.8555ZM213.992 35.793V32.6973H215.027V38H214.012V37.082H213.953C213.709 37.6484 213.162 38.0684 212.371 38.0684C211.346 38.0684 210.623 37.3848 210.623 36.0664V32.6973H211.668V35.9395C211.668 36.6621 212.107 37.1211 212.742 37.1211C213.318 37.1211 213.992 36.7012 213.992 35.793Z" fill="#9C9C9C"/>
<path d="M236.834 38V30.9297H241.219V31.8574H237.908V33.9961H240.906V34.9141H237.908V38H236.834ZM242.264 38V32.6973H243.27V33.5371H243.328C243.523 32.9707 244.051 32.6191 244.676 32.6191C244.803 32.6191 245.008 32.6289 245.115 32.6387V33.6348C245.027 33.6152 244.783 33.5762 244.568 33.5762C243.846 33.5762 243.309 34.0742 243.309 34.7676V38H242.264ZM245.896 38V32.6973H246.941V38H245.896ZM246.424 31.877C246.062 31.877 245.76 31.6035 245.76 31.2617C245.76 30.9199 246.062 30.6465 246.424 30.6465C246.775 30.6465 247.078 30.9199 247.078 31.2617C247.078 31.6035 246.775 31.877 246.424 31.877Z" fill="#9C9C9C"/>
<path d="M273.88 32.7949C273.812 32.1406 273.235 31.7598 272.425 31.7598C271.556 31.7598 271.009 32.1992 271.009 32.8047C271.009 33.4785 271.741 33.7324 272.298 33.8691L272.981 34.0547C273.89 34.2695 275.013 34.7676 275.022 36.0469C275.013 37.2383 274.065 38.1172 272.396 38.1172C270.813 38.1172 269.817 37.3262 269.749 36.0371H270.823C270.892 36.8086 271.565 37.1797 272.396 37.1797C273.294 37.1797 273.948 36.7207 273.958 36.0273C273.948 35.4121 273.372 35.1582 272.62 34.9629L271.78 34.7383C270.647 34.4258 269.935 33.8496 269.935 32.8633C269.935 31.6426 271.028 30.832 272.454 30.832C273.89 30.832 274.896 31.6523 274.925 32.7949H273.88ZM275.843 36.5059C275.843 35.2949 276.868 34.9824 277.825 34.9141C278.177 34.8896 278.973 34.8457 279.222 34.8359L279.212 34.416C279.212 33.8203 278.851 33.4688 278.138 33.4688C277.522 33.4688 277.151 33.752 277.044 34.1426H276.009C276.106 33.2637 276.927 32.6289 278.177 32.6289C279.017 32.6289 280.257 32.9414 280.257 34.4746V38H279.241V37.2773H279.202C278.997 37.6777 278.509 38.1172 277.63 38.1172C276.624 38.1172 275.843 37.541 275.843 36.5059ZM276.858 36.5156C276.858 37.0234 277.278 37.2871 277.864 37.2871C278.714 37.2871 279.222 36.7207 279.222 36.0859V35.5977L277.972 35.6855C277.288 35.7344 276.858 35.9883 276.858 36.5156ZM283.997 32.6973V33.5273H282.913V36.4375C282.913 37.0332 283.216 37.1406 283.548 37.1504C283.694 37.1504 283.929 37.1309 284.075 37.1211V38.0293C283.929 38.0488 283.704 38.0684 283.421 38.0684C282.601 38.0684 281.868 37.6191 281.878 36.6523V33.5273H281.097V32.6973H281.878V31.4277H282.913V32.6973H283.997Z" fill="#7F89E4"/>
<rect x="52" y="40.9072" width="29.0861" height="29.0861" rx="5" fill="#964D4D"/>
<rect x="156.831" y="40.9072" width="29.0861" height="29.0861" rx="5" fill="#2A2E39"/>
<rect x="87.1455" y="40.9072" width="29.0861" height="29.0861" rx="5" fill="#2A2E39"/>
<rect x="191.371" y="40.9072" width="29.0861" height="29.0861" rx="5" fill="#2A2E39"/>
<rect x="121.686" y="40.9072" width="29.0861" height="29.0861" rx="5" fill="#2A2E39"/>
<rect x="226.517" y="40.9072" width="29.0861" height="29.0861" rx="5" fill="#2A2E39"/>
<rect x="261.662" y="40.9072" width="29.0861" height="29.0861" rx="5" fill="#7291A8"/>
<rect x="52" y="76.6589" width="29.0861" height="29.0861" rx="5" fill="#964D4D"/>
<rect x="156.831" y="76.6589" width="29.0861" height="29.0861" rx="5" fill="#2A2E39"/>
<rect x="87.1455" y="76.6589" width="29.0861" height="29.0861" rx="5" fill="#2A2E39"/>
<rect x="191.371" y="76.6589" width="29.0861" height="29.0861" rx="5" fill="#2A2E39"/>
<rect x="121.686" y="76.6589" width="29.0861" height="29.0861" rx="5" fill="#2A2E39"/>
<rect x="226.517" y="76.6589" width="29.0861" height="29.0861" rx="5" fill="#2A2E39"/>
<rect x="261.662" y="76.6589" width="29.0861" height="29.0861" rx="5" fill="#7291A8"/>
<rect x="52" y="112.411" width="29.0861" height="29.0861" rx="5" fill="#964D4D"/>
<rect x="156.831" y="112.411" width="29.0861" height="29.0861" rx="5" fill="#2A2E39"/>
<rect x="87.1455" y="112.411" width="29.0861" height="29.0861" rx="5" fill="#2A2E39"/>
<rect x="191.371" y="112.411" width="29.0861" height="29.0861" rx="5" fill="#2A2E39"/>
<rect x="121.686" y="112.411" width="29.0861" height="29.0861" rx="5" fill="#2A2E39"/>
<rect x="226.517" y="112.411" width="29.0861" height="29.0861" rx="5" fill="#2A2E39"/>
<rect x="261.662" y="112.411" width="29.0861" height="29.0861" rx="5" fill="#7291A8"/>
<rect x="52" y="148.162" width="29.0861" height="29.0861" rx="5" fill="#964D4D"/>
<rect x="156.831" y="148.162" width="29.0861" height="29.0861" rx="5" fill="#2A2E39"/>
<rect x="87.1455" y="148.162" width="29.0861" height="29.0861" rx="5" fill="#2A2E39"/>
<rect x="191.371" y="148.162" width="29.0861" height="29.0861" rx="5" fill="#2A2E39"/>
<rect x="121.686" y="148.162" width="29.0861" height="29.0861" rx="5" fill="#2A2E39"/>
<rect x="226.517" y="148.162" width="29.0861" height="29.0861" rx="5" fill="#2A2E39"/>
<rect x="261.662" y="148.162" width="29.0861" height="29.0861" rx="5" fill="#7291A8"/>
<defs>
<filter id="filter0_d_751_660" x="0" y="0" width="343" height="251" filterUnits="userSpaceOnUse" color-interpolation-filters="sRGB">
<feFlood flood-opacity="0" result="BackgroundImageFix"/>
<feColorMatrix in="SourceAlpha" type="matrix" values="0 0 0 0 0 0 0 0 0 0 0 0 0 0 0 0 0 0 127 0" result="hardAlpha"/>
<feOffset dy="5"/>
<feGaussianBlur stdDeviation="7.5"/>
<feComposite in2="hardAlpha" operator="out"/>
<feColorMatrix type="matrix" values="0 0 0 0 0 0 0 0 0 0 0 0 0 0 0 0 0 0 0.25 0"/>
<feBlend mode="normal" in2="BackgroundImageFix" result="effect1_dropShadow_751_660"/>
<feBlend mode="normal" in="SourceGraphic" in2="effect1_dropShadow_751_660" result="shape"/>
</filter>
</defs>
</svg>
