<svg width="343" height="251" viewBox="0 0 343 251" fill="none" xmlns="http://www.w3.org/2000/svg">
<g filter="url(#filter0_d_487_1052)">
<rect x="15" y="10" width="313" height="221" rx="18" fill="white"/>
</g>
<path d="M43.2109 205.312C42.8008 203.359 41.1309 202.305 39.2656 202.305C36.707 202.305 34.7246 204.277 34.7148 207.93C34.7246 211.572 36.707 213.545 39.2656 213.555C41.1309 213.545 42.791 212.5 43.2109 210.566H44.9688C44.4609 213.457 42.1367 215.195 39.2656 215.195C35.6328 215.195 33.0059 212.402 33.0156 207.93C33.0059 203.457 35.6328 200.664 39.2656 200.664C42.127 200.664 44.4414 202.373 44.9688 205.312H43.2109ZM46.707 211.992C46.707 209.561 48.8555 209.004 50.6914 208.867C51.375 208.818 53.084 208.721 53.5625 208.711V207.852C53.5625 206.504 52.7617 205.723 51.1602 205.723C49.8223 205.723 49.0117 206.338 48.7773 207.148H47.0195C47.2344 205.439 48.8945 204.258 51.2383 204.258C52.625 204.258 55.2324 204.668 55.2227 208.008V215H53.5625V213.555H53.4844C53.1328 214.268 52.166 215.244 50.3203 215.254C48.3086 215.244 46.707 214.062 46.707 211.992ZM48.3867 212.07C48.3965 213.193 49.3242 213.76 50.6133 213.75C52.5078 213.76 53.5625 212.49 53.5625 211.152V210.088C53.0645 210.117 51.3945 210.244 50.8867 210.273C49.3633 210.371 48.3965 210.908 48.3867 212.07ZM57.918 215V204.395H59.5391V206.016H59.6562C60.0371 204.941 61.1406 204.229 62.3906 204.219C62.6445 204.229 63.0742 204.238 63.2695 204.258V205.957C63.1426 205.928 62.6934 205.84 62.2539 205.84C60.7305 205.84 59.5977 206.895 59.5977 208.32V215H57.918ZM68.5625 215.215C65.916 215.225 64.0508 213.096 64.0508 209.727C64.0508 206.367 65.916 204.258 68.582 204.258C70.6426 204.258 71.2871 205.508 71.6484 206.074H71.7656V200.859H73.4648V215H71.8242V213.379H71.6484C71.2773 213.965 70.584 215.225 68.5625 215.215ZM65.75 209.688C65.75 211.943 66.7852 213.711 68.7969 213.711C70.7402 213.711 71.8145 212.07 71.8242 209.688C71.8145 207.334 70.7695 205.762 68.7969 205.762C66.7559 205.762 65.75 207.471 65.75 209.688Z" fill="#474747"/>
<path d="M27 189H317.5" stroke="#494949" stroke-width="0.5"/>
<g filter="url(#filter1_d_487_1052)">
<rect x="64" y="39" width="214" height="128" rx="7" fill="white"/>
</g>
<rect x="77" y="51" width="189" height="74" rx="7" fill="#E0E0E0"/>
<rect x="77" y="140" width="156" height="6" rx="3" fill="#E0E0E0"/>
<rect x="77" y="150" width="119" height="6" rx="3" fill="#E0E0E0"/>
<path d="M179 81H163V95L172.292 85.7065C172.683 85.3159 173.316 85.3159 173.707 85.7064L179 91.0104V81ZM161 79.9934C161 79.4448 161.455 79 161.992 79H180.008C180.556 79 181 79.445 181 79.9934V96.0066C181 96.5552 180.545 97 180.008 97H161.992C161.444 97 161 96.5551 161 96.0066V79.9934ZM167 87C165.895 87 165 86.1046 165 85C165 83.8954 165.895 83 167 83C168.105 83 169 83.8954 169 85C169 86.1046 168.105 87 167 87Z" fill="#999999"/>
<defs>
<filter id="filter0_d_487_1052" x="0" y="0" width="343" height="251" filterUnits="userSpaceOnUse" color-interpolation-filters="sRGB">
<feFlood flood-opacity="0" result="BackgroundImageFix"/>
<feColorMatrix in="SourceAlpha" type="matrix" values="0 0 0 0 0 0 0 0 0 0 0 0 0 0 0 0 0 0 127 0" result="hardAlpha"/>
<feOffset dy="5"/>
<feGaussianBlur stdDeviation="7.5"/>
<feComposite in2="hardAlpha" operator="out"/>
<feColorMatrix type="matrix" values="0 0 0 0 0 0 0 0 0 0 0 0 0 0 0 0 0 0 0.25 0"/>
<feBlend mode="normal" in2="BackgroundImageFix" result="effect1_dropShadow_487_1052"/>
<feBlend mode="normal" in="SourceGraphic" in2="effect1_dropShadow_487_1052" result="shape"/>
</filter>
<filter id="filter1_d_487_1052" x="54" y="29" width="234" height="148" filterUnits="userSpaceOnUse" color-interpolation-filters="sRGB">
<feFlood flood-opacity="0" result="BackgroundImageFix"/>
<feColorMatrix in="SourceAlpha" type="matrix" values="0 0 0 0 0 0 0 0 0 0 0 0 0 0 0 0 0 0 127 0" result="hardAlpha"/>
<feOffset/>
<feGaussianBlur stdDeviation="5"/>
<feComposite in2="hardAlpha" operator="out"/>
<feColorMatrix type="matrix" values="0 0 0 0 0 0 0 0 0 0 0 0 0 0 0 0 0 0 0.1 0"/>
<feBlend mode="normal" in2="BackgroundImageFix" result="effect1_dropShadow_487_1052"/>
<feBlend mode="normal" in="SourceGraphic" in2="effect1_dropShadow_487_1052" result="shape"/>
</filter>
</defs>
</svg>
