<svg width="343" height="251" viewBox="0 0 343 251" fill="none" xmlns="http://www.w3.org/2000/svg">
<g filter="url(#filter0_d_751_650)">
<rect x="15" y="10" width="313" height="221" rx="18" fill="#333742"/>
</g>
<path d="M45.2109 205.312C44.8008 203.359 43.1211 202.305 41.2656 202.305C38.707 202.305 36.7148 204.277 36.7148 207.93C36.7148 211.582 38.707 213.555 41.2656 213.555C43.1211 213.555 44.7812 212.5 45.2109 210.566H46.9688C46.4609 213.457 44.1367 215.195 41.2656 215.195C37.6328 215.195 35.0156 212.402 35.0156 207.93C35.0156 203.457 37.6328 200.664 41.2656 200.664C44.1172 200.664 46.4414 202.383 46.9688 205.312H45.2109ZM48.707 211.992C48.707 209.551 50.8555 209.004 52.6914 208.867C53.3652 208.818 55.084 208.73 55.5625 208.711V207.852C55.5625 206.504 54.7617 205.723 53.1602 205.723C51.8125 205.723 51.0117 206.348 50.7773 207.148H49.0195C49.2344 205.449 50.8945 204.258 53.2383 204.258C54.625 204.258 57.2227 204.668 57.2227 208.008V215H55.5625V213.555H55.4844C55.1328 214.277 54.1562 215.254 52.3203 215.254C50.3086 215.254 48.707 214.062 48.707 211.992ZM50.3867 212.07C50.3867 213.184 51.3242 213.75 52.6133 213.75C54.5078 213.75 55.5625 212.48 55.5625 211.152V210.078L52.8867 210.273C51.3633 210.371 50.3867 210.918 50.3867 212.07ZM59.918 215V204.395H61.5391V206.016H61.6562C62.0469 204.941 63.1406 204.219 64.3906 204.219C64.6445 204.219 65.0742 204.238 65.2695 204.258V205.957C65.1523 205.918 64.6836 205.84 64.2539 205.84C62.7305 205.84 61.5977 206.895 61.5977 208.32V215H59.918ZM70.8945 215.215C68.0039 215.215 66.0508 213.047 66.0508 209.746C66.0508 206.445 68.0039 204.258 70.8945 204.258C73.7656 204.258 75.6992 206.445 75.6992 209.746C75.6992 213.047 73.7656 215.215 70.8945 215.215ZM70.8945 213.73C73.0234 213.73 74.0195 211.855 74.0195 209.746C74.0195 207.637 73.0234 205.742 70.8945 205.742C68.7266 205.742 67.7305 207.637 67.7305 209.746C67.7305 211.855 68.7266 213.73 70.8945 213.73ZM84.6055 210.645V204.395H86.2656V215H84.6055V213.203H84.4883C83.9805 214.277 82.9453 215.137 81.3438 215.137C79.332 215.137 77.9062 213.828 77.9062 211.133V204.395H79.5859V211.016C79.5859 212.539 80.543 213.516 81.8906 213.516C83.082 213.516 84.6055 212.617 84.6055 210.645ZM94.8594 207.148C94.625 206.27 93.9609 205.684 92.7109 205.684C91.4023 205.684 90.4648 206.387 90.4648 207.285C90.4648 207.988 91.0312 208.477 92.2812 208.77L93.8633 209.16C95.7578 209.609 96.6953 210.547 96.6953 212.031C96.6953 213.867 95.1914 215.215 92.5352 215.215C90.1523 215.215 88.7266 214.16 88.4531 212.227H90.2109C90.4062 213.262 91.168 213.75 92.4961 213.75C94 213.75 94.957 213.125 94.957 212.129C94.957 211.387 94.4297 210.879 93.2188 210.605L91.6172 210.234C89.7617 209.805 88.7852 208.789 88.7852 207.383C88.7852 205.566 90.3672 204.258 92.7109 204.258C94.8984 204.258 96.2852 205.43 96.5 207.148H94.8594ZM103.336 215.215C100.27 215.215 98.375 213.047 98.375 209.785C98.375 206.523 100.289 204.258 103.18 204.258C105.406 204.258 107.75 205.625 107.75 209.551V210.254H100.055C100.133 212.5 101.441 213.73 103.336 213.73C104.605 213.73 105.406 213.184 105.797 212.52H107.594C107.086 214.121 105.523 215.215 103.336 215.215ZM100.074 208.828H106.051C106.051 207.051 104.918 205.742 103.18 205.742C101.344 205.742 100.172 207.188 100.074 208.828ZM111.617 200.859V215H109.938V200.859H111.617Z" fill="#DFDFDF"/>
<path d="M27 189H317.5" stroke="#DFDFDF" stroke-width="0.5"/>
<rect x="43" y="30" width="259" height="148" rx="7" fill="#2A2E39"/>
<circle cx="154.5" cy="169.5" r="3.5" fill="#3D4250"/>
<circle cx="166.5" cy="169.5" r="3.5" fill="#2A6490"/>
<circle cx="178.5" cy="169.5" r="3.5" fill="#3D4250"/>
<circle cx="190.5" cy="169.5" r="3.5" fill="#3D4250"/>
<defs>
<filter id="filter0_d_751_650" x="0" y="0" width="343" height="251" filterUnits="userSpaceOnUse" color-interpolation-filters="sRGB">
<feFlood flood-opacity="0" result="BackgroundImageFix"/>
<feColorMatrix in="SourceAlpha" type="matrix" values="0 0 0 0 0 0 0 0 0 0 0 0 0 0 0 0 0 0 127 0" result="hardAlpha"/>
<feOffset dy="5"/>
<feGaussianBlur stdDeviation="7.5"/>
<feComposite in2="hardAlpha" operator="out"/>
<feColorMatrix type="matrix" values="0 0 0 0 0 0 0 0 0 0 0 0 0 0 0 0 0 0 0.25 0"/>
<feBlend mode="normal" in2="BackgroundImageFix" result="effect1_dropShadow_751_650"/>
<feBlend mode="normal" in="SourceGraphic" in2="effect1_dropShadow_751_650" result="shape"/>
</filter>
</defs>
</svg>
