<svg width="343" height="251" viewBox="0 0 343 251" fill="none" xmlns="http://www.w3.org/2000/svg">
<g filter="url(#filter0_d_618_2)">
<rect x="15" y="10" width="313" height="221" rx="18" fill="white"/>
</g>
<path d="M45.2109 205.312C44.8008 203.359 43.1309 202.305 41.2656 202.305C38.707 202.305 36.7246 204.277 36.7148 207.93C36.7246 211.572 38.707 213.545 41.2656 213.555C43.1309 213.545 44.791 212.5 45.2109 210.566H46.9688C46.4609 213.457 44.1367 215.195 41.2656 215.195C37.6328 215.195 35.0059 212.402 35.0156 207.93C35.0059 203.457 37.6328 200.664 41.2656 200.664C44.127 200.664 46.4414 202.373 46.9688 205.312H45.2109ZM50.8945 208.633V215H49.2148V200.859H50.8945V206.055H51.0312C51.5293 204.961 52.4766 204.258 54.1562 204.258C56.3242 204.258 57.7695 205.537 57.7695 208.262V215H56.0898V208.379C56.0898 206.709 55.1719 205.762 53.6484 205.762C52.0664 205.762 50.8945 206.797 50.8945 208.633ZM64.918 215.215C61.8516 215.225 59.957 213.037 59.957 209.785C59.957 206.523 61.8809 204.258 64.7617 204.258C66.9883 204.258 69.3418 205.625 69.332 209.551V210.254H61.6367C61.7246 212.5 63.0332 213.73 64.918 213.73C66.1875 213.73 66.9883 213.174 67.3789 212.52H69.1758C68.6777 214.131 67.1055 215.225 64.918 215.215ZM61.6465 208.828H67.6328C67.623 207.061 66.5098 205.742 64.7617 205.742C62.9258 205.742 61.7637 207.188 61.6465 208.828ZM75.8555 215.215C72.8477 215.225 71.0117 212.93 71.0117 209.746C71.0117 206.523 72.9355 204.258 75.8164 204.258C78.0723 204.258 79.7715 205.596 80.0352 207.598H78.3555C78.1113 206.631 77.2715 205.742 75.8555 205.742C73.9609 205.742 72.7012 207.305 72.6914 209.688C72.7012 212.139 73.9316 213.711 75.8555 213.711C77.1055 213.711 78.0625 213.037 78.3555 211.875H80.0352C79.7715 213.77 78.209 215.225 75.8555 215.215ZM82.1055 215V200.859H83.7852V209.082H83.9805L88.5703 204.395H90.6406L86.168 208.936L90.9727 215H88.8438L84.9082 210L83.7852 211.045V215H82.1055ZM92.6523 215V200.859H97.6133C100.582 200.859 101.979 202.529 101.969 204.609C101.979 206.426 100.895 207.236 99.6641 207.578V207.715C100.982 207.793 102.525 209.004 102.535 211.25C102.525 213.369 101.129 215 97.7891 215H92.6523ZM94.4102 213.438H97.7695C99.9863 213.438 100.846 212.461 100.836 211.23C100.846 209.795 99.6836 208.574 97.8672 208.574H94.4102V213.438ZM94.4102 207.051H97.5547C99.0879 207.061 100.289 206.104 100.289 204.629C100.289 203.398 99.459 202.422 97.6133 202.422H94.4102V207.051ZM109.156 215.215C106.266 215.225 104.312 213.037 104.312 209.746C104.312 206.436 106.266 204.258 109.156 204.258C112.037 204.258 113.971 206.436 113.961 209.746C113.971 213.037 112.037 215.225 109.156 215.215ZM105.992 209.746C106.002 211.865 106.998 213.73 109.156 213.73C111.295 213.73 112.281 211.865 112.281 209.746C112.281 207.637 111.295 205.742 109.156 205.742C106.998 205.742 106.002 207.637 105.992 209.746ZM116.988 204.395L119.488 208.711L122.008 204.395H123.941L120.523 209.688L123.941 215H122.027L119.488 210.898L116.988 215H115.055L118.395 209.688L115.055 204.395H116.988Z" fill="#474747"/>
<path d="M27 189H317.5" stroke="#494949" stroke-width="0.5"/>
<rect x="59.5" y="86.5" width="40" height="40" rx="5.5" stroke="#B9B9B9"/>
<rect x="120.5" y="86.5" width="40" height="40" rx="5.5" stroke="#B9B9B9"/>
<rect x="242.5" y="86.5" width="40" height="40" rx="5.5" stroke="#B9B9B9"/>
<rect x="181" y="86" width="41" height="41" rx="3" fill="#9AC5E5"/>
<path d="M188.321 102.107L197.964 113.821L214.679 99.1786" stroke="white" stroke-width="2" stroke-linecap="round" stroke-linejoin="round"/>
<defs>
<filter id="filter0_d_618_2" x="0" y="0" width="343" height="251" filterUnits="userSpaceOnUse" color-interpolation-filters="sRGB">
<feFlood flood-opacity="0" result="BackgroundImageFix"/>
<feColorMatrix in="SourceAlpha" type="matrix" values="0 0 0 0 0 0 0 0 0 0 0 0 0 0 0 0 0 0 127 0" result="hardAlpha"/>
<feOffset dy="5"/>
<feGaussianBlur stdDeviation="7.5"/>
<feComposite in2="hardAlpha" operator="out"/>
<feColorMatrix type="matrix" values="0 0 0 0 0 0 0 0 0 0 0 0 0 0 0 0 0 0 0.25 0"/>
<feBlend mode="normal" in2="BackgroundImageFix" result="effect1_dropShadow_618_2"/>
<feBlend mode="normal" in="SourceGraphic" in2="effect1_dropShadow_618_2" result="shape"/>
</filter>
</defs>
</svg>
