<svg width="343" height="251" viewBox="0 0 343 251" fill="none" xmlns="http://www.w3.org/2000/svg">
<g filter="url(#filter0_d_1234_2)">
<rect x="15" y="10" width="313" height="221" rx="18" fill="#333742"/>
</g>
<path d="M43.2109 205.312C42.8008 203.359 41.1211 202.305 39.2656 202.305C36.707 202.305 34.7148 204.277 34.7148 207.93C34.7148 211.582 36.707 213.555 39.2656 213.555C41.1211 213.555 42.7812 212.5 43.2109 210.566H44.9688C44.4609 213.457 42.1367 215.195 39.2656 215.195C35.6328 215.195 33.0156 212.402 33.0156 207.93C33.0156 203.457 35.6328 200.664 39.2656 200.664C42.1172 200.664 44.4414 202.383 44.9688 205.312H43.2109ZM51.5508 215.215C48.6602 215.215 46.707 213.047 46.707 209.746C46.707 206.445 48.6602 204.258 51.5508 204.258C54.4219 204.258 56.3555 206.445 56.3555 209.746C56.3555 213.047 54.4219 215.215 51.5508 215.215ZM51.5508 213.73C53.6797 213.73 54.6758 211.855 54.6758 209.746C54.6758 207.637 53.6797 205.742 51.5508 205.742C49.3828 205.742 48.3867 207.637 48.3867 209.746C48.3867 211.855 49.3828 213.73 51.5508 213.73ZM60.2422 200.859V215H58.5625V200.859H60.2422ZM67.2539 215.215C64.3633 215.215 62.4102 213.047 62.4102 209.746C62.4102 206.445 64.3633 204.258 67.2539 204.258C70.125 204.258 72.0586 206.445 72.0586 209.746C72.0586 213.047 70.125 215.215 67.2539 215.215ZM67.2539 213.73C69.3828 213.73 70.3789 211.855 70.3789 209.746C70.3789 207.637 69.3828 205.742 67.2539 205.742C65.0859 205.742 64.0898 207.637 64.0898 209.746C64.0898 211.855 65.0859 213.73 67.2539 213.73ZM74.2656 215V204.395H75.8867V206.016H76.0039C76.3945 204.941 77.4883 204.219 78.7383 204.219C78.9922 204.219 79.4219 204.238 79.6172 204.258V205.957C79.5 205.918 79.0312 205.84 78.6016 205.84C77.0781 205.84 75.9453 206.895 75.9453 208.32V215H74.2656ZM81.4727 215V200.859H86.2773C89.5977 200.859 91.1016 202.832 91.1016 205.352C91.1016 207.852 89.5977 209.863 86.2969 209.863H83.2305V215H81.4727ZM83.2305 208.301H86.2188C88.4648 208.301 89.3633 207.031 89.3633 205.352C89.3633 203.652 88.4648 202.422 86.1992 202.422H83.2305V208.301ZM93.3477 215V204.395H95.0273V215H93.3477ZM94.1875 202.637C93.543 202.637 93.0156 202.148 93.0156 201.523C93.0156 200.898 93.543 200.41 94.1875 200.41C94.832 200.41 95.3789 200.898 95.3789 201.523C95.3789 202.148 94.832 202.637 94.1875 202.637ZM102.039 215.215C99.0312 215.215 97.1953 212.93 97.1953 209.746C97.1953 206.523 99.1094 204.258 102 204.258C104.266 204.258 105.945 205.586 106.219 207.598H104.539C104.305 206.621 103.445 205.742 102.039 205.742C100.145 205.742 98.875 207.305 98.875 209.688C98.875 212.148 100.105 213.711 102.039 213.711C103.289 213.711 104.246 213.047 104.539 211.875H106.219C105.945 213.77 104.402 215.215 102.039 215.215ZM108.289 215V200.859H109.969V209.082H110.164L114.754 204.395H116.824L112.352 208.926L117.156 215H115.027L111.102 210L109.969 211.035V215H108.289ZM122.625 215.215C119.559 215.215 117.664 213.047 117.664 209.785C117.664 206.523 119.578 204.258 122.469 204.258C124.695 204.258 127.039 205.625 127.039 209.551V210.254H119.344C119.422 212.5 120.73 213.73 122.625 213.73C123.895 213.73 124.695 213.184 125.086 212.52H126.883C126.375 214.121 124.812 215.215 122.625 215.215ZM119.363 208.828H125.34C125.34 207.051 124.207 205.742 122.469 205.742C120.633 205.742 119.461 207.188 119.363 208.828ZM129.227 215V204.395H130.848V206.016H130.965C131.355 204.941 132.449 204.219 133.699 204.219C133.953 204.219 134.383 204.238 134.578 204.258V205.957C134.461 205.918 133.992 205.84 133.562 205.84C132.039 205.84 130.906 206.895 130.906 208.32V215H129.227Z" fill="#DFDFDF"/>
<path d="M26 189H316.5" stroke="#DFDFDF" stroke-width="0.5"/>
<rect x="45.25" y="45.25" width="31.5" height="31.5" rx="5.75" stroke="#2B6490" stroke-width="0.5"/>
<rect x="47" y="47" width="28" height="28" rx="5" fill="#2A6490"/>
<g filter="url(#filter1_d_1234_2)">
<rect x="82" y="45" width="211" height="131" rx="6" fill="#2A2E39"/>
</g>
<rect x="90" y="52" width="196" height="93" rx="4" fill="url(#paint0_linear_1234_2)"/>
<rect x="286" y="145" width="196" height="93" rx="4" transform="rotate(-180 286 145)" fill="url(#paint1_linear_1234_2)"/>
<rect x="286" y="145" width="196" height="93" rx="4" transform="rotate(-180 286 145)" fill="url(#paint2_linear_1234_2)"/>
<path d="M175.84 164V156.93H176.533V160.152H180.488V156.93H181.191V164H180.488V160.768H176.533V164H175.84ZM182.871 164V156.93H187.012V157.555H183.564V160.152H186.797V160.768H183.564V163.375H187.08V164H182.871ZM188.672 156.93L190.586 159.967H190.635L192.568 156.93H193.389L191.123 160.465L193.389 164H192.568L190.635 161.002H190.586L188.662 164H187.842L190.146 160.465L187.842 156.93H188.672Z" fill="#DFDFDF"/>
<path d="M234.939 156.832C236.17 156.842 237.41 157.662 237.41 160.162C237.41 162.506 236.531 164.098 234.842 164.098C233.641 164.098 232.811 163.336 232.654 162.213H233.348C233.484 162.945 234.002 163.473 234.842 163.473C236.053 163.473 236.756 162.379 236.756 160.436H236.678C236.316 161.061 235.623 161.451 234.842 161.451C233.602 161.451 232.586 160.484 232.586 159.156C232.586 157.877 233.514 156.822 234.939 156.832ZM234.939 157.447C233.973 157.447 233.25 158.219 233.26 159.147C233.26 160.094 233.973 160.836 234.939 160.836C235.926 160.836 236.688 160.016 236.629 159.107C236.561 158.18 235.877 157.447 234.939 157.447ZM238.914 164H238.182L240.75 156.93H241.502L244.07 164H243.338L242.596 161.9H239.656L238.914 164ZM239.881 161.285H242.381L241.15 157.828H241.102L239.881 161.285ZM249.637 159.147C249.441 158.18 248.602 157.486 247.527 157.486C246.199 157.486 245.135 158.531 245.135 160.465C245.135 162.398 246.199 163.443 247.527 163.443C248.602 163.443 249.441 162.75 249.637 161.783H250.34C250.105 163.102 249.021 164.098 247.527 164.098C245.73 164.098 244.451 162.682 244.451 160.465C244.451 158.248 245.73 156.832 247.527 156.832C249.021 156.832 250.096 157.809 250.34 159.147H249.637ZM253.699 164.098C252.459 164.098 251.531 163.316 251.502 162.223H252.176C252.215 162.945 252.859 163.482 253.699 163.482C254.686 163.482 255.398 162.74 255.389 161.773C255.389 160.758 254.637 160.055 253.65 160.045C253.055 160.045 252.566 160.24 252.283 160.699H251.59L252.078 156.93H255.76V157.555H252.664L252.361 159.889H252.42C252.732 159.596 253.24 159.42 253.768 159.42C255.066 159.42 256.072 160.387 256.072 161.764C256.072 163.111 255.076 164.098 253.699 164.098ZM257.498 164V156.93H261.639V157.555H258.191V160.152H261.424V160.768H258.191V163.375H261.707V164H257.498ZM265.154 164.098C263.914 164.098 262.986 163.316 262.957 162.223H263.631C263.67 162.945 264.314 163.482 265.154 163.482C266.141 163.482 266.854 162.74 266.844 161.773C266.844 160.758 266.092 160.055 265.105 160.045C264.51 160.045 264.021 160.24 263.738 160.699H263.045L263.533 156.93H267.215V157.555H264.119L263.816 159.889H263.875C264.188 159.596 264.695 159.42 265.223 159.42C266.521 159.42 267.527 160.387 267.527 161.764C267.527 163.111 266.531 164.098 265.154 164.098Z" fill="#DFDFDF"/>
<path d="M212.359 164L212.691 161.979H210.787L210.455 164H209.879L210.211 161.979H209.098L209.186 161.412H210.309L210.621 159.518H209.508L209.596 158.951H210.709L211.041 156.93H211.607L211.285 158.951H213.189L213.521 156.93H214.098L213.766 158.951H214.879L214.791 159.518H213.678L213.365 161.412H214.469L214.381 161.979H213.268L212.936 164H212.359ZM210.875 161.412H212.789L213.102 159.518H211.188L210.875 161.412Z" fill="#DFDFDF"/>
<rect x="203.25" y="151.25" width="81.5" height="18.5" rx="2.75" stroke="#DFDFDF" stroke-width="0.5"/>
<defs>
<filter id="filter0_d_1234_2" x="0" y="0" width="343" height="251" filterUnits="userSpaceOnUse" color-interpolation-filters="sRGB">
<feFlood flood-opacity="0" result="BackgroundImageFix"/>
<feColorMatrix in="SourceAlpha" type="matrix" values="0 0 0 0 0 0 0 0 0 0 0 0 0 0 0 0 0 0 127 0" result="hardAlpha"/>
<feOffset dy="5"/>
<feGaussianBlur stdDeviation="7.5"/>
<feComposite in2="hardAlpha" operator="out"/>
<feColorMatrix type="matrix" values="0 0 0 0 0 0 0 0 0 0 0 0 0 0 0 0 0 0 0.25 0"/>
<feBlend mode="normal" in2="BackgroundImageFix" result="effect1_dropShadow_1234_2"/>
<feBlend mode="normal" in="SourceGraphic" in2="effect1_dropShadow_1234_2" result="shape"/>
</filter>
<filter id="filter1_d_1234_2" x="67" y="30" width="241" height="161" filterUnits="userSpaceOnUse" color-interpolation-filters="sRGB">
<feFlood flood-opacity="0" result="BackgroundImageFix"/>
<feColorMatrix in="SourceAlpha" type="matrix" values="0 0 0 0 0 0 0 0 0 0 0 0 0 0 0 0 0 0 127 0" result="hardAlpha"/>
<feOffset/>
<feGaussianBlur stdDeviation="7.5"/>
<feComposite in2="hardAlpha" operator="out"/>
<feColorMatrix type="matrix" values="0 0 0 0 0 0 0 0 0 0 0 0 0 0 0 0 0 0 0.15 0"/>
<feBlend mode="normal" in2="BackgroundImageFix" result="effect1_dropShadow_1234_2"/>
<feBlend mode="normal" in="SourceGraphic" in2="effect1_dropShadow_1234_2" result="shape"/>
</filter>
<linearGradient id="paint0_linear_1234_2" x1="281.5" y1="55" x2="281.5" y2="177" gradientUnits="userSpaceOnUse">
<stop stop-color="#2B6490"/>
<stop offset="0.996227"/>
</linearGradient>
<linearGradient id="paint1_linear_1234_2" x1="482" y1="191.5" x2="286" y2="191.5" gradientUnits="userSpaceOnUse">
<stop stop-color="white"/>
<stop offset="0.565" stop-color="#999999" stop-opacity="0"/>
</linearGradient>
<linearGradient id="paint2_linear_1234_2" x1="384" y1="145" x2="384" y2="238" gradientUnits="userSpaceOnUse">
<stop/>
<stop offset="0.45" stop-color="#999999" stop-opacity="0"/>
</linearGradient>
</defs>
</svg>
