<svg width="343" height="251" viewBox="0 0 343 251" fill="none" xmlns="http://www.w3.org/2000/svg">
<g filter="url(#filter0_d_487_1035)">
<rect x="15" y="10" width="313" height="221" rx="18" fill="white"/>
</g>
<path d="M43.2109 205.312C42.8008 203.359 41.1309 202.305 39.2656 202.305C36.707 202.305 34.7246 204.277 34.7148 207.93C34.7246 211.572 36.707 213.545 39.2656 213.555C41.1309 213.545 42.791 212.5 43.2109 210.566H44.9688C44.4609 213.457 42.1367 215.195 39.2656 215.195C35.6328 215.195 33.0059 212.402 33.0156 207.93C33.0059 203.457 35.6328 200.664 39.2656 200.664C42.127 200.664 44.4414 202.373 44.9688 205.312H43.2109ZM51.5508 215.215C48.6602 215.225 46.707 213.037 46.707 209.746C46.707 206.436 48.6602 204.258 51.5508 204.258C54.4316 204.258 56.3652 206.436 56.3555 209.746C56.3652 213.037 54.4316 215.225 51.5508 215.215ZM48.3867 209.746C48.3965 211.865 49.3926 213.73 51.5508 213.73C53.6895 213.73 54.6758 211.865 54.6758 209.746C54.6758 207.637 53.6895 205.742 51.5508 205.742C49.3926 205.742 48.3965 207.637 48.3867 209.746ZM60.2422 200.859V215H58.5625V200.859H60.2422ZM67.2539 215.215C64.3633 215.225 62.4102 213.037 62.4102 209.746C62.4102 206.436 64.3633 204.258 67.2539 204.258C70.1348 204.258 72.0684 206.436 72.0586 209.746C72.0684 213.037 70.1348 215.225 67.2539 215.215ZM64.0898 209.746C64.0996 211.865 65.0957 213.73 67.2539 213.73C69.3926 213.73 70.3789 211.865 70.3789 209.746C70.3789 207.637 69.3926 205.742 67.2539 205.742C65.0957 205.742 64.0996 207.637 64.0898 209.746ZM74.2656 215V204.395H75.8867V206.016H76.0039C76.3848 204.941 77.4883 204.229 78.7383 204.219C78.9922 204.229 79.4219 204.238 79.6172 204.258V205.957C79.4902 205.928 79.041 205.84 78.6016 205.84C77.0781 205.84 75.9453 206.895 75.9453 208.32V215H74.2656ZM81.4727 215V200.859H86.2773C89.5879 200.859 91.1016 202.832 91.1016 205.352C91.1016 207.861 89.5879 209.863 86.2969 209.863H83.2305V215H81.4727ZM83.2305 208.301H86.2188C88.4746 208.301 89.3535 207.031 89.3633 205.352C89.3535 203.662 88.4746 202.422 86.1992 202.422H83.2305V208.301ZM93.3477 215V204.395H95.0273V215H93.3477ZM93.0156 201.523C93.0059 200.898 93.543 200.4 94.1875 200.41C94.832 200.4 95.3691 200.898 95.3789 201.523C95.3691 202.139 94.832 202.637 94.1875 202.637C93.543 202.637 93.0059 202.139 93.0156 201.523ZM102.039 215.215C99.0312 215.225 97.1953 212.93 97.1953 209.746C97.1953 206.523 99.1191 204.258 102 204.258C104.256 204.258 105.955 205.596 106.219 207.598H104.539C104.295 206.631 103.455 205.742 102.039 205.742C100.145 205.742 98.8848 207.305 98.875 209.688C98.8848 212.139 100.115 213.711 102.039 213.711C103.289 213.711 104.246 213.037 104.539 211.875H106.219C105.955 213.77 104.393 215.225 102.039 215.215ZM108.289 215V200.859H109.969V209.082H110.164L114.754 204.395H116.824L112.352 208.936L117.156 215H115.027L111.092 210L109.969 211.045V215H108.289ZM122.625 215.215C119.559 215.225 117.664 213.037 117.664 209.785C117.664 206.523 119.588 204.258 122.469 204.258C124.695 204.258 127.049 205.625 127.039 209.551V210.254H119.344C119.432 212.5 120.74 213.73 122.625 213.73C123.895 213.73 124.695 213.174 125.086 212.52H126.883C126.385 214.131 124.812 215.225 122.625 215.215ZM119.354 208.828H125.34C125.33 207.061 124.217 205.742 122.469 205.742C120.633 205.742 119.471 207.188 119.354 208.828ZM129.227 215V204.395H130.848V206.016H130.965C131.346 204.941 132.449 204.229 133.699 204.219C133.953 204.229 134.383 204.238 134.578 204.258V205.957C134.451 205.928 134.002 205.84 133.562 205.84C132.039 205.84 130.906 206.895 130.906 208.32V215H129.227Z" fill="#474747"/>
<path d="M26 189H316.5" stroke="#494949" stroke-width="0.5"/>
<rect x="45.25" y="45.25" width="31.5" height="31.5" rx="5.75" stroke="#9AC5E5" stroke-width="0.5"/>
<rect x="47" y="47" width="28" height="28" rx="5" fill="#9AC5E5"/>
<g filter="url(#filter1_d_487_1035)">
<rect x="82" y="45" width="211" height="131" rx="6" fill="white"/>
</g>
<rect x="90" y="52" width="196" height="93" rx="4" fill="url(#paint0_linear_487_1035)"/>
<rect x="286" y="145" width="196" height="93" rx="4" transform="rotate(-180 286 145)" fill="url(#paint1_linear_487_1035)"/>
<rect x="286" y="145" width="196" height="93" rx="4" transform="rotate(-180 286 145)" fill="url(#paint2_linear_487_1035)"/>
<path d="M175.84 164V156.93H176.533V160.152H180.488V156.93H181.191V164H180.488V160.768H176.533V164H175.84ZM182.871 164V156.93H187.012V157.555H183.564V160.152H186.797V160.768H183.564V163.375H187.08V164H182.871ZM188.672 156.93L190.586 159.967H190.635L192.568 156.93H193.389L191.123 160.465L193.389 164H192.568L190.635 161.002H190.586L188.662 164H187.842L190.146 160.465L187.842 156.93H188.672Z" fill="black"/>
<path d="M234.939 156.832C236.17 156.842 237.41 157.667 237.41 160.162C237.41 162.506 236.536 164.098 234.842 164.098C233.636 164.098 232.806 163.336 232.654 162.213H233.348C233.479 162.94 233.997 163.473 234.842 163.473C236.048 163.473 236.751 162.374 236.756 160.436H236.678C236.316 161.061 235.623 161.456 234.842 161.451C233.606 161.456 232.581 160.489 232.586 159.156C232.581 157.877 233.514 156.822 234.939 156.832ZM233.26 159.146C233.26 160.089 233.973 160.836 234.939 160.836C235.921 160.836 236.688 160.016 236.629 159.107C236.556 158.175 235.872 157.447 234.939 157.447C233.978 157.447 233.255 158.214 233.26 159.146ZM238.914 164H238.182L240.75 156.93H241.502L244.07 164H243.338L242.596 161.9H239.656L238.914 164ZM239.876 161.285H242.376L241.15 157.828H241.102L239.876 161.285ZM249.637 159.146C249.441 158.185 248.602 157.486 247.527 157.486C246.199 157.486 245.13 158.536 245.135 160.465C245.13 162.398 246.199 163.443 247.527 163.443C248.602 163.443 249.437 162.75 249.637 161.783H250.34C250.105 163.102 249.026 164.098 247.527 164.098C245.73 164.098 244.451 162.682 244.451 160.465C244.451 158.248 245.73 156.832 247.527 156.832C249.021 156.832 250.101 157.813 250.34 159.146H249.637ZM253.699 164.098C252.459 164.098 251.536 163.316 251.502 162.223H252.176C252.215 162.95 252.854 163.478 253.699 163.482C254.69 163.478 255.394 162.745 255.389 161.773C255.389 160.763 254.637 160.055 253.65 160.045C253.05 160.04 252.562 160.245 252.283 160.699H251.59L252.078 156.93H255.76V157.555H252.664L252.361 159.889H252.42C252.728 159.596 253.24 159.42 253.768 159.42C255.071 159.42 256.072 160.387 256.072 161.764C256.067 163.111 255.071 164.098 253.699 164.098ZM257.498 164V156.93H261.639V157.555H258.191V160.152H261.424V160.768H258.191V163.375H261.707V164H257.498ZM265.154 164.098C263.914 164.098 262.991 163.316 262.957 162.223H263.631C263.67 162.95 264.31 163.478 265.154 163.482C266.146 163.478 266.849 162.745 266.844 161.773C266.844 160.763 266.092 160.055 265.105 160.045C264.505 160.04 264.017 160.245 263.738 160.699H263.045L263.533 156.93H267.215V157.555H264.119L263.816 159.889H263.875C264.183 159.596 264.695 159.42 265.223 159.42C266.526 159.42 267.527 160.387 267.527 161.764C267.522 163.111 266.526 164.098 265.154 164.098Z" fill="black"/>
<path d="M212.359 164L212.691 161.979H210.782L210.455 164H209.879L210.211 161.979H209.098L209.186 161.412H210.304L210.616 159.518H209.508L209.596 158.951H210.709L211.041 156.93H211.607L211.28 158.951H213.189L213.521 156.93H214.098L213.766 158.951H214.879L214.791 159.518H213.673L213.36 161.412H214.469L214.381 161.979H213.268L212.936 164H212.359ZM210.875 161.412H212.784L213.097 159.518H211.188L210.875 161.412Z" fill="#D9D9D9"/>
<rect x="203.25" y="151.25" width="81.5" height="18.5" rx="2.75" stroke="#D9D9D9" stroke-width="0.5"/>
<defs>
<filter id="filter0_d_487_1035" x="0" y="0" width="343" height="251" filterUnits="userSpaceOnUse" color-interpolation-filters="sRGB">
<feFlood flood-opacity="0" result="BackgroundImageFix"/>
<feColorMatrix in="SourceAlpha" type="matrix" values="0 0 0 0 0 0 0 0 0 0 0 0 0 0 0 0 0 0 127 0" result="hardAlpha"/>
<feOffset dy="5"/>
<feGaussianBlur stdDeviation="7.5"/>
<feComposite in2="hardAlpha" operator="out"/>
<feColorMatrix type="matrix" values="0 0 0 0 0 0 0 0 0 0 0 0 0 0 0 0 0 0 0.25 0"/>
<feBlend mode="normal" in2="BackgroundImageFix" result="effect1_dropShadow_487_1035"/>
<feBlend mode="normal" in="SourceGraphic" in2="effect1_dropShadow_487_1035" result="shape"/>
</filter>
<filter id="filter1_d_487_1035" x="67" y="30" width="241" height="161" filterUnits="userSpaceOnUse" color-interpolation-filters="sRGB">
<feFlood flood-opacity="0" result="BackgroundImageFix"/>
<feColorMatrix in="SourceAlpha" type="matrix" values="0 0 0 0 0 0 0 0 0 0 0 0 0 0 0 0 0 0 127 0" result="hardAlpha"/>
<feOffset/>
<feGaussianBlur stdDeviation="7.5"/>
<feComposite in2="hardAlpha" operator="out"/>
<feColorMatrix type="matrix" values="0 0 0 0 0 0 0 0 0 0 0 0 0 0 0 0 0 0 0.15 0"/>
<feBlend mode="normal" in2="BackgroundImageFix" result="effect1_dropShadow_487_1035"/>
<feBlend mode="normal" in="SourceGraphic" in2="effect1_dropShadow_487_1035" result="shape"/>
</filter>
<linearGradient id="paint0_linear_487_1035" x1="281.5" y1="55" x2="281.5" y2="177" gradientUnits="userSpaceOnUse">
<stop stop-color="#9AC5E5"/>
<stop offset="0.996227"/>
</linearGradient>
<linearGradient id="paint1_linear_487_1035" x1="482" y1="191.5" x2="286" y2="191.5" gradientUnits="userSpaceOnUse">
<stop stop-color="white"/>
<stop offset="0.565" stop-color="#999999" stop-opacity="0"/>
</linearGradient>
<linearGradient id="paint2_linear_487_1035" x1="384" y1="145" x2="384" y2="238" gradientUnits="userSpaceOnUse">
<stop/>
<stop offset="0.45" stop-color="#999999" stop-opacity="0"/>
</linearGradient>
</defs>
</svg>
