<svg width="404" height="137" viewBox="0 0 404 137" fill="none" xmlns="http://www.w3.org/2000/svg">
<g filter="url(#filter0_i_235_7)">
<rect width="404" height="137" rx="68.5" fill="#ECD9A5"/>
</g>
<g filter="url(#filter1_d_235_7)">
<ellipse cx="77.5" cy="68.5" rx="57.5" ry="56.5" fill="#9AC5E5"/>
</g>
<path d="M80.01 95.84C71.9833 95.84 65.38 93.3667 60.2 88.42C55.0667 83.4267 52.5 77.1267 52.5 69.52C52.5 61.7267 55.0433 55.4033 60.13 50.55C65.2633 45.65 71.8667 43.2 79.94 43.2C83.3933 43.2 86.38 43.7833 88.9 44.95L96.32 49.15C97.72 49.15 98.6533 48.6833 99.12 47.75C99.5867 46.77 99.9133 45.3933 100.1 43.62H101.5V65.74H100.31C98.2567 60.0467 96.7867 56.1967 95.9 54.19C95.06 52.1833 93.6367 50.2467 91.63 48.38C89.6233 46.5133 87.0567 45.58 83.93 45.58C79.87 45.58 76.86 47.8667 74.9 52.44C72.94 57.0133 71.96 62.3567 71.96 68.47C71.96 75.05 73.1267 80.7667 75.46 85.62C77.84 90.4267 81.3167 92.83 85.89 92.83C90.1367 92.83 93.5433 91.29 96.11 88.21C98.6767 85.13 100.38 81.1167 101.22 76.17L102.41 76.38C101.757 81.98 99.6333 86.6233 96.04 90.31C92.4467 93.9967 87.1033 95.84 80.01 95.84Z" fill="white"/>
<path d="M157.2 95.52C157.2 98.3467 156.12 100.707 153.96 102.6C151.827 104.467 149.307 105.4 146.4 105.4C143.333 105.4 140.76 104.467 138.68 102.6C136.627 100.707 135.6 98.3467 135.6 95.52C135.6 92.6933 136.64 90.3467 138.72 88.48C140.827 86.5867 143.387 85.64 146.4 85.64C149.36 85.64 151.893 86.5733 154 88.44C156.133 90.3067 157.2 92.6667 157.2 95.52ZM149.24 95.48C149.24 95.1067 149.213 94.36 149.16 93.24C149.107 92.12 149.08 91.4533 149.08 91.24C149.08 89.8 148.853 88.6133 148.4 87.68C147.973 86.7467 147.293 86.28 146.36 86.28C145.507 86.28 144.853 86.7733 144.4 87.76C143.947 88.72 143.72 89.88 143.72 91.24C143.72 91.7467 143.693 92.3733 143.64 93.12C143.613 93.84 143.587 94.6267 143.56 95.48C143.56 95.8533 143.587 96.6267 143.64 97.8C143.693 98.9467 143.72 99.6133 143.72 99.8C143.72 101.24 143.933 102.427 144.36 103.36C144.813 104.293 145.493 104.76 146.4 104.76C147.28 104.76 147.947 104.28 148.4 103.32C148.853 102.36 149.08 101.187 149.08 99.8C149.08 99.2667 149.093 98.64 149.12 97.92C149.147 97.1733 149.187 96.36 149.24 95.48ZM195.493 105H183.453V104.36C184.386 104.36 184.933 104.213 185.093 103.92C185.279 103.627 185.373 102.933 185.373 101.84L185.413 100V91.92L185.373 90.28C185.373 89.1333 185.226 88.3067 184.933 87.8C184.666 87.2933 184.173 87.04 183.453 87.04C182.973 87.04 182.453 87.2667 181.893 87.72C181.359 88.1467 180.999 89 180.813 90.28V100L180.853 101.84C180.853 102.693 180.893 103.307 180.973 103.68C181.079 104.053 181.599 104.28 182.533 104.36V105H171.173V104.36C172.079 104.36 172.626 104.213 172.813 103.92C172.999 103.627 173.093 102.933 173.093 101.84L173.133 100V91.92L173.093 90.28C173.093 89.1333 172.946 88.3067 172.653 87.8C172.386 87.2933 171.893 87.04 171.173 87.04C170.266 87.04 169.639 87.3333 169.293 87.92C168.973 88.5067 168.719 89.1067 168.533 89.72V100L168.573 101.84C168.573 102.693 168.613 103.307 168.693 103.68C168.799 104.053 169.319 104.28 170.253 104.36V105H158.293V104.36L159.173 104.32C159.946 104.24 160.413 104.053 160.573 103.76C160.733 103.467 160.813 102.827 160.813 101.84L160.853 100V90.44L160.813 88.8C160.759 88.16 160.679 87.68 160.573 87.36C160.466 87.04 159.986 86.84 159.132 86.76L158.213 86.68V86.04H168.372V89.04C168.613 88.2933 169.079 87.5467 169.773 86.8C170.493 86.0267 171.933 85.64 174.093 85.64C175.586 85.64 176.879 85.96 177.973 86.6C179.093 87.2133 179.919 88.1467 180.453 89.4C180.586 88.92 180.933 88.1733 181.493 87.16C182.079 86.1467 183.706 85.64 186.373 85.64C188.186 85.64 189.759 86.1467 191.093 87.16C192.426 88.1733 193.093 89.48 193.093 91.08V100L193.133 101.84C193.133 102.853 193.199 103.493 193.333 103.76C193.493 104.027 193.973 104.213 194.773 104.32L195.493 104.36V105ZM206.264 102.24C206.371 102.907 206.664 103.413 207.144 103.76C207.651 104.107 208.211 104.28 208.824 104.28C209.651 104.28 210.264 103.88 210.664 103.08C211.091 102.28 211.357 101.4 211.464 100.44C211.571 99.48 211.637 98.6267 211.664 97.88C211.717 97.1333 211.744 96.32 211.744 95.44V92.84C211.664 92.0667 211.571 91.2667 211.464 90.44C211.384 89.5867 211.131 88.7733 210.704 88C210.277 87.2 209.624 86.8 208.744 86.8C208.211 86.8 207.691 87.04 207.184 87.52C206.704 87.9733 206.411 88.5333 206.304 89.2C206.251 89.84 206.211 90.68 206.184 91.72C206.157 92.7333 206.144 93.7467 206.144 94.76V99.16C206.144 100.387 206.184 101.413 206.264 102.24ZM195.224 114.24V113.6L196.624 113.52C197.397 113.44 197.891 113.267 198.104 113C198.317 112.76 198.424 112.253 198.424 111.48L198.464 109.84V90.44L198.424 88.8C198.424 88.0533 198.304 87.5467 198.064 87.28C197.851 87.0133 197.357 86.84 196.584 86.76L195.304 86.68V86.04H206.064V88.4C206.357 87.7867 206.824 87.1733 207.464 86.56C208.131 85.9467 209.371 85.64 211.184 85.64C213.744 85.64 215.824 86.5333 217.424 88.32C219.024 90.1067 219.824 92.5333 219.824 95.6C219.824 98.56 219.024 100.933 217.424 102.72C215.824 104.507 213.744 105.4 211.184 105.4C209.317 105.4 208.077 105.147 207.464 104.64C206.851 104.133 206.397 103.6 206.104 103.04L206.144 105.4V109.2L206.224 111.04C206.304 111.947 206.477 112.547 206.744 112.84C207.037 113.16 207.597 113.373 208.424 113.48L210.344 113.6V114.24H195.224ZM242.63 95.52C242.63 98.3467 241.55 100.707 239.39 102.6C237.256 104.467 234.736 105.4 231.83 105.4C228.763 105.4 226.19 104.467 224.11 102.6C222.056 100.707 221.03 98.3467 221.03 95.52C221.03 92.6933 222.07 90.3467 224.15 88.48C226.256 86.5867 228.816 85.64 231.83 85.64C234.79 85.64 237.323 86.5733 239.43 88.44C241.563 90.3067 242.63 92.6667 242.63 95.52ZM234.67 95.48C234.67 95.1067 234.643 94.36 234.59 93.24C234.536 92.12 234.51 91.4533 234.51 91.24C234.51 89.8 234.283 88.6133 233.83 87.68C233.403 86.7467 232.723 86.28 231.79 86.28C230.936 86.28 230.283 86.7733 229.83 87.76C229.376 88.72 229.15 89.88 229.15 91.24C229.15 91.7467 229.123 92.3733 229.07 93.12C229.043 93.84 229.016 94.6267 228.99 95.48C228.99 95.8533 229.016 96.6267 229.07 97.8C229.123 98.9467 229.15 99.6133 229.15 99.8C229.15 101.24 229.363 102.427 229.79 103.36C230.243 104.293 230.923 104.76 231.83 104.76C232.71 104.76 233.376 104.28 233.83 103.32C234.283 102.36 234.51 101.187 234.51 99.8C234.51 99.2667 234.523 98.64 234.55 97.92C234.576 97.1733 234.616 96.36 234.67 95.48ZM259.082 91.84L259.042 90.2C259.042 88.12 258.309 87.08 256.842 87.08C255.909 87.08 255.242 87.3733 254.842 87.96C254.469 88.5467 254.162 89.1467 253.922 89.76V100L253.962 101.84C253.962 102.933 254.056 103.627 254.242 103.92C254.456 104.213 255.056 104.36 256.042 104.36V105H243.602V104.36L244.562 104.32C245.336 104.24 245.802 104.053 245.962 103.76C246.122 103.467 246.202 102.827 246.202 101.84L246.242 100V90.44L246.202 88.8C246.149 88.16 246.069 87.68 245.962 87.36C245.856 87.04 245.376 86.84 244.522 86.76L243.602 86.68V86.04H253.762V89.04C254.056 88.2933 254.576 87.5467 255.322 86.8C256.096 86.0267 257.576 85.64 259.762 85.64C261.656 85.64 263.296 86.1733 264.682 87.24C266.069 88.3067 266.762 89.56 266.762 91V100L266.802 101.84C266.802 102.8 266.882 103.44 267.042 103.76C267.202 104.053 267.669 104.24 268.442 104.32L269.322 104.36V105H256.962V104.36C257.922 104.36 258.509 104.213 258.722 103.92C258.936 103.6 259.042 102.907 259.042 101.84L259.082 100V91.84ZM282.655 105H269.695V104.36L270.655 104.32C271.428 104.24 271.895 104.053 272.055 103.76C272.215 103.467 272.295 102.827 272.295 101.84L272.335 100V90.44L272.295 88.8C272.242 88.16 272.162 87.68 272.055 87.36C271.948 87.04 271.468 86.84 270.615 86.76L269.535 86.68V86.04H280.015V100L280.055 101.84C280.055 102.8 280.135 103.44 280.295 103.76C280.455 104.053 280.922 104.24 281.695 104.32L282.655 104.36V105ZM272.255 79.36C272.255 78.32 272.628 77.44 273.375 76.72C274.148 75.9733 275.068 75.6 276.135 75.6C277.228 75.6 278.148 75.96 278.895 76.68C279.668 77.3733 280.055 78.2667 280.055 79.36C280.055 80.4267 279.668 81.3333 278.895 82.08C278.148 82.8 277.228 83.16 276.135 83.16C275.068 83.16 274.148 82.8 273.375 82.08C272.628 81.3333 272.255 80.4267 272.255 79.36ZM305.009 85.84L304.929 91.04V109.84L304.969 111.48C304.969 112.2 305.075 112.693 305.289 112.96C305.529 113.253 306.022 113.44 306.769 113.52L307.889 113.6V114.24H293.609V113.6C293.875 113.6 294.182 113.587 294.529 113.56C294.902 113.56 295.329 113.533 295.809 113.48C296.315 113.427 296.675 113.267 296.889 113C297.102 112.76 297.209 112.253 297.209 111.48L297.249 109.84V103.04C296.982 103.573 296.529 104.107 295.889 104.64C295.275 105.147 294.049 105.4 292.209 105.4C289.675 105.4 287.595 104.507 285.969 102.72C284.369 100.907 283.569 98.5333 283.569 95.6C283.569 92.5867 284.582 90.1733 286.609 88.36C288.635 86.5467 291.209 85.64 294.329 85.64C296.329 85.64 297.875 86.0267 298.969 86.8C300.062 87.5467 300.982 88.32 301.729 89.12L304.609 85.84H305.009ZM297.249 95.48V91.92C297.195 91.6 297.169 91.3733 297.169 91.24C297.169 89.72 296.955 88.52 296.529 87.64C296.129 86.7333 295.435 86.28 294.449 86.28C293.595 86.28 292.942 86.7733 292.489 87.76C292.035 88.72 291.809 89.88 291.809 91.24C291.809 91.7467 291.782 92.3733 291.729 93.12C291.702 93.84 291.675 94.6267 291.649 95.48C291.649 95.8533 291.675 96.6267 291.729 97.8C291.782 98.9467 291.809 99.6133 291.809 99.8C291.809 101.107 292.035 102.2 292.489 103.08C292.942 103.933 293.622 104.36 294.529 104.36C295.329 104.36 295.929 104.12 296.329 103.64C296.729 103.133 296.955 102.64 297.009 102.16C297.062 101.68 297.115 100.547 297.169 98.76C297.222 96.9467 297.249 95.8533 297.249 95.48ZM333.502 105H323.022V102.44C322.409 103.4 321.649 104.133 320.742 104.64C319.862 105.147 318.635 105.4 317.062 105.4C315.222 105.4 313.595 104.853 312.182 103.76C310.742 102.693 310.022 101.213 310.022 99.32V90.44L309.982 88.8C309.982 88.08 309.862 87.5867 309.622 87.32C309.409 87.0267 308.929 86.84 308.182 86.76L307.062 86.68V86.04H317.702V99.12L317.742 100.76C317.742 101.853 317.929 102.68 318.302 103.24C318.702 103.773 319.289 104.04 320.062 104.04C320.915 104.04 321.529 103.8 321.902 103.32C322.302 102.84 322.622 102.347 322.862 101.84V91.04L322.782 89.2C322.782 88.32 322.635 87.72 322.342 87.4C322.049 87.08 321.462 86.8667 320.582 86.76L319.342 86.68V86.04H330.542V100.6L330.582 102.24C330.582 102.96 330.689 103.467 330.902 103.76C331.142 104.027 331.635 104.2 332.382 104.28L333.502 104.36V105ZM354.356 99C353.609 101 352.409 102.573 350.756 103.72C349.102 104.84 347.156 105.4 344.916 105.4C341.769 105.4 339.182 104.533 337.156 102.8C335.129 101.04 334.116 98.6133 334.116 95.52C334.116 92.64 335.156 90.28 337.236 88.44C339.342 86.5733 341.862 85.64 344.796 85.64C347.862 85.64 350.209 86.5067 351.836 88.24C353.462 89.9733 354.276 92.0933 354.276 94.6H341.996C341.996 95.56 342.062 96.5467 342.196 97.56C342.356 98.5467 342.636 99.5067 343.036 100.44C343.462 101.373 344.049 102.133 344.796 102.72C345.569 103.28 346.529 103.56 347.676 103.56C349.302 103.56 350.582 103.107 351.516 102.2C352.476 101.267 353.209 100.107 353.716 98.72L354.356 99ZM347.316 93.8C347.289 93.5067 347.262 93.16 347.236 92.76C347.236 92.36 347.236 91.8533 347.236 91.24C347.236 89.6133 347.036 88.3867 346.636 87.56C346.236 86.7067 345.542 86.28 344.556 86.28C343.702 86.28 343.102 86.6933 342.756 87.52C342.436 88.32 342.209 89.56 342.076 91.24L341.996 93.8H347.316Z" fill="white"/>
<defs>
<filter id="filter0_i_235_7" x="0" y="0" width="409" height="142" filterUnits="userSpaceOnUse" color-interpolation-filters="sRGB">
<feFlood flood-opacity="0" result="BackgroundImageFix"/>
<feBlend mode="normal" in="SourceGraphic" in2="BackgroundImageFix" result="shape"/>
<feColorMatrix in="SourceAlpha" type="matrix" values="0 0 0 0 0 0 0 0 0 0 0 0 0 0 0 0 0 0 127 0" result="hardAlpha"/>
<feOffset dx="5" dy="5"/>
<feGaussianBlur stdDeviation="2.5"/>
<feComposite in2="hardAlpha" operator="arithmetic" k2="-1" k3="1"/>
<feColorMatrix type="matrix" values="0 0 0 0 0 0 0 0 0 0 0 0 0 0 0 0 0 0 0.25 0"/>
<feBlend mode="normal" in2="shape" result="effect1_innerShadow_235_7"/>
</filter>
<filter id="filter1_d_235_7" x="17" y="12" width="123" height="121" filterUnits="userSpaceOnUse" color-interpolation-filters="sRGB">
<feFlood flood-opacity="0" result="BackgroundImageFix"/>
<feColorMatrix in="SourceAlpha" type="matrix" values="0 0 0 0 0 0 0 0 0 0 0 0 0 0 0 0 0 0 127 0" result="hardAlpha"/>
<feOffset dx="1" dy="4"/>
<feGaussianBlur stdDeviation="2"/>
<feComposite in2="hardAlpha" operator="out"/>
<feColorMatrix type="matrix" values="0 0 0 0 0 0 0 0 0 0 0 0 0 0 0 0 0 0 0.25 0"/>
<feBlend mode="normal" in2="BackgroundImageFix" result="effect1_dropShadow_235_7"/>
<feBlend mode="normal" in="SourceGraphic" in2="effect1_dropShadow_235_7" result="shape"/>
</filter>
</defs>
</svg>
