<svg width="437" height="69" viewBox="0 0 437 69" fill="none" xmlns="http://www.w3.org/2000/svg">
<path d="M28.01 52.84C19.9833 52.84 13.38 50.3667 8.2 45.42C3.06667 40.4267 0.5 34.1267 0.5 26.52C0.5 18.7267 3.04333 12.4033 8.13 7.55C13.2633 2.65 19.8667 0.199999 27.94 0.199999C31.3933 0.199999 34.38 0.783332 36.9 1.95L44.32 6.15C45.72 6.15 46.6533 5.68333 47.12 4.75C47.5867 3.77 47.9133 2.39333 48.1 0.619998H49.5V22.74H48.31C46.2567 17.0467 44.7867 13.1967 43.9 11.19C43.06 9.18333 41.6367 7.24666 39.63 5.38C37.6233 3.51333 35.0567 2.58 31.93 2.58C27.87 2.58 24.86 4.86666 22.9 9.44C20.94 14.0133 19.96 19.3567 19.96 25.47C19.96 32.05 21.1267 37.7667 23.46 42.62C25.84 47.4267 29.3167 49.83 33.89 49.83C38.1367 49.83 41.5433 48.29 44.11 45.21C46.6767 42.13 48.38 38.1167 49.22 33.17L50.41 33.38C49.7567 38.98 47.6333 43.6233 44.04 47.31C40.4467 50.9967 35.1033 52.84 28.01 52.84ZM91.3578 35.41C91.3578 40.3567 89.4678 44.4867 85.6878 47.8C81.9545 51.0667 77.5445 52.7 72.4578 52.7C67.0911 52.7 62.5878 51.0667 58.9478 47.8C55.3545 44.4867 53.5578 40.3567 53.5578 35.41C53.5578 30.4633 55.3778 26.3567 59.0178 23.09C62.7045 19.7767 67.1845 18.12 72.4578 18.12C77.6378 18.12 82.0711 19.7533 85.7578 23.02C89.4911 26.2867 91.3578 30.4167 91.3578 35.41ZM77.4278 35.34C77.4278 34.6867 77.3811 33.38 77.2878 31.42C77.1945 29.46 77.1478 28.2933 77.1478 27.92C77.1478 25.4 76.7511 23.3233 75.9578 21.69C75.2111 20.0567 74.0211 19.24 72.3878 19.24C70.8945 19.24 69.7511 20.1033 68.9578 21.83C68.1645 23.51 67.7678 25.54 67.7678 27.92C67.7678 28.8067 67.7211 29.9033 67.6278 31.21C67.5811 32.47 67.5345 33.8467 67.4878 35.34C67.4878 35.9933 67.5345 37.3467 67.6278 39.4C67.7211 41.4067 67.7678 42.5733 67.7678 42.9C67.7678 45.42 68.1411 47.4967 68.8878 49.13C69.6811 50.7633 70.8711 51.58 72.4578 51.58C73.9978 51.58 75.1645 50.74 75.9578 49.06C76.7511 47.38 77.1478 45.3267 77.1478 42.9C77.1478 41.9667 77.1711 40.87 77.2178 39.61C77.2645 38.3033 77.3345 36.88 77.4278 35.34ZM158.37 52H137.3V50.88C138.933 50.88 139.89 50.6233 140.17 50.11C140.496 49.5967 140.66 48.3833 140.66 46.47L140.73 43.25V29.11L140.66 26.24C140.66 24.2333 140.403 22.7867 139.89 21.9C139.423 21.0133 138.56 20.57 137.3 20.57C136.46 20.57 135.55 20.9667 134.57 21.76C133.636 22.5067 133.006 24 132.68 26.24V43.25L132.75 46.47C132.75 47.9633 132.82 49.0367 132.96 49.69C133.146 50.3433 134.056 50.74 135.69 50.88V52H115.81V50.88C117.396 50.88 118.353 50.6233 118.68 50.11C119.006 49.5967 119.17 48.3833 119.17 46.47L119.24 43.25V29.11L119.17 26.24C119.17 24.2333 118.913 22.7867 118.4 21.9C117.933 21.0133 117.07 20.57 115.81 20.57C114.223 20.57 113.126 21.0833 112.52 22.11C111.96 23.1367 111.516 24.1867 111.19 25.26V43.25L111.26 46.47C111.26 47.9633 111.33 49.0367 111.47 49.69C111.656 50.3433 112.566 50.74 114.2 50.88V52H93.2697V50.88L94.8097 50.81C96.163 50.67 96.9797 50.3433 97.2597 49.83C97.5397 49.3167 97.6797 48.1967 97.6797 46.47L97.7497 43.25V26.52L97.6797 23.65C97.5864 22.53 97.4464 21.69 97.2597 21.13C97.073 20.57 96.233 20.22 94.7397 20.08L93.1297 19.94V18.82H110.91V24.07C111.33 22.7633 112.146 21.4567 113.36 20.15C114.62 18.7967 117.14 18.12 120.92 18.12C123.533 18.12 125.796 18.68 127.71 19.8C129.67 20.8733 131.116 22.5067 132.05 24.7C132.283 23.86 132.89 22.5533 133.87 20.78C134.896 19.0067 137.743 18.12 142.41 18.12C145.583 18.12 148.336 19.0067 150.67 20.78C153.003 22.5533 154.17 24.84 154.17 27.64V43.25L154.24 46.47C154.24 48.2433 154.356 49.3633 154.59 49.83C154.87 50.2967 155.71 50.6233 157.11 50.81L158.37 50.88V52ZM177.22 47.17C177.407 48.3367 177.92 49.2233 178.76 49.83C179.647 50.4367 180.627 50.74 181.7 50.74C183.147 50.74 184.22 50.04 184.92 48.64C185.667 47.24 186.133 45.7 186.32 44.02C186.507 42.34 186.623 40.8467 186.67 39.54C186.763 38.2333 186.81 36.81 186.81 35.27V30.72C186.67 29.3667 186.507 27.9667 186.32 26.52C186.18 25.0267 185.737 23.6033 184.99 22.25C184.243 20.85 183.1 20.15 181.56 20.15C180.627 20.15 179.717 20.57 178.83 21.41C177.99 22.2033 177.477 23.1833 177.29 24.35C177.197 25.47 177.127 26.94 177.08 28.76C177.033 30.5333 177.01 32.3067 177.01 34.08V41.78C177.01 43.9267 177.08 45.7233 177.22 47.17ZM157.9 68.17V67.05L160.35 66.91C161.703 66.77 162.567 66.4667 162.94 66C163.313 65.58 163.5 64.6933 163.5 63.34L163.57 60.47V26.52L163.5 23.65C163.5 22.3433 163.29 21.4567 162.87 20.99C162.497 20.5233 161.633 20.22 160.28 20.08L158.04 19.94V18.82H176.87V22.95C177.383 21.8767 178.2 20.8033 179.32 19.73C180.487 18.6567 182.657 18.12 185.83 18.12C190.31 18.12 193.95 19.6833 196.75 22.81C199.55 25.9367 200.95 30.1833 200.95 35.55C200.95 40.73 199.55 44.8833 196.75 48.01C193.95 51.1367 190.31 52.7 185.83 52.7C182.563 52.7 180.393 52.2567 179.32 51.37C178.247 50.4833 177.453 49.55 176.94 48.57L177.01 52.7V59.35L177.15 62.57C177.29 64.1567 177.593 65.2067 178.06 65.72C178.573 66.28 179.553 66.6533 181 66.84L184.36 67.05V68.17H157.9ZM240.86 35.41C240.86 40.3567 238.97 44.4867 235.19 47.8C231.456 51.0667 227.046 52.7 221.96 52.7C216.593 52.7 212.09 51.0667 208.45 47.8C204.856 44.4867 203.06 40.3567 203.06 35.41C203.06 30.4633 204.88 26.3567 208.52 23.09C212.206 19.7767 216.686 18.12 221.96 18.12C227.14 18.12 231.573 19.7533 235.26 23.02C238.993 26.2867 240.86 30.4167 240.86 35.41ZM226.93 35.34C226.93 34.6867 226.883 33.38 226.79 31.42C226.696 29.46 226.65 28.2933 226.65 27.92C226.65 25.4 226.253 23.3233 225.46 21.69C224.713 20.0567 223.523 19.24 221.89 19.24C220.396 19.24 219.253 20.1033 218.46 21.83C217.666 23.51 217.27 25.54 217.27 27.92C217.27 28.8067 217.223 29.9033 217.13 31.21C217.083 32.47 217.036 33.8467 216.99 35.34C216.99 35.9933 217.036 37.3467 217.13 39.4C217.223 41.4067 217.27 42.5733 217.27 42.9C217.27 45.42 217.643 47.4967 218.39 49.13C219.183 50.7633 220.373 51.58 221.96 51.58C223.5 51.58 224.666 50.74 225.46 49.06C226.253 47.38 226.65 45.3267 226.65 42.9C226.65 41.9667 226.673 40.87 226.72 39.61C226.766 38.3033 226.836 36.88 226.93 35.34ZM269.652 28.97L269.582 26.1C269.582 22.46 268.298 20.64 265.732 20.64C264.098 20.64 262.932 21.1533 262.232 22.18C261.578 23.2067 261.042 24.2567 260.622 25.33V43.25L260.692 46.47C260.692 48.3833 260.855 49.5967 261.182 50.11C261.555 50.6233 262.605 50.88 264.332 50.88V52H242.562V50.88L244.242 50.81C245.595 50.67 246.412 50.3433 246.692 49.83C246.972 49.3167 247.112 48.1967 247.112 46.47L247.182 43.25V26.52L247.112 23.65C247.018 22.53 246.878 21.69 246.692 21.13C246.505 20.57 245.665 20.22 244.172 20.08L242.562 19.94V18.82H260.342V24.07C260.855 22.7633 261.765 21.4567 263.072 20.15C264.425 18.7967 267.015 18.12 270.842 18.12C274.155 18.12 277.025 19.0533 279.452 20.92C281.878 22.7867 283.092 24.98 283.092 27.5V43.25L283.162 46.47C283.162 48.15 283.302 49.27 283.582 49.83C283.862 50.3433 284.678 50.67 286.032 50.81L287.572 50.88V52H265.942V50.88C267.622 50.88 268.648 50.6233 269.022 50.11C269.395 49.55 269.582 48.3367 269.582 46.47L269.652 43.25V28.97ZM310.904 52H288.224V50.88L289.904 50.81C291.257 50.67 292.074 50.3433 292.354 49.83C292.634 49.3167 292.774 48.1967 292.774 46.47L292.844 43.25V26.52L292.774 23.65C292.681 22.53 292.541 21.69 292.354 21.13C292.167 20.57 291.327 20.22 289.834 20.08L287.944 19.94V18.82H306.284V43.25L306.354 46.47C306.354 48.15 306.494 49.27 306.774 49.83C307.054 50.3433 307.871 50.67 309.224 50.81L310.904 50.88V52ZM292.704 7.13C292.704 5.31 293.357 3.77 294.664 2.51C296.017 1.20333 297.627 0.549999 299.494 0.549999C301.407 0.549999 303.017 1.18 304.324 2.44C305.677 3.65333 306.354 5.21666 306.354 7.13C306.354 8.99667 305.677 10.5833 304.324 11.89C303.017 13.15 301.407 13.78 299.494 13.78C297.627 13.78 296.017 13.15 294.664 11.89C293.357 10.5833 292.704 8.99667 292.704 7.13ZM350.023 18.47L349.883 27.57V60.47L349.953 63.34C349.953 64.6 350.14 65.4633 350.513 65.93C350.933 66.4433 351.796 66.77 353.103 66.91L355.063 67.05V68.17H330.073V67.05C330.54 67.05 331.076 67.0267 331.683 66.98C332.336 66.98 333.083 66.9333 333.923 66.84C334.81 66.7467 335.44 66.4667 335.813 66C336.186 65.58 336.373 64.6933 336.373 63.34L336.443 60.47V48.57C335.976 49.5033 335.183 50.4367 334.063 51.37C332.99 52.2567 330.843 52.7 327.623 52.7C323.19 52.7 319.55 51.1367 316.703 48.01C313.903 44.8367 312.503 40.6833 312.503 35.55C312.503 30.2767 314.276 26.0533 317.823 22.88C321.37 19.7067 325.873 18.12 331.333 18.12C334.833 18.12 337.54 18.7967 339.453 20.15C341.366 21.4567 342.976 22.81 344.283 24.21L349.323 18.47H350.023ZM336.443 35.34V29.11C336.35 28.55 336.303 28.1533 336.303 27.92C336.303 25.26 335.93 23.16 335.183 21.62C334.483 20.0333 333.27 19.24 331.543 19.24C330.05 19.24 328.906 20.1033 328.113 21.83C327.32 23.51 326.923 25.54 326.923 27.92C326.923 28.8067 326.876 29.9033 326.783 31.21C326.736 32.47 326.69 33.8467 326.643 35.34C326.643 35.9933 326.69 37.3467 326.783 39.4C326.876 41.4067 326.923 42.5733 326.923 42.9C326.923 45.1867 327.32 47.1 328.113 48.64C328.906 50.1333 330.096 50.88 331.683 50.88C333.083 50.88 334.133 50.46 334.833 49.62C335.533 48.7333 335.93 47.87 336.023 47.03C336.116 46.19 336.21 44.2067 336.303 41.08C336.396 37.9067 336.443 35.9933 336.443 35.34ZM399.886 52H381.546V47.52C380.473 49.2 379.143 50.4833 377.556 51.37C376.016 52.2567 373.869 52.7 371.116 52.7C367.896 52.7 365.049 51.7433 362.576 49.83C360.056 47.9633 358.796 45.3733 358.796 42.06V26.52L358.726 23.65C358.726 22.39 358.516 21.5267 358.096 21.06C357.723 20.5467 356.883 20.22 355.576 20.08L353.616 19.94V18.82H372.236V41.71L372.306 44.58C372.306 46.4933 372.633 47.94 373.286 48.92C373.986 49.8533 375.013 50.32 376.366 50.32C377.859 50.32 378.933 49.9 379.586 49.06C380.286 48.22 380.846 47.3567 381.266 46.47V27.57L381.126 24.35C381.126 22.81 380.869 21.76 380.356 21.2C379.843 20.64 378.816 20.2667 377.276 20.08L375.106 19.94V18.82H394.706V44.3L394.776 47.17C394.776 48.43 394.963 49.3167 395.336 49.83C395.756 50.2967 396.619 50.6 397.926 50.74L399.886 50.88V52ZM436.38 41.5C435.073 45 432.973 47.7533 430.08 49.76C427.187 51.72 423.78 52.7 419.86 52.7C414.353 52.7 409.827 51.1833 406.28 48.15C402.733 45.07 400.96 40.8233 400.96 35.41C400.96 30.37 402.78 26.24 406.42 23.02C410.107 19.7533 414.517 18.12 419.65 18.12C425.017 18.12 429.123 19.6367 431.97 22.67C434.817 25.7033 436.24 29.4133 436.24 33.8H414.75C414.75 35.48 414.867 37.2067 415.1 38.98C415.38 40.7067 415.87 42.3867 416.57 44.02C417.317 45.6533 418.343 46.9833 419.65 48.01C421.003 48.99 422.683 49.48 424.69 49.48C427.537 49.48 429.777 48.6867 431.41 47.1C433.09 45.4667 434.373 43.4367 435.26 41.01L436.38 41.5ZM424.06 32.4C424.013 31.8867 423.967 31.28 423.92 30.58C423.92 29.88 423.92 28.9933 423.92 27.92C423.92 25.0733 423.57 22.9267 422.87 21.48C422.17 19.9867 420.957 19.24 419.23 19.24C417.737 19.24 416.687 19.9633 416.08 21.41C415.52 22.81 415.123 24.98 414.89 27.92L414.75 32.4H424.06Z" fill="black"/>
</svg>
