<svg width="343" height="251" viewBox="0 0 343 251" fill="none" xmlns="http://www.w3.org/2000/svg">
<g filter="url(#filter0_d_1378_6)">
<rect x="15" y="10" width="313" height="221" rx="18" fill="white"/>
</g>
<path d="M37.957 215H33.5625V200.859H38.1328C42.2539 200.859 44.6953 203.516 44.6953 207.91C44.6953 212.324 42.2539 215 37.957 215ZM35.3203 213.438H37.8398C41.3164 213.438 42.9766 211.348 42.9766 207.91C42.9766 204.492 41.3164 202.422 38.0156 202.422H35.3203V213.438ZM46.5508 211.992C46.5508 209.551 48.6992 209.004 50.5352 208.867C51.209 208.818 52.9277 208.73 53.4062 208.711V207.852C53.4062 206.504 52.6055 205.723 51.0039 205.723C49.6562 205.723 48.8555 206.348 48.6211 207.148H46.8633C47.0781 205.449 48.7383 204.258 51.082 204.258C52.4688 204.258 55.0664 204.668 55.0664 208.008V215H53.4062V213.555H53.3281C52.9766 214.277 52 215.254 50.1641 215.254C48.1523 215.254 46.5508 214.062 46.5508 211.992ZM48.2305 212.07C48.2305 213.184 49.168 213.75 50.457 213.75C52.3516 213.75 53.4062 212.48 53.4062 211.152V210.078L50.7305 210.273C49.207 210.371 48.2305 210.918 48.2305 212.07ZM62.3906 204.395V205.801H60.1641V211.953C60.1641 213.32 60.8281 213.535 61.5508 213.535C61.8633 213.535 62.293 213.516 62.5469 213.496V215.059C62.293 215.098 61.8633 215.137 61.375 215.137C59.9688 215.137 58.4648 214.258 58.4648 212.383V205.801H56.8633V204.395H58.4648V201.855H60.1641V204.395H62.3906ZM64.0508 211.992C64.0508 209.551 66.1992 209.004 68.0352 208.867C68.709 208.818 70.4277 208.73 70.9062 208.711V207.852C70.9062 206.504 70.1055 205.723 68.5039 205.723C67.1562 205.723 66.3555 206.348 66.1211 207.148H64.3633C64.5781 205.449 66.2383 204.258 68.582 204.258C69.9688 204.258 72.5664 204.668 72.5664 208.008V215H70.9062V213.555H70.8281C70.4766 214.277 69.5 215.254 67.6641 215.254C65.6523 215.254 64.0508 214.062 64.0508 211.992ZM65.7305 212.07C65.7305 213.184 66.668 213.75 67.957 213.75C69.8516 213.75 70.9062 212.48 70.9062 211.152V210.078L68.2305 210.273C66.707 210.371 65.7305 210.918 65.7305 212.07ZM73.7969 202.422V200.859H84.4609V202.422H80.0273V215H78.25V202.422H73.7969ZM84.6367 211.992C84.6367 209.551 86.7852 209.004 88.6211 208.867C89.2949 208.818 91.0137 208.73 91.4922 208.711V207.852C91.4922 206.504 90.6914 205.723 89.0898 205.723C87.7422 205.723 86.9414 206.348 86.707 207.148H84.9492C85.1641 205.449 86.8242 204.258 89.168 204.258C90.5547 204.258 93.1523 204.668 93.1523 208.008V215H91.4922V213.555H91.4141C91.0625 214.277 90.0859 215.254 88.25 215.254C86.2383 215.254 84.6367 214.062 84.6367 211.992ZM86.3164 212.07C86.3164 213.184 87.2539 213.75 88.543 213.75C90.4375 213.75 91.4922 212.48 91.4922 211.152V210.078L88.8164 210.273C87.293 210.371 86.3164 210.918 86.3164 212.07ZM96.0625 215V200.859H97.7422V206.074H97.8789C98.25 205.508 98.875 204.258 100.945 204.258C103.602 204.258 105.477 206.367 105.477 209.727C105.477 213.086 103.602 215.215 100.965 215.215C98.9336 215.215 98.25 213.965 97.8789 213.379H97.6836V215H96.0625ZM97.7031 209.688C97.7031 212.07 98.7773 213.711 100.711 213.711C102.723 213.711 103.777 211.953 103.777 209.688C103.777 207.48 102.762 205.762 100.711 205.762C98.7578 205.762 97.7031 207.344 97.7031 209.688ZM109.344 200.859V215H107.664V200.859H109.344ZM116.473 215.215C113.406 215.215 111.512 213.047 111.512 209.785C111.512 206.523 113.426 204.258 116.316 204.258C118.543 204.258 120.887 205.625 120.887 209.551V210.254H113.191C113.27 212.5 114.578 213.73 116.473 213.73C117.742 213.73 118.543 213.184 118.934 212.52H120.73C120.223 214.121 118.66 215.215 116.473 215.215ZM113.211 208.828H119.188C119.188 207.051 118.055 205.742 116.316 205.742C114.48 205.742 113.309 207.188 113.211 208.828Z" fill="#474747"/>
<path d="M27 189H317.5" stroke="#494949" stroke-width="0.5"/>
<path d="M68.824 60H274.876C277.633 60 279.7 61.206 279.7 62.7566V149.243C279.7 150.794 277.461 152 274.876 152H68.824C66.0674 152 64 150.794 64 149.243V62.7566C64 61.206 66.2397 60 68.824 60Z" fill="#F1F1F1"/>
<path d="M69.3419 62.412H274.878C276.428 62.412 277.806 63.1011 277.806 64.1348V148.554C277.806 149.416 276.428 150.277 274.878 150.277H69.3419C67.7914 150.277 66.4131 149.588 66.4131 148.554V64.1348C66.4131 63.1011 67.7914 62.412 69.3419 62.412Z" fill="white"/>
<path d="M277.634 83.0861H68.1359C67.2745 83.0861 66.4131 82.397 66.4131 81.3633V64.1348C66.4131 63.2734 67.1022 62.412 68.1359 62.412H276.083C276.945 62.412 277.806 63.1011 277.806 64.1348L277.634 83.0861Z" fill="#9AC5E5"/>
<path d="M66.4131 83.0861H277.806V80.8464H66.4131V83.0861Z" fill="#F1F1F1"/>
<path d="M130.675 152H132.915V62.412H130.675V152Z" fill="#F1F1F1"/>
<path d="M211.132 152H213.372V62.412H211.132V152Z" fill="#F1F1F1"/>
<path d="M66.4131 106H277.806V103.76H66.4131V106Z" fill="#F1F1F1"/>
<path d="M66.4131 128.914H277.806V126.674H66.4131V128.914Z" fill="#F1F1F1"/>
<path d="M66.4131 152H277.806V149.76H66.4131V152Z" fill="#F1F1F1"/>
<defs>
<filter id="filter0_d_1378_6" x="0" y="0" width="343" height="251" filterUnits="userSpaceOnUse" color-interpolation-filters="sRGB">
<feFlood flood-opacity="0" result="BackgroundImageFix"/>
<feColorMatrix in="SourceAlpha" type="matrix" values="0 0 0 0 0 0 0 0 0 0 0 0 0 0 0 0 0 0 127 0" result="hardAlpha"/>
<feOffset dy="5"/>
<feGaussianBlur stdDeviation="7.5"/>
<feComposite in2="hardAlpha" operator="out"/>
<feColorMatrix type="matrix" values="0 0 0 0 0 0 0 0 0 0 0 0 0 0 0 0 0 0 0.25 0"/>
<feBlend mode="normal" in2="BackgroundImageFix" result="effect1_dropShadow_1378_6"/>
<feBlend mode="normal" in="SourceGraphic" in2="effect1_dropShadow_1378_6" result="shape"/>
</filter>
</defs>
</svg>
