<svg width="343" height="251" viewBox="0 0 343 251" fill="none" xmlns="http://www.w3.org/2000/svg">
<g filter="url(#filter0_d_751_789)">
<rect x="15" y="10" width="313" height="221" rx="18" fill="#333742"/>
</g>
<path d="M39.957 215H35.5625V200.859H40.1328C44.2539 200.859 46.6953 203.516 46.6953 207.91C46.6953 212.324 44.2539 215 39.957 215ZM37.3203 213.438H39.8398C43.3164 213.438 44.9766 211.348 44.9766 207.91C44.9766 204.492 43.3164 202.422 40.0156 202.422H37.3203V213.438ZM49.0586 215V204.395H50.6797V206.016H50.7969C51.1875 204.941 52.2812 204.219 53.5312 204.219C53.7852 204.219 54.2148 204.238 54.4102 204.258V205.957C54.293 205.918 53.8242 205.84 53.3945 205.84C51.8711 205.84 50.7383 206.895 50.7383 208.32V215H49.0586ZM55.5234 211.992C55.5234 209.551 57.6719 209.004 59.5078 208.867C60.1816 208.818 61.9004 208.73 62.3789 208.711V207.852C62.3789 206.504 61.5781 205.723 59.9766 205.723C58.6289 205.723 57.8281 206.348 57.5938 207.148H55.8359C56.0508 205.449 57.7109 204.258 60.0547 204.258C61.4414 204.258 64.0391 204.668 64.0391 208.008V215H62.3789V213.555H62.3008C61.9492 214.277 60.9727 215.254 59.1367 215.254C57.125 215.254 55.5234 214.062 55.5234 211.992ZM57.2031 212.07C57.2031 213.184 58.1406 213.75 59.4297 213.75C61.3242 213.75 62.3789 212.48 62.3789 211.152V210.078L59.7031 210.273C58.1797 210.371 57.2031 210.918 57.2031 212.07ZM69.1172 215L65.8945 204.395H67.6719L69.9375 212.48H70.0352L72.2812 204.395H74.0781L76.2852 212.441H76.4023L78.668 204.395H80.4258L77.2031 215H75.543L73.2383 206.914H73.082L70.7969 215H69.1172ZM86.3828 215.215C83.3164 215.215 81.4219 213.047 81.4219 209.785C81.4219 206.523 83.3359 204.258 86.2266 204.258C88.4531 204.258 90.7969 205.625 90.7969 209.551V210.254H83.1016C83.1797 212.5 84.4883 213.73 86.3828 213.73C87.6523 213.73 88.4531 213.184 88.8438 212.52H90.6406C90.1328 214.121 88.5703 215.215 86.3828 215.215ZM83.1211 208.828H89.0977C89.0977 207.051 87.9648 205.742 86.2266 205.742C84.3906 205.742 83.2188 207.188 83.1211 208.828ZM92.9844 215V204.395H94.6055V206.016H94.7227C95.1133 204.941 96.207 204.219 97.457 204.219C97.7109 204.219 98.1406 204.238 98.3359 204.258V205.957C98.2188 205.918 97.75 205.84 97.3203 205.84C95.7969 205.84 94.6641 206.895 94.6641 208.32V215H92.9844Z" fill="#DFDFDF"/>
<path d="M27 189H317.5" stroke="#DFDFDF" stroke-width="0.5"/>
<path d="M215 10H310C319.941 10 328 18.0589 328 28V188H215V10Z" fill="#2A2E39"/>
<path d="M226.409 35H223.26V24.3945H226.585C229.632 24.3945 231.434 26.3721 231.434 29.668C231.434 33.0078 229.603 35 226.409 35ZM224.3 34.0625H226.351C229.046 34.0625 230.423 32.4072 230.408 29.668C230.408 26.958 229.075 25.332 226.526 25.332H224.3V34.0625ZM233.294 35V27.0459H234.261V28.2764H234.334C234.656 27.4707 235.506 26.9287 236.487 26.9287C236.648 26.9287 236.883 26.9287 237 26.9434V27.9541C236.912 27.9395 236.678 27.8955 236.414 27.8955C235.198 27.8955 234.305 28.7305 234.305 29.8877V35H233.294ZM237.908 32.7734C237.908 31.1621 239.212 30.5469 240.838 30.415C241.365 30.3784 242.654 30.3052 243.035 30.2832V29.5361C243.035 28.4668 242.347 27.8223 241.102 27.8223C240.062 27.8223 239.358 28.3057 239.168 29.0234H238.128C238.289 27.7637 239.505 26.9287 241.16 26.9287C242.347 26.9287 244.031 27.4414 244.031 29.624V35H243.035V33.7695H242.977C242.654 34.458 241.863 35.1758 240.53 35.1758C239.08 35.1758 237.908 34.3115 237.908 32.7734ZM238.904 32.8174C238.904 33.7549 239.651 34.2822 240.677 34.2822C242.142 34.2822 243.035 33.2275 243.035 31.9678V31.1182L240.984 31.2646C239.578 31.3672 238.904 31.9092 238.904 32.8174ZM247.957 35L245.555 27.0459H246.609L248.455 33.5059H248.528L250.359 27.0459H251.414L253.245 33.4912H253.304L255.149 27.0459H256.204L253.802 35H252.791L250.931 28.5693H250.828L248.982 35H247.957ZM260.701 35.1611C258.46 35.1611 257.054 33.4912 257.054 31.0742C257.054 28.6572 258.489 26.9287 260.555 26.9287C262.283 26.9287 263.953 28.1592 263.953 30.8545V31.3232H258.05C258.094 33.1177 259.112 34.2676 260.701 34.2676C261.8 34.2676 262.444 33.6963 262.723 33.1982H263.792C263.44 34.2969 262.312 35.1611 260.701 35.1611ZM258.064 30.459H262.928C262.928 28.9648 261.961 27.8369 260.569 27.8369C259.126 27.8369 258.145 29.0234 258.064 30.459ZM265.682 35V27.0459H266.648V28.2764H266.722C267.044 27.4707 267.894 26.9287 268.875 26.9287C269.036 26.9287 269.271 26.9287 269.388 26.9434V27.9541C269.3 27.9395 269.065 27.8955 268.802 27.8955C267.586 27.8955 266.692 28.7305 266.692 29.8877V35H265.682Z" fill="#DFDFDF"/>
<path d="M222 47H314" stroke="#3D4250" stroke-width="0.5"/>
<rect x="222" y="58" width="90" height="6" rx="3" fill="#3D4250"/>
<rect x="222" y="69" width="90" height="6" rx="3" fill="#3D4250"/>
<path d="M308.991 119.546L312.083 128.688L309.264 129.793L306.172 120.651L302 124.048L303.491 108L314.216 119.262L308.991 119.546Z" fill="white"/>
<defs>
<filter id="filter0_d_751_789" x="0" y="0" width="343" height="251" filterUnits="userSpaceOnUse" color-interpolation-filters="sRGB">
<feFlood flood-opacity="0" result="BackgroundImageFix"/>
<feColorMatrix in="SourceAlpha" type="matrix" values="0 0 0 0 0 0 0 0 0 0 0 0 0 0 0 0 0 0 127 0" result="hardAlpha"/>
<feOffset dy="5"/>
<feGaussianBlur stdDeviation="7.5"/>
<feComposite in2="hardAlpha" operator="out"/>
<feColorMatrix type="matrix" values="0 0 0 0 0 0 0 0 0 0 0 0 0 0 0 0 0 0 0.25 0"/>
<feBlend mode="normal" in2="BackgroundImageFix" result="effect1_dropShadow_751_789"/>
<feBlend mode="normal" in="SourceGraphic" in2="effect1_dropShadow_751_789" result="shape"/>
</filter>
</defs>
</svg>
