<svg width="343" height="251" viewBox="0 0 343 251" fill="none" xmlns="http://www.w3.org/2000/svg">
<g filter="url(#filter0_d_608_38)">
<rect x="15" y="10" width="313" height="221" rx="18" fill="white"/>
</g>
<path d="M39.957 215H35.5625V200.859H40.1328C44.2637 200.859 46.6953 203.506 46.6953 207.91C46.6953 212.324 44.2637 215 39.957 215ZM37.3203 213.438H39.8398C43.3066 213.438 44.9766 211.338 44.9766 207.91C44.9766 204.492 43.3066 202.422 40.0156 202.422H37.3203V213.438ZM49.0586 215V204.395H50.6797V206.016H50.7969C51.1777 204.941 52.2812 204.229 53.5312 204.219C53.7852 204.229 54.2148 204.238 54.4102 204.258V205.957C54.2832 205.928 53.834 205.84 53.3945 205.84C51.8711 205.84 50.7383 206.895 50.7383 208.32V215H49.0586ZM55.5234 211.992C55.5234 209.561 57.6719 209.004 59.5078 208.867C60.1914 208.818 61.9004 208.721 62.3789 208.711V207.852C62.3789 206.504 61.5781 205.723 59.9766 205.723C58.6387 205.723 57.8281 206.338 57.5938 207.148H55.8359C56.0508 205.439 57.7109 204.258 60.0547 204.258C61.4414 204.258 64.0488 204.668 64.0391 208.008V215H62.3789V213.555H62.3008C61.9492 214.268 60.9824 215.244 59.1367 215.254C57.125 215.244 55.5234 214.062 55.5234 211.992ZM57.2031 212.07C57.2129 213.193 58.1406 213.76 59.4297 213.75C61.3242 213.76 62.3789 212.49 62.3789 211.152V210.088C61.8809 210.117 60.2109 210.244 59.7031 210.273C58.1797 210.371 57.2129 210.908 57.2031 212.07ZM69.1172 215L65.8945 204.395H67.6719L69.9375 212.48H70.0352L72.2812 204.395H74.0781L76.2852 212.441H76.4023L78.668 204.395H80.4258L77.2031 215H75.543L73.2383 206.914H73.082L70.7969 215H69.1172ZM86.3828 215.215C83.3164 215.225 81.4219 213.037 81.4219 209.785C81.4219 206.523 83.3457 204.258 86.2266 204.258C88.4531 204.258 90.8066 205.625 90.7969 209.551V210.254H83.1016C83.1895 212.5 84.498 213.73 86.3828 213.73C87.6523 213.73 88.4531 213.174 88.8438 212.52H90.6406C90.1426 214.131 88.5703 215.225 86.3828 215.215ZM83.1113 208.828H89.0977C89.0879 207.061 87.9746 205.742 86.2266 205.742C84.3906 205.742 83.2285 207.188 83.1113 208.828ZM92.9844 215V204.395H94.6055V206.016H94.7227C95.1035 204.941 96.207 204.229 97.457 204.219C97.7109 204.229 98.1406 204.238 98.3359 204.258V205.957C98.209 205.928 97.7598 205.84 97.3203 205.84C95.7969 205.84 94.6641 206.895 94.6641 208.32V215H92.9844Z" fill="#474747"/>
<path d="M27 189H317.5" stroke="#494949" stroke-width="0.5"/>
<path d="M215 10H310C319.941 10 328 18.0589 328 28V188H215V10Z" fill="#F1F1F1"/>
<path d="M226.409 35H223.26V24.3945H226.585C229.632 24.3945 231.434 26.3721 231.434 29.668C231.426 33.0078 229.61 35 226.409 35ZM224.3 34.0625H226.351C229.046 34.0625 230.416 32.4072 230.408 29.668C230.408 26.958 229.068 25.3247 226.526 25.332H224.3V34.0625ZM233.294 35V27.0459H234.261V28.2764H234.334C234.649 27.4634 235.506 26.9287 236.487 26.9287C236.648 26.9287 236.875 26.936 237 26.9434V27.9541C236.919 27.9321 236.67 27.8882 236.414 27.8955C235.191 27.8882 234.297 28.7378 234.305 29.8877V35H233.294ZM237.908 32.7734C237.901 31.1548 239.212 30.5469 240.838 30.415C241.373 30.3857 242.654 30.2979 243.035 30.2832V29.5361C243.042 28.4668 242.354 27.8149 241.102 27.8223C240.062 27.8149 239.358 28.2983 239.168 29.0234H238.128C238.296 27.7637 239.505 26.936 241.16 26.9287C242.347 26.936 244.031 27.4414 244.031 29.624V35H243.035V33.7695H242.977C242.654 34.4507 241.863 35.1831 240.53 35.1758C239.08 35.1831 237.901 34.3042 237.908 32.7734ZM238.904 32.8174C238.904 33.7549 239.659 34.2822 240.677 34.2822C242.134 34.2822 243.042 33.2349 243.035 31.9678V31.1108C242.64 31.1475 241.38 31.2427 240.984 31.2646C239.578 31.3599 238.904 31.9019 238.904 32.8174ZM247.957 35L245.555 27.0459H246.609L248.455 33.5059H248.528L250.359 27.0459H251.414L253.245 33.4912H253.304L255.149 27.0459H256.204L253.802 35H252.791L250.931 28.5693H250.828L248.982 35H247.957ZM260.701 35.1611C258.453 35.1685 257.046 33.4912 257.054 31.0742C257.046 28.6572 258.482 26.936 260.555 26.9287C262.283 26.936 263.946 28.1519 263.953 30.8545V31.3232H258.05C258.094 33.125 259.119 34.2676 260.701 34.2676C261.792 34.2676 262.437 33.7036 262.723 33.1982H263.792C263.433 34.2969 262.305 35.1685 260.701 35.1611ZM258.057 30.459H262.928C262.928 28.9722 261.961 27.8296 260.569 27.8369C259.134 27.8296 258.145 29.0308 258.057 30.459ZM265.682 35V27.0459H266.648V28.2764H266.722C267.037 27.4634 267.894 26.9287 268.875 26.9287C269.036 26.9287 269.263 26.936 269.388 26.9434V27.9541C269.307 27.9321 269.058 27.8882 268.802 27.8955C267.579 27.8882 266.685 28.7378 266.692 29.8877V35H265.682Z" fill="black"/>
<path d="M222 47H314" stroke="white" stroke-width="0.5"/>
<rect x="222" y="58" width="90" height="6" rx="3" fill="#D9D9D9"/>
<rect x="222" y="69" width="90" height="6" rx="3" fill="#D9D9D9"/>
<path d="M278.991 79.7271L282.083 88.2205L279.264 89.2466L276.172 80.7532L272 83.909L273.491 69L284.216 79.4627L278.991 79.7271Z" fill="white"/>
<defs>
<filter id="filter0_d_608_38" x="0" y="0" width="343" height="251" filterUnits="userSpaceOnUse" color-interpolation-filters="sRGB">
<feFlood flood-opacity="0" result="BackgroundImageFix"/>
<feColorMatrix in="SourceAlpha" type="matrix" values="0 0 0 0 0 0 0 0 0 0 0 0 0 0 0 0 0 0 127 0" result="hardAlpha"/>
<feOffset dy="5"/>
<feGaussianBlur stdDeviation="7.5"/>
<feComposite in2="hardAlpha" operator="out"/>
<feColorMatrix type="matrix" values="0 0 0 0 0 0 0 0 0 0 0 0 0 0 0 0 0 0 0.25 0"/>
<feBlend mode="normal" in2="BackgroundImageFix" result="effect1_dropShadow_608_38"/>
<feBlend mode="normal" in="SourceGraphic" in2="effect1_dropShadow_608_38" result="shape"/>
</filter>
</defs>
</svg>
