<svg width="343" height="251" viewBox="0 0 343 251" fill="none" xmlns="http://www.w3.org/2000/svg">
<g filter="url(#filter0_d_632_3)">
<rect x="15" y="10" width="313" height="221" rx="18" fill="white"/>
</g>
<path d="M42.957 215H38.5625V200.859H43.1328C47.2637 200.859 49.6953 203.506 49.6953 207.91C49.6953 212.324 47.2637 215 42.957 215ZM40.3203 213.438H42.8398C46.3066 213.438 47.9766 211.338 47.9766 207.91C47.9766 204.492 46.3066 202.422 43.0156 202.422H40.3203V213.438ZM52.0586 215V204.395H53.6797V206.016H53.7969C54.1777 204.941 55.2812 204.229 56.5312 204.219C56.7852 204.229 57.2148 204.238 57.4102 204.258V205.957C57.2832 205.928 56.834 205.84 56.3945 205.84C54.8711 205.84 53.7383 206.895 53.7383 208.32V215H52.0586ZM63.0352 215.215C60.1445 215.225 58.1914 213.037 58.1914 209.746C58.1914 206.436 60.1445 204.258 63.0352 204.258C65.916 204.258 67.8496 206.436 67.8398 209.746C67.8496 213.037 65.916 215.225 63.0352 215.215ZM59.8711 209.746C59.8809 211.865 60.877 213.73 63.0352 213.73C65.1738 213.73 66.1602 211.865 66.1602 209.746C66.1602 207.637 65.1738 205.742 63.0352 205.742C60.877 205.742 59.8809 207.637 59.8711 209.746ZM70.0469 218.984V204.395H71.668V206.074H71.8633C72.2246 205.508 72.8691 204.258 74.9297 204.258C77.5957 204.258 79.4414 206.367 79.4414 209.727C79.4414 213.096 77.5957 215.225 74.9492 215.215C72.9277 215.225 72.2246 213.965 71.8633 213.379H71.7266V218.984H70.0469ZM71.6875 209.688C71.6973 212.07 72.7617 213.711 74.7148 213.711C76.7266 213.711 77.7617 211.943 77.7617 209.688C77.7617 207.471 76.7559 205.762 74.7148 205.762C72.7324 205.762 71.6973 207.334 71.6875 209.688ZM86.2383 215H81.8438V200.859H86.4141C90.5449 200.859 92.9766 203.506 92.9766 207.91C92.9766 212.324 90.5449 215 86.2383 215ZM83.6016 213.438H86.1211C89.5879 213.438 91.2578 211.338 91.2578 207.91C91.2578 204.492 89.5879 202.422 86.2969 202.422H83.6016V213.438ZM99.6758 215.215C96.7852 215.225 94.832 213.037 94.832 209.746C94.832 206.436 96.7852 204.258 99.6758 204.258C102.557 204.258 104.49 206.436 104.48 209.746C104.49 213.037 102.557 215.225 99.6758 215.215ZM96.5117 209.746C96.5215 211.865 97.5176 213.73 99.6758 213.73C101.814 213.73 102.801 211.865 102.801 209.746C102.801 207.637 101.814 205.742 99.6758 205.742C97.5176 205.742 96.5215 207.637 96.5117 209.746ZM108.719 215L105.496 204.395H107.273L109.539 212.48H109.637L111.883 204.395H113.68L115.887 212.441H116.004L118.27 204.395H120.027L116.805 215H115.145L112.84 206.914H112.684L110.398 215H108.719ZM123.562 208.633V215H121.883V204.395H123.504V206.055H123.641C124.139 204.971 125.135 204.258 126.746 204.258C128.895 204.258 130.33 205.566 130.32 208.262V215H128.641V208.379C128.641 206.738 127.742 205.762 126.238 205.762C124.695 205.762 123.562 206.797 123.562 208.633Z" fill="#474747"/>
<path d="M28.5 189H319" stroke="#494949" stroke-width="0.5"/>
<path d="M132.424 85.3945V96H131.369V86.4785H131.311L128.806 88.1338V87.0645L131.34 85.3945H132.424ZM139.821 90.0234C139.646 89.2764 139.06 88.8076 138.078 88.8076C137.016 88.8003 136.269 89.3862 136.276 90.1553C136.269 90.7632 136.73 91.188 137.697 91.4297L138.913 91.7227C140.253 92.0522 140.927 92.7627 140.92 93.832C140.927 95.187 139.821 96.1685 137.946 96.1611C136.247 96.1685 135.207 95.3848 135.002 93.9785H136.042C136.203 94.8428 136.848 95.2822 137.932 95.2822C139.125 95.2822 139.902 94.7402 139.909 93.8906C139.902 93.2607 139.47 92.8213 138.532 92.6016L137.316 92.3086C135.976 91.9937 135.273 91.2539 135.266 90.1992C135.273 88.8809 136.408 87.9287 138.078 87.9287C139.638 87.936 140.634 88.7856 140.817 90.0234H139.821ZM145.886 88.0459V88.8955H144.216V93.876C144.208 94.8794 144.772 95.1577 145.373 95.165L146.032 95.1357V96.0732C145.871 96.0879 145.622 96.1172 145.285 96.1172C144.252 96.1172 143.205 95.4434 143.205 94.125V88.8955H142.019V88.0459H143.205V86.1416H144.216V88.0459H145.886Z" fill="#BABABA"/>
<path d="M132.468 62H129.172V51.3945H132.6C135.698 51.3945 137.521 53.3794 137.521 56.6826C137.521 59.9932 135.698 62 132.468 62ZM130.49 60.8281H132.38C134.98 60.8281 136.232 59.2534 136.232 56.6826C136.232 54.1191 134.98 52.5664 132.512 52.5664H130.49V60.8281ZM139.294 62V54.0459H140.51V55.2617H140.598C140.883 54.4561 141.711 53.9214 142.648 53.9141C142.839 53.9214 143.161 53.9287 143.308 53.9434V55.2178C143.212 55.1958 142.875 55.1299 142.546 55.1299C141.403 55.1299 140.554 55.9209 140.554 56.9902V62H139.294ZM147.526 62.1611C145.358 62.1685 143.894 60.5278 143.894 58.0596C143.894 55.5767 145.358 53.9434 147.526 53.9434C149.687 53.9434 151.137 55.5767 151.13 58.0596C151.137 60.5278 149.687 62.1685 147.526 62.1611ZM145.153 58.0596C145.161 59.6489 145.908 61.0479 147.526 61.0479C149.13 61.0479 149.87 59.6489 149.87 58.0596C149.87 56.4775 149.13 55.0566 147.526 55.0566C145.908 55.0566 145.161 56.4775 145.153 58.0596ZM152.785 64.9883V54.0459H154.001V55.3057H154.147C154.418 54.8809 154.902 53.9434 156.447 53.9434C158.447 53.9434 159.831 55.5254 159.831 58.0449C159.831 60.5718 158.447 62.1685 156.462 62.1611C154.946 62.1685 154.418 61.2236 154.147 60.7842H154.045V64.9883H152.785ZM154.016 58.0156C154.023 59.8027 154.821 61.0332 156.286 61.0332C157.795 61.0332 158.571 59.7075 158.571 58.0156C158.571 56.353 157.817 55.0713 156.286 55.0713C154.799 55.0713 154.023 56.2505 154.016 58.0156ZM164.929 62H161.633V51.3945H165.061C168.159 51.3945 169.982 53.3794 169.982 56.6826C169.982 59.9932 168.159 62 164.929 62ZM162.951 60.8281H164.841C167.441 60.8281 168.693 59.2534 168.693 56.6826C168.693 54.1191 167.441 52.5664 164.973 52.5664H162.951V60.8281ZM175.007 62.1611C172.839 62.1685 171.374 60.5278 171.374 58.0596C171.374 55.5767 172.839 53.9434 175.007 53.9434C177.167 53.9434 178.618 55.5767 178.61 58.0596C178.618 60.5278 177.167 62.1685 175.007 62.1611ZM172.634 58.0596C172.641 59.6489 173.388 61.0479 175.007 61.0479C176.611 61.0479 177.351 59.6489 177.351 58.0596C177.351 56.4775 176.611 55.0566 175.007 55.0566C173.388 55.0566 172.641 56.4775 172.634 58.0596ZM181.789 62L179.372 54.0459H180.705L182.404 60.1104H182.478L184.162 54.0459H185.51L187.165 60.0811H187.253L188.952 54.0459H190.271L187.854 62H186.608L184.88 55.9355H184.763L183.049 62H181.789ZM192.922 57.2246V62H191.662V54.0459H192.878V55.291H192.98C193.354 54.478 194.101 53.9434 195.31 53.9434C196.921 53.9434 197.998 54.9248 197.99 56.9463V62H196.73V57.0342C196.73 55.8037 196.057 55.0713 194.929 55.0713C193.771 55.0713 192.922 55.8477 192.922 57.2246Z" fill="#BABABA"/>
<path d="M129.04 124V123.238L132.629 119.356C133.984 117.87 134.548 117.137 134.562 116.134C134.548 114.962 133.596 114.164 132.336 114.171C130.996 114.164 130.124 115.05 130.124 116.295H129.128C129.128 114.508 130.505 113.248 132.365 113.248C134.204 113.248 135.529 114.508 135.529 116.134C135.529 117.32 134.987 118.214 133.156 120.147L130.52 122.989V123.062H135.852V124H129.04ZM138.913 119.063V124H137.902V116.046H138.869V117.306H138.957C139.338 116.478 140.129 115.943 141.301 115.943C142.912 115.943 143.996 116.961 143.996 118.858V124H143V118.932C143 117.65 142.238 116.844 141.037 116.852C139.799 116.844 138.906 117.687 138.913 119.063ZM149.021 124.161C147.072 124.168 145.732 122.521 145.739 120.045C145.732 117.577 147.08 115.936 149.035 115.929C150.507 115.936 151.137 116.844 151.452 117.525H151.525V113.395H152.536V124H151.555V122.564H151.452C151.13 123.253 150.478 124.168 149.021 124.161ZM146.75 120.03C146.743 121.847 147.6 123.26 149.152 123.268C150.676 123.26 151.555 121.913 151.555 120.03C151.555 118.148 150.69 116.837 149.152 116.837C147.585 116.837 146.743 118.221 146.75 120.03Z" fill="#BABABA"/>
<path d="M132.6 152.146C130.563 152.146 129.084 151.004 129.025 149.334H130.08C130.139 150.462 131.215 151.209 132.585 151.209C134.079 151.209 135.141 150.345 135.148 149.144C135.141 147.891 134.094 147.02 132.38 147.02H131.721V146.082H132.38C133.771 146.089 134.775 145.306 134.782 144.104C134.775 142.962 133.918 142.164 132.614 142.171C131.369 142.164 130.314 142.896 130.285 144.046H129.274C129.311 142.383 130.791 141.248 132.629 141.248C134.562 141.248 135.793 142.53 135.778 144.061C135.793 145.269 135.061 146.17 133.918 146.492V146.565C135.31 146.807 136.167 147.803 136.159 149.158C136.167 150.865 134.658 152.146 132.6 152.146ZM138.195 152V144.046H139.162V145.276H139.235C139.55 144.463 140.407 143.929 141.389 143.929C141.55 143.929 141.777 143.936 141.901 143.943V144.954C141.821 144.932 141.572 144.888 141.315 144.896C140.092 144.888 139.199 145.738 139.206 146.888V152H138.195ZM145.827 152.161C143.879 152.168 142.539 150.521 142.546 148.045C142.539 145.577 143.886 143.936 145.842 143.929C147.314 143.936 147.944 144.844 148.259 145.525H148.332V141.395H149.343V152H148.361V150.564H148.259C147.937 151.253 147.285 152.168 145.827 152.161ZM143.557 148.03C143.549 149.847 144.406 151.26 145.959 151.268C147.482 151.26 148.361 149.913 148.361 148.03C148.361 146.148 147.497 144.837 145.959 144.837C144.392 144.837 143.549 146.221 143.557 148.03Z" fill="#BABABA"/>
<rect x="118.25" y="44.25" width="105.5" height="25.5" rx="4.75" stroke="black" stroke-width="0.5"/>
<rect x="118.25" y="75.25" width="105.5" height="87.5" rx="4.75" stroke="black" stroke-width="0.5"/>
<defs>
<filter id="filter0_d_632_3" x="0" y="0" width="343" height="251" filterUnits="userSpaceOnUse" color-interpolation-filters="sRGB">
<feFlood flood-opacity="0" result="BackgroundImageFix"/>
<feColorMatrix in="SourceAlpha" type="matrix" values="0 0 0 0 0 0 0 0 0 0 0 0 0 0 0 0 0 0 127 0" result="hardAlpha"/>
<feOffset dy="5"/>
<feGaussianBlur stdDeviation="7.5"/>
<feComposite in2="hardAlpha" operator="out"/>
<feColorMatrix type="matrix" values="0 0 0 0 0 0 0 0 0 0 0 0 0 0 0 0 0 0 0.25 0"/>
<feBlend mode="normal" in2="BackgroundImageFix" result="effect1_dropShadow_632_3"/>
<feBlend mode="normal" in="SourceGraphic" in2="effect1_dropShadow_632_3" result="shape"/>
</filter>
</defs>
</svg>
