<svg width="260" height="42" viewBox="0 0 260 42" fill="none" xmlns="http://www.w3.org/2000/svg">
<path d="M2.54492 24V6.32422H8.37988C11.6758 6.32422 13.4092 8.17969 13.4092 10.8896C13.4092 13.0625 12.2861 14.4541 10.6504 14.8691V14.9912C12.4326 15.1133 14.1172 16.7979 14.1172 19.4102C14.1172 22.0957 12.335 24 8.79492 24H2.54492ZM8.79492 22.8281C11.4561 22.8281 12.8721 21.4121 12.8721 19.3857C12.8721 17.2373 11.2363 15.6016 8.84375 15.6016H3.81445V22.8281H8.79492ZM8.67285 14.4541C10.8701 14.4541 12.1885 12.8916 12.1885 10.9141C12.1885 8.81445 10.8213 7.47168 8.37988 7.47168H3.81445V14.4541H8.67285ZM25.9092 19.166V10.7432H27.1299V24H25.9092V21.8271H25.8115C25.2012 23.1943 23.7607 24.1709 21.8564 24.1709C19.2686 24.1709 17.4375 22.4131 17.4375 19.4346V10.7432H18.6582V19.3613C18.6582 21.5342 20.0986 22.9746 22.1494 22.9746C24.127 22.9746 25.9092 21.5586 25.9092 19.166ZM30.9629 24V10.7432H32.208V24H30.9629ZM31.5977 8.42383C31.0605 8.42383 30.6211 8.00879 30.6211 7.49609C30.6211 6.9834 31.0605 6.56836 31.5977 6.56836C32.1104 6.56836 32.5498 6.9834 32.5498 7.49609C32.5498 8.00879 32.1104 8.42383 31.5977 8.42383ZM37.2617 6.32422V24H36.041V6.32422H37.2617ZM45.9287 10.7432V11.8174H43.1455V20.7529C43.1455 22.3643 44.1709 23.0234 45.3184 23.0234L46.2705 22.999V24.1465C46.0264 24.1953 45.7334 24.2197 45.2207 24.2197C43.5361 24.2197 41.9248 23.0723 41.9248 20.9971V11.8174H39.9717V10.7432H41.9248V7.56934H43.1455V10.7432H45.9287ZM55.377 24V6.32422H56.6221V13.5752H56.7197C57.3057 12.0127 58.624 10.5479 60.9189 10.5479C64.1172 10.5479 66.2656 13.3799 66.2656 17.4082C66.2656 21.4609 64.1416 24.2686 60.9434 24.2686C58.624 24.2686 57.3301 22.8037 56.7197 21.2412H56.5732V24H55.377ZM56.5977 17.3838C56.5977 20.7041 58.1602 23.1455 60.7969 23.1455C63.4824 23.1455 65.0449 20.6309 65.0449 17.3838C65.0449 14.1611 63.4824 11.6709 60.7969 11.6709C58.1602 11.6709 56.5977 14.0879 56.5977 17.3838ZM69.6104 28.9805C69.3662 28.9805 69.0977 28.9561 68.9512 28.9561L68.9756 27.833C69.0732 27.833 69.3418 27.8574 69.5371 27.8574C70.416 27.8574 71.3926 27.6621 72.1006 25.7334L72.6621 24.1709L67.8037 10.7432H69.1221L73.2236 22.4131H73.3457L77.4473 10.7432H78.7656L73.1748 26.1973C72.5156 28.0527 71.3438 28.9805 69.6104 28.9805ZM86.2119 9.35156V6.32422H100.689V9.35156H95.2695V24H91.6318V9.35156H86.2119ZM106.964 24.2686C102.911 24.2686 100.421 21.6318 100.421 17.4326C100.421 13.3311 102.936 10.5723 106.817 10.5723C110.309 10.5723 113.043 12.7695 113.043 17.2861V18.3115H103.985C103.985 20.3135 105.182 21.5586 107.037 21.5586C108.258 21.5586 109.137 21.0215 109.503 20.2158H112.945C112.433 22.6572 110.235 24.2686 106.964 24.2686ZM103.985 16.041H109.625C109.625 14.4297 108.502 13.2822 106.891 13.2822C105.23 13.2822 104.046 14.5151 103.985 16.041ZM114.679 20.2891C114.679 17.335 117.071 16.3584 119.61 16.2119C120.562 16.1509 122.345 16.0654 122.906 16.041V14.9668C122.882 13.8682 122.125 13.209 120.782 13.209C119.562 13.209 118.78 13.7705 118.585 14.6738H115.143C115.362 12.3789 117.364 10.5723 120.88 10.5723C123.761 10.5723 126.495 11.8662 126.495 15.0645V24H123.077V22.1689H122.979C122.32 23.3896 121.075 24.2441 119.098 24.2441C116.559 24.2441 114.679 22.9258 114.679 20.2891ZM118.146 20.1914C118.146 21.2168 118.976 21.7539 120.123 21.7539C121.759 21.7539 122.931 20.6553 122.906 19.2637V18.2871C122.357 18.3115 120.819 18.397 120.196 18.458C118.951 18.5801 118.146 19.166 118.146 20.1914ZM129.254 24V10.7432H132.696V13.0625H132.843C133.404 11.5244 134.747 10.5723 136.529 10.5723C138.36 10.5723 139.703 11.5244 140.143 13.0625H140.265C140.826 11.5488 142.315 10.5723 144.269 10.5723C146.734 10.5723 148.443 12.208 148.443 15.0889V24H144.83V15.7969C144.83 14.2832 143.951 13.5508 142.755 13.5508C141.388 13.5508 140.606 14.5029 140.606 15.8945V24H137.091V15.6992C137.091 14.3809 136.261 13.5508 135.04 13.5508C133.819 13.5508 132.867 14.5273 132.867 16.041V24H129.254ZM157.062 24V6.32422H163.995C168.023 6.32422 170.318 8.79004 170.318 12.2812C170.318 15.8213 167.975 18.2383 163.897 18.2383H160.724V24H157.062ZM160.724 15.2842H163.312C165.484 15.2842 166.534 14.0635 166.534 12.2812C166.534 10.5234 165.484 9.32715 163.312 9.32715H160.724V15.2842ZM188.824 15.1621C188.824 20.9238 185.235 24.2441 180.572 24.2441C175.86 24.2441 172.296 20.8994 172.296 15.1621C172.296 9.40039 175.86 6.08008 180.572 6.08008C185.235 6.08008 188.824 9.40039 188.824 15.1621ZM185.089 15.1621C185.089 11.3779 183.307 9.32715 180.572 9.32715C177.838 9.32715 176.031 11.3779 176.031 15.1621C176.031 18.9463 177.838 20.9971 180.572 20.9971C183.307 20.9971 185.089 18.9463 185.089 15.1621ZM189.996 9.35156V6.32422H204.474V9.35156H199.054V24H195.416V9.35156H189.996ZM206.744 24V6.32422H218.609V9.35156H210.406V13.6484H217.999V16.6758H210.406V20.9727H218.634V24H206.744ZM236.212 6.32422V24H233.038L225.274 12.7695H225.128V24H221.466V6.32422H224.688L232.403 17.5547H232.574V6.32422H236.212Z" fill="#DFDFDF"/>
<circle cx="250" cy="18" r="6" fill="#2A6490"/>
<circle cx="257" cy="9" r="3" fill="#FFECB8"/>
</svg>
