<svg width="343" height="251" viewBox="0 0 343 251" fill="none" xmlns="http://www.w3.org/2000/svg">
<g filter="url(#filter0_d_607_3)">
<rect x="15" y="10" width="313" height="221" rx="18" fill="white"/>
</g>
<path d="M120.668 94.5208L111.042 94.0208L110.482 87.2961C110.365 85.8837 109.186 84.8962 107.81 85.0087L73.2713 88.0461C71.8944 88.1711 70.9026 89.3585 71.0076 90.7585L73.4813 120.232C73.598 121.645 74.7882 122.632 76.1534 122.52L77.9036 122.37L77.6236 128.094C77.5536 129.669 78.6971 130.944 80.2373 131.032L118.766 132.994C120.306 133.069 121.578 131.919 121.66 130.344L123.282 97.4332C123.352 95.8707 122.197 94.5958 120.668 94.5208ZM79.2455 95.1833L78.417 112.032L76.3867 115.12L74.5198 92.8709C74.5198 92.8459 74.5198 92.8334 74.5198 92.8084C74.5198 92.7834 74.5198 92.7709 74.5198 92.7459C74.5781 92.1209 75.0215 91.6209 75.6283 91.5709L106.083 88.896C106.689 88.846 107.214 89.271 107.308 89.8835C107.308 89.9085 107.343 89.9085 107.343 89.9335C107.343 89.946 107.378 89.9585 107.378 89.9835L107.693 93.8333L82.1392 92.5209C80.599 92.4709 79.3155 93.6208 79.2455 95.1833ZM118.229 124.794L112.78 117.882L109.571 113.795C109.291 113.432 108.836 113.132 108.335 113.107C107.833 113.082 107.459 113.295 107.039 113.62L105.126 115.107C104.717 115.37 104.402 115.545 103.971 115.52C103.551 115.495 103.177 115.32 102.909 115.045C102.815 114.945 102.64 114.77 102.5 114.62L97.5064 108.508C97.1447 108.02 96.5496 107.708 95.8962 107.67C95.2311 107.633 94.5893 107.933 94.1693 108.37L82.3726 121.97L81.5791 122.894L81.6141 122.045L82.4076 105.933L82.7926 98.0706C82.7926 98.0456 82.7926 98.0206 82.7926 98.0081C82.7926 97.9831 82.7926 97.9581 82.7926 97.9456C82.956 97.2707 83.5161 96.7832 84.1812 96.8207L108.008 98.0456L111.357 98.2206L118.159 98.5706C118.836 98.6081 119.361 99.1581 119.373 99.8455C119.373 99.8705 119.408 99.883 119.408 99.908C119.408 99.933 119.443 99.9455 119.443 99.9705L118.229 124.794Z" fill="#9AC5E5"/>
<path d="M110.82 109.783C113.084 109.783 114.927 107.808 114.927 105.383C114.927 102.958 113.095 100.983 110.82 100.983C108.556 100.983 106.713 102.945 106.713 105.383C106.713 107.82 108.545 109.783 110.82 109.783Z" fill="#9AC5E5"/>
<path d="M191.279 100.314L172.029 85.3573C171.73 85.1251 171.37 85 171 85C170.63 85 170.27 85.1251 169.971 85.3573L150.721 100.314C150.346 100.605 150.094 101.044 150.021 101.534C149.986 101.777 149.995 102.024 150.048 102.263C150.102 102.502 150.199 102.727 150.334 102.926C150.47 103.124 150.64 103.292 150.836 103.421C151.032 103.549 151.25 103.635 151.477 103.673C151.935 103.751 152.404 103.63 152.779 103.339L155.25 101.419V124.261C155.253 125.252 155.623 126.201 156.278 126.902C156.934 127.602 157.823 127.997 158.75 128H165.75V111.174C165.75 110.678 165.934 110.203 166.263 109.852C166.591 109.501 167.036 109.304 167.5 109.304H174.5C174.964 109.304 175.409 109.501 175.737 109.852C176.066 110.203 176.25 110.678 176.25 111.174V128H183.25C184.177 127.997 185.066 127.602 185.722 126.902C186.377 126.201 186.747 125.252 186.75 124.261V101.419L189.221 103.339C189.407 103.483 189.617 103.587 189.841 103.644C190.064 103.702 190.296 103.711 190.523 103.673C190.75 103.635 190.968 103.549 191.164 103.421C191.36 103.292 191.53 103.124 191.666 102.926C191.801 102.727 191.898 102.502 191.952 102.263C192.005 102.024 192.014 101.777 191.979 101.534C191.943 101.292 191.862 101.059 191.742 100.85C191.622 100.64 191.465 100.458 191.279 100.314Z" fill="#9AC5E5"/>
<path d="M246 87C241.228 87.0054 236.653 88.9112 233.278 92.2992C229.904 95.6872 228.005 100.281 228 105.072C228 120.536 244.364 132.221 245.059 132.714C245.338 132.901 245.665 133 246 133C246.335 133 246.662 132.901 246.941 132.714C247.636 132.221 264 120.536 264 105.072C263.995 100.281 262.096 95.6872 258.722 92.2992C255.347 88.9112 250.772 87.0054 246 87ZM246 98.5004C247.295 98.5004 248.56 98.8859 249.636 99.608C250.713 100.33 251.552 101.356 252.047 102.557C252.543 103.758 252.672 105.079 252.42 106.354C252.167 107.629 251.544 108.8 250.628 109.719C249.713 110.638 248.547 111.264 247.277 111.518C246.007 111.771 244.691 111.641 243.495 111.144C242.299 110.646 241.277 109.804 240.558 108.723C239.838 107.642 239.455 106.372 239.455 105.072C239.455 103.329 240.144 101.658 241.372 100.425C242.599 99.1928 244.264 98.5004 246 98.5004Z" fill="#9AC5E5"/>
<path d="M27 189H317.5" stroke="#494949" stroke-width="0.5"/>
<path d="M33.3203 202.859V217H31.5625V202.859H33.3203ZM40.5664 217.215C37.5586 217.215 35.7227 214.93 35.7227 211.746C35.7227 208.523 37.6367 206.258 40.5273 206.258C42.793 206.258 44.4727 207.586 44.7461 209.598H43.0664C42.832 208.621 41.9727 207.742 40.5664 207.742C38.6719 207.742 37.4023 209.305 37.4023 211.688C37.4023 214.148 38.6328 215.711 40.5664 215.711C41.8164 215.711 42.7734 215.047 43.0664 213.875H44.7461C44.4727 215.77 42.9297 217.215 40.5664 217.215ZM51.1523 217.215C48.2617 217.215 46.3086 215.047 46.3086 211.746C46.3086 208.445 48.2617 206.258 51.1523 206.258C54.0234 206.258 55.957 208.445 55.957 211.746C55.957 215.047 54.0234 217.215 51.1523 217.215ZM51.1523 215.73C53.2812 215.73 54.2773 213.855 54.2773 211.746C54.2773 209.637 53.2812 207.742 51.1523 207.742C48.9844 207.742 47.9883 209.637 47.9883 211.746C47.9883 213.855 48.9844 215.73 51.1523 215.73ZM59.8438 210.633V217H58.1641V206.395H59.7852V208.055H59.9219C60.4297 206.98 61.4062 206.258 63.0273 206.258C65.1758 206.258 66.6016 207.566 66.6016 210.262V217H64.9219V210.379C64.9219 208.738 64.0234 207.762 62.5195 207.762C60.9766 207.762 59.8438 208.797 59.8438 210.633Z" fill="#474747"/>
<defs>
<filter id="filter0_d_607_3" x="0" y="0" width="343" height="251" filterUnits="userSpaceOnUse" color-interpolation-filters="sRGB">
<feFlood flood-opacity="0" result="BackgroundImageFix"/>
<feColorMatrix in="SourceAlpha" type="matrix" values="0 0 0 0 0 0 0 0 0 0 0 0 0 0 0 0 0 0 127 0" result="hardAlpha"/>
<feOffset dy="5"/>
<feGaussianBlur stdDeviation="7.5"/>
<feComposite in2="hardAlpha" operator="out"/>
<feColorMatrix type="matrix" values="0 0 0 0 0 0 0 0 0 0 0 0 0 0 0 0 0 0 0.25 0"/>
<feBlend mode="normal" in2="BackgroundImageFix" result="effect1_dropShadow_607_3"/>
<feBlend mode="normal" in="SourceGraphic" in2="effect1_dropShadow_607_3" result="shape"/>
</filter>
</defs>
</svg>
