<svg width="343" height="251" viewBox="0 0 343 251" fill="none" xmlns="http://www.w3.org/2000/svg">
<g filter="url(#filter0_d_751_857)">
<rect x="15" y="10" width="313" height="221" rx="18" fill="#333742"/>
</g>
<path d="M127.668 93.2479L118.042 92.7097L117.482 85.4715C117.365 83.9512 116.186 82.8883 114.81 83.0094L80.2713 86.2787C78.8944 86.4133 77.9026 87.6914 78.0076 89.1982L80.4813 120.923C80.598 122.443 81.7882 123.506 83.1534 123.385L84.9036 123.223L84.6236 129.385C84.5536 131.081 85.6971 132.453 87.2373 132.547L125.766 134.659C127.306 134.74 128.578 133.502 128.66 131.807L130.282 96.3827C130.352 94.7009 129.197 93.3286 127.668 93.2479ZM86.2455 93.961L85.417 112.097L83.3867 115.42L81.5198 91.472C81.5198 91.4451 81.5198 91.4316 81.5198 91.4047C81.5198 91.3778 81.5198 91.3643 81.5198 91.3374C81.5781 90.6647 82.0215 90.1266 82.6283 90.0728L113.083 87.1936C113.689 87.1398 114.214 87.5972 114.308 88.2565C114.308 88.2834 114.343 88.2834 114.343 88.3103C114.343 88.3237 114.378 88.3372 114.378 88.3641L114.693 92.5079L89.1392 91.0953C87.599 91.0414 86.3155 92.2792 86.2455 93.961ZM125.229 125.834L119.78 118.393L116.571 113.994C116.291 113.604 115.836 113.281 115.335 113.254C114.833 113.227 114.459 113.456 114.039 113.806L112.126 115.407C111.717 115.689 111.402 115.878 110.971 115.851C110.551 115.824 110.177 115.635 109.909 115.339C109.815 115.232 109.64 115.043 109.5 114.882L104.506 108.303C104.145 107.778 103.55 107.442 102.896 107.402C102.231 107.361 101.589 107.684 101.169 108.155L89.3726 122.793L88.5791 123.789L88.6141 122.874L89.4076 105.531L89.7926 97.0688C89.7926 97.0419 89.7926 97.015 89.7926 97.0016C89.7926 96.9747 89.7926 96.9478 89.7926 96.9343C89.956 96.2078 90.5161 95.6831 91.1812 95.7234L115.008 97.0419L118.357 97.2303L125.159 97.607C125.836 97.6474 126.361 98.2394 126.373 98.9793C126.373 99.0062 126.408 99.0197 126.408 99.0466C126.408 99.0735 126.443 99.087 126.443 99.1139L125.229 125.834Z" fill="#2A6490"/>
<path d="M117.82 109.675C120.084 109.675 121.927 107.55 121.927 104.939C121.927 102.329 120.095 100.204 117.82 100.204C115.556 100.204 113.713 102.316 113.713 104.939C113.713 107.563 115.545 109.675 117.82 109.675Z" fill="#2A6490"/>
<path d="M198.279 99.4833L179.029 83.3846C178.73 83.1346 178.37 83 178 83C177.63 83 177.27 83.1346 176.971 83.3846L157.721 99.4833C157.346 99.7971 157.094 100.27 157.021 100.797C156.986 101.058 156.995 101.324 157.048 101.581C157.102 101.838 157.199 102.081 157.334 102.295C157.47 102.508 157.64 102.689 157.836 102.827C158.032 102.966 158.25 103.058 158.477 103.099C158.935 103.183 159.404 103.053 159.779 102.739L162.25 100.673V125.259C162.253 126.326 162.623 127.348 163.278 128.102C163.934 128.856 164.823 129.281 165.75 129.284H172.75V111.173C172.75 110.639 172.934 110.127 173.263 109.75C173.591 109.373 174.036 109.161 174.5 109.161H181.5C181.964 109.161 182.409 109.373 182.737 109.75C183.066 110.127 183.25 110.639 183.25 111.173V129.284H190.25C191.177 129.281 192.066 128.856 192.722 128.102C193.377 127.348 193.747 126.326 193.75 125.259V100.673L196.221 102.739C196.407 102.895 196.617 103.006 196.841 103.068C197.064 103.13 197.296 103.14 197.523 103.099C197.75 103.058 197.968 102.966 198.164 102.827C198.36 102.689 198.53 102.508 198.666 102.295C198.801 102.081 198.898 101.838 198.952 101.581C199.005 101.324 199.014 101.058 198.979 100.797C198.943 100.536 198.862 100.285 198.742 100.06C198.622 99.8347 198.465 99.6387 198.279 99.4833Z" fill="#2A6490"/>
<path d="M253 85.1527C248.228 85.1586 243.653 87.2099 240.278 90.8566C236.904 94.5034 235.005 99.4478 235 104.605C235 121.25 251.364 133.828 252.059 134.358C252.338 134.559 252.665 134.666 253 134.666C253.335 134.666 253.662 134.559 253.941 134.358C254.636 133.828 271 121.25 271 104.605C270.995 99.4478 269.096 94.5034 265.722 90.8566C262.347 87.2099 257.772 85.1586 253 85.1527ZM253 97.5315C254.295 97.5315 255.56 97.9463 256.636 98.7236C257.713 99.5008 258.552 100.606 259.047 101.898C259.543 103.191 259.672 104.613 259.42 105.985C259.167 107.357 258.544 108.618 257.628 109.607C256.713 110.596 255.547 111.27 254.277 111.543C253.007 111.816 251.691 111.676 250.495 111.14C249.299 110.605 248.277 109.698 247.558 108.535C246.838 107.372 246.455 106.004 246.455 104.605C246.455 102.729 247.144 100.93 248.372 99.6033C249.599 98.2767 251.264 97.5315 253 97.5315Z" fill="#2A6490"/>
<path d="M27 189H317.5" stroke="#DFDFDF" stroke-width="0.5"/>
<path d="M33.3203 202.859V217H31.5625V202.859H33.3203ZM40.5664 217.215C37.5586 217.215 35.7227 214.93 35.7227 211.746C35.7227 208.523 37.6367 206.258 40.5273 206.258C42.793 206.258 44.4727 207.586 44.7461 209.598H43.0664C42.832 208.621 41.9727 207.742 40.5664 207.742C38.6719 207.742 37.4023 209.305 37.4023 211.688C37.4023 214.148 38.6328 215.711 40.5664 215.711C41.8164 215.711 42.7734 215.047 43.0664 213.875H44.7461C44.4727 215.77 42.9297 217.215 40.5664 217.215ZM51.1523 217.215C48.2617 217.215 46.3086 215.047 46.3086 211.746C46.3086 208.445 48.2617 206.258 51.1523 206.258C54.0234 206.258 55.957 208.445 55.957 211.746C55.957 215.047 54.0234 217.215 51.1523 217.215ZM51.1523 215.73C53.2812 215.73 54.2773 213.855 54.2773 211.746C54.2773 209.637 53.2812 207.742 51.1523 207.742C48.9844 207.742 47.9883 209.637 47.9883 211.746C47.9883 213.855 48.9844 215.73 51.1523 215.73ZM59.8438 210.633V217H58.1641V206.395H59.7852V208.055H59.9219C60.4297 206.98 61.4062 206.258 63.0273 206.258C65.1758 206.258 66.6016 207.566 66.6016 210.262V217H64.9219V210.379C64.9219 208.738 64.0234 207.762 62.5195 207.762C60.9766 207.762 59.8438 208.797 59.8438 210.633Z" fill="#DFDFDF"/>
<defs>
<filter id="filter0_d_751_857" x="0" y="0" width="343" height="251" filterUnits="userSpaceOnUse" color-interpolation-filters="sRGB">
<feFlood flood-opacity="0" result="BackgroundImageFix"/>
<feColorMatrix in="SourceAlpha" type="matrix" values="0 0 0 0 0 0 0 0 0 0 0 0 0 0 0 0 0 0 127 0" result="hardAlpha"/>
<feOffset dy="5"/>
<feGaussianBlur stdDeviation="7.5"/>
<feComposite in2="hardAlpha" operator="out"/>
<feColorMatrix type="matrix" values="0 0 0 0 0 0 0 0 0 0 0 0 0 0 0 0 0 0 0.25 0"/>
<feBlend mode="normal" in2="BackgroundImageFix" result="effect1_dropShadow_751_857"/>
<feBlend mode="normal" in="SourceGraphic" in2="effect1_dropShadow_751_857" result="shape"/>
</filter>
</defs>
</svg>
