<svg width="343" height="251" viewBox="0 0 343 251" fill="none" xmlns="http://www.w3.org/2000/svg">
<g filter="url(#filter0_d_922_3)">
<rect x="15" y="10" width="313" height="221" rx="18" fill="white"/>
</g>
<path d="M33.3203 200.859V215H31.5625V200.859H33.3203ZM36.2305 215V204.395H37.8516V206.055H37.9883C38.4375 204.922 39.4531 204.258 40.8398 204.258C42.2266 204.258 43.1641 204.922 43.6719 206.055H43.7891C44.3359 204.961 45.4492 204.258 46.9727 204.258C48.8672 204.258 50.2148 205.41 50.2148 207.91V215H48.5352V207.93C48.5352 206.367 47.5391 205.762 46.3867 205.762C44.9023 205.762 44.0625 206.758 44.0625 208.105V215H42.3633V207.754C42.3633 206.562 41.5039 205.762 40.293 205.762C39.0234 205.762 37.9102 206.836 37.9102 208.379V215H36.2305ZM52.4023 211.992C52.4023 209.551 54.5508 209.004 56.3867 208.867C57.0605 208.818 58.7793 208.73 59.2578 208.711V207.852C59.2578 206.504 58.457 205.723 56.8555 205.723C55.5078 205.723 54.707 206.348 54.4727 207.148H52.7148C52.9297 205.449 54.5898 204.258 56.9336 204.258C58.3203 204.258 60.918 204.668 60.918 208.008V215H59.2578V213.555H59.1797C58.8281 214.277 57.8516 215.254 56.0156 215.254C54.0039 215.254 52.4023 214.062 52.4023 211.992ZM54.082 212.07C54.082 213.184 55.0195 213.75 56.3086 213.75C58.2031 213.75 59.2578 212.48 59.2578 211.152V210.078L56.582 210.273C55.0586 210.371 54.082 210.918 54.082 212.07ZM67.9102 219.199C65.3516 219.199 63.6133 218.086 63.418 216.113H65.1758C65.4102 217.188 66.4062 217.734 67.9102 217.734C69.7266 217.734 70.8398 216.953 70.8398 215.195V213.047H70.7031C70.3516 213.633 69.668 214.844 67.6172 214.844C65.0391 214.844 63.1055 212.891 63.1055 209.551C63.1055 206.289 64.9805 204.258 67.6367 204.258C69.6875 204.258 70.3516 205.508 70.7422 206.074H70.8789V204.395H72.5195V215.293C72.5195 218.027 70.4883 219.199 67.9102 219.199ZM67.8516 213.34C69.7852 213.34 70.8789 211.953 70.8789 209.609C70.8789 207.344 69.8242 205.762 67.8516 205.762C65.8203 205.762 64.8047 207.48 64.8047 209.609C64.8047 211.816 65.8398 213.34 67.8516 213.34ZM79.6484 215.215C76.582 215.215 74.6875 213.047 74.6875 209.785C74.6875 206.523 76.6016 204.258 79.4922 204.258C81.7188 204.258 84.0625 205.625 84.0625 209.551V210.254H76.3672C76.4453 212.5 77.7539 213.73 79.6484 213.73C80.918 213.73 81.7188 213.184 82.1094 212.52H83.9062C83.3984 214.121 81.8359 215.215 79.6484 215.215ZM76.3867 208.828H82.3633C82.3633 207.051 81.2305 205.742 79.4922 205.742C77.6562 205.742 76.4844 207.188 76.3867 208.828ZM95.7227 200.859H97.4805V210.215C97.4805 213.125 95.3125 215.254 91.9727 215.254C88.6328 215.254 86.4648 213.125 86.4648 210.215V200.859H88.2227V210.078C88.2227 212.129 89.6484 213.613 91.9727 213.613C94.3164 213.613 95.7227 212.129 95.7227 210.078V200.859ZM100.391 218.984V204.395H102.012V206.074H102.207C102.559 205.508 103.223 204.258 105.273 204.258C107.93 204.258 109.785 206.367 109.785 209.727C109.785 213.086 107.93 215.215 105.293 215.215C103.262 215.215 102.559 213.965 102.207 213.379H102.07V218.984H100.391ZM102.031 209.688C102.031 212.07 103.105 213.711 105.059 213.711C107.07 213.711 108.105 211.953 108.105 209.688C108.105 207.48 107.09 205.762 105.059 205.762C103.066 205.762 102.031 207.344 102.031 209.688ZM113.652 200.859V215H111.973V200.859H113.652ZM120.664 215.215C117.773 215.215 115.82 213.047 115.82 209.746C115.82 206.445 117.773 204.258 120.664 204.258C123.535 204.258 125.469 206.445 125.469 209.746C125.469 213.047 123.535 215.215 120.664 215.215ZM120.664 213.73C122.793 213.73 123.789 211.855 123.789 209.746C123.789 207.637 122.793 205.742 120.664 205.742C118.496 205.742 117.5 207.637 117.5 209.746C117.5 211.855 118.496 213.73 120.664 213.73ZM127.168 211.992C127.168 209.551 129.316 209.004 131.152 208.867C131.826 208.818 133.545 208.73 134.023 208.711V207.852C134.023 206.504 133.223 205.723 131.621 205.723C130.273 205.723 129.473 206.348 129.238 207.148H127.48C127.695 205.449 129.355 204.258 131.699 204.258C133.086 204.258 135.684 204.668 135.684 208.008V215H134.023V213.555H133.945C133.594 214.277 132.617 215.254 130.781 215.254C128.77 215.254 127.168 214.062 127.168 211.992ZM128.848 212.07C128.848 213.184 129.785 213.75 131.074 213.75C132.969 213.75 134.023 212.48 134.023 211.152V210.078L131.348 210.273C129.824 210.371 128.848 210.918 128.848 212.07ZM142.383 215.215C139.746 215.215 137.871 213.086 137.871 209.727C137.871 206.367 139.746 204.258 142.402 204.258C144.453 204.258 145.117 205.508 145.469 206.074H145.586V200.859H147.285V215H145.645V213.379H145.469C145.098 213.965 144.414 215.215 142.383 215.215ZM142.617 213.711C144.551 213.711 145.645 212.07 145.645 209.688C145.645 207.344 144.59 205.762 142.617 205.762C140.586 205.762 139.57 207.48 139.57 209.688C139.57 211.953 140.605 213.711 142.617 213.711Z" fill="#474747"/>
<path d="M27 189H317.5" stroke="#494949" stroke-width="0.5"/>
<rect x="83" y="54" width="84" height="84" rx="7" fill="#E9E9E9"/>
<path d="M136.5 86.8333H113.833V106.667L126.997 93.5009C127.551 92.9476 128.448 92.9475 129.001 93.5007L136.5 101.015V86.8333ZM111 85.4073C111 84.6301 111.645 84 112.405 84H137.928C138.704 84 139.333 84.6303 139.333 85.4073V108.093C139.333 108.87 138.688 109.5 137.928 109.5H112.405C111.629 109.5 111 108.87 111 108.093V85.4073ZM119.5 95.3333C117.935 95.3333 116.667 94.0648 116.667 92.5C116.667 90.9352 117.935 89.6667 119.5 89.6667C121.065 89.6667 122.333 90.9352 122.333 92.5C122.333 94.0648 121.065 95.3333 119.5 95.3333Z" fill="#999999"/>
<circle cx="219" cy="96" r="42" fill="#9AC5E5"/>
<path d="M193.828 100.264V97.6113H191.189V96.5039H193.828V93.8652H194.936V96.5039H197.588V97.6113H194.936V100.264H193.828ZM209.865 92.1016H211.096V98.6504C211.096 100.688 209.578 102.178 207.24 102.178C204.902 102.178 203.385 100.688 203.385 98.6504V92.1016H204.615V98.5547C204.615 99.9902 205.613 101.029 207.24 101.029C208.881 101.029 209.865 99.9902 209.865 98.5547V92.1016ZM213.133 104.789V94.5762H214.268V95.752H214.404C214.65 95.3555 215.115 94.4805 216.551 94.4805C218.41 94.4805 219.709 95.957 219.709 98.3086C219.709 100.66 218.41 102.15 216.564 102.15C215.143 102.15 214.65 101.275 214.404 100.865H214.309V104.789H213.133ZM214.281 98.2812C214.281 99.9492 215.033 101.098 216.4 101.098C217.809 101.098 218.533 99.8672 218.533 98.2812C218.533 96.7363 217.822 95.5332 216.4 95.5332C215.006 95.5332 214.281 96.6406 214.281 98.2812ZM222.416 92.1016V102H221.24V92.1016H222.416ZM227.324 102.15C225.301 102.15 223.934 100.633 223.934 98.3223C223.934 96.0117 225.301 94.4805 227.324 94.4805C229.334 94.4805 230.688 96.0117 230.688 98.3223C230.688 100.633 229.334 102.15 227.324 102.15ZM227.324 101.111C228.814 101.111 229.512 99.7988 229.512 98.3223C229.512 96.8457 228.814 95.5195 227.324 95.5195C225.807 95.5195 225.109 96.8457 225.109 98.3223C225.109 99.7988 225.807 101.111 227.324 101.111ZM231.877 99.8945C231.877 98.1855 233.381 97.8027 234.666 97.707C235.138 97.6729 236.341 97.6113 236.676 97.5977V96.9961C236.676 96.0527 236.115 95.5059 234.994 95.5059C234.051 95.5059 233.49 95.9434 233.326 96.5039H232.096C232.246 95.3145 233.408 94.4805 235.049 94.4805C236.02 94.4805 237.838 94.7676 237.838 97.1055V102H236.676V100.988H236.621C236.375 101.494 235.691 102.178 234.406 102.178C232.998 102.178 231.877 101.344 231.877 99.8945ZM233.053 99.9492C233.053 100.729 233.709 101.125 234.611 101.125C235.938 101.125 236.676 100.236 236.676 99.3066V98.5547L234.803 98.6914C233.736 98.7598 233.053 99.1426 233.053 99.9492ZM242.527 102.15C240.682 102.15 239.369 100.66 239.369 98.3086C239.369 95.957 240.682 94.4805 242.541 94.4805C243.977 94.4805 244.441 95.3555 244.688 95.752H244.77V92.1016H245.959V102H244.811V100.865H244.688C244.428 101.275 243.949 102.15 242.527 102.15ZM242.691 101.098C244.045 101.098 244.811 99.9492 244.811 98.2812C244.811 96.6406 244.072 95.5332 242.691 95.5332C241.27 95.5332 240.559 96.7363 240.559 98.2812C240.559 99.8672 241.283 101.098 242.691 101.098Z" fill="white"/>
<defs>
<filter id="filter0_d_922_3" x="0" y="0" width="343" height="251" filterUnits="userSpaceOnUse" color-interpolation-filters="sRGB">
<feFlood flood-opacity="0" result="BackgroundImageFix"/>
<feColorMatrix in="SourceAlpha" type="matrix" values="0 0 0 0 0 0 0 0 0 0 0 0 0 0 0 0 0 0 127 0" result="hardAlpha"/>
<feOffset dy="5"/>
<feGaussianBlur stdDeviation="7.5"/>
<feComposite in2="hardAlpha" operator="out"/>
<feColorMatrix type="matrix" values="0 0 0 0 0 0 0 0 0 0 0 0 0 0 0 0 0 0 0.25 0"/>
<feBlend mode="normal" in2="BackgroundImageFix" result="effect1_dropShadow_922_3"/>
<feBlend mode="normal" in="SourceGraphic" in2="effect1_dropShadow_922_3" result="shape"/>
</filter>
</defs>
</svg>
