<svg width="343" height="251" viewBox="0 0 343 251" fill="none" xmlns="http://www.w3.org/2000/svg">
<g filter="url(#filter0_d_921_24)">
<rect x="15" y="10" width="313" height="221" rx="18" fill="#333742"/>
</g>
<path d="M33.3203 200.859V215H31.5625V200.859H33.3203ZM36.2305 215V204.395H37.8516V206.055H37.9883C38.4375 204.922 39.4531 204.258 40.8398 204.258C42.2266 204.258 43.1641 204.922 43.6719 206.055H43.7891C44.3359 204.961 45.4492 204.258 46.9727 204.258C48.8672 204.258 50.2148 205.41 50.2148 207.91V215H48.5352V207.93C48.5352 206.367 47.5391 205.762 46.3867 205.762C44.9023 205.762 44.0625 206.758 44.0625 208.105V215H42.3633V207.754C42.3633 206.562 41.5039 205.762 40.293 205.762C39.0234 205.762 37.9102 206.836 37.9102 208.379V215H36.2305ZM52.4023 211.992C52.4023 209.551 54.5508 209.004 56.3867 208.867C57.0605 208.818 58.7793 208.73 59.2578 208.711V207.852C59.2578 206.504 58.457 205.723 56.8555 205.723C55.5078 205.723 54.707 206.348 54.4727 207.148H52.7148C52.9297 205.449 54.5898 204.258 56.9336 204.258C58.3203 204.258 60.918 204.668 60.918 208.008V215H59.2578V213.555H59.1797C58.8281 214.277 57.8516 215.254 56.0156 215.254C54.0039 215.254 52.4023 214.062 52.4023 211.992ZM54.082 212.07C54.082 213.184 55.0195 213.75 56.3086 213.75C58.2031 213.75 59.2578 212.48 59.2578 211.152V210.078L56.582 210.273C55.0586 210.371 54.082 210.918 54.082 212.07ZM67.9102 219.199C65.3516 219.199 63.6133 218.086 63.418 216.113H65.1758C65.4102 217.188 66.4062 217.734 67.9102 217.734C69.7266 217.734 70.8398 216.953 70.8398 215.195V213.047H70.7031C70.3516 213.633 69.668 214.844 67.6172 214.844C65.0391 214.844 63.1055 212.891 63.1055 209.551C63.1055 206.289 64.9805 204.258 67.6367 204.258C69.6875 204.258 70.3516 205.508 70.7422 206.074H70.8789V204.395H72.5195V215.293C72.5195 218.027 70.4883 219.199 67.9102 219.199ZM67.8516 213.34C69.7852 213.34 70.8789 211.953 70.8789 209.609C70.8789 207.344 69.8242 205.762 67.8516 205.762C65.8203 205.762 64.8047 207.48 64.8047 209.609C64.8047 211.816 65.8398 213.34 67.8516 213.34ZM79.6484 215.215C76.582 215.215 74.6875 213.047 74.6875 209.785C74.6875 206.523 76.6016 204.258 79.4922 204.258C81.7188 204.258 84.0625 205.625 84.0625 209.551V210.254H76.3672C76.4453 212.5 77.7539 213.73 79.6484 213.73C80.918 213.73 81.7188 213.184 82.1094 212.52H83.9062C83.3984 214.121 81.8359 215.215 79.6484 215.215ZM76.3867 208.828H82.3633C82.3633 207.051 81.2305 205.742 79.4922 205.742C77.6562 205.742 76.4844 207.188 76.3867 208.828ZM95.7227 200.859H97.4805V210.215C97.4805 213.125 95.3125 215.254 91.9727 215.254C88.6328 215.254 86.4648 213.125 86.4648 210.215V200.859H88.2227V210.078C88.2227 212.129 89.6484 213.613 91.9727 213.613C94.3164 213.613 95.7227 212.129 95.7227 210.078V200.859ZM100.391 218.984V204.395H102.012V206.074H102.207C102.559 205.508 103.223 204.258 105.273 204.258C107.93 204.258 109.785 206.367 109.785 209.727C109.785 213.086 107.93 215.215 105.293 215.215C103.262 215.215 102.559 213.965 102.207 213.379H102.07V218.984H100.391ZM102.031 209.688C102.031 212.07 103.105 213.711 105.059 213.711C107.07 213.711 108.105 211.953 108.105 209.688C108.105 207.48 107.09 205.762 105.059 205.762C103.066 205.762 102.031 207.344 102.031 209.688ZM113.652 200.859V215H111.973V200.859H113.652ZM120.664 215.215C117.773 215.215 115.82 213.047 115.82 209.746C115.82 206.445 117.773 204.258 120.664 204.258C123.535 204.258 125.469 206.445 125.469 209.746C125.469 213.047 123.535 215.215 120.664 215.215ZM120.664 213.73C122.793 213.73 123.789 211.855 123.789 209.746C123.789 207.637 122.793 205.742 120.664 205.742C118.496 205.742 117.5 207.637 117.5 209.746C117.5 211.855 118.496 213.73 120.664 213.73ZM127.168 211.992C127.168 209.551 129.316 209.004 131.152 208.867C131.826 208.818 133.545 208.73 134.023 208.711V207.852C134.023 206.504 133.223 205.723 131.621 205.723C130.273 205.723 129.473 206.348 129.238 207.148H127.48C127.695 205.449 129.355 204.258 131.699 204.258C133.086 204.258 135.684 204.668 135.684 208.008V215H134.023V213.555H133.945C133.594 214.277 132.617 215.254 130.781 215.254C128.77 215.254 127.168 214.062 127.168 211.992ZM128.848 212.07C128.848 213.184 129.785 213.75 131.074 213.75C132.969 213.75 134.023 212.48 134.023 211.152V210.078L131.348 210.273C129.824 210.371 128.848 210.918 128.848 212.07ZM142.383 215.215C139.746 215.215 137.871 213.086 137.871 209.727C137.871 206.367 139.746 204.258 142.402 204.258C144.453 204.258 145.117 205.508 145.469 206.074H145.586V200.859H147.285V215H145.645V213.379H145.469C145.098 213.965 144.414 215.215 142.383 215.215ZM142.617 213.711C144.551 213.711 145.645 212.07 145.645 209.688C145.645 207.344 144.59 205.762 142.617 205.762C140.586 205.762 139.57 207.48 139.57 209.688C139.57 211.953 140.605 213.711 142.617 213.711Z" fill="white"/>
<path d="M27 189H317.5" stroke="#DFDFDF" stroke-width="0.5"/>
<rect x="83" y="62" width="84" height="84" rx="7" fill="#2A6490"/>
<path d="M136.5 93.8333H113.833V113.667L126.997 100.501C127.551 99.9476 128.448 99.9475 129.001 100.501L136.5 108.015V93.8333ZM111 92.4073C111 91.6301 111.645 91 112.405 91H137.928C138.704 91 139.333 91.6303 139.333 92.4073V115.093C139.333 115.87 138.688 116.5 137.928 116.5H112.405C111.629 116.5 111 115.87 111 115.093V92.4073ZM119.5 102.333C117.935 102.333 116.667 101.065 116.667 99.5C116.667 97.9352 117.935 96.6667 119.5 96.6667C121.065 96.6667 122.333 97.9352 122.333 99.5C122.333 101.065 121.065 102.333 119.5 102.333Z" fill="white"/>
<circle cx="223" cy="104" r="42" fill="#898989"/>
<path d="M193.828 107.264V104.611H191.189V103.504H193.828V100.865H194.936V103.504H197.588V104.611H194.936V107.264H193.828ZM209.865 99.1016H211.096V105.65C211.096 107.688 209.578 109.178 207.24 109.178C204.902 109.178 203.385 107.688 203.385 105.65V99.1016H204.615V105.555C204.615 106.99 205.613 108.029 207.24 108.029C208.881 108.029 209.865 106.99 209.865 105.555V99.1016ZM213.133 111.789V101.576H214.268V102.752H214.404C214.65 102.355 215.115 101.48 216.551 101.48C218.41 101.48 219.709 102.957 219.709 105.309C219.709 107.66 218.41 109.15 216.564 109.15C215.143 109.15 214.65 108.275 214.404 107.865H214.309V111.789H213.133ZM214.281 105.281C214.281 106.949 215.033 108.098 216.4 108.098C217.809 108.098 218.533 106.867 218.533 105.281C218.533 103.736 217.822 102.533 216.4 102.533C215.006 102.533 214.281 103.641 214.281 105.281ZM222.416 99.1016V109H221.24V99.1016H222.416ZM227.324 109.15C225.301 109.15 223.934 107.633 223.934 105.322C223.934 103.012 225.301 101.48 227.324 101.48C229.334 101.48 230.688 103.012 230.688 105.322C230.688 107.633 229.334 109.15 227.324 109.15ZM227.324 108.111C228.814 108.111 229.512 106.799 229.512 105.322C229.512 103.846 228.814 102.52 227.324 102.52C225.807 102.52 225.109 103.846 225.109 105.322C225.109 106.799 225.807 108.111 227.324 108.111ZM231.877 106.895C231.877 105.186 233.381 104.803 234.666 104.707C235.138 104.673 236.341 104.611 236.676 104.598V103.996C236.676 103.053 236.115 102.506 234.994 102.506C234.051 102.506 233.49 102.943 233.326 103.504H232.096C232.246 102.314 233.408 101.48 235.049 101.48C236.02 101.48 237.838 101.768 237.838 104.105V109H236.676V107.988H236.621C236.375 108.494 235.691 109.178 234.406 109.178C232.998 109.178 231.877 108.344 231.877 106.895ZM233.053 106.949C233.053 107.729 233.709 108.125 234.611 108.125C235.938 108.125 236.676 107.236 236.676 106.307V105.555L234.803 105.691C233.736 105.76 233.053 106.143 233.053 106.949ZM242.527 109.15C240.682 109.15 239.369 107.66 239.369 105.309C239.369 102.957 240.682 101.48 242.541 101.48C243.977 101.48 244.441 102.355 244.688 102.752H244.77V99.1016H245.959V109H244.811V107.865H244.688C244.428 108.275 243.949 109.15 242.527 109.15ZM242.691 108.098C244.045 108.098 244.811 106.949 244.811 105.281C244.811 103.641 244.072 102.533 242.691 102.533C241.27 102.533 240.559 103.736 240.559 105.281C240.559 106.867 241.283 108.098 242.691 108.098Z" fill="white"/>
<defs>
<filter id="filter0_d_921_24" x="0" y="0" width="343" height="251" filterUnits="userSpaceOnUse" color-interpolation-filters="sRGB">
<feFlood flood-opacity="0" result="BackgroundImageFix"/>
<feColorMatrix in="SourceAlpha" type="matrix" values="0 0 0 0 0 0 0 0 0 0 0 0 0 0 0 0 0 0 127 0" result="hardAlpha"/>
<feOffset dy="5"/>
<feGaussianBlur stdDeviation="7.5"/>
<feComposite in2="hardAlpha" operator="out"/>
<feColorMatrix type="matrix" values="0 0 0 0 0 0 0 0 0 0 0 0 0 0 0 0 0 0 0.25 0"/>
<feBlend mode="normal" in2="BackgroundImageFix" result="effect1_dropShadow_921_24"/>
<feBlend mode="normal" in="SourceGraphic" in2="effect1_dropShadow_921_24" result="shape"/>
</filter>
</defs>
</svg>
