<svg width="343" height="251" viewBox="0 0 343 251" fill="none" xmlns="http://www.w3.org/2000/svg">
<g filter="url(#filter0_d_751_816)">
<rect x="15" y="10" width="313" height="221" rx="18" fill="#333742"/>
</g>
<path d="M27 189H317.5" stroke="#DFDFDF" stroke-width="0.5"/>
<path d="M31.3477 217V206.395H33.0273V217H31.3477ZM32.1875 204.637C31.543 204.637 31.0156 204.148 31.0156 203.523C31.0156 202.898 31.543 202.41 32.1875 202.41C32.832 202.41 33.3789 202.898 33.3789 203.523C33.3789 204.148 32.832 204.637 32.1875 204.637ZM37.3828 210.633V217H35.7031V206.395H37.3242V208.055H37.4609C37.9688 206.98 38.9453 206.258 40.5664 206.258C42.7148 206.258 44.1406 207.566 44.1406 210.262V217H42.4609V210.379C42.4609 208.738 41.5625 207.762 40.0586 207.762C38.5156 207.762 37.3828 208.797 37.3828 210.633ZM51.582 206.395V207.801H49.2383V217H47.5391V207.801H45.8398V206.395H47.5391V204.949C47.5391 203.23 48.6914 202.195 50.5664 202.195C50.9766 202.195 51.4648 202.254 51.8164 202.312V203.816C51.4648 203.758 51.1523 203.738 50.9375 203.738C49.7656 203.738 49.2383 204.227 49.2383 205.32V206.395H51.582ZM53.5742 217V206.395H55.2539V217H53.5742ZM54.4141 204.637C53.7695 204.637 53.2422 204.148 53.2422 203.523C53.2422 202.898 53.7695 202.41 54.4141 202.41C55.0586 202.41 55.6055 202.898 55.6055 203.523C55.6055 204.148 55.0586 204.637 54.4141 204.637ZM59.6094 210.633V217H57.9297V206.395H59.5508V208.055H59.6875C60.1953 206.98 61.1719 206.258 62.793 206.258C64.9414 206.258 66.3672 207.566 66.3672 210.262V217H64.6875V210.379C64.6875 208.738 63.7891 207.762 62.2852 207.762C60.7422 207.762 59.6094 208.797 59.6094 210.633ZM69.0625 217V206.395H70.7422V217H69.0625ZM69.9023 204.637C69.2578 204.637 68.7305 204.148 68.7305 203.523C68.7305 202.898 69.2578 202.41 69.9023 202.41C70.5469 202.41 71.0938 202.898 71.0938 203.523C71.0938 204.148 70.5469 204.637 69.9023 204.637ZM78.0469 206.395V207.801H75.8203V213.953C75.8203 215.32 76.4844 215.535 77.207 215.535C77.5195 215.535 77.9492 215.516 78.2031 215.496V217.059C77.9492 217.098 77.5195 217.137 77.0312 217.137C75.625 217.137 74.1211 216.258 74.1211 214.383V207.801H72.5195V206.395H74.1211V203.855H75.8203V206.395H78.0469ZM84.5508 217.215C81.4844 217.215 79.5898 215.047 79.5898 211.785C79.5898 208.523 81.5039 206.258 84.3945 206.258C86.6211 206.258 88.9648 207.625 88.9648 211.551V212.254H81.2695C81.3477 214.5 82.6562 215.73 84.5508 215.73C85.8203 215.73 86.6211 215.184 87.0117 214.52H88.8086C88.3008 216.121 86.7383 217.215 84.5508 217.215ZM81.2891 210.828H87.2656C87.2656 209.051 86.1328 207.742 84.3945 207.742C82.5586 207.742 81.3867 209.188 81.2891 210.828ZM102.07 209.148C101.836 208.27 101.172 207.684 99.9219 207.684C98.6133 207.684 97.6758 208.387 97.6758 209.285C97.6758 209.988 98.2422 210.477 99.4922 210.77L101.074 211.16C102.969 211.609 103.906 212.547 103.906 214.031C103.906 215.867 102.402 217.215 99.7461 217.215C97.3633 217.215 95.9375 216.16 95.6641 214.227H97.4219C97.6172 215.262 98.3789 215.75 99.707 215.75C101.211 215.75 102.168 215.125 102.168 214.129C102.168 213.387 101.641 212.879 100.43 212.605L98.8281 212.234C96.9727 211.805 95.9961 210.789 95.9961 209.383C95.9961 207.566 97.5781 206.258 99.9219 206.258C102.109 206.258 103.496 207.43 103.711 209.148H102.07ZM110.43 217.215C107.422 217.215 105.586 214.93 105.586 211.746C105.586 208.523 107.5 206.258 110.391 206.258C112.656 206.258 114.336 207.586 114.609 209.598H112.93C112.695 208.621 111.836 207.742 110.43 207.742C108.535 207.742 107.266 209.305 107.266 211.688C107.266 214.148 108.496 215.711 110.43 215.711C111.68 215.711 112.637 215.047 112.93 213.875H114.609C114.336 215.77 112.793 217.215 110.43 217.215ZM116.68 217V206.395H118.301V208.016H118.418C118.809 206.941 119.902 206.219 121.152 206.219C121.406 206.219 121.836 206.238 122.031 206.258V207.957C121.914 207.918 121.445 207.84 121.016 207.84C119.492 207.84 118.359 208.895 118.359 210.32V217H116.68ZM127.656 217.215C124.766 217.215 122.812 215.047 122.812 211.746C122.812 208.445 124.766 206.258 127.656 206.258C130.527 206.258 132.461 208.445 132.461 211.746C132.461 215.047 130.527 217.215 127.656 217.215ZM127.656 215.73C129.785 215.73 130.781 213.855 130.781 211.746C130.781 209.637 129.785 207.742 127.656 207.742C125.488 207.742 124.492 209.637 124.492 211.746C124.492 213.855 125.488 215.73 127.656 215.73ZM136.348 202.859V217H134.668V202.859H136.348ZM140.703 202.859V217H139.023V202.859H140.703Z" fill="#DFDFDF"/>
<circle cx="170.453" cy="162.214" r="3.21429" fill="#727272"/>
<circle cx="170.453" cy="172.5" r="3.21429" fill="#535353"/>
<circle cx="170.453" cy="182.786" r="3.21429" fill="#3E3E3E"/>
<rect x="60" y="30" width="224" height="24" rx="5" fill="#2A6490"/>
<rect x="68" y="62" width="224" height="25" rx="5" fill="#1F4C6D"/>
<rect x="91" y="93" width="224" height="24" rx="5" fill="#153852"/>
<path d="M174 139C174 136.239 176.239 134 179 134H328V158H179C176.239 158 174 155.761 174 153V139Z" fill="#0D2130"/>
<g filter="url(#filter1_d_751_816)">
<path d="M147 127C147 124.239 149.239 122 152 122H317C319.761 122 322 124.239 322 127V141C322 143.761 319.761 146 317 146H152C149.239 146 147 143.761 147 141V127Z" fill="#102B3F"/>
</g>
<path d="M74.5 42H269.5" stroke="white" stroke-width="3" stroke-linecap="round"/>
<path d="M83 75H278" stroke="white" stroke-width="3" stroke-linecap="round"/>
<path d="M106 105H301" stroke="white" stroke-width="3" stroke-linecap="round"/>
<defs>
<filter id="filter0_d_751_816" x="0" y="0" width="343" height="251" filterUnits="userSpaceOnUse" color-interpolation-filters="sRGB">
<feFlood flood-opacity="0" result="BackgroundImageFix"/>
<feColorMatrix in="SourceAlpha" type="matrix" values="0 0 0 0 0 0 0 0 0 0 0 0 0 0 0 0 0 0 127 0" result="hardAlpha"/>
<feOffset dy="5"/>
<feGaussianBlur stdDeviation="7.5"/>
<feComposite in2="hardAlpha" operator="out"/>
<feColorMatrix type="matrix" values="0 0 0 0 0 0 0 0 0 0 0 0 0 0 0 0 0 0 0.25 0"/>
<feBlend mode="normal" in2="BackgroundImageFix" result="effect1_dropShadow_751_816"/>
<feBlend mode="normal" in="SourceGraphic" in2="effect1_dropShadow_751_816" result="shape"/>
</filter>
<filter id="filter1_d_751_816" x="141" y="116" width="195" height="44" filterUnits="userSpaceOnUse" color-interpolation-filters="sRGB">
<feFlood flood-opacity="0" result="BackgroundImageFix"/>
<feColorMatrix in="SourceAlpha" type="matrix" values="0 0 0 0 0 0 0 0 0 0 0 0 0 0 0 0 0 0 127 0" result="hardAlpha"/>
<feOffset dx="4" dy="4"/>
<feGaussianBlur stdDeviation="5"/>
<feComposite in2="hardAlpha" operator="out"/>
<feColorMatrix type="matrix" values="0 0 0 0 0 0 0 0 0 0 0 0 0 0 0 0 0 0 0.1 0"/>
<feBlend mode="normal" in2="BackgroundImageFix" result="effect1_dropShadow_751_816"/>
<feBlend mode="normal" in="SourceGraphic" in2="effect1_dropShadow_751_816" result="shape"/>
</filter>
</defs>
</svg>
