<svg width="343" height="251" viewBox="0 0 343 251" fill="none" xmlns="http://www.w3.org/2000/svg">
<g filter="url(#filter0_d_487_946)">
<rect x="15" y="10" width="313" height="221" rx="18" fill="white"/>
</g>
<path d="M40.3203 200.859V215H38.5625V200.859H40.3203ZM44.9102 208.633V215H43.2305V204.395H44.8516V206.055H44.9883C45.4863 204.971 46.4824 204.258 48.0938 204.258C50.2422 204.258 51.6777 205.566 51.668 208.262V215H49.9883V208.379C49.9883 206.738 49.0898 205.762 47.5859 205.762C46.043 205.762 44.9102 206.797 44.9102 208.633ZM54.3633 218.984V204.395H55.9844V206.074H56.1797C56.541 205.508 57.1855 204.258 59.2461 204.258C61.9121 204.258 63.7578 206.367 63.7578 209.727C63.7578 213.096 61.9121 215.225 59.2656 215.215C57.2441 215.225 56.541 213.965 56.1797 213.379H56.043V218.984H54.3633ZM56.0039 209.688C56.0137 212.07 57.0781 213.711 59.0312 213.711C61.043 213.711 62.0781 211.943 62.0781 209.688C62.0781 207.471 61.0723 205.762 59.0312 205.762C57.0488 205.762 56.0137 207.334 56.0039 209.688ZM72.6445 210.645V204.395H74.3047V215H72.6445V213.203H72.5273C72.0293 214.277 70.9746 215.137 69.3828 215.137C67.3711 215.137 65.9355 213.828 65.9453 211.133V204.395H67.625V211.016C67.625 212.539 68.5723 213.525 69.9297 213.516C71.1309 213.525 72.6348 212.627 72.6445 210.645ZM81.6289 204.395V205.801H79.4023V211.953C79.3926 213.311 80.0762 213.535 80.7891 213.535C81.0918 213.535 81.541 213.506 81.7852 213.496V215.059C81.5215 215.098 81.1113 215.137 80.6133 215.137C79.1973 215.137 77.7129 214.258 77.7031 212.383V205.801H76.1016V204.395H77.7031V201.855H79.4023V204.395H81.6289Z" fill="#474747"/>
<path d="M28.5 189H319" stroke="#494949" stroke-width="0.5"/>
<path d="M46.7139 101.043V99.9805H55.4961V101.043H51.7109V112H50.5156V101.043H46.7139ZM59.7959 112.183C57.2476 112.191 55.6538 110.29 55.6621 107.551C55.6538 104.812 57.2808 102.861 59.6299 102.853C61.5889 102.861 63.4731 104.239 63.4814 107.302V107.833H56.791C56.8408 109.875 58.0029 111.17 59.7959 111.17C61.0327 111.17 61.7632 110.531 62.0869 109.958H63.2988C62.8921 111.203 61.6138 112.191 59.7959 112.183ZM56.7993 106.854H62.3193C62.3193 105.168 61.2236 103.874 59.6465 103.882C58.0195 103.874 56.8989 105.235 56.7993 106.854ZM65.9551 102.985L68.2295 106.787L70.5205 102.985H71.832L68.9268 107.484L71.832 112H70.5205L68.2295 108.314L65.9551 112H64.6436L67.499 107.484L64.6436 102.985H65.9551ZM77.3271 102.985V103.948H75.4346V109.593C75.4263 110.73 76.0654 111.045 76.7461 111.054L77.4932 111.021V112.083C77.3105 112.1 77.0283 112.133 76.6465 112.133C75.4761 112.133 74.2891 111.369 74.2891 109.875V103.948H72.9443V102.985H74.2891V100.827H75.4346V102.985H77.3271Z" fill="#BABABA"/>
<rect x="32.25" y="91.25" width="278.5" height="29.5" rx="6.75" stroke="black" stroke-width="0.5"/>
<rect x="270" y="93" width="39" height="26" rx="4" fill="#9AC5E5"/>
<path d="M287 109.171L296.192 99.9785L297.606 101.393L287 111.999L280.636 105.635L282.05 104.221L287 109.171Z" fill="white"/>
<defs>
<filter id="filter0_d_487_946" x="0" y="0" width="343" height="251" filterUnits="userSpaceOnUse" color-interpolation-filters="sRGB">
<feFlood flood-opacity="0" result="BackgroundImageFix"/>
<feColorMatrix in="SourceAlpha" type="matrix" values="0 0 0 0 0 0 0 0 0 0 0 0 0 0 0 0 0 0 127 0" result="hardAlpha"/>
<feOffset dy="5"/>
<feGaussianBlur stdDeviation="7.5"/>
<feComposite in2="hardAlpha" operator="out"/>
<feColorMatrix type="matrix" values="0 0 0 0 0 0 0 0 0 0 0 0 0 0 0 0 0 0 0.25 0"/>
<feBlend mode="normal" in2="BackgroundImageFix" result="effect1_dropShadow_487_946"/>
<feBlend mode="normal" in="SourceGraphic" in2="effect1_dropShadow_487_946" result="shape"/>
</filter>
</defs>
</svg>
