<svg width="274" height="93" viewBox="0 0 274 93" fill="none" xmlns="http://www.w3.org/2000/svg">
<g filter="url(#filter0_i_599_32)">
<rect width="274" height="93" rx="46.5" fill="#ECD9A5"/>
</g>
<g filter="url(#filter1_d_599_32)">
<ellipse cx="52.6095" cy="46.5" rx="39.0328" ry="38.354" fill="#9AC5E5"/>
</g>
<path d="M56.15 67.6C50.4167 67.6 45.7 65.8333 42 62.3C38.3333 58.7333 36.5 54.2333 36.5 48.8C36.5 43.2333 38.3167 38.7167 41.95 35.25C45.6167 31.75 50.3333 30 56.1 30C58.5667 30 60.7 30.4167 62.5 31.25L67.8 34.25C68.8 34.25 69.4667 33.9167 69.8 33.25C70.1333 32.55 70.3667 31.5667 70.5 30.3H71.5V46.1H70.65C69.1833 42.0333 68.1333 39.2833 67.5 37.85C66.9 36.4167 65.8833 35.0333 64.45 33.7C63.0167 32.3667 61.1833 31.7 58.95 31.7C56.05 31.7 53.9 33.3333 52.5 36.6C51.1 39.8667 50.4 43.6833 50.4 48.05C50.4 52.75 51.2333 56.8333 52.9 60.3C54.6 63.7333 57.0833 65.45 60.35 65.45C63.3833 65.45 65.8167 64.35 67.65 62.15C69.4833 59.95 70.7 57.0833 71.3 53.55L72.15 53.7C71.6833 57.7 70.1667 61.0167 67.6 63.65C65.0333 66.2833 61.2167 67.6 56.15 67.6Z" fill="white"/>
<path d="M106.65 66.89C106.65 69.01 105.84 70.78 104.22 72.2C102.62 73.6 100.73 74.3 98.55 74.3C96.25 74.3 94.32 73.6 92.76 72.2C91.22 70.78 90.45 69.01 90.45 66.89C90.45 64.77 91.23 63.01 92.79 61.61C94.37 60.19 96.29 59.48 98.55 59.48C100.77 59.48 102.67 60.18 104.25 61.58C105.85 62.98 106.65 64.75 106.65 66.89ZM100.68 66.86C100.68 66.58 100.66 66.02 100.62 65.18C100.58 64.34 100.56 63.84 100.56 63.68C100.56 62.6 100.39 61.71 100.05 61.01C99.73 60.31 99.22 59.96 98.52 59.96C97.88 59.96 97.39 60.33 97.05 61.07C96.71 61.79 96.54 62.66 96.54 63.68C96.54 64.06 96.52 64.53 96.48 65.09C96.46 65.63 96.44 66.22 96.42 66.86C96.42 67.14 96.44 67.72 96.48 68.6C96.52 69.46 96.54 69.96 96.54 70.1C96.54 71.18 96.7 72.07 97.02 72.77C97.36 73.47 97.87 73.82 98.55 73.82C99.21 73.82 99.71 73.46 100.05 72.74C100.39 72.02 100.56 71.14 100.56 70.1C100.56 69.7 100.57 69.23 100.59 68.69C100.61 68.13 100.64 67.52 100.68 66.86ZM135.369 74H126.339V73.52C127.039 73.52 127.449 73.41 127.569 73.19C127.709 72.97 127.779 72.45 127.779 71.63L127.809 70.25V64.19L127.779 62.96C127.779 62.1 127.669 61.48 127.449 61.1C127.249 60.72 126.879 60.53 126.339 60.53C125.979 60.53 125.589 60.7 125.169 61.04C124.769 61.36 124.499 62 124.359 62.96V70.25L124.389 71.63C124.389 72.27 124.419 72.73 124.479 73.01C124.559 73.29 124.949 73.46 125.649 73.52V74H117.129V73.52C117.809 73.52 118.219 73.41 118.359 73.19C118.499 72.97 118.569 72.45 118.569 71.63L118.599 70.25V64.19L118.569 62.96C118.569 62.1 118.459 61.48 118.239 61.1C118.039 60.72 117.669 60.53 117.129 60.53C116.449 60.53 115.979 60.75 115.719 61.19C115.479 61.63 115.289 62.08 115.149 62.54V70.25L115.179 71.63C115.179 72.27 115.209 72.73 115.269 73.01C115.349 73.29 115.739 73.46 116.439 73.52V74H107.469V73.52L108.129 73.49C108.709 73.43 109.059 73.29 109.179 73.07C109.299 72.85 109.359 72.37 109.359 71.63L109.389 70.25V63.08L109.359 61.85C109.319 61.37 109.259 61.01 109.179 60.77C109.099 60.53 108.739 60.38 108.099 60.32L107.409 60.26V59.78H115.029V62.03C115.209 61.47 115.559 60.91 116.079 60.35C116.619 59.77 117.699 59.48 119.319 59.48C120.439 59.48 121.409 59.72 122.229 60.2C123.069 60.66 123.689 61.36 124.089 62.3C124.189 61.94 124.449 61.38 124.869 60.62C125.309 59.86 126.529 59.48 128.529 59.48C129.889 59.48 131.069 59.86 132.069 60.62C133.069 61.38 133.569 62.36 133.569 63.56V70.25L133.599 71.63C133.599 72.39 133.649 72.87 133.749 73.07C133.869 73.27 134.229 73.41 134.829 73.49L135.369 73.52V74ZM143.448 71.93C143.528 72.43 143.748 72.81 144.108 73.07C144.488 73.33 144.908 73.46 145.368 73.46C145.988 73.46 146.448 73.16 146.748 72.56C147.068 71.96 147.268 71.3 147.348 70.58C147.428 69.86 147.478 69.22 147.498 68.66C147.538 68.1 147.558 67.49 147.558 66.83V64.88C147.498 64.3 147.428 63.7 147.348 63.08C147.288 62.44 147.098 61.83 146.778 61.25C146.458 60.65 145.968 60.35 145.308 60.35C144.908 60.35 144.518 60.53 144.138 60.89C143.778 61.23 143.558 61.65 143.478 62.15C143.438 62.63 143.408 63.26 143.388 64.04C143.368 64.8 143.358 65.56 143.358 66.32V69.62C143.358 70.54 143.388 71.31 143.448 71.93ZM135.168 80.93V80.45L136.218 80.39C136.798 80.33 137.168 80.2 137.328 80C137.488 79.82 137.568 79.44 137.568 78.86L137.598 77.63V63.08L137.568 61.85C137.568 61.29 137.478 60.91 137.298 60.71C137.138 60.51 136.768 60.38 136.188 60.32L135.228 60.26V59.78H143.298V61.55C143.518 61.09 143.868 60.63 144.348 60.17C144.848 59.71 145.778 59.48 147.138 59.48C149.058 59.48 150.618 60.15 151.818 61.49C153.018 62.83 153.618 64.65 153.618 66.95C153.618 69.17 153.018 70.95 151.818 72.29C150.618 73.63 149.058 74.3 147.138 74.3C145.738 74.3 144.808 74.11 144.348 73.73C143.888 73.35 143.548 72.95 143.328 72.53L143.358 74.3V77.15L143.418 78.53C143.478 79.21 143.608 79.66 143.808 79.88C144.028 80.12 144.448 80.28 145.068 80.36L146.508 80.45V80.93H135.168ZM170.722 66.89C170.722 69.01 169.912 70.78 168.292 72.2C166.692 73.6 164.802 74.3 162.622 74.3C160.322 74.3 158.392 73.6 156.832 72.2C155.292 70.78 154.522 69.01 154.522 66.89C154.522 64.77 155.302 63.01 156.862 61.61C158.442 60.19 160.362 59.48 162.622 59.48C164.842 59.48 166.742 60.18 168.322 61.58C169.922 62.98 170.722 64.75 170.722 66.89ZM164.752 66.86C164.752 66.58 164.732 66.02 164.692 65.18C164.652 64.34 164.632 63.84 164.632 63.68C164.632 62.6 164.462 61.71 164.122 61.01C163.802 60.31 163.292 59.96 162.592 59.96C161.952 59.96 161.462 60.33 161.122 61.07C160.782 61.79 160.612 62.66 160.612 63.68C160.612 64.06 160.592 64.53 160.552 65.09C160.532 65.63 160.512 66.22 160.492 66.86C160.492 67.14 160.512 67.72 160.552 68.6C160.592 69.46 160.612 69.96 160.612 70.1C160.612 71.18 160.772 72.07 161.092 72.77C161.432 73.47 161.942 73.82 162.622 73.82C163.282 73.82 163.782 73.46 164.122 72.74C164.462 72.02 164.632 71.14 164.632 70.1C164.632 69.7 164.642 69.23 164.662 68.69C164.682 68.13 164.712 67.52 164.752 66.86ZM183.062 64.13L183.032 62.9C183.032 61.34 182.482 60.56 181.382 60.56C180.682 60.56 180.182 60.78 179.882 61.22C179.602 61.66 179.372 62.11 179.192 62.57V70.25L179.222 71.63C179.222 72.45 179.292 72.97 179.432 73.19C179.592 73.41 180.042 73.52 180.782 73.52V74H171.452V73.52L172.172 73.49C172.752 73.43 173.102 73.29 173.222 73.07C173.342 72.85 173.402 72.37 173.402 71.63L173.432 70.25V63.08L173.402 61.85C173.362 61.37 173.302 61.01 173.222 60.77C173.142 60.53 172.782 60.38 172.142 60.32L171.452 60.26V59.78H179.072V62.03C179.292 61.47 179.682 60.91 180.242 60.35C180.822 59.77 181.932 59.48 183.572 59.48C184.992 59.48 186.222 59.88 187.262 60.68C188.302 61.48 188.822 62.42 188.822 63.5V70.25L188.852 71.63C188.852 72.35 188.912 72.83 189.032 73.07C189.152 73.29 189.502 73.43 190.082 73.49L190.742 73.52V74H181.472V73.52C182.192 73.52 182.632 73.41 182.792 73.19C182.952 72.95 183.032 72.43 183.032 71.63L183.062 70.25V64.13ZM200.741 74H191.021V73.52L191.741 73.49C192.321 73.43 192.671 73.29 192.791 73.07C192.911 72.85 192.971 72.37 192.971 71.63L193.001 70.25V63.08L192.971 61.85C192.931 61.37 192.871 61.01 192.791 60.77C192.711 60.53 192.351 60.38 191.711 60.32L190.901 60.26V59.78H198.761V70.25L198.791 71.63C198.791 72.35 198.851 72.83 198.971 73.07C199.091 73.29 199.441 73.43 200.021 73.49L200.741 73.52V74ZM192.941 54.77C192.941 53.99 193.221 53.33 193.781 52.79C194.361 52.23 195.051 51.95 195.851 51.95C196.671 51.95 197.361 52.22 197.921 52.76C198.501 53.28 198.791 53.95 198.791 54.77C198.791 55.57 198.501 56.25 197.921 56.81C197.361 57.35 196.671 57.62 195.851 57.62C195.051 57.62 194.361 57.35 193.781 56.81C193.221 56.25 192.941 55.57 192.941 54.77ZM217.507 59.63L217.447 63.53V77.63L217.477 78.86C217.477 79.4 217.557 79.77 217.717 79.97C217.897 80.19 218.267 80.33 218.827 80.39L219.667 80.45V80.93H208.957V80.45C209.157 80.45 209.387 80.44 209.647 80.42C209.927 80.42 210.247 80.4 210.607 80.36C210.987 80.32 211.257 80.2 211.417 80C211.577 79.82 211.657 79.44 211.657 78.86L211.687 77.63V72.53C211.487 72.93 211.147 73.33 210.667 73.73C210.207 74.11 209.287 74.3 207.907 74.3C206.007 74.3 204.447 73.63 203.227 72.29C202.027 70.93 201.427 69.15 201.427 66.95C201.427 64.69 202.187 62.88 203.707 61.52C205.227 60.16 207.157 59.48 209.497 59.48C210.997 59.48 212.157 59.77 212.977 60.35C213.797 60.91 214.487 61.49 215.047 62.09L217.207 59.63H217.507ZM211.687 66.86V64.19C211.647 63.95 211.627 63.78 211.627 63.68C211.627 62.54 211.467 61.64 211.147 60.98C210.847 60.3 210.327 59.96 209.587 59.96C208.947 59.96 208.457 60.33 208.117 61.07C207.777 61.79 207.607 62.66 207.607 63.68C207.607 64.06 207.587 64.53 207.547 65.09C207.527 65.63 207.507 66.22 207.487 66.86C207.487 67.14 207.507 67.72 207.547 68.6C207.587 69.46 207.607 69.96 207.607 70.1C207.607 71.08 207.777 71.9 208.117 72.56C208.457 73.2 208.967 73.52 209.647 73.52C210.247 73.52 210.697 73.34 210.997 72.98C211.297 72.6 211.467 72.23 211.507 71.87C211.547 71.51 211.587 70.66 211.627 69.32C211.667 67.96 211.687 67.14 211.687 66.86ZM238.876 74H231.016V72.08C230.556 72.8 229.986 73.35 229.306 73.73C228.646 74.11 227.726 74.3 226.546 74.3C225.166 74.3 223.946 73.89 222.886 73.07C221.806 72.27 221.266 71.16 221.266 69.74V63.08L221.236 61.85C221.236 61.31 221.146 60.94 220.966 60.74C220.806 60.52 220.446 60.38 219.886 60.32L219.046 60.26V59.78H227.026V69.59L227.056 70.82C227.056 71.64 227.196 72.26 227.476 72.68C227.776 73.08 228.216 73.28 228.796 73.28C229.436 73.28 229.896 73.1 230.176 72.74C230.476 72.38 230.716 72.01 230.896 71.63V63.53L230.836 62.15C230.836 61.49 230.726 61.04 230.506 60.8C230.286 60.56 229.846 60.4 229.186 60.32L228.256 60.26V59.78H236.656V70.7L236.686 71.93C236.686 72.47 236.766 72.85 236.926 73.07C237.106 73.27 237.476 73.4 238.036 73.46L238.876 73.52V74ZM254.517 69.5C253.957 71 253.057 72.18 251.817 73.04C250.577 73.88 249.117 74.3 247.437 74.3C245.077 74.3 243.137 73.65 241.617 72.35C240.097 71.03 239.337 69.21 239.337 66.89C239.337 64.73 240.117 62.96 241.677 61.58C243.257 60.18 245.147 59.48 247.347 59.48C249.647 59.48 251.407 60.13 252.627 61.43C253.847 62.73 254.457 64.32 254.457 66.2H245.247C245.247 66.92 245.297 67.66 245.397 68.42C245.517 69.16 245.727 69.88 246.027 70.58C246.347 71.28 246.787 71.85 247.347 72.29C247.927 72.71 248.647 72.92 249.507 72.92C250.727 72.92 251.687 72.58 252.387 71.9C253.107 71.2 253.657 70.33 254.037 69.29L254.517 69.5ZM249.237 65.6C249.217 65.38 249.197 65.12 249.177 64.82C249.177 64.52 249.177 64.14 249.177 63.68C249.177 62.46 249.027 61.54 248.727 60.92C248.427 60.28 247.907 59.96 247.167 59.96C246.527 59.96 246.077 60.27 245.817 60.89C245.577 61.49 245.407 62.42 245.307 63.68L245.247 65.6H249.237Z" fill="white"/>
<defs>
<filter id="filter0_i_599_32" x="0" y="0" width="279" height="98" filterUnits="userSpaceOnUse" color-interpolation-filters="sRGB">
<feFlood flood-opacity="0" result="BackgroundImageFix"/>
<feBlend mode="normal" in="SourceGraphic" in2="BackgroundImageFix" result="shape"/>
<feColorMatrix in="SourceAlpha" type="matrix" values="0 0 0 0 0 0 0 0 0 0 0 0 0 0 0 0 0 0 127 0" result="hardAlpha"/>
<feOffset dx="5" dy="5"/>
<feGaussianBlur stdDeviation="2.5"/>
<feComposite in2="hardAlpha" operator="arithmetic" k2="-1" k3="1"/>
<feColorMatrix type="matrix" values="0 0 0 0 0 0 0 0 0 0 0 0 0 0 0 0 0 0 0.25 0"/>
<feBlend mode="normal" in2="shape" result="effect1_innerShadow_599_32"/>
</filter>
<filter id="filter1_d_599_32" x="10.5767" y="8.146" width="86.0659" height="84.708" filterUnits="userSpaceOnUse" color-interpolation-filters="sRGB">
<feFlood flood-opacity="0" result="BackgroundImageFix"/>
<feColorMatrix in="SourceAlpha" type="matrix" values="0 0 0 0 0 0 0 0 0 0 0 0 0 0 0 0 0 0 127 0" result="hardAlpha"/>
<feOffset dx="1" dy="4"/>
<feGaussianBlur stdDeviation="2"/>
<feComposite in2="hardAlpha" operator="out"/>
<feColorMatrix type="matrix" values="0 0 0 0 0 0 0 0 0 0 0 0 0 0 0 0 0 0 0.25 0"/>
<feBlend mode="normal" in2="BackgroundImageFix" result="effect1_dropShadow_599_32"/>
<feBlend mode="normal" in="SourceGraphic" in2="effect1_dropShadow_599_32" result="shape"/>
</filter>
</defs>
</svg>
