<svg width="343" height="251" viewBox="0 0 343 251" fill="none" xmlns="http://www.w3.org/2000/svg">
<g filter="url(#filter0_d_1378_4)">
<rect x="15" y="10" width="313" height="221" rx="18" fill="white"/>
</g>
<path d="M33.5625 200.859H35.6719L40.4375 212.5H40.6133L45.3789 200.859H47.4883V215H45.8281V204.316H45.6914L41.2969 215H39.7344L35.3398 204.316H35.2227V215H33.5625V200.859ZM49.8906 211.992C49.8906 209.551 52.0391 209.004 53.875 208.867C54.5488 208.818 56.2676 208.73 56.7461 208.711V207.852C56.7461 206.504 55.9453 205.723 54.3438 205.723C52.9961 205.723 52.1953 206.348 51.9609 207.148H50.2031C50.418 205.449 52.0781 204.258 54.4219 204.258C55.8086 204.258 58.4062 204.668 58.4062 208.008V215H56.7461V213.555H56.668C56.3164 214.277 55.3398 215.254 53.5039 215.254C51.4922 215.254 49.8906 214.062 49.8906 211.992ZM51.5703 212.07C51.5703 213.184 52.5078 213.75 53.7969 213.75C55.6914 213.75 56.7461 212.48 56.7461 211.152V210.078L54.0703 210.273C52.5469 210.371 51.5703 210.918 51.5703 212.07ZM61.1016 218.984V204.395H62.7227V206.074H62.918C63.2695 205.508 63.9336 204.258 65.9844 204.258C68.6406 204.258 70.4961 206.367 70.4961 209.727C70.4961 213.086 68.6406 215.215 66.0039 215.215C63.9727 215.215 63.2695 213.965 62.918 213.379H62.7812V218.984H61.1016ZM62.7422 209.688C62.7422 212.07 63.8164 213.711 65.7695 213.711C67.7812 213.711 68.8164 211.953 68.8164 209.688C68.8164 207.48 67.8008 205.762 65.7695 205.762C63.7773 205.762 62.7422 207.344 62.7422 209.688Z" fill="#474747"/>
<path d="M27 189H317.5" stroke="#494949" stroke-width="0.5"/>
<path d="M222.451 82.9484H222.198L221.321 82.7341L220.464 83.1237L218.632 82.4418L218.925 81.6624L218.847 80.922L218.613 80.1037L218.535 79.1879L218.905 78.3111L219.178 77.4733L218.964 77.2394L218.749 77.0251L218.847 76.2652L216.918 76.1288L216.353 75.7976L215.749 75.5443L215.495 74.9403L215.301 74.2389L214.424 73.8102L213.878 72.9919L213.761 71.9202L213.956 71.1019L214.404 70.7706L214.911 70.5758L215.671 70.8875L216.294 70.4199L216.041 69.66L215.223 69.1534L214.307 68.9391L213.605 69.3288L212.904 69.5042L211.93 69.056L210.897 68.8806L210.546 69.017L210.254 68.9781L210.04 68.6858L209.709 68.5494L208.968 69.1339L208.169 69.4457L208.111 68.8612L208.169 68.2961L207.721 68.0623L207.215 67.9454L206.844 67.2829L206.123 67.2245L205.403 67.5752L204.915 68.1597L205.091 68.9781L205.013 69.738L204.857 70.4394L204.175 70.3809L203.396 70.2056L202.733 69.9328L202.051 69.5626L201.525 69.2314L200.999 68.9976L200.317 68.9196L199.635 68.7832L198.934 68.3351L198.31 67.848L197.687 67.8675L197.044 68.0623L196.479 68.1597L195.992 68.1987L195.797 67.77L195.271 67.2245L195.329 66.7374L195.056 66.4646L193.809 66.601L193.01 66.8738L192.757 66.9907L192.523 66.9712L192.153 66.7763L191.861 66.4451L192.309 65.7437L193.069 65.1981L193.381 64.4967L192.913 64.3603L191.393 64.1265L189.932 63.6004L189.308 64.068L188.802 64.3408L188.159 64.2044L187.633 64.6136L186.756 65.1007L185.879 65.315L185.548 64.8474V64.1459L184.554 63.0743L183.21 63.5419L182.703 64.1459L182.859 65.7631L182.314 66.1333L182.138 66.3477L181.924 66.523L181.71 66.4061L181.476 66.2697L180.677 66.2113L179.878 66.4061L180.092 64.8084L177.287 65.1981L174.5 65.958L175.923 63.3081L177.111 60.4244L178.728 56.9367L178.943 56.1963L178.787 55.4364L179.138 54.8324L179.625 54.2479L180.151 54.0335L180.424 53.4295L180.112 52.9229L179.722 52.5917L179.099 52.5138L178.456 52.2605L177.559 52.1436L176.079 51.3252L175.416 51.0524L174.754 50.6238L174.013 50.5069L173.312 50.7212L172.727 50.2341L172.766 49.6885L173.039 49.1235L173.156 48.461V47.7985L172.474 48.0129L172.143 47.6037L172.922 46.7074L172.786 46.1034L172.571 45.4994L172.727 45.0512V44.5057L172.669 43.9796L174.013 42.9859L174.559 42.8105L174.851 42.3429L174.987 40.9985L174.364 40.0243L173.857 39.9268L173.37 39.693L173 38.7188L172.415 38.6798L171.792 38.7188L171.11 38.2317L170.779 37.3354L170.642 35.7572L170.389 34.9583L170.214 34.8219L170.019 34.8414L169.863 34.9778L169.688 35.0168L169.24 34.6855L168.148 35.0752L167.135 34.8414L166.726 34.5881L166.297 34.1984V33.5749L166.492 32.9709L166.648 32.7566L166.746 32.5228L166.57 32.3864L166.356 32.3279L166.141 32.3669L165.947 32.5228L165.596 32.9709L165.206 33.3801L164.622 33.4775L164.076 33.1073L163.979 32.7761L163.94 32.4448L163.745 32.3279L163.55 32.5422L163.492 32.893L163.472 34.0036L163.141 34.5297L162.167 34.0815L161.27 33.2632L160.959 32.9514L160.647 32.9904L160.355 32.5617L160.16 32.0162L159.926 31.7239L159.634 31.4901L159.419 30.964L159.03 30.7107L158.094 30.1067L157.568 29.8534L157.724 29.6586L159.166 28.47L160.861 27.4179L161.348 27.2035L162.42 26.7749L162.615 26.6969L163.803 26.5605L164.329 26.5021L165.167 26.5995L166.804 26.4436L167.096 26.4242L168.421 26.3072L170.935 27.0671L171.636 27.0087L171.734 26.9892L171.811 26.9697L173.273 26.5216L176.332 26.2683L176.644 26.2293L178.378 26.0734L178.592 26.2293L178.923 26.7164L179.254 27.0477L179.625 27.1451L181.359 26.7749L184.126 26.9307L185.938 26.7944L186.035 26.7554L187.496 26.2293L187.75 26.1514L188.081 25.937L189.425 25.0408L190.848 23.5794L191.452 22.7026L191.958 21.7674L192.309 20.7152L192.426 19.5267L192.192 18.3576L192.134 17.7731L192.309 17.3444L193.03 16.7599L194.491 16H194.511L195.31 17.5588L196.537 19.9943L196.79 21.0659L197.414 22.6831L199.752 27.3009L201.564 32.1526L201.856 32.6786L202.811 33.8477L203.181 34.8414L207.565 41.1349L209.28 43.6289L211.326 45.9085L211.618 46.1424L213.001 47.7596L213.06 48.4415V49.2599L213.235 49.9418L214.171 50.4679L214.443 51.0329L215.203 53.5464L215.554 54.131L215.963 54.3843L216.314 54.735L217.522 57.0926L218.243 58.0084L218.496 58.515L218.574 59.041L218.769 59.5476L220.035 60.9505L220.444 62.1001L220.815 64.6136L221.302 65.997L222.666 67.8869L222.763 68.2766L222.607 68.6663L222.354 69.0365L222.218 69.3872L222.198 69.7185L222.393 70.7511L222.627 73.6933L222.861 75.0572L223.737 77.8435L223.815 79.2074L223.543 80.4544L222.939 81.604L222.451 82.9484Z" fill="#DFDEDE" stroke="white" stroke-width="0.5" stroke-linecap="round" stroke-linejoin="round"/>
<path d="M158.095 30.1066L159.03 30.7106L159.42 30.9639L159.634 31.49L159.926 31.7238L160.16 32.016L160.355 32.5616L160.647 32.9903L160.959 32.9513L161.271 33.263L162.167 34.0814L163.141 34.5295L163.472 34.0034L163.492 32.8928L163.55 32.5421L163.745 32.3278L163.94 32.4447L163.979 32.7759L164.076 33.1072L164.622 33.4774L165.207 33.3799L165.596 32.9708L165.947 32.5226L166.142 32.3668L166.356 32.3278L166.57 32.3862L166.746 32.5226L166.648 32.7564L166.492 32.9708L166.298 33.5748V34.1983L166.726 34.588L167.135 34.8413L168.149 35.0751L169.24 34.6854L169.688 35.0166L169.863 34.9777L170.019 34.8413L170.214 34.8218L170.389 34.9582L170.643 35.757L170.779 37.3353L171.11 38.2316L171.792 38.7187L172.416 38.6797L173 38.7187L173.37 39.6929L173.858 39.9267L174.364 40.0241L174.988 40.9983L174.851 42.3428L174.559 42.8104L174.013 42.9858L172.669 43.9795L172.727 44.5055V45.0511L172.572 45.4992L172.786 46.1033L172.922 46.7073L172.143 47.6036L172.474 48.0127L173.156 47.7984V48.4609L173.039 49.1233L172.766 49.6884L172.727 50.2339L173.312 50.7211L174.013 50.5067L174.754 50.6236L175.416 51.0523L176.079 51.3251L177.56 52.1434L178.456 52.2603L179.099 52.5136L179.722 52.5916L180.112 52.9228L180.424 53.4294L180.151 54.0334L179.625 54.2477L179.138 54.8323L178.787 55.4363L178.943 56.1962L178.729 56.9366L177.111 60.4243L175.923 63.308L174.501 65.9579L174.306 66.3086L174.091 66.6398L173.897 66.7762L173.682 66.9516L173.526 67.2049L173.409 67.4776L172.143 69.8352L171.48 70.3029L171.325 70.108L170.818 69.9911L170.409 70.4198L170.175 70.9848L169.863 71.394L169.181 71.6863L168.753 72.1539L168.519 73.1281L167.642 73.4204L166.512 73.9659L165.323 74.3167L164.076 74.1413L163.063 73.284L161.914 72.7579L159.731 73.6932H158.699L157.452 73.4399L157.783 73.1866L158.192 72.9917L158.465 72.68L158.66 71.8811L158.601 71.7252L158.348 71.4719L158.309 71.394L158.445 71.2771L158.601 71.2576H158.738L159.088 71.0628L159.322 71.0238L159.498 70.9069L159.576 70.5172L157.997 70.9653L157.763 71.2966L157.841 72.3293L157.647 72.5631L157.023 72.7579L156.166 72.641L155.114 72.037L154.178 71.1017L153.828 70.2249L155.406 70.0496V69.8352L155.289 69.7963L155.055 69.6014L155.347 69.5625L155.62 69.582L155.893 69.6599L156.107 69.8352L156.01 69.2117L155.64 68.6467L155.386 68.0037L155.562 67.1269L155.269 66.9905L155.036 67.3023L154.899 67.8284L154.86 68.3544L154.724 68.939L154.471 69.0754L154.237 68.8221L153.73 68.9195L153.224 69.0559L151.996 68.6857V68.3155L151.899 67.9842L151.996 67.5361L151.938 66.971L152.249 66.406L152.6 65.9189L153.029 65.7046L153.477 65.5292H154.139L154.86 65.3344L155.016 65.12L155.055 64.4965L154.88 64.3796L154.51 64.5745L153.964 65.0616L153.633 64.9836L153.379 64.8278L153.243 64.5745V64.1653L152.62 64.4965L152.113 64.8472L151.158 65.8799L150.924 66.0748L150.613 66.1722H150.34L150.165 65.9968V65.7046L150.34 65.3928L150.73 64.8472L149.95 65.0226L149.697 64.9447L149.619 64.4965L149.755 64.1653L150.087 63.9704L150.457 63.8535L150.73 63.6977L151.041 63.2495L150.963 63.1521L150.242 63.2495L150.009 63.0937L149.833 62.7429L149.658 62.2948L149.444 61.8856L149.561 61.8466L149.638 61.7882L149.794 61.6323L149.989 61.7882L150.281 61.7687L150.808 61.6323L151.217 61.7492L151.567 61.9636L151.918 62.0805L152.327 61.8856L152.288 62.2558L152.327 62.6065L152.444 62.8988L152.698 63.0157L152.99 62.8988L153.107 62.5871L153.243 61.8856L153.691 61.2231L154.061 61.2621L154.471 61.5154L155.055 61.4375L154.919 61.1647L154.763 60.9504L154.549 60.814L154.315 60.7555H153.945L153.769 60.5022L153.379 60.4438L153.068 60.5412L152.756 60.5217L152.249 60.4243L151.412 60.1515L150.262 59.2942L150.204 58.9045L150.73 58.1641L151.061 57.8134L151.899 57.5601L152.093 57.4237L152.444 57.1509L152.814 56.43L153.068 55.6116L152.814 55.2025L152.386 54.9102L152.113 54.2672V53.4878L150.554 51.9875L149.21 52.0265L148.002 52.0655L147.865 51.7732L147.671 51.2861L147.437 50.8964L147.164 50.4288L146.852 50.1365V49.6884L146.735 49.0064L146.463 47.9738L146.073 45.2265L146.17 44.7588L146.521 44.7004L147.982 45.2265L148.45 45.129L148.84 44.9342L149.171 44.8757L149.541 45.1095L149.658 45.4992L149.716 46.1227L149.677 46.7462L149.541 47.1749L149.522 47.9738L150.34 48.6557L151.353 49.0844L151.996 49.1233L151.509 48.5973L149.97 47.5061L150.418 46.3176L150.554 45.6161L150.437 45.1095L150.184 44.5835L150.165 44.3107L150.145 43.921L150.262 43.239L150.535 42.713L150.34 42.4597L150.087 42.4986L149.97 42.5766V42.4986L150.262 41.7388V41.6803L150.281 41.427L150.301 41.2127V41.0958L150.281 40.9009V40.6087V40.4138L150.34 40.2579L150.398 40.1021L150.418 39.9852L150.359 39.7708L150.281 39.4006L150.087 38.8551L150.437 38.8161L151.119 38.5628L151.334 38.3874L151.451 38.3485L151.567 38.29L151.626 38.2705L151.977 38.2316L152.366 38.2705L152.6 38.2316L152.756 38.0757L153.009 37.686L153.36 37.2573L153.711 36.9066L153.808 36.8092L154.256 36.4L154.51 36.0883L154.665 35.8545L154.685 35.8155L154.86 35.4648L154.958 35.0556L154.977 34.8218L154.997 34.7439L155.094 34.4321L155.153 34.2957L155.289 34.0424L155.347 33.945L155.62 33.6917L155.815 33.5748L156.302 33.2046L156.731 32.8344L156.828 32.7564L156.867 32.737L157.12 32.6006L157.51 32.3862L157.588 32.3473L157.705 32.2109V32.1329V32.094L157.666 32.016L157.452 31.7043V31.5679L157.53 30.9444L157.588 30.769L157.647 30.5547L157.744 30.4378L157.822 30.3014L157.861 30.2819L158.017 30.2235L158.075 30.1261L158.095 30.1066ZM161.524 52.0265L161.777 51.0913L161.758 50.2729L161.485 49.5325L161.31 48.4609L160.842 47.6815L159.907 47.6036L159.069 47.7984L158.543 48.3634L158.173 49.1623L157.569 49.9417L156.38 50.0586L156.224 50.5847L156.185 51.1497L155.62 51.5004L154.997 51.7148L154.159 51.1887L153.418 51.1497L153.009 51.9875L153.633 52.7669L154.159 53.5073L154.295 54.4621L154.821 54.8128L155.601 55.0466L156.38 56.0598L157.51 56.0987L157.978 56.0208L158.445 55.748L159.108 55.5532L159.77 55.3973L160.063 56.0987L160.842 55.7091L161.602 55.5337L162.284 55.1245L162.537 54.6764L162.985 54.0724L162.771 53.8191V53.2345L163.161 52.9618L163.531 52.7669L163.609 52.2798L163.414 51.7927H162.868L162.245 52.0265H161.524ZM149.736 42.7325L149.677 42.7714V42.6545L149.736 42.7325ZM139.838 43.6287L140.364 43.6093L140.851 43.6872L141.104 43.96L140.929 44.564L140.461 44.9732L139.877 45.0121L138.766 44.7588L138.532 44.8563L138.24 45.0121L137.967 45.0316L137.87 44.6614L137.928 44.5445L138.24 43.6287L138.552 43.317L138.922 43.2196L139.351 43.317L139.838 43.6287ZM141.475 47.2139L141.806 47.4672L142.059 47.7594L142.098 48.0712L141.825 48.4414L141.299 48.4609L139.507 47.0775L139.721 46.8631L139.838 46.5904L139.994 45.9669L140.072 45.811L140.208 45.6356L140.344 45.4992L140.5 45.4603L140.598 45.5187L140.656 45.6356L140.695 45.772L140.793 46.376L140.812 46.4929L140.948 46.7073L141.104 46.9021L141.475 47.2139ZM145.469 50.4872L145.254 50.5067L145.099 50.4288L144.826 50.1365L144.631 50.0196L144.475 50.0586L144.378 50.1755L144.28 50.2339L142.877 50.3119L142.371 50.0781L141.825 49.3571L142.644 49.1428L142.838 49.0064L143.053 48.6557L143.033 48.4998L142.877 48.3829L142.741 48.2076L141.806 46.415L141.747 46.1422L141.845 45.772L141.806 44.1938L141.923 43.8431L142.176 43.7456L142.799 43.0052L143.287 42.8883L143.696 43.2001L144.105 43.6677L144.495 44.0379L145.352 44.4666L145.683 44.7978L145.82 45.3434L145.8 45.6161L145.664 46.0643L145.625 46.2591L145.683 46.4929L145.936 46.9411L145.995 47.1749L146.073 48.3829L145.995 48.6557L146.131 48.8506L146.287 49.2013L146.365 49.3571L146.014 49.552L145.722 50.2534L145.469 50.4872ZM123.574 37.6665L123.867 38.0172L123.828 38.5238L123.458 38.7771L122.951 38.4849L122.269 38.5433L122.133 38.6018V38.9525L122.405 39.0889L122.717 39.1473L122.854 39.2642L122.308 39.6929L121.236 39.537L120.438 38.8551L120.71 37.6665L121.373 37.9003L122.834 37.3937L123.574 37.6665ZM139.903 62.7624L139.708 62.8598L139.591 62.8209V62.704L139.689 62.1584L139.825 61.7103L140.02 61.4375L140.234 61.5933L140.429 61.9051L140.605 62.061L141.267 62.4117L141.462 62.626L141.345 62.8209L141.014 63.1716L140.78 63.269L140.468 63.3275L140.215 63.2105L140.04 62.8988L139.962 62.7234L139.903 62.7624ZM144.826 61.0673L145.099 61.2426L145.216 61.6518L145.099 61.7882L144.806 61.8856L144.709 62.0999L144.689 62.2948L144.456 62.5676L144.144 62.6455L143.949 62.4896L143.735 62.5091L143.559 62.4117L143.501 61.983L143.54 61.5544L143.774 61.2621L144.222 61.0088L144.826 61.0673ZM148.275 61.8466L148.333 62.0025L148.391 62.2948L148.255 62.5871L146.911 63.6782L146.287 63.7561L146.307 63.5808L146.579 63.1911L146.618 62.9573L146.501 62.7819L146.852 62.3727V61.983L146.716 61.4959L146.521 61.1452L146.326 60.9309L146.385 60.8724L146.833 61.0673L147.203 60.7555L147.281 60.775L147.203 61.0673L147.32 61.3206L147.632 61.4959L148.119 61.7103L148.275 61.8466ZM129.031 47.7399L129.304 47.7789L129.499 47.9738L129.421 48.3245L129.167 48.5778L129.011 48.6557L128.934 48.4804L128.778 48.0517L128.817 47.7789L129.031 47.7399ZM123.146 42.1284L123.36 42.2453L123.399 42.4597L123.282 42.7519L123.185 43.1027L123.087 43.3949L122.893 43.4923L122.678 43.4729L122.503 43.5313L122.366 43.6872L122.308 43.7067V43.6093V43.5703L122.23 43.4144L122.016 43.1416L122.094 42.8688L122.542 42.5181L122.815 42.2259L122.951 42.109L123.146 42.1284Z" fill="#DFDEDE" stroke="white" stroke-width="0.5" stroke-linecap="round" stroke-linejoin="round"/>
<path d="M142.76 88.1507L142.955 88.7547L143.305 89.3003L143.461 89.8068L143.208 89.6899L142.039 89.7679L141.649 89.7094L141.591 89.2028L141.708 89.047L141.922 88.8521L142.019 88.5598L141.396 88.9495L141.104 88.8132L141.181 88.326L141.649 87.6636L141.474 87.4687L141.123 87.8974L140.987 87.5856L140.714 87.7415L140.85 86.9621L140.753 85.7541L140.636 85.0137L140.363 84.0979L140.597 83.8057L141.065 83.377L141.571 83.2016L141.922 83.7667L141.961 83.9615L141.844 84.1953L141.649 84.3707L141.669 84.585L142.117 85.5982L142.195 85.9295L142.078 86.1828L142.214 86.4166L142.506 86.6114L142.74 87.0206H142.195V87.2154L142.37 87.2544L142.74 87.4687L142.701 87.6636L142.682 87.8389L142.76 88.1507ZM157.451 73.44L158.698 73.6933H159.731L161.913 72.758L163.062 73.2841L164.076 74.1414L165.323 74.3168L165.537 74.8039L165.849 75.1351L166.199 75.3299L166.648 76.2457L166.998 76.499L166.979 77.1615L167.193 77.3758L167.369 77.707L167.427 78.0772L167.369 78.4474L167.232 78.7982L167.154 79.1489L167.115 79.4412L166.979 79.6944L166.745 79.7529L166.492 79.7139L166.258 79.9672L165.712 80.922L164.972 81.9936L161.211 80.4933L160.607 82.1885L160.685 87.1765L160.276 87.5661L160.042 88.2481L162.439 88.7157L164.251 88.2286L165.654 90.4498L166.141 91.3851L166.277 93.7622L166.823 95.5353L168.128 95.204L169.278 94.3467L169.648 94.2103L170.35 93.6648L170.72 92.2424L171.071 91.6774L171.207 90.9175L171.558 90.4498L171.986 90.1186L172.357 90.294L172.707 90.3914L172.59 90.9759L172.162 91.2877L171.889 91.7748L171.655 92.3398L171.051 93.4115L170.739 94.6779L170.7 95.5742L170.759 96.5095L171.616 96.3341L172.396 96.5874L173.214 97.094L173.487 98.0682L173.448 99.1983L173.681 100.309L174.208 101.264L174.812 102.199L174.188 102.842L173.545 103.407L172.766 103.621L171.986 103.66L171.421 103.797L169.882 103.602L169.785 103.329L169.96 102.959L169.804 102.628L169.473 102.55L168.596 102.102L167.407 99.9582L166.55 99.2178L166.122 99.666L165.771 100.212L165.206 100.328L164.836 100.504L164.446 100.64L163.004 100.913L162.264 101.205L161.484 101.342L160.919 100.465L161.153 99.023L160.179 98.8281L157.431 99.7049L155.951 100.017L154.684 100.153L153.496 101.634L152.95 101.79L152.424 102.16L151.976 102.589L151.489 102.822L150.885 102.92L150.339 103.173L149.93 102.978L149.794 102.744L149.755 102.452L149.618 102.043L149.404 101.692L148.956 101.108L148.722 100.699L149.092 100.406L148.917 100.192L148.547 100.056L148.215 99.9387L147.611 98.8866L147.163 98.6917L146.793 98.9061L146.637 98.8866L146.618 98.5359L146.033 98.1462L145.507 98.2436L145.351 98.8476L145.254 99.0619L145.078 98.8866L145.195 97.9318L146.092 97.4837L146.871 97.2304L147.982 97.5616L147.592 96.8992L147.378 96.6459L147.085 96.4315L146.89 96.3926L146.696 96.529L146.54 96.4315L146.345 96.2172L146.169 95.9834L146.735 94.4636L147.046 93.7817L147.436 93.5284L147.144 93.1777L146.014 92.8269L145.624 92.6126L146.014 92.2424L147.183 91.9501L147.436 91.6189L147.261 91.1902L146.851 91.0733H145.975L145.799 90.9369L145.488 90.5667L145.273 90.3719V90.1576H145.624L145.215 89.4172L145.702 89.1444L146.247 88.9885L146.754 88.2481L147.845 87.9364L148.352 87.6636H146.812L146.442 87.8779L145.877 88.7352L145.449 88.8132L145.195 88.4819L144.961 87.8779L144.806 87.2544L144.825 86.8842L145.371 86.2412L145.624 85.8515L145.546 85.6762L145.039 85.8515L144.806 85.6372L144.591 85.5008L144.474 85.4618L144.357 85.1696L144.455 84.8968L144.435 84.585L144.318 84.02L144.143 83.7862V83.6498L144.494 83.6303L145.02 83.377L145.585 83.3965L145.624 83.0068L145.78 82.6366L145.565 82.3638L145.254 82.2859L144.825 81.8767L145.098 81.487L145.468 81.1947L145.215 80.7271L144.591 80.6102L144.455 80.0647L144.65 79.6555L145.273 79.5581L144.922 79.1489L144.806 78.954L144.708 78.6618L144.494 78.8566L144.124 79.2658L143.695 79.4412L143.617 79.675L143.637 79.9088L143.812 80.1816L143.851 80.7466L143.656 81.3896L143.773 82.2469L143.5 82.9873L143.247 83.2796L142.76 82.9094L142.253 82.8899L141.747 82.5392L141.863 80.7661L142.039 80.1231L141.727 79.9867L141.824 79.1489L141.532 78.7982L141.104 78.8761L140.87 79.3048L140.811 79.8308L140.616 80.2205L140.012 80.24L140.266 80.7466L140.733 81.5065L140.909 82.0521L140.616 82.3054L140.655 82.5781L141.104 83.1822L140.714 83.2601L140.363 83.4549L140.071 83.7277L139.837 84.0784L139.857 83.8251L139.818 83.5913L139.759 83.3575L139.662 83.1822L140.032 82.3638L139.253 81.0973L139.486 80.4543L139.292 79.5581L138.804 79.8308L138.103 80.7076L137.596 80.9025L137.285 80.9609L137.012 81.0778L136.739 81.0973L136.427 80.9025L136.349 80.7466L136.232 80.4543L136.193 80.1426L136.33 80.0062L137.421 80.0257L137.694 79.8308L137.674 79.3242L137.402 78.8177L136.992 78.6228L136.564 78.4864L136.232 78.2136L136.096 78.6033L136.018 79.4217L135.862 79.8114L135.551 80.0841L135.453 79.8114L135.492 78.993L135.434 78.1942L135.512 77.9603L136.174 77.103L136.31 76.8108L136.427 76.3821L136.505 76.7133L136.622 76.9861L136.759 77.2589L136.953 77.5317L137.09 77.3953L137.265 77.4148L137.46 77.4732L137.674 77.5317L137.402 77.142L137.129 76.6354L137.869 76.8497L138.181 76.7718L138.395 76.3821L137.713 76.3431L137.304 76.1483L137.246 75.7391L137.674 75.0377L137.09 74.5311L137.129 74.0829L137.577 73.7127L138.22 73.4789L138.064 74.2778L138.122 74.5116L138.493 74.5895L139.136 74.5701L139.311 74.4531L139.486 74.1414L139.545 73.401L139.467 72.4073L139.584 71.5889L140.207 71.3941L140.129 71.8617L140.149 72.5826L140.266 73.3036L140.597 74.1609L140.422 74.4726L140.168 74.7454L140.012 75.0377V75.3299L140.188 75.8171L140.207 75.9534L140.071 76.1093L139.584 76.4211L139.486 76.499L139.506 76.7913L139.603 77.103L139.74 77.2784L139.934 77.181L140.383 76.7718L140.714 76.7523L141.474 77.2784L140.928 76.1093L140.733 75.3689L141.006 75.0377L141.435 75.5832L141.688 75.7391L141.824 75.3884L141.922 75.2715L142.214 75.1741L142.74 75.0377V74.8233L142.526 74.8039L142.019 74.5895V74.3752L142.643 74.2193L143.033 73.6153L143.13 72.8749L142.916 72.3293L142.682 72.2514L142 72.2319L141.649 72.0955L141.396 71.7838L141.318 71.4915L141.435 71.3746L141.824 71.6474L142 71.1408L141.805 70.829L141.396 70.7121L140.909 70.7511L141.104 70.4978L141.376 70.303L141.649 70.264L141.922 70.4004L142.175 70.5952L142.39 70.6537L142.487 70.5368L142.37 70.303V70.0497L143.344 70.0302L143.812 70.1861L144.007 70.6342L143.87 70.907L143.617 71.1993L143.461 71.5695L143.637 72.0955L143.87 71.8617L144.163 71.7058H144.416L144.533 71.9786L144.572 72.2124L144.689 72.4268L144.708 72.6606L144.669 72.7385L144.435 73.0308L144.357 73.2256V74.7064L144.435 75.1351L144.63 75.4274L144.825 75.5443L144.922 75.3884L145.02 74.5701L145.507 72.9918L145.624 72.2124L145.76 72.0371L146.072 72.2514L146.54 72.758L146.735 73.1087L146.851 73.44L147.066 73.6543L147.436 73.6738V73.4789L147.241 73.2256L147.027 72.5437L146.812 72.2124L145.195 70.4978L145.078 70.4004L145.176 70.0497L145.39 70.0886L145.663 70.3419L146.092 70.868L146.306 71.0823L146.579 71.1993H146.91L147.163 71.0434L147.183 70.829L147.007 70.6147L146.637 70.5173L146.131 70.2835L145.585 69.7574L145.332 68.9975L145.273 68.4909L145.76 68.4714L146.189 68.6858L146.559 69.017L147.085 69.3872L147.592 69.7379L147.806 69.9523L148.196 70.225L148.586 70.4394L148.858 70.8875L148.722 71.3356L148.469 71.6474L148.527 71.8812L148.78 72.3683L148.819 72.6801L148.722 73.2256L149.014 73.0308L149.131 72.7775L149.19 72.5047L149.092 71.7058L149.209 71.4331L149.365 71.1408L149.618 70.6927L150.047 70.4783H150.456L150.924 70.5368L151.43 70.7316L152.073 70.8875L152.521 71.1993L153.086 71.7643L153.125 72.4852L152.697 73.9076L153.028 73.6933L153.515 73.0503L153.788 73.0113L153.983 73.2841L154.08 73.7712L154.139 74.7064L154.119 74.9013L154.002 75.3494L153.963 75.6222L154.022 75.895L154.256 76.2847L154.47 77.3174L154.411 77.6096L153.963 77.7265L154.041 78.0188L154.158 78.1942L154.294 78.3305L154.528 78.428L154.684 77.6876L154.937 77.2589L155.074 76.7913L154.86 75.9534L155.386 76.1093L155.951 76.1873L155.035 75.1741L154.762 74.609L155.308 74.3752L155.795 74.2973L156.944 73.8296L157.451 73.44Z" fill="#DFDEDE" stroke="white" stroke-width="0.5" stroke-linecap="round" stroke-linejoin="round"/>
<path d="M148.002 52.0659L149.21 52.0269L150.554 51.9879L152.113 53.4882V54.2676L152.386 54.9106L152.814 55.2028L153.068 55.612L152.814 56.4304L152.444 57.1513L152.094 57.4241L151.899 57.5604L151.061 57.8138L150.983 57.5799L149.6 57.4046L148.957 58.2229L148.294 57.7163L148.567 57.1123L148.918 56.5862L148.703 56.216L148.216 55.9627L147.787 55.7289L147.846 55.1249L147.768 54.6378L148.021 54.1897L148.781 53.9558L149.015 53.8389L149.073 53.5662L148.703 53.4687L148.606 53.761L148.06 53.8194L147.924 53.4882L147.865 52.8842L148.002 52.0659ZM146.93 53.2349L147.028 53.3323L147.144 53.5077L147.281 53.6441L147.378 53.8584L147.456 54.0338L147.3 54.0922L147.086 54.2676L146.989 54.3845L146.54 54.5014L146.326 54.4624L146.053 54.5988L145.43 54.8521L145.099 55.1639L144.904 55.4951L143.754 56.3524L143.501 56.294L143.267 56.3329L143.15 56.294L143.053 55.8848L142.838 55.7679L142.741 55.8653L142.644 55.9043L142.624 55.8263L142.663 55.7094L142.605 55.5536L142.449 55.5341L142.332 55.6705L142.176 55.7874L141.981 55.7094L141.689 55.6315L141.864 55.4756L141.806 55.2808L141.513 55.008L141.436 54.8326L141.533 54.5988L141.689 54.5404L141.923 54.6573L143.111 53.8194L143.969 53.722L144.553 53.7415L145.099 53.4492L145.274 52.7088L145.644 52.5724L145.956 52.8842L146.092 52.9427L146.248 53.0206L146.404 53.079L146.56 53.0985L146.716 53.118L146.93 53.2349Z" fill="#DFDEDE" stroke="white" stroke-width="0.5" stroke-linecap="round" stroke-linejoin="round"/>
<path d="M153.497 101.634L154.685 100.153L155.952 100.017L157.432 99.7052L160.18 98.8284L161.154 99.0232L160.92 100.465L161.485 101.342L162.265 101.205L163.005 100.913L164.447 100.64L164.836 100.504L165.207 100.329L165.772 100.212L166.122 99.6662L166.551 99.2181L167.408 99.9585L168.597 102.102L169.474 102.55L169.805 102.628L169.961 102.959L169.786 103.329L169.883 103.602L171.422 103.797L171.987 103.66L172.767 103.622L173.546 103.407L174.189 102.842L174.812 102.199L175.046 102.472L175.3 102.706L175.514 102.667L175.67 102.433L176.118 102.686L176.527 103.154L177.696 103.544L177.949 103.855L178.378 103.972L179.216 103.466L180.19 103.018L180.58 103.388L180.97 103.602L181.301 103.29L181.652 102.94L182.723 104.771L182.606 106.856L181.632 107.889L181.379 108.571L180.073 109.272L179.411 109.486L179.06 109.447L178.807 109.603L178.3 110.675L177.735 111.279L177.131 111.824L176.839 112.662L176.761 113.675L176.43 114.396L176.021 115.156L175.709 116.15L175.475 117.163L175.105 117.904L175.085 118.722L175.767 119.014L175.865 119.365L175.904 119.774L176.196 120.553L176.157 121.372L176.43 121.995L176.8 122.249L176.644 123.125L175.533 124.45L175.358 125.327L175.339 126.107L174.774 126.691L173.273 125.464L171.578 124.86L170.623 125.386L169.844 126.223L169.026 126.34H168.149L167.194 126.477L166.22 126.457L165.772 126.184L165.363 125.873L164.895 125.99H164.349L163.551 126.126L162.791 126.574L161.816 126.438L161.173 125.756L161.212 124.684L160.667 124.08L160.511 123.476L160.745 122.541L160.219 121.723L159.439 121.761L159.244 122.093L158.991 122.346L158.816 122.775L158.757 123.242L157.939 123.262L156.692 121.567L155.893 120.904L155.426 120.709L154.958 120.67L154.51 121.196L153.613 121.119L152.951 121.703V122.151L152.97 122.58L152.737 122.95L152.386 123.203L152.405 123.554L152.464 123.885L152.25 124.333L151.899 124.645L151.47 124.84L151.003 124.976L150.632 125.21L150.282 125.483L149.385 125.6L148.548 125.912L147.768 126.107L147.106 125.892L147.145 125.015L147.32 124.139L147.476 122.95L146.697 122.755L144.144 123.457L143.599 123.632V123.651L143.228 123.223L143.092 122.872L143.287 122.112L143.735 121.157L144.456 119.501L145.06 118.625L145.917 118.313L146.911 118.118L147.749 118.059L148.138 117.748L148.509 117.222L149.035 117.085L149.502 117.611L149.989 118.215L150.34 118.332L149.989 117.124L149.756 116.559L149.346 116.345L145.605 116.949L144.3 116.131L144.378 115.254L144.397 114.903L145.021 114.611L145.566 114.065L146.054 113.5L146.852 113.032L147.827 112.487L148.567 111.454L148.664 110.5L149.074 110.246L149.385 110.051L149.541 109.915L150.496 109.818L151.412 109.934L151.996 110.402L152.425 110.5L152.698 110.987L152.815 110.714L152.912 110.363L152.951 109.973L152.6 109.681L152.347 109.506L151.84 109.253L151.275 108.863L150.808 108.512L150.554 108.395L150.632 108.122L150.847 107.811L151.061 107.635L151.314 107.577L152.776 107.674L153.107 107.635L153.341 107.518L153.497 107.226L153.575 106.992L153.691 106.817L154.062 106.759L154.179 106.661L154.042 106.408L153.75 106.174L153.438 106.057L153.36 106.116L151.412 106.895L150.769 106.934L149.483 106.856L148.216 106.759V106.193L148.138 105.414L147.885 105.2L147.106 104.927L145.937 105.122L145.82 104.128L148.216 103.875L149.522 103.719L150.827 103.641L151.256 103.388L151.723 103.505L152.269 103.232L153.243 102.491L154.471 101.985L154.997 101.615L155.055 101.147L153.497 101.634ZM138.864 117.144L138.747 117.027L138.669 116.812L138.708 116.618L139 116.462L138.961 116.403L138.825 116.325L138.883 116.247L139.039 116.169L139.137 116.033L139.292 115.994L139.39 115.955L139.351 115.78H139.448L139.76 115.838L139.955 115.682L140.052 115.565L140.169 115.663L140.228 115.858L140.13 116.092L139.643 116.52L139.312 116.871L139.098 117.046L139.02 117.124L138.864 117.144Z" fill="#DFDEDE" stroke="white" stroke-width="0.5" stroke-linecap="round" stroke-linejoin="round"/>
<path d="M143.598 123.651L144.144 123.456L146.696 122.755L147.475 122.95L147.32 124.138L147.144 125.015L147.105 125.892L147.768 126.106L148.547 125.911L149.385 125.599L150.281 125.483L150.632 125.21L151.002 124.976L151.47 124.84L151.898 124.645L152.249 124.333L152.463 123.885L152.405 123.554L152.385 123.203L152.736 122.95L152.97 122.579L152.951 122.151V121.703L153.613 121.118L154.509 121.196L154.957 120.67L155.425 120.709L155.893 120.904L156.692 121.566L157.939 123.261L158.757 123.242L158.815 122.774L158.991 122.346L159.244 122.092L159.439 121.761L160.218 121.722L160.744 122.54L160.51 123.476L160.666 124.08L161.212 124.684L161.173 125.755L161.816 126.437L162.79 126.574L163.55 126.126L164.349 125.989H164.894L165.362 125.872L165.771 126.184L166.219 126.457L167.194 126.476L168.148 126.34H169.025L169.843 126.223L170.623 125.385L171.578 124.859L173.273 125.463L174.773 126.691L174.637 127.392L175.182 128.035L175.435 128.853L175.552 130.568L175.903 131.211L176.566 131.698L177.15 132.302L177.384 132.984L177.657 133.588L179.313 135.381L179.664 136.257V136.861L179.722 136.998L179.547 136.959H178.475L178.124 136.9L177.988 136.745L177.929 136.491L177.774 136.179L177.462 135.946L177.384 136.179L177.442 136.569L177.501 136.745L177.306 137.329L177.189 137.543L176.955 137.816L175.962 138.615L175.397 138.868L175.007 138.537L174.5 137.504L174.091 137.349L173.799 137.758L173.662 138.401L173.682 138.946L173.935 139.511L174.344 140.252L174.812 140.895L175.241 141.168L175.533 141.538L175.806 141.674L176.137 141.479L176.955 140.7L177.52 140.622L178.007 140.719L178.456 140.739L178.962 140.486L178.923 141.109L178.845 141.577L178.572 142.473L178.28 144.09L178.046 144.46L177.131 144.772L176.39 144.402L175.806 144.266L175.319 145.337L175.163 145.24H175.124L175.085 145.298L174.948 145.337L175.163 145.746L175.319 146.214L175.513 147.636L175.397 147.909L175.124 147.753L174.676 147.305L174.052 147.227L173.584 146.974L173.273 146.487L173.156 145.766L173.312 145.084L173.662 144.421L173.896 143.798L173.779 143.252L173.565 142.941L173.156 142.044L173.039 141.966H172.883L172.727 141.947L172.61 141.791L172.591 141.635L172.63 141.44L172.708 141.323L172.318 140.466L172.24 140.154L172.279 139.979L172.396 139.648L172.415 139.492L172.357 139.316L172.24 139.161L172.104 139.122L172.045 139.258L171.967 139.336L171.519 140.486L171.344 140.719L171.246 140.797H171.11L170.214 141.129L169.688 141.187L168.538 141.168L168.109 141.284L168.46 141.577L169.142 141.869L169.707 142.044V142.239L168.577 142.59L168.012 142.921L167.915 143.35L168.148 143.545L168.635 143.35L168.908 143.447L169.084 143.759L169.045 143.876L168.889 143.915L168.83 143.993L169.181 145.279L169.96 145.961L170.779 146.487L171.344 147.305L171.071 147.266H170.603L170.409 147.305L171.539 147.734L171.694 148.104L171.772 148.766L171.519 149L171.246 149.234L170.74 149.215L170.409 149.292L169.2 148.552L168.83 148.416L168.48 148.494L168.051 148.688L167.7 148.942L167.544 149.195L167.603 149.292L167.915 149.955L168.285 150.033L168.519 150.189L169.512 149.916L170.058 150.384L168.811 151.533L168.363 152.176L167.876 151.942L167.116 152.527L167.194 153.092L167.544 153.462H166.804L165.732 152.04L165.362 151.26L164.368 150.189L164.057 150.267L163.024 150.812L163.121 151.144L163.199 151.26L162.771 151.124L162.361 151.046L161.991 150.851L161.757 150.384L161.718 149.916L161.894 149.643L162.478 149.292L162.673 149.137L163.199 148.416L163.531 147.734L163.706 147.5L164.096 147.305L164.076 147.831L163.94 148.357L163.55 149.292L164.329 149.254L164.972 149L165.362 148.474V147.519L165.206 147.149L164.992 146.935L164.836 146.701L164.816 146.214L164.953 145.961L165.713 145.103L166.005 145.259L166.18 145.454L166.219 145.707L166.083 146L166.239 146.428L166.473 146.721L166.765 146.818L167.174 146.662L167.349 146.448L167.72 145.668L167.915 145.337L167.544 144.792L167.408 144.207L167.213 143.954L166.726 144.343L166.141 144.597L165.674 144.188L165.011 143.135L164.641 143.72L164.115 145.103L163.745 145.551L163.355 145.707L163.043 145.688L162.381 145.551L162.069 145.668L161.777 145.922L161.29 146.565L161.075 146.74L160.121 147.305L159.595 147.695L159.263 147.89L158.932 147.987L158.737 148.084L158.698 148.357V148.708L158.659 149.078L158.484 149.351L158.231 149.624L158.114 149.974L158.309 150.384L156.847 151.825L156.906 153.15L156.653 153.365L155.951 153.014L155.717 153.306L155.6 153.618L155.62 153.949L155.776 154.339L155.425 154.222L154.685 153.696L153.671 153.404L153.438 153.248L153.243 152.644L153.34 151.027L153.243 150.384L153.379 149.994L153.36 149.487L153.184 149.059L152.873 148.844L152.6 148.922L152.308 149.195L152.093 149.546L151.996 149.838L152.113 150.286L152.269 150.676L152.288 150.949L151.47 151.221L151.567 151.611L152.171 152.352L151.158 152.956L150.768 153.306L151.158 153.462L151.255 153.521L151.275 153.676L151.255 153.832L151.158 153.91L151.002 153.871L150.749 153.735L150.632 153.696L150.281 153.754L150.203 153.891V154.125L150.067 154.456L149.872 154.592L149.073 154.787L148.781 155.04L148.683 155.235L148.04 157.398L147.982 157.71V158.08L147.339 157.944L146.131 158.353L145.819 158.275L145.78 157.905L146.034 157.145L145.975 156.775L145.741 156.56L145.41 156.502L144.709 156.541V156.326L144.864 156.151L144.903 156.015L144.962 155.527L145.04 155.508L145.157 155.547L145.274 155.469L145.644 154.787L145.722 154.456L145.624 154.125L145.488 154.027L145.293 153.949L144.903 153.91L144.611 153.832L144.572 153.657L144.65 153.501L144.709 153.462L144.728 153.053L144.826 152.644L144.787 152.429L144.358 152.585L144.475 151.806L145.001 151.416L145.702 151.28L146.365 151.26L146.248 151.027L146.073 150.832L145.878 150.695L145.624 150.617L146.034 150.325L146.287 149.974L146.306 149.682L145.975 149.487L145.858 149.546L145.624 149.838L145.449 149.955H145.235L144.903 149.741H144.709L144.553 149.877L144.436 150.091L144.358 150.384L144.124 150.442H143.89L143.637 150.384L143.072 150.403L142.76 150.462L142.37 150.617L142.332 150.091L142.098 149.799L141.474 149.487V149.39L141.338 149.137L141.182 148.981L141.104 149.195L141.026 149.312L140.851 149.409L140.636 149.468L140.461 149.39L139.915 148.864L139.837 148.844L139.76 148.513L139.799 148.416L139.915 148.377L140.013 148.201L140.11 148.357H140.383L140.578 148.201L140.461 147.87L139.76 147.519L139.214 147.13L139.156 146.194L139.389 145.162L139.662 144.46L139.701 144.207L139.682 143.915L139.721 143.662L139.935 143.564L140.13 143.584L140.344 143.642L140.48 143.739L140.656 144.129L141.474 145.337L141.221 145.668L141.143 145.98L141.182 146.311L141.279 146.662L141.825 148.201L142.156 148.396L143.462 148.611L144.027 149L144.319 148.981L144.533 148.416L144.241 148.474L144.085 148.396L143.54 148.26L143.286 147.87L142.955 147.539L143.033 146.798L142.682 146.857L142.526 147.305L142.254 147.344L142.078 146.74L142 145.941L142.195 145.474L142.039 144.909L142.78 144.85L143.871 145.084L144.027 145.337L143.949 145.766L143.968 145.883L143.949 146.019L144.007 146.214L144.28 146.389L144.455 146.604L144.787 146.837L145.274 147.013L145.546 147.286L145.917 147.558L146.189 147.734L146.306 147.597L145.761 146.876L146.092 146.798L146.579 147.071L147.203 147.422L147.962 147.675L148.528 147.519L147.962 147.422L147.514 147.149L146.715 146.448L146.91 146.214L146.345 145.785L145.468 144.675L145.001 144.46L144.338 144.324L143.559 144.363L143.013 144.032L142.351 144.207L141.747 143.993L141.669 143.7L142.039 143.213L142.409 143.077L143.189 143.194L144.202 142.746L145.41 143.642L145.819 143.564L145.917 143.623L145.975 143.7L146.053 143.739L146.17 143.798L146.053 143.174L146.111 142.609L146.423 142.2L147.086 142.044L148.294 142.395L148.898 142.453L148.722 142.044L149.132 141.83L149.346 141.791H149.619L149.229 141.343L148.625 141.245L147.261 141.362L147.358 141.051L147.32 140.836L147.261 140.622V140.291L147.358 140.076L147.495 139.921L147.612 139.706V139.375L147.397 138.907L147.047 138.79L146.657 138.985L146.365 139.375L146.326 139.648L146.501 140.193L146.54 140.486L146.501 140.525L146.17 141.168L145.878 142.259L145.605 142.629L145.079 142.668V142.609L144.923 142.473L145.02 142.298L145.157 141.966L145.274 141.791L144.923 141.616L144.67 141.733L144.436 141.927L144.105 142.044L143.384 141.888L143.169 141.986L143.13 142.317H142.76L142.195 142.492L141.922 142.356L141.825 142.025L142.02 141.694L142.546 141.168L142.741 140.856L142.858 140.622L142.897 140.408L142.916 140.154L142.838 139.687L142.936 139.433L143.267 139.141L142.955 138.888L142.663 138.342L142.507 137.719L142.546 137.173L142.916 136.842L143.423 136.511L143.579 136.218L142.916 136.063L142.604 136.121L142.429 136.277L142.293 136.433L142.098 136.511L141.844 136.628L141.883 136.959L142 137.31L142.02 137.621L141.65 137.953L141.162 137.992L140.714 137.836L140.383 137.621L140.617 137.446L140.734 137.407L140.5 137.232L140.305 137.037L140.149 136.803L140.013 136.511L140.325 136.355H140.617L141.279 136.511L141.201 135.809L141.922 135.069L141.727 134.406L140.987 133.354L140.519 132.926L140.013 132.75L140.227 133.491L140.032 133.9L139.662 133.919L139.292 133.413L139.545 133.081L138.863 132.166L138.766 131.64L139.136 131.191L139.682 131.114L140.169 131.367L140.383 131.873L140.714 131.659L140.89 131.289L141.104 130.549L141.299 130.919L141.338 131.23L141.26 131.834L141.143 132.127L141.104 132.322L141.162 132.516H141.26L141.396 132.458L141.474 132.516L141.572 132.945L141.611 133.12L141.689 133.237L142.02 133.413L142.273 133.51L142.721 133.53L142.916 133.647L142.76 134.017L142.799 134.367L142.994 134.699L143.267 134.991L143.949 133.471L144.007 132.965V132.38L143.871 132.185L143.364 132.049L143.169 131.932L142.994 131.757L142.721 131.036L141.844 130.022L141.65 129.555L141.708 129.399L141.825 129.263L141.961 129.087L142.02 128.795L141.727 128.581L141.591 128.327L141.65 127.879L141.318 128.016L140.968 128.074L140.208 128.093L140.5 127.723L140.987 127.606L141.533 127.587L142.02 127.47L141.864 127.392L141.766 127.334L141.669 127.256L141.474 127.217L141.591 126.924L141.747 126.749L141.922 126.632L142.098 126.437L142.195 126.203L142.137 125.989L142.059 125.775L142.02 125.561L142.098 125.054L142.332 124.547L142.916 123.671L143.072 123.826L143.462 124.333L143.929 124.469L144.163 124.45L144.105 124.216L143.598 123.651ZM158.075 127.899L156.711 127.392L155.99 127.606L155.308 127.762L154.353 127.528L153.788 128.055L154.509 129.652L155.951 130.51L157.568 130.782L158.62 129.379L158.075 127.899ZM163.043 152.215L163.862 152.118L164.29 152.157L164.641 152.332L164.933 152.839L164.855 153.443L164.505 153.93L164.018 154.125L162.927 154.339L162.498 154.261L162.186 154.125L161.563 153.696V153.462L161.699 153.287L161.738 153.131L161.621 152.995L161.387 152.819L161.757 152.546L162.167 152.371L163.043 152.215ZM142.078 151.748L142.137 152.176L142.059 152.683L141.922 153.15L141.396 154.261L141.182 154.612L140.929 154.787L140.87 154.69L140.422 154.261L140.208 154.125V154.339L140.11 154.846L137.597 156.209L137.285 156.326L136.174 156.424L135.863 156.326L135.824 156.054L135.96 155.82L136.155 155.625L136.233 155.469L136.097 155.274L135.337 154.787V155.469L134.772 154.807L135.103 153.735L135.863 152.878L136.603 152.819L136.837 152.118L136.993 151.884L137.227 151.611L137.519 151.455L137.772 151.397L137.967 151.26L138.025 150.812L138.337 151.182L138.766 151.241L139.136 150.988L139.292 150.501L139.097 150.091L138.415 149.565L138.59 149.292L139.019 149.273L139.448 149.507L139.837 149.799L140.11 149.955L140.188 150.052L140.266 150.247L140.383 150.462L140.558 150.617L140.675 150.578L141.279 150.189L141.299 150.462L142.078 151.748ZM179.118 145.766L179.391 145.844L179.644 146.233L179.819 146.701L180.053 147.5L180.073 147.968L179.995 148.416L179.8 148.864L179.547 149.137L179.235 149.156L178.943 149L178.007 148.045L177.91 147.675L178.066 147.091L178.183 146.935L178.67 146.565L178.767 146.37L178.962 145.551L178.553 145.123L178.611 144.87L178.904 144.733L179.215 144.694L179.508 144.811L179.586 145.123L179.449 145.474L179.118 145.766ZM131.751 144.85L132.083 145.142L132.161 145.259L132.18 145.513L132.141 145.766L132.024 146L131.615 146.545L131.44 146.682L131.245 146.701L130.992 146.662L130.972 146.565L130.602 146.35L130.193 146.156L130.076 146.214L129.823 145.668L130.017 145.415L130.797 145.103L131.264 144.46L131.44 144.363L131.537 144.441L131.751 144.85ZM132.239 142.668V143.35L132.122 143.291L131.829 143.213L131.693 143.135L131.459 143.447H131.108L130.777 143.369L130.621 143.447L130.563 143.895L130.427 144.266L130.193 144.558L129.881 144.694L129.569 144.655L129.355 144.441L129.219 144.09L129.16 143.681L129.238 143.272L129.452 142.999L129.745 142.804L130.076 142.668L130.427 142.824L130.894 142.707L131.771 142.376L131.946 142.356L132.063 142.376L132.161 142.473L132.239 142.668ZM133.525 138.401L133.641 137.972L133.895 137.914L134.187 138.108L134.401 138.479L134.46 138.946L134.382 139.394L134.187 139.784L133.875 140.037L133.486 140.154L133.271 140.076L133.096 139.921L132.882 139.843L132.024 140.037H131.693V139.843L131.946 139.609L132.433 138.849L132.784 138.518L132.96 138.537L133.213 138.596H133.427L133.525 138.401ZM134.966 133.958L134.83 133.997L134.129 133.822L133.875 133.861L133.778 133.783L133.719 133.705L133.641 133.666L133.525 133.647L133.739 132.614L133.875 132.322L134.051 132.205L134.362 132.107L134.655 131.971L134.791 131.757L134.986 131.308L135.473 131.016L135.999 130.88L136.408 130.997L135.609 131.464L135.415 131.737L135.395 132.049L135.512 132.38L135.863 132.965L135.59 133.081L135.298 133.374L135.064 133.705L134.966 133.958ZM166.629 167.023L166.784 167.179L166.979 167.218L167.038 167.335L167.018 167.491L166.629 167.316L166.278 167.218L166.2 167.121L166.122 166.906L166.063 166.634L165.966 166.575L165.888 166.478L165.81 166.244L165.849 166.127V165.971L165.869 165.835L165.947 165.815L166.044 165.854L166.161 165.815L166.239 165.718H166.278L166.336 165.854L166.239 166.146L166.297 166.478L166.629 167.023ZM172.513 153.287L172.63 153.599V153.793L172.435 154.008L171.948 154.319L171.539 154.436L171.383 154.358L171.363 154.086L171.188 153.891L170.915 153.813L170.798 153.638L170.876 153.521L170.584 153.326L170.409 153.189L170.506 152.956L170.486 152.78L170.447 152.644L170.564 152.566L170.759 152.644L170.954 152.761L171.324 152.858V152.936L171.461 152.897L171.694 152.663H171.928L172.513 153.287ZM179.138 151.475L179.313 151.572L179.43 151.748L179.371 151.942L179.04 152.059L178.826 152.079L178.787 152.02L178.689 151.884L178.456 151.748L178.066 151.631L177.813 151.416L177.696 151.144L177.559 150.949L177.345 150.832L177.15 150.598L177.287 150.325L177.735 150.13L178.222 150.052L178.572 150.306L178.962 151.085L178.923 151.319L178.943 151.436L179.138 151.475ZM134.694 148.591L134.752 148.65L134.811 148.805L134.772 149.156L134.694 149.507L134.674 149.819L134.518 149.974L134.304 150.13L134.09 150.345L133.564 150.656L133.291 150.695L132.979 150.598L132.882 150.442L133.037 150.384H133.193L133.33 150.247L133.486 150.13L133.466 150.013L132.882 149.877L133.018 149.721L133.388 149.663L133.758 149.643L134.07 149.409L134.187 149.098L134.07 148.786L133.797 148.357L133.641 147.812L133.836 147.675L134.148 147.929L134.343 148.123L134.674 148.318L134.694 148.591ZM133.057 149.468L132.804 149.585L132.589 149.409L132.492 148.299L132.589 147.675L132.804 147.383L133.135 148.123L133.427 148.533L133.641 149L133.564 149.37L133.33 149.448L133.057 149.468ZM117.411 145.649L117.703 145.571L117.762 145.707L117.528 145.922L117.411 146.078L117.333 146.253L116.924 146.74L116.846 146.974L116.671 147.266L116.534 147.441L116.417 147.578L116.164 147.461L115.989 146.993L116.028 146.565L116.164 146.175L116.339 145.844L116.534 145.532L116.768 145.376L116.982 145.318L117.099 145.415L117.177 145.649H117.411ZM136.642 144.227L136.739 144.499V144.85L136.603 145.162L136.252 145.181L135.941 144.87L135.707 144.519H135.415L135.278 144.636L135.181 144.694L134.986 144.714L134.811 144.577L134.752 144.285L134.518 143.856L133.992 143.311L133.895 143.038L134.148 143.096H134.343L134.538 142.999L134.83 142.98L135.161 143.019L135.415 143.135L135.57 143.311L135.804 143.428L136.116 143.447L136.369 143.506L136.545 143.662L136.642 143.856L136.623 144.012L136.642 144.227ZM136.506 142.317L136.428 142.395L136.33 142.59L136.389 143.038L136.233 143.194L135.902 143.291L135.609 143.116L135.259 142.824L134.811 142.648L134.499 142.453L134.752 142.239L135.415 142.142L135.804 141.966L135.999 141.791L136.252 141.908L136.447 142.181L136.506 142.317ZM134.148 141.323L133.934 141.031L133.739 140.68L133.817 140.427L134.207 140.232L134.518 140.213L134.772 140.349H135.025L135.083 140.154L135.044 139.765L135.298 139.531H135.629L135.804 139.511L135.941 139.589L136.058 139.765L136.097 139.979L135.746 140.193L135.863 140.7L135.804 140.992L135.609 141.109H135.356L135.181 141.304L135.2 141.655L135.103 141.966L134.83 142.122L134.596 142.103L134.538 141.908V141.791L134.148 141.323ZM138.552 138.323L138.318 138.42L138.006 138.401L137.87 138.128L137.928 137.816L138.123 137.699H138.59L138.727 137.758L138.746 137.894L138.649 138.225L138.552 138.323ZM136.759 134.056L136.817 134.192L136.856 134.367L136.837 134.679L136.739 134.777L136.603 134.855L136.467 134.796L136.213 134.543L136.116 134.465L135.98 134.543L135.843 134.523L135.804 134.387L135.707 134.328H135.57L135.531 134.27L135.726 134.114L135.648 134.075L135.531 134.095L135.415 134.056L135.473 133.919L135.668 133.783L135.843 133.763L136.077 133.861L136.408 133.841L136.642 133.9L136.759 134.056ZM109.013 166.127L108.877 166.049L108.351 165.562L108.058 165.387L108 165.133L108.136 164.802L108.331 164.607L108.624 164.705L108.857 164.997L109.228 165.776L109.266 166.03L109.169 166.185L109.072 166.166L109.013 166.127ZM147.865 162.289L148.099 162.386L148.313 162.659L148.255 162.815L148.138 162.717L148.06 162.698L148.001 162.815L147.904 162.776L147.67 162.639L147.417 162.659L147.281 162.795L147.183 162.971L146.891 163.165L146.618 163.399L146.228 163.633L145.722 163.614L145.449 163.243L145.43 162.756L145.663 162.289L146.131 161.957H146.521L147.047 162.289L147.203 162.308L147.417 162.25H147.729L147.865 162.289ZM149.794 162.776L149.911 162.834L149.989 162.99L149.911 163.087L149.794 163.107L149.755 163.302V163.633L149.619 163.867L149.365 163.945L149.229 163.867L149.19 163.711L149.054 163.614L148.917 163.594L148.859 163.165L149.034 162.425L149.093 162.016L148.917 161.84L148.859 161.704L149.073 161.49L149.093 161.392H149.326L149.775 161.607L149.833 161.918L149.58 162.152L149.541 162.386L149.794 162.776ZM156.068 161.373L156.321 161.587L156.477 161.782L156.419 162.172L156.341 162.347L156.185 162.639L155.873 162.815L155.483 162.854L155.191 162.698L154.957 162.483L154.782 162.503L154.685 162.659L154.587 162.6L154.47 162.113L154.646 161.782L154.685 161.47L154.782 161.236L154.977 161.061L155.347 160.866L155.795 160.983L156.068 161.373ZM148.216 160.71L148.333 160.866L148.352 161.139L148.157 161.295L148.079 161.665L147.69 161.685L147.475 161.724L147.612 161.957L147.475 162.074L147.066 161.957L146.852 161.763L146.813 161.646L146.696 161.607L146.579 161.568L146.54 161.47L146.677 161.081L146.754 160.944L146.774 160.847L146.715 160.769L146.735 160.691L146.832 160.652L146.891 160.574L146.871 160.496L146.754 160.262L146.832 160.184L147.047 160.262L147.242 160.36L147.787 160.457L148.079 160.613L148.216 160.71ZM134.382 157.846L134.362 158.197L134.401 158.431L134.284 158.606L134.031 158.645L133.875 158.762L133.758 158.723L133.661 158.548H133.564L133.525 158.703L133.349 158.723L132.804 158.509L132.628 158.236L132.609 158.06L132.706 157.905L132.726 157.749L132.921 157.612L133.836 157.807L134.207 157.749L134.382 157.846ZM154.607 157.827L154.49 157.944L154.256 157.983L154.12 157.807L154.061 157.554L153.925 157.359L153.73 157.281L153.457 157.32L153.145 157.437L152.892 157.417L152.775 157.379L152.678 157.301L152.093 157.047L152.054 156.95L152.327 156.911L152.6 156.833L152.717 156.755L152.814 156.716L153.009 156.755L153.262 156.852L153.555 156.736L153.905 156.443L154.178 156.385L154.334 156.502L154.529 156.541H154.626L154.743 156.521L155.035 156.541L155.406 156.638L155.639 156.775L155.6 157.008L155.444 157.184L155.406 157.301L155.367 157.515L155.211 157.71L154.977 157.671L154.743 157.71L154.607 157.827ZM160.881 156.658L160.978 156.736L161.017 156.891L160.861 156.93L160.647 156.813L160.374 156.755L160.179 156.833L160.257 156.911L160.413 157.008L160.218 157.203L159.751 157.554L159.497 157.69L159.458 157.398L159.595 157.203L159.77 157.086L159.673 156.969L159.088 156.852L159.166 156.716L159.108 156.56L158.932 156.443L158.484 156.404L158.309 156.346L158.231 156.287L158.309 156.229L158.504 156.19L158.64 156.093L158.893 155.8L159.147 155.586L159.127 155.489L159.224 155.527L159.4 155.703L159.575 155.956L159.673 156.248L159.887 156.346L160.238 156.229L160.51 156.19L160.627 156.307L160.725 156.463L160.881 156.658ZM152.23 157.807L152.288 158.002L152.424 158.353L152.346 158.45L152.21 158.431L152.074 158.392L151.84 158.275L151.645 158.158L151.528 158.177L151.509 158.372L151.372 158.431L151.138 158.333L150.749 158.236L150.242 158.06V157.846L150.495 157.671L150.418 157.437L150.203 157.379L149.93 157.437L149.58 157.34L149.268 157.145L149.073 156.911L148.995 156.56L148.976 156.17L148.995 155.761L149.112 155.352L149.307 155.06L149.599 154.923L149.755 154.885L150.223 154.826L150.515 154.923L150.807 155.118L151.119 155.489L151.353 156.112L151.431 156.619L151.509 156.852L151.665 157.047L151.742 157.32L152.23 157.807ZM152.191 155.45L152.054 155.43L151.937 155.313L152.035 155.118L152.171 154.943L152.346 154.534L152.717 154.047L153.243 153.754L153.788 153.618L154.12 153.676L154.236 153.871L154.256 154.086L154.12 154.222L154.139 154.3L154.392 154.456L154.587 154.67L154.763 154.943L154.802 155.138L154.607 155.157L154.061 155.001L153.827 155.06L153.691 155.255L153.009 155.566L152.756 155.898L152.678 156.248L152.541 156.346L152.366 156.151V155.82L152.308 155.527L152.191 155.45ZM141.046 139.998L141.552 140.174L141.611 140.856L141.084 141.343L140.792 141.226L140.968 141.031L141.046 140.856L140.987 140.719L140.247 140.33L140.13 140.271L139.35 140.388L139 140.563L138.61 140.622L138.298 140.505L138.142 140.31L138.279 140.135L138.707 140.115L139.233 139.921L139.331 139.784L139.428 139.706L139.448 139.57L139.779 139.472L139.896 139.258L139.915 139.024L139.701 138.751L139.623 138.42L139.896 138.284L140.364 138.381L140.831 138.635L141.162 138.966L141.123 139.161L140.909 139.18L140.5 139.453L140.442 139.609L140.461 139.784L140.5 139.94L140.675 139.998H141.046ZM138.24 134.095L138.279 133.939L138.103 133.88L137.421 133.783L137.285 133.647L137.051 133.627L136.934 133.588L136.817 133.491L136.662 133.413L136.525 133.237L136.233 132.575L136.408 132.322L136.739 132.205L137.051 132.322L137.285 132.477L137.519 132.4L137.772 132.283L137.928 132.361L137.986 132.497H138.123L138.279 132.438L138.357 132.653L138.162 132.848H137.928L137.811 132.984V133.14L138.103 133.452L138.357 133.549L138.629 133.569L138.785 133.802L138.863 134.095L139 134.27L139.039 134.523L138.941 134.835L138.844 134.913L138.766 134.816L138.474 134.738L138.337 134.582L138.24 134.387V134.095Z" fill="#DFDEDE" stroke="white" stroke-width="0.5" stroke-linecap="round" stroke-linejoin="round"/>
<path d="M174.773 126.691L175.338 126.106L175.358 125.327L175.533 124.45L176.644 123.125L176.799 122.248L176.429 121.995L176.156 121.372L176.195 120.553L175.903 119.774L175.864 119.365L175.767 119.014L175.085 118.722L175.104 117.903L175.475 117.163L175.708 116.15L176.02 115.156L176.429 114.396L176.761 113.675L176.838 112.662L177.131 111.824L177.735 111.279L178.3 110.675L178.806 109.603L179.06 109.447L179.41 109.486L180.073 109.272L181.378 108.57L181.632 107.888L182.606 106.856L182.82 107.577L183.346 107.888L183.6 108.083L183.833 108.278L183.872 108.551L183.97 108.804L184.184 108.902L184.398 108.98L185.197 109.038L185.548 109.33L185.977 109.622L186.737 109.681L187.477 109.661L188.159 109.895L188.665 110.441L189.016 111.123L189.601 111.532L189.757 111.844L189.835 112.116L190.244 112.37L190.594 112.779L190.575 113.558L190.263 114.279L190.672 115.78L192.309 115.858L193.108 115.741L193.868 115.877L194.589 116.208L195.271 116.715L196.011 116.871L197.433 116.15L198.154 116.286L198.797 115.351L199.421 114.883L199.635 116.676L200.298 117.494L201.116 118.02L202.09 117.923L203.064 117.747L203.941 118.001L204.76 118.429L205.734 118.468L206.611 117.786L206.981 117.65L207.371 117.592L207.721 117.28L208.033 116.89L208.988 116.5L210.001 116.754L210.78 117.105L211.521 116.871L211.638 118.157L210.975 119.482L211.365 120.28L213.001 120.534L213.683 121.06L214.814 122.365L216.177 123.125L216.781 123.593L216.957 124.489L217.541 125.054L218.282 125.327L218.399 125.424L218.282 125.853L218.223 126.438L218.067 126.749L217.892 127.022L218.048 127.47V127.646L217.756 128.25L217.327 129.146L216.859 129.711L216.606 130.237L216.567 130.334L216.509 130.218L215.983 129.672L215.495 129.068L214.891 128.561L214.424 127.918L214.268 127.197L213.761 126.866L213.079 126.847L212.456 127.1L211.969 127.47L211.579 127.938L211.306 129.847L210.936 130.412L210.527 130.919L210.313 131.309L210.196 131.192L209.942 131.562L209.144 132.984L208.773 133.004L208.754 132.341L208.773 131.737L208.598 131.698L208.364 132.224L208.189 132.984L207.526 132.906L205.792 132.945L205.695 132.341L205.519 132.03L205.266 132.926L205.013 133.062L204.389 132.789L204.097 132.244L203.785 132.205L203.376 132.517V131.114L203.279 130.997L203.045 131.075L202.85 131.387V131.874L202.421 131.542L202.09 131.075L201.74 130.783L201.194 130.997L201.311 130.549L201.097 129.886L201.194 129.652L200.941 128.795L200.785 128.717L200.473 128.99L200.161 129.497L200.142 129.847L200.473 130.549L200.668 131.406L200.785 131.698L200.999 132.088L201.447 132.692L201.506 132.984L201.389 133.413L201.584 133.452L201.915 133.588L202.11 133.647L201.876 133.803L201.642 133.861H201.097L200.824 133.783L200.746 133.627L200.726 133.413L200.648 133.199L200.395 132.926L200.2 132.789L198.778 132.283L198.388 132.263L197.511 132.419L197.278 132.536L197.297 132.77L197.589 133.199L197.102 133.296L196.206 133.764L195.154 134.036L195.017 134.446L194.978 134.894L194.686 135.186V135.4L197.336 133.997L197.765 133.959L197.862 134.543L198.018 134.952L198.076 135.322L197.862 135.751L197.531 135.946L197.005 136.024L196.498 136.004L196.147 135.868L195.972 136.18L196.089 136.336L196.342 136.472L196.518 136.745L196.537 136.901L196.557 137.154L196.518 137.816L196.323 139.141L196.557 139.375L196.79 139.297L196.966 139.044L197.063 138.713L197.414 139.141L197.044 139.804L196.381 140.681L195.797 140.856L194.998 140.798V140.31L195.524 140.291L195.738 140.252L195.875 140.038L194.219 139.862L193.887 139.726L193.498 139.2L193.459 138.927L193.731 138.752L194.335 138.518L193.731 137.31L193.303 137.738L192.855 138.576L192.251 138.615L191.686 137.875L191.393 137.68L190.809 137.622L190.536 137.777L190.38 138.167L190.341 138.674V139.141L189.796 139.044L188.568 139.102L188.081 138.83L188.023 138.654V138.187L187.984 138.07L187.867 138.031L187.574 138.089L187.185 137.992L186.561 137.933L186.347 137.816L186.23 137.563L186.249 137.31L186.308 137.076L186.347 136.862L186.308 134.465L186.347 134.075L186.425 133.9L186.561 133.666L186.678 133.354L186.717 132.965L186.308 133.452L185.957 134.036L185.548 134.465L184.905 134.524L185.392 135.654L185.061 135.887L184.34 135.868L183.658 136.297L183.385 135.537L183.21 135.206L182.918 134.991L182.84 136.024L182.567 136.842L182.002 137.329L181.3 137.407L181.028 137.29L180.774 137.232L180.56 137.251L180.404 137.407L179.995 137.076L179.722 136.998L179.664 136.862V136.258L179.313 135.381L177.657 133.588L177.384 132.984L177.15 132.302L176.566 131.698L175.903 131.211L175.552 130.568L175.436 128.854L175.182 128.035L174.637 127.392L174.773 126.691ZM186.717 141.577L186.853 141.947L186.775 142.259L186.639 142.61L186.561 143.019L186.62 143.681L186.6 144.071L186.444 144.227L186.249 144.344L186.464 145.006L186.366 145.337L185.957 145.415L185.567 145.182L185.139 144.987L184.652 145.22L184.223 145.279L183.97 144.655L183.658 143.35L183.229 143.116L182.879 143.369L182.645 143.896L182.567 144.578L182.411 144.85L182.021 144.87L181.632 144.733L181.398 144.578L181.222 144.285L181.183 144.051V143.759L181.125 143.35L180.404 140.973L180.307 140.408L180.365 139.843L180.677 139.258L180.872 139.122L181.086 139.083L181.242 138.966L181.359 138.265L181.515 138.05L181.943 137.719L182.294 137.544L182.703 137.68L183.034 137.992L183.249 138.401L183.21 138.81L182.976 139.219L182.392 139.843L182.489 140.057L182.625 140.622L182.762 140.914L182.996 141.07L183.561 141.265L183.872 141.83L184.379 141.752L185.041 141.499L185.645 141.363L186.542 141.518L186.717 141.577ZM204.662 139.843L204.623 140.213L204.506 140.622L204.272 140.856L203.922 140.7L204.058 141.129L204.409 141.869L204.467 142.356L204.272 142.434L203.805 142.278L203.318 142.025L203.006 141.791L202.928 142.259L202.85 142.493L202.383 143.019L202.246 143.447L202.558 143.681L202.987 143.876L203.201 144.11L202.792 144.48L200.882 145.065L200.298 145.104L201.213 144.461L200.843 144.285L200.687 143.993L200.707 143.603L200.843 143.136L200.025 143.564L199.791 143.389L199.674 143.019V142.649L199.85 142.473L200.512 142.337L200.687 141.986L200.707 141.479L200.843 140.914L200.493 140.7L200.22 141.031L199.265 141.46L198.856 141.791L198.544 141.324L198.174 140.914L197.862 140.447L197.784 139.843L197.96 139.473L198.31 139.122L198.7 138.869L199.051 138.713L200.044 138.518H200.298L200.746 138.713L201.097 138.927L201.447 139.102L201.934 139.141V138.947L201.447 138.615L201.155 138.128L201.038 137.583L201.019 137.076L201.35 137.115L203.201 136.063L202.889 135.478L203.045 134.874L203.454 134.563L203.922 134.738L204.039 135.011V135.322L203.863 136.511L203.883 136.706L204 137.076L204.156 137.388L204.272 137.7V138.128L204.175 138.498L203.746 139.609L204.292 139.414L204.545 139.239L204.623 139.297L204.662 139.843ZM186.795 140.603L186.912 140.7L187.048 140.914L186.775 140.992L185.587 140.661L184.924 140.875L184.554 140.837L184.145 140.603L183.911 140.135L184.106 139.648L184.457 139.18L184.691 138.732L184.924 138.42L185.353 138.304L185.49 138.674L185.295 139.18L185.217 139.531L185.236 139.843L185.373 139.94L185.529 139.59L185.84 139.083L186.094 139.044L186.171 139.278L186.308 139.395L186.444 139.473L186.503 139.862L186.639 140.388L186.795 140.603ZM207.137 134.913L207.02 135.576L206.844 135.81L206.708 135.868L206.65 135.732L206.533 135.167L206.318 134.952L206.26 134.777L206.279 134.563L206.201 134.29L206.046 134.036L206.123 133.803L206.416 133.647L206.708 133.608L206.981 133.686L207.156 134.095L207.137 134.913ZM192.66 147.208L192.738 147.286L192.699 147.461L192.445 147.773L192.329 147.851L192.153 147.87L191.9 147.812L191.705 147.851L191.413 147.987L191.276 148.124L191.121 148.143L191.101 148.026L191.179 147.831L191.159 147.656L191.043 147.539L190.945 147.52L190.828 147.442L190.848 147.266L190.906 147.13L190.926 146.955L191.023 146.857L191.198 146.799L192.036 147.247V147.442L192.173 147.461L192.66 147.208ZM195.076 141.421L195.329 141.304L195.738 141.207L196.186 141.187L196.459 141.441L196.518 141.85L196.381 142.103L196.479 142.259L196.362 142.454L196.089 142.337L195.992 142.415V142.493L196.206 142.532L196.44 142.707L196.323 142.902L196.05 143.233L195.621 143.253L195.427 142.999L195.329 142.746H195.095L195.154 142.532L195.076 142.317L194.745 142.278L194.628 142.181L194.881 141.967L194.92 141.733L194.667 141.518L194.18 141.363L193.887 141.46L193.712 141.441L193.653 141.226L193.868 140.992L194.18 140.914L194.589 141.09L194.9 141.324L195.076 141.421ZM191.218 140.895L191.608 141.343L191.764 141.596L191.647 141.772H191.374L191.237 141.83L191.257 142.064L191.179 142.161L190.926 142.083L190.77 142.006L190.478 141.811L190.322 141.557L190.341 141.382L190.536 141.09L190.887 140.817L191.218 140.895Z" fill="#DFDEDE" stroke="white" stroke-width="0.5" stroke-linecap="round" stroke-linejoin="round"/>
<path d="M210.313 131.308L210.527 130.919L210.936 130.412L211.306 129.847L211.579 127.938L211.969 127.47L212.456 127.1L213.079 126.847L213.761 126.866L214.268 127.197L214.424 127.918L214.892 128.561L215.496 129.068L215.983 129.672L216.509 130.217L216.567 130.334L216.431 130.607L216.022 130.588H215.729L215.34 130.646L215.067 130.627L214.794 130.743L214.463 130.782L214.443 131.25L214.658 131.562L214.697 131.932L214.56 132.361L213.956 132.633L213.489 132.224L213.196 131.99L212.982 131.718L212.281 132.458L211.969 133.062L211.871 133.686L211.657 133.841L211.54 133.51L211.209 133.179L211.248 133.471L211.306 134.134H211.112L211.014 133.919L210.897 133.861L210.624 134.056L210.371 134.212L210.196 133.997L209.981 133.257L210.079 132.614L210.274 131.776L210.313 131.308Z" fill="#DFDEDE" stroke="white" stroke-width="0.5" stroke-linecap="round" stroke-linejoin="round"/>
<path d="M218.398 125.424L218.281 125.327L217.541 125.054L216.956 124.489L216.781 123.593L216.177 123.125L214.813 122.365L213.683 121.06L213.001 120.534L211.364 120.28L210.975 119.482L211.637 118.157L211.52 116.871L212.163 116.345L212.826 115.955L213.235 115.935L213.41 115.624L213.157 115.195L213.001 114.747L213.897 114.065L215.008 113.675L215.924 113.519L216.82 113.714L217.755 114.123L218.008 114.513V115L218.086 115.429L218.398 115.663L218.846 115.78L221.301 115.351L223.406 115.858H223.425L223.464 115.897L223.639 116.208L223.542 116.91L223.484 117.748L223.308 119.014L223.035 119.54L222.607 120.144L222.198 120.358L222.022 119.774L221.866 119.033L221.535 118.468L221.165 118.391L220.951 119.014L221.301 119.092L221.516 119.365L221.633 119.774L221.652 120.242L221.535 120.67L221.262 120.768L220.951 120.807L220.736 121.001L220.775 121.235L220.814 121.839L220.931 122.463L220.678 122.872L220.464 123.262L220.678 123.573L220.853 123.749L220.814 124.197L220.269 124.372L219.762 124.684L219.022 125.405L218.398 125.385V125.424Z" fill="#DFDEDE" stroke="white" stroke-width="0.5" stroke-linecap="round" stroke-linejoin="round"/>
<path d="M202.052 69.5626L202.734 69.9328L203.396 70.2056L204.176 70.3809L204.857 70.4394L205.013 69.7379L205.091 68.978L204.916 68.1597L205.403 67.5752L206.124 67.2244L206.845 67.2829L207.215 67.9454L207.722 68.0623L208.17 68.2961L208.111 68.8611L208.17 69.4457L208.969 69.1339L209.709 68.5494L210.04 68.6858L210.255 68.978L210.547 69.017L210.898 68.8806L211.93 69.056L212.905 69.5041L213.606 69.3288L214.307 68.9391L215.223 69.1534L216.042 69.66L216.295 70.4199L215.671 70.8875L214.911 70.5758L214.405 70.7706L213.957 71.1018L213.762 71.9202L213.879 72.9918L214.424 73.8102L215.301 74.2388L215.496 74.9403L215.749 75.5443L216.353 75.7976L216.918 76.1288L218.847 76.2652L218.75 77.0251L218.964 77.2394L219.178 77.4732L218.906 78.3111L218.536 79.1879L218.613 80.1036L218.847 80.922L218.925 81.6624L218.633 82.4418L220.464 83.1237L221.322 82.734L222.199 82.9484H222.452L222.471 83.0068L222.608 84.3123L222.958 85.6567L223.114 87.0206L222.939 89.8069L222.783 90.4109L221.965 91.4046L221.653 91.9696L221.517 92.6126L221.4 96.5679L221.478 97.1135L221.653 97.4058L221.828 97.5227L221.965 97.698L222.121 98.8087L222.315 99.6465L222.53 99.8024L222.666 99.9972L222.569 100.504L222.354 100.796L222.082 100.913L221.828 101.01L221.38 101.361L221.361 101.809L221.906 102.335L222.315 102.783L222.744 103.29L223.27 103.387L223.952 102.861L225.628 101.01L225.959 100.484L226.388 100.816L226.485 101.381L226.68 101.965L226.816 102.628L226.388 103.271L225.452 105.161L225.375 106.018L225.082 108.239L224.4 110.188L224.439 111.396L223.738 113.5L223.231 114.513L222.997 115.02L223.212 115.604L223.426 115.857H223.407L221.302 115.351L218.847 115.78L218.399 115.663L218.087 115.429L218.009 115V114.513L217.756 114.123L216.821 113.714L215.925 113.519L215.009 113.675L213.898 114.065L213.002 114.747L213.158 115.195L213.411 115.624L213.236 115.935L212.827 115.955L212.164 116.345L211.521 116.871L210.781 117.104L210.001 116.754L208.988 116.5L208.033 116.89L207.722 117.28L207.371 117.592L206.981 117.65L206.611 117.786L205.734 118.468L204.76 118.429L203.942 118.001L203.065 117.747L202.091 117.923L201.116 118.02L200.298 117.494L199.636 116.676L199.421 114.883L198.798 115.351L198.155 116.286L197.434 116.15L196.012 116.871L195.271 116.715L194.589 116.208L193.868 115.877L193.108 115.741L192.31 115.857L190.673 115.78L190.264 114.279L190.575 113.558L190.595 112.779L190.244 112.37L189.835 112.116L189.757 111.844L189.601 111.532L189.017 111.123L188.666 110.441L188.159 109.895L187.477 109.661L186.737 109.681L185.977 109.622L185.548 109.33L185.198 109.038L184.399 108.98L184.185 108.902L183.97 108.804L183.873 108.551L183.834 108.278L183.6 108.083L183.347 107.888L182.821 107.577L182.606 106.856L182.723 104.771L181.652 102.939L182.295 102.608L182.957 102.394L183.366 101.595L183.581 100.757L183.795 100.387L184.048 100.075L184.107 99.5491L184.087 99.1009L183.951 98.2241L184.594 97.6591L185.217 97.776L185.782 97.8149L185.47 96.1198L184.886 95.6717L183.542 96.0029L183.015 95.7496L182.275 95.1261L181.632 94.9118L180.58 95.1651L180.405 93.6063L180.989 93.0997L181.379 92.3593L181.087 91.8332L180.911 91.2682L181.067 90.4693L181.184 88.6963L181.437 87.9364L181.924 87.4687L180.638 85.5788L179.606 85.4034L179.294 84.663L179.684 84.4876L180.073 84.4097L180.463 84.0005L181.048 83.2017L181.203 82.8704L181.184 82.5587L181.262 82.169L182.08 81.6039L182.996 81.1753L183.581 80.318L184.574 80.7466L186.445 81.0389L186.075 80.2985L185.568 79.6555L185.743 78.9735L186.075 78.2526L186.386 77.7071L186.815 77.9993L187.341 77.9409L187.77 77.3563L188.218 77.0836L188.646 77.3563L189.465 77.6291L190.225 77.6876L190.42 77.1615L190.536 76.6354L190.829 76.2068L191.16 75.856L191.511 76.2457L191.939 76.5575L192.563 77.103L192.972 77.9019L193.907 78.2136L196.109 77.2784L196.499 75.9924L196.148 75.6612L195.973 75.33L196.304 74.7259L196.577 74.1024L197.161 73.2646L197.979 72.6801L198.213 72.2709L198.545 71.9981L199.09 71.8228L199.519 71.3941L200.201 70.8291L200.805 70.1861L201.058 70.0302L201.37 70.1471L201.74 69.9328L202.052 69.5626ZM204.468 108.103L204.877 107.674L205.013 107.167L204.994 106.602L204.955 106.096L204.663 105.843L204.448 105.531V104.712L204.565 104.479L204.585 104.225L204.253 103.641L203.182 102.861L201.798 102.959L200.123 103.193L198.876 104.225L199.032 105.706L198.584 106.193L198.291 106.836L198.545 106.875L198.778 106.973L198.739 107.304L198.622 107.596L198.194 107.674H197.804L197.434 108.181L197.59 108.785L197.999 108.941L198.389 109.33L198.7 109.934L199.168 110.304L199.499 110.519L199.733 110.733L199.947 110.558L200.318 109.895L200.688 109.603L201.545 109.681L203.065 110.071L203.669 109.72L203.747 109.408V109.213L204 108.551L204.02 108.278V108.064L204.273 108.044L204.468 108.103ZM233.552 52.1825L234 52.5332L233.981 53.371L233.689 54.3258L233.377 54.9493L232.87 55.2026L232.208 55.0662L231.545 54.6765L231.117 54.1504L230.98 53.4685L231.195 52.9619L231.682 52.6501L232.617 52.4942L233.241 52.2604L233.552 52.1825Z" fill="#DFDEDE" stroke="white" stroke-width="0.5" stroke-linecap="round" stroke-linejoin="round"/>
<path d="M157.042 173.038L157.237 173.447L157.12 173.603L156.867 173.681L156.672 173.895L156.691 174.071L156.867 174.363V174.538L156.769 174.714L156.535 175.006L156.496 175.103L156.029 175.649L155.113 176.37L154.84 176.974L154.451 177.656L154.431 177.948L154.256 178.357L153.593 178.435L153.34 178.572L152.658 178.494L151.645 179.312L148.975 179.799L148.079 180.559L146.988 180.793L145.819 180.676L144.475 180.929L143.364 180.598L140.85 180.637L140.071 180.988L139.603 181.826L139.175 181.903L138.746 181.709L138.162 180.734L137.343 180.462L136.583 179.643L136.311 178.65L136.778 177.364L137.226 176.565L137.499 176.292L138.415 175.746L139.194 174.382L139.915 174.188L140.246 173.467L141.493 173.038L144.182 172.278L144.864 171.694L147.436 171.421L149.19 170.661L149.599 170.778L151.742 170.427L152.97 170.33L153.788 170.466L154.119 170.934L154.509 171.245L155.775 171.752L156.165 172.142L156.418 173.096L156.672 173.467L156.808 173.311L156.964 173.174L157.042 173.038Z" fill="#DFDEDE" stroke="white" stroke-width="0.5" stroke-linecap="round" stroke-linejoin="round"/>
<path d="M161.524 52.027H162.245L162.869 51.7931H163.414L163.609 52.2803L163.531 52.7674L163.161 52.9622L162.771 53.235V53.8195L162.986 54.0728L162.538 54.6768L162.284 55.125L161.602 55.5342L160.842 55.7095L160.063 56.0992L159.771 55.3978L159.108 55.5536L158.446 55.7485L157.978 56.0213L157.511 56.0992L156.381 56.0602L155.601 55.047L154.822 54.8132L154.296 54.4625L154.159 53.5078L153.633 52.7674L153.01 51.988L153.419 51.1502L154.159 51.1891L154.997 51.7152L155.621 51.5009L156.186 51.1502L156.225 50.5851L156.381 50.059L157.569 49.9421L158.173 49.1628L158.543 48.3639L159.069 47.7988L159.907 47.604L160.842 47.6819L161.31 48.4613L161.485 49.533L161.758 50.2734L161.778 51.0917L161.524 52.027Z" fill="#DFDEDE" stroke="white" stroke-width="0.5" stroke-linecap="round" stroke-linejoin="round"/>
<path d="M171.208 90.9174L171.071 91.6773L170.721 92.2423L170.351 93.6647L169.649 94.2103L169.279 94.3466L168.129 95.204L166.824 95.5352L166.278 93.7621L166.142 91.385L165.655 90.4498L164.252 88.2285L165.46 87.8973L167.175 87.4297L167.779 87.4881L167.72 87.722L167.818 87.9752L167.993 88.1701L168.227 88.287L168.383 88.6572L168.285 89.2222L169.084 89.4561L169.922 89.2612L170.234 88.8131L170.604 88.9105L170.565 89.2807L170.877 89.4561L170.935 90.0406L171.208 90.9174Z" fill="#DFDEDE" stroke="white" stroke-width="0.5" stroke-linecap="round" stroke-linejoin="round"/>
<path d="M164.252 88.2286L162.44 88.7157L160.043 88.2481L160.277 87.5661L160.686 87.1764L160.608 82.1884L161.212 80.4933L164.973 81.9936L164.466 83.1042L164.505 83.6692L164.174 84.6045L164.057 85.6177L166.005 85.228L168.012 85.3644L167.993 85.7151L167.856 86.0269L167.798 86.2802L167.895 86.475L167.915 86.6504L167.934 86.8257L167.895 87.157L167.778 87.4882L167.174 87.4297L165.46 87.8974L164.252 88.2286Z" fill="#DFDEDE" stroke="white" stroke-width="0.5" stroke-linecap="round" stroke-linejoin="round"/>
<path d="M174.5 65.9579L177.287 65.198L180.092 64.8083L179.878 66.4061L180.677 66.2112L181.476 66.2697L181.709 66.4061L181.924 66.523L182.138 66.3476L182.314 66.1333L182.859 65.7631L182.703 64.1459L183.21 63.5418L184.554 63.0742L185.548 64.1459V64.8473L185.879 65.3149L186.756 65.1006L187.633 64.6135L188.159 64.2043L188.802 64.3407L189.308 64.0679L189.932 63.6003L191.393 64.1264L192.913 64.3602L193.381 64.4966L193.069 65.198L192.309 65.7436L191.861 66.445L192.153 66.7763L192.523 66.9711L192.757 66.9906L193.01 66.8737L193.809 66.6009L195.056 66.4645L195.329 66.7373L195.271 67.2244L195.797 67.77L195.992 68.1986L196.479 68.1596L197.044 68.0622L197.687 67.8674L198.31 67.8479L198.934 68.335L199.635 68.7831L200.317 68.9195L200.999 68.9975L201.525 69.2313L202.051 69.5625L201.739 69.9327L201.369 70.1471L201.058 70.0301L200.804 70.186L200.2 70.829L199.518 71.3941L199.09 71.8227L198.544 71.9981L198.213 72.2708L197.979 72.68L197.161 73.2646L196.576 74.1024L196.303 74.7259L195.972 75.3299L196.147 75.6611L196.498 75.9924L196.108 77.2783L193.907 78.2136L192.971 77.9018L192.562 77.103L191.939 76.5574L191.51 76.2457L191.159 75.856L190.828 76.2067L190.536 76.6354L190.419 77.1614L190.224 77.6875L189.464 77.6291L188.646 77.3563L188.217 77.0835L187.769 77.3563L187.34 77.9408L186.814 77.9993L186.386 77.707L186.074 78.2526L185.743 78.9735L185.567 79.6554L186.074 80.2984L186.444 81.0388L184.574 80.7466L183.58 80.3179L182.995 81.1752L182.08 81.6039L181.261 82.1689L181.183 82.5586L181.203 82.8704L181.047 83.2016L180.462 84.0005L180.073 84.4096L179.683 84.4876L179.293 84.6629L179.605 85.4033L180.638 85.5787L181.924 87.4687L181.437 87.9363L181.183 88.6962L181.067 90.4693L180.911 91.2681L181.086 91.8332L181.378 92.3593L180.989 93.0997L180.404 93.6063L180.579 95.165L181.632 94.9117L182.275 95.126L183.015 95.7495L183.541 96.0028L184.885 95.6716L185.47 96.1198L185.782 97.8149L185.217 97.7759L184.593 97.659L183.95 98.2241L184.087 99.1009L184.106 99.549L184.048 100.075L183.794 100.387L183.58 100.757L183.366 101.595L182.957 102.394L182.294 102.608L181.651 102.939L181.3 103.29L180.969 103.602L180.579 103.387L180.19 103.017L179.215 103.465L178.378 103.972L177.949 103.855L177.696 103.543L176.527 103.154L176.117 102.686L175.669 102.433L175.513 102.667L175.299 102.705L175.046 102.472L174.812 102.199L174.208 101.264L173.682 100.309L173.448 99.1983L173.487 98.0682L173.214 97.094L172.396 96.5874L171.617 96.3341L170.759 96.5094L170.701 95.5742L170.74 94.6779L171.052 93.4114L171.656 92.3398L171.889 91.7747L172.162 91.2876L172.591 90.9759L172.708 90.3913L172.357 90.2939L171.987 90.1186L171.558 90.4498L171.207 90.9174L170.935 90.0406L170.876 89.4561L170.564 89.2807L170.603 88.9105L170.233 88.8131L169.921 89.2612L169.084 89.4561L168.285 89.2223L168.382 88.6572L168.226 88.287L167.992 88.1701L167.817 87.9753L167.72 87.722L167.778 87.4882L167.895 87.1569L167.934 86.8257L167.915 86.6503L167.895 86.475L167.798 86.2801L167.856 86.0268L167.992 85.7151L168.012 85.3644L166.005 85.228L164.057 85.6177L164.174 84.6045L164.505 83.6692L164.466 83.1042L164.972 81.9936L165.713 80.9219L166.258 79.9672L166.492 79.7139L166.745 79.7529L166.979 79.6944L167.116 79.4411L167.155 79.1488L167.233 78.7981L167.369 78.4474L167.427 78.0772L167.369 77.707L167.194 77.3758L166.979 77.1614L166.999 76.499L166.648 76.2457L166.2 75.3299L165.849 75.1351L165.537 74.8038L165.323 74.3167L166.512 73.966L167.642 73.4204L168.519 73.1282L168.752 72.1539L169.181 71.6863L169.863 71.3941L170.175 70.9849L170.409 70.4198L170.818 69.9912L171.324 70.1081L171.48 70.3029L172.143 69.8353L173.409 67.4777L173.526 67.2049L173.682 66.9516L173.896 66.7763L174.091 66.6399L174.305 66.3086L174.5 65.9579Z" fill="#DFDEDE" stroke="white" stroke-width="0.5" stroke-linecap="round" stroke-linejoin="round"/>
<path d="M158.075 127.899L158.62 129.38L157.568 130.783L155.951 130.51L154.509 129.653L153.788 128.055L154.353 127.529L155.308 127.763L155.99 127.607L156.711 127.392L158.075 127.899Z" fill="#DFDEDE" stroke="white" stroke-width="0.5" stroke-linecap="round" stroke-linejoin="round"/>
<path d="M204.466 108.103L204.272 108.044L204.018 108.064V108.278L203.999 108.551L203.746 109.213V109.408L203.668 109.72L203.064 110.07L201.544 109.681L200.687 109.603L200.316 109.895L199.946 110.558L199.732 110.733L199.498 110.519L199.167 110.304L198.699 109.934L198.387 109.33L197.998 108.94L197.588 108.784L197.433 108.18L197.803 107.674H198.193L198.621 107.596L198.738 107.304L198.777 106.972L198.543 106.875L198.29 106.836L198.582 106.193L199.03 105.706L198.874 104.225L200.121 103.192L201.797 102.959L203.181 102.861L204.252 103.641L204.583 104.225L204.564 104.478L204.447 104.712V105.531L204.661 105.842L204.954 106.096L204.993 106.602L205.012 107.167L204.876 107.674L204.466 108.103Z" fill="#DFDEDE" stroke="white" stroke-width="0.5" stroke-linecap="round" stroke-linejoin="round"/>
<path d="M200.726 85.8046C198.516 85.8072 196.397 86.7136 194.835 88.325C193.272 89.9365 192.393 92.1213 192.391 94.4002C192.391 101.755 199.968 107.313 200.29 107.548C200.419 107.636 200.57 107.684 200.726 107.684C200.881 107.684 201.032 107.636 201.161 107.548C201.483 107.313 209.06 101.755 209.06 94.4002C209.058 92.1213 208.179 89.9365 206.616 88.325C205.054 86.7136 202.935 85.8072 200.726 85.8046ZM200.726 91.2745C201.325 91.2745 201.911 91.4579 202.409 91.8013C202.908 92.1448 203.296 92.6329 203.526 93.2041C203.755 93.7752 203.815 94.4037 203.698 95.01C203.581 95.6164 203.293 96.1733 202.869 96.6104C202.445 97.0476 201.905 97.3453 201.317 97.4659C200.729 97.5865 200.119 97.5246 199.566 97.288C199.012 97.0514 198.538 96.6508 198.205 96.1368C197.872 95.6228 197.695 95.0184 197.695 94.4002C197.695 93.5713 198.014 92.7762 198.582 92.19C199.151 91.6039 199.922 91.2745 200.726 91.2745Z" fill="#9AC5E5"/>
<path d="M164.261 44.1302C162.051 44.1328 159.932 45.0393 158.37 46.6507C156.807 48.2622 155.928 50.447 155.926 52.7259C155.926 60.0811 163.503 65.639 163.825 65.8734C163.954 65.962 164.106 66.0093 164.261 66.0093C164.416 66.0093 164.567 65.962 164.696 65.8734C165.018 65.639 172.596 60.0811 172.596 52.7259C172.593 50.447 171.714 48.2622 170.152 46.6507C168.589 45.0393 166.47 44.1328 164.261 44.1302ZM164.261 49.6002C164.86 49.6002 165.446 49.7835 165.945 50.127C166.443 50.4705 166.831 50.9586 167.061 51.5298C167.29 52.1009 167.35 52.7294 167.233 53.3357C167.116 53.942 166.828 54.499 166.404 54.9361C165.98 55.3733 165.44 55.671 164.852 55.7916C164.264 55.9122 163.655 55.8503 163.101 55.6137C162.547 55.3771 162.074 54.9765 161.741 54.4625C161.408 53.9484 161.23 53.3441 161.23 52.7259C161.23 51.8969 161.549 51.1019 162.118 50.5157C162.686 49.9295 163.457 49.6002 164.261 49.6002Z" fill="#9AC5E5"/>
<path d="M204.335 36C202.125 36.0026 200.007 36.909 198.444 38.5205C196.881 40.1319 196.003 42.3168 196 44.5957C196 51.9508 203.577 57.5087 203.899 57.7431C204.028 57.8318 204.18 57.879 204.335 57.879C204.49 57.879 204.642 57.8318 204.771 57.7431C205.093 57.5087 212.67 51.9508 212.67 44.5957C212.667 42.3168 211.788 40.1319 210.226 38.5205C208.663 36.909 206.545 36.0026 204.335 36ZM204.335 41.47C204.934 41.47 205.52 41.6533 206.019 41.9967C206.517 42.3402 206.906 42.8284 207.135 43.3995C207.364 43.9707 207.424 44.5991 207.308 45.2055C207.191 45.8118 206.902 46.3687 206.478 46.8059C206.054 47.243 205.514 47.5407 204.926 47.6613C204.338 47.7819 203.729 47.72 203.175 47.4834C202.621 47.2469 202.148 46.8462 201.815 46.3322C201.482 45.8182 201.304 45.2139 201.304 44.5957C201.304 43.7667 201.623 42.9717 202.192 42.3855C202.76 41.7993 203.531 41.47 204.335 41.47Z" fill="#9AC5E5"/>
<path d="M155.926 107.684C153.716 107.686 151.597 108.593 150.035 110.204C148.472 111.816 147.593 114 147.591 116.279C147.591 123.634 155.168 129.192 155.49 129.427C155.619 129.515 155.771 129.563 155.926 129.563C156.081 129.563 156.232 129.515 156.361 129.427C156.683 129.192 164.261 123.634 164.261 116.279C164.258 114 163.379 111.816 161.817 110.204C160.254 108.593 158.135 107.686 155.926 107.684ZM155.926 113.154C156.525 113.154 157.111 113.337 157.61 113.68C158.108 114.024 158.496 114.512 158.726 115.083C158.955 115.654 159.015 116.283 158.898 116.889C158.781 117.495 158.493 118.052 158.069 118.489C157.645 118.927 157.105 119.224 156.517 119.345C155.929 119.466 155.32 119.404 154.766 119.167C154.212 118.93 153.739 118.53 153.406 118.016C153.073 117.502 152.895 116.897 152.895 116.279C152.895 115.45 153.214 114.655 153.783 114.069C154.351 113.483 155.122 113.154 155.926 113.154Z" fill="#9AC5E5"/>
<defs>
<filter id="filter0_d_1378_4" x="0" y="0" width="343" height="251" filterUnits="userSpaceOnUse" color-interpolation-filters="sRGB">
<feFlood flood-opacity="0" result="BackgroundImageFix"/>
<feColorMatrix in="SourceAlpha" type="matrix" values="0 0 0 0 0 0 0 0 0 0 0 0 0 0 0 0 0 0 127 0" result="hardAlpha"/>
<feOffset dy="5"/>
<feGaussianBlur stdDeviation="7.5"/>
<feComposite in2="hardAlpha" operator="out"/>
<feColorMatrix type="matrix" values="0 0 0 0 0 0 0 0 0 0 0 0 0 0 0 0 0 0 0.25 0"/>
<feBlend mode="normal" in2="BackgroundImageFix" result="effect1_dropShadow_1378_4"/>
<feBlend mode="normal" in="SourceGraphic" in2="effect1_dropShadow_1378_4" result="shape"/>
</filter>
</defs>
</svg>
