<svg width="343" height="251" viewBox="0 0 343 251" fill="none" xmlns="http://www.w3.org/2000/svg">
<g filter="url(#filter0_d_751_744)">
<rect x="15" y="10" width="313" height="221" rx="18" fill="#333742"/>
</g>
<path d="M39.5625 200.859H41.6719L46.4375 212.5H46.6133L51.3789 200.859H53.4883V215H51.8281V204.316H51.6914L47.2969 215H45.7344L41.3398 204.316H41.2227V215H39.5625V200.859ZM60.7344 215.215C57.8438 215.215 55.8906 213.047 55.8906 209.746C55.8906 206.445 57.8438 204.258 60.7344 204.258C63.6055 204.258 65.5391 206.445 65.5391 209.746C65.5391 213.047 63.6055 215.215 60.7344 215.215ZM60.7344 213.73C62.8633 213.73 63.8594 211.855 63.8594 209.746C63.8594 207.637 62.8633 205.742 60.7344 205.742C58.5664 205.742 57.5703 207.637 57.5703 209.746C57.5703 211.855 58.5664 213.73 60.7344 213.73ZM71.75 215.215C69.1133 215.215 67.2383 213.086 67.2383 209.727C67.2383 206.367 69.1133 204.258 71.7695 204.258C73.8203 204.258 74.4844 205.508 74.8359 206.074H74.9531V200.859H76.6523V215H75.0117V213.379H74.8359C74.4648 213.965 73.7812 215.215 71.75 215.215ZM71.9844 213.711C73.918 213.711 75.0117 212.07 75.0117 209.688C75.0117 207.344 73.957 205.762 71.9844 205.762C69.9531 205.762 68.9375 207.48 68.9375 209.688C68.9375 211.953 69.9727 213.711 71.9844 213.711ZM79.0547 211.992C79.0547 209.551 81.2031 209.004 83.0391 208.867C83.7129 208.818 85.4316 208.73 85.9102 208.711V207.852C85.9102 206.504 85.1094 205.723 83.5078 205.723C82.1602 205.723 81.3594 206.348 81.125 207.148H79.3672C79.582 205.449 81.2422 204.258 83.5859 204.258C84.9727 204.258 87.5703 204.668 87.5703 208.008V215H85.9102V213.555H85.832C85.4805 214.277 84.5039 215.254 82.668 215.254C80.6562 215.254 79.0547 214.062 79.0547 211.992ZM80.7344 212.07C80.7344 213.184 81.6719 213.75 82.9609 213.75C84.8555 213.75 85.9102 212.48 85.9102 211.152V210.078L83.2344 210.273C81.7109 210.371 80.7344 210.918 80.7344 212.07ZM91.9453 200.859V215H90.2656V200.859H91.9453Z" fill="#DFDFDF"/>
<path d="M27 189H317.5" stroke="#DFDFDF" stroke-width="0.5"/>
<g filter="url(#filter1_d_751_744)">
<rect x="50" y="42" width="245" height="113" rx="7" fill="#2A2E39"/>
</g>
<path d="M286 52L275 63" stroke="#7C7C7C" stroke-linecap="round"/>
<path d="M286 63L275 52" stroke="#7C7C7C" stroke-linecap="round"/>
<path d="M66.5625 60.8594H68.6719L73.4375 72.5H73.6133L78.3789 60.8594H80.4883V75H78.8281V64.3164H78.6914L74.2969 75H72.7344L68.3398 64.3164H68.2227V75H66.5625V60.8594ZM87.7344 75.2148C84.8438 75.2148 82.8906 73.0469 82.8906 69.7461C82.8906 66.4453 84.8438 64.2578 87.7344 64.2578C90.6055 64.2578 92.5391 66.4453 92.5391 69.7461C92.5391 73.0469 90.6055 75.2148 87.7344 75.2148ZM87.7344 73.7305C89.8633 73.7305 90.8594 71.8555 90.8594 69.7461C90.8594 67.6367 89.8633 65.7422 87.7344 65.7422C85.5664 65.7422 84.5703 67.6367 84.5703 69.7461C84.5703 71.8555 85.5664 73.7305 87.7344 73.7305ZM98.75 75.2148C96.1133 75.2148 94.2383 73.0859 94.2383 69.7266C94.2383 66.3672 96.1133 64.2578 98.7695 64.2578C100.82 64.2578 101.484 65.5078 101.836 66.0742H101.953V60.8594H103.652V75H102.012V73.3789H101.836C101.465 73.9648 100.781 75.2148 98.75 75.2148ZM98.9844 73.7109C100.918 73.7109 102.012 72.0703 102.012 69.6875C102.012 67.3438 100.957 65.7617 98.9844 65.7617C96.9531 65.7617 95.9375 67.4805 95.9375 69.6875C95.9375 71.9531 96.9727 73.7109 98.9844 73.7109ZM106.055 71.9922C106.055 69.5508 108.203 69.0039 110.039 68.8672C110.713 68.8184 112.432 68.7305 112.91 68.7109V67.8516C112.91 66.5039 112.109 65.7227 110.508 65.7227C109.16 65.7227 108.359 66.3477 108.125 67.1484H106.367C106.582 65.4492 108.242 64.2578 110.586 64.2578C111.973 64.2578 114.57 64.668 114.57 68.0078V75H112.91V73.5547H112.832C112.48 74.2773 111.504 75.2539 109.668 75.2539C107.656 75.2539 106.055 74.0625 106.055 71.9922ZM107.734 72.0703C107.734 73.1836 108.672 73.75 109.961 73.75C111.855 73.75 112.91 72.4805 112.91 71.1523V70.0781L110.234 70.2734C108.711 70.3711 107.734 70.918 107.734 72.0703ZM118.945 60.8594V75H117.266V60.8594H118.945Z" fill="#DFDFDF"/>
<rect x="95" y="117" width="91" height="26" rx="3" fill="#7C7C7C"/>
<rect x="191" y="117" width="91" height="26" rx="3" fill="#2A6490"/>
<defs>
<filter id="filter0_d_751_744" x="0" y="0" width="343" height="251" filterUnits="userSpaceOnUse" color-interpolation-filters="sRGB">
<feFlood flood-opacity="0" result="BackgroundImageFix"/>
<feColorMatrix in="SourceAlpha" type="matrix" values="0 0 0 0 0 0 0 0 0 0 0 0 0 0 0 0 0 0 127 0" result="hardAlpha"/>
<feOffset dy="5"/>
<feGaussianBlur stdDeviation="7.5"/>
<feComposite in2="hardAlpha" operator="out"/>
<feColorMatrix type="matrix" values="0 0 0 0 0 0 0 0 0 0 0 0 0 0 0 0 0 0 0.25 0"/>
<feBlend mode="normal" in2="BackgroundImageFix" result="effect1_dropShadow_751_744"/>
<feBlend mode="normal" in="SourceGraphic" in2="effect1_dropShadow_751_744" result="shape"/>
</filter>
<filter id="filter1_d_751_744" x="40" y="32" width="265" height="133" filterUnits="userSpaceOnUse" color-interpolation-filters="sRGB">
<feFlood flood-opacity="0" result="BackgroundImageFix"/>
<feColorMatrix in="SourceAlpha" type="matrix" values="0 0 0 0 0 0 0 0 0 0 0 0 0 0 0 0 0 0 127 0" result="hardAlpha"/>
<feOffset/>
<feGaussianBlur stdDeviation="5"/>
<feComposite in2="hardAlpha" operator="out"/>
<feColorMatrix type="matrix" values="0 0 0 0 0 0 0 0 0 0 0 0 0 0 0 0 0 0 0.15 0"/>
<feBlend mode="normal" in2="BackgroundImageFix" result="effect1_dropShadow_751_744"/>
<feBlend mode="normal" in="SourceGraphic" in2="effect1_dropShadow_751_744" result="shape"/>
</filter>
</defs>
</svg>
