<svg width="343" height="251" viewBox="0 0 343 251" fill="none" xmlns="http://www.w3.org/2000/svg">
<g filter="url(#filter0_d_632_6)">
<rect x="15" y="10" width="313" height="221" rx="18" fill="white"/>
</g>
<path d="M49.793 200.859V215H48.1133L40.457 203.984H40.3203V215H38.5625V200.859H40.2617L47.918 211.895H48.0547V200.859H49.793ZM52.1953 211.992C52.1953 209.561 54.3438 209.004 56.1797 208.867C56.8633 208.818 58.5723 208.721 59.0508 208.711V207.852C59.0508 206.504 58.25 205.723 56.6484 205.723C55.3105 205.723 54.5 206.338 54.2656 207.148H52.5078C52.7227 205.439 54.3828 204.258 56.7266 204.258C58.1133 204.258 60.7207 204.668 60.7109 208.008V215H59.0508V213.555H58.9727C58.6211 214.268 57.6543 215.244 55.8086 215.254C53.7969 215.244 52.1953 214.062 52.1953 211.992ZM53.875 212.07C53.8848 213.193 54.8125 213.76 56.1016 213.75C57.9961 213.76 59.0508 212.49 59.0508 211.152V210.088C58.5527 210.117 56.8828 210.244 56.375 210.273C54.8516 210.371 53.8848 210.908 53.875 212.07ZM71.7461 204.395L67.8203 215H66.082L62.1758 204.395H64.0117L66.9023 212.812H67.0195L69.9102 204.395H71.7461ZM73.8164 215V200.859H75.4961V206.074H75.6328C75.9941 205.508 76.6289 204.258 78.6992 204.258C81.3555 204.258 83.2207 206.367 83.2305 209.727C83.2207 213.096 81.3555 215.225 78.7188 215.215C76.6875 215.225 75.9941 213.965 75.6328 213.379H75.4375V215H73.8164ZM75.457 209.688C75.457 212.07 76.5312 213.711 78.4648 213.711C80.4863 213.711 81.5215 211.943 81.5312 209.688C81.5215 207.471 80.5156 205.762 78.4648 205.762C76.5117 205.762 75.457 207.334 75.457 209.688ZM84.9102 211.992C84.9102 209.561 87.0586 209.004 88.8945 208.867C89.5781 208.818 91.2871 208.721 91.7656 208.711V207.852C91.7656 206.504 90.9648 205.723 89.3633 205.723C88.0254 205.723 87.2148 206.338 86.9805 207.148H85.2227C85.4375 205.439 87.0977 204.258 89.4414 204.258C90.8281 204.258 93.4355 204.668 93.4258 208.008V215H91.7656V213.555H91.6875C91.3359 214.268 90.3691 215.244 88.5234 215.254C86.5117 215.244 84.9102 214.062 84.9102 211.992ZM86.5898 212.07C86.5996 213.193 87.5273 213.76 88.8164 213.75C90.7109 213.76 91.7656 212.49 91.7656 211.152V210.088C91.2676 210.117 89.5977 210.244 89.0898 210.273C87.5664 210.371 86.5996 210.908 86.5898 212.07ZM96.1211 215V204.395H97.7422V206.016H97.8594C98.2402 204.941 99.3438 204.229 100.594 204.219C100.848 204.229 101.277 204.238 101.473 204.258V205.957C101.346 205.928 100.896 205.84 100.457 205.84C98.9336 205.84 97.8008 206.895 97.8008 208.32V215H96.1211Z" fill="#474747"/>
<path d="M28.5 189H319" stroke="#494949" stroke-width="0.5"/>
<rect x="28" y="94" width="286" height="33" rx="4" fill="#9AC5E5"/>
<path d="M233.031 115.617L237.314 119.899L235.899 121.314L231.617 117.031C230.077 118.263 228.124 119 226 119C221.032 119 217 114.968 217 110C217 105.032 221.032 101 226 101C230.968 101 235 105.032 235 110C235 112.124 234.263 114.077 233.031 115.617ZM231.025 114.875C232.248 113.615 233 111.896 233 110C233 106.132 229.868 103 226 103C222.132 103 219 106.132 219 110C219 113.868 222.132 117 226 117C227.896 117 229.615 116.248 230.875 115.025L231.025 114.875Z" fill="white"/>
<path d="M37 104H49.8571" stroke="white" stroke-width="1.5" stroke-linecap="round"/>
<path d="M37 112H55" stroke="white" stroke-width="1.5" stroke-linecap="round"/>
<path d="M37 120H51.5714" stroke="white" stroke-width="1.5" stroke-linecap="round"/>
<path d="M259.827 100.69L268.313 109.175L266.898 110.589L266.191 109.882L261.949 114.125L261.242 117.661L259.827 119.075L255.585 114.832L250.635 119.782L249.221 118.368L254.17 113.418L249.928 109.175L251.342 107.761L254.878 107.054L259.12 102.811L258.413 102.104L259.827 100.69ZM260.534 104.225L255.864 108.896L253.042 109.461L259.542 115.961L260.106 113.139L264.777 108.468L260.534 104.225Z" fill="white"/>
<circle cx="288.053" cy="105.737" r="4.73684" fill="white"/>
<ellipse cx="288.053" cy="116.263" rx="11.0526" ry="4.73684" fill="white"/>
<rect x="70" y="99" width="140" height="23" rx="11.5" fill="#8EB6D5"/>
<defs>
<filter id="filter0_d_632_6" x="0" y="0" width="343" height="251" filterUnits="userSpaceOnUse" color-interpolation-filters="sRGB">
<feFlood flood-opacity="0" result="BackgroundImageFix"/>
<feColorMatrix in="SourceAlpha" type="matrix" values="0 0 0 0 0 0 0 0 0 0 0 0 0 0 0 0 0 0 127 0" result="hardAlpha"/>
<feOffset dy="5"/>
<feGaussianBlur stdDeviation="7.5"/>
<feComposite in2="hardAlpha" operator="out"/>
<feColorMatrix type="matrix" values="0 0 0 0 0 0 0 0 0 0 0 0 0 0 0 0 0 0 0.25 0"/>
<feBlend mode="normal" in2="BackgroundImageFix" result="effect1_dropShadow_632_6"/>
<feBlend mode="normal" in="SourceGraphic" in2="effect1_dropShadow_632_6" result="shape"/>
</filter>
</defs>
</svg>
