<svg width="343" height="251" viewBox="0 0 343 251" fill="none" xmlns="http://www.w3.org/2000/svg">
<g filter="url(#filter0_d_751_799)">
<rect x="15" y="10" width="313" height="221" rx="18" fill="#333742"/>
</g>
<path d="M33.5625 215V200.859H38.3672C41.6875 200.859 43.1914 202.832 43.1914 205.352C43.1914 207.852 41.6875 209.863 38.3867 209.863H35.3203V215H33.5625ZM35.3203 208.301H38.3086C40.5547 208.301 41.4531 207.031 41.4531 205.352C41.4531 203.652 40.5547 202.422 38.2891 202.422H35.3203V208.301ZM44.9102 211.992C44.9102 209.551 47.0586 209.004 48.8945 208.867C49.5684 208.818 51.2871 208.73 51.7656 208.711V207.852C51.7656 206.504 50.9648 205.723 49.3633 205.723C48.0156 205.723 47.2148 206.348 46.9805 207.148H45.2227C45.4375 205.449 47.0977 204.258 49.4414 204.258C50.8281 204.258 53.4258 204.668 53.4258 208.008V215H51.7656V213.555H51.6875C51.3359 214.277 50.3594 215.254 48.5234 215.254C46.5117 215.254 44.9102 214.062 44.9102 211.992ZM46.5898 212.07C46.5898 213.184 47.5273 213.75 48.8164 213.75C50.7109 213.75 51.7656 212.48 51.7656 211.152V210.078L49.0898 210.273C47.5664 210.371 46.5898 210.918 46.5898 212.07ZM60.418 219.199C57.8594 219.199 56.1211 218.086 55.9258 216.113H57.6836C57.918 217.188 58.9141 217.734 60.418 217.734C62.2344 217.734 63.3477 216.953 63.3477 215.195V213.047H63.2109C62.8594 213.633 62.1758 214.844 60.125 214.844C57.5469 214.844 55.6133 212.891 55.6133 209.551C55.6133 206.289 57.4883 204.258 60.1445 204.258C62.1953 204.258 62.8594 205.508 63.25 206.074H63.3867V204.395H65.0273V215.293C65.0273 218.027 62.9961 219.199 60.418 219.199ZM60.3594 213.34C62.293 213.34 63.3867 211.953 63.3867 209.609C63.3867 207.344 62.332 205.762 60.3594 205.762C58.3281 205.762 57.3125 207.48 57.3125 209.609C57.3125 211.816 58.3477 213.34 60.3594 213.34ZM67.7031 215V204.395H69.3828V215H67.7031ZM68.543 202.637C67.8984 202.637 67.3711 202.148 67.3711 201.523C67.3711 200.898 67.8984 200.41 68.543 200.41C69.1875 200.41 69.7344 200.898 69.7344 201.523C69.7344 202.148 69.1875 202.637 68.543 202.637ZM73.7383 208.633V215H72.0586V204.395H73.6797V206.055H73.8164C74.3242 204.98 75.3008 204.258 76.9219 204.258C79.0703 204.258 80.4961 205.566 80.4961 208.262V215H78.8164V208.379C78.8164 206.738 77.918 205.762 76.4141 205.762C74.8711 205.762 73.7383 206.797 73.7383 208.633ZM82.6836 211.992C82.6836 209.551 84.832 209.004 86.668 208.867C87.3418 208.818 89.0605 208.73 89.5391 208.711V207.852C89.5391 206.504 88.7383 205.723 87.1367 205.723C85.7891 205.723 84.9883 206.348 84.7539 207.148H82.9961C83.2109 205.449 84.8711 204.258 87.2148 204.258C88.6016 204.258 91.1992 204.668 91.1992 208.008V215H89.5391V213.555H89.4609C89.1094 214.277 88.1328 215.254 86.2969 215.254C84.2852 215.254 82.6836 214.062 82.6836 211.992ZM84.3633 212.07C84.3633 213.184 85.3008 213.75 86.5898 213.75C88.4844 213.75 89.5391 212.48 89.5391 211.152V210.078L86.8633 210.273C85.3398 210.371 84.3633 210.918 84.3633 212.07ZM98.5234 204.395V205.801H96.2969V211.953C96.2969 213.32 96.9609 213.535 97.6836 213.535C97.9961 213.535 98.4258 213.516 98.6797 213.496V215.059C98.4258 215.098 97.9961 215.137 97.5078 215.137C96.1016 215.137 94.5977 214.258 94.5977 212.383V205.801H92.9961V204.395H94.5977V201.855H96.2969V204.395H98.5234ZM100.691 215V204.395H102.371V215H100.691ZM101.531 202.637C100.887 202.637 100.359 202.148 100.359 201.523C100.359 200.898 100.887 200.41 101.531 200.41C102.176 200.41 102.723 200.898 102.723 201.523C102.723 202.148 102.176 202.637 101.531 202.637ZM109.383 215.215C106.492 215.215 104.539 213.047 104.539 209.746C104.539 206.445 106.492 204.258 109.383 204.258C112.254 204.258 114.188 206.445 114.188 209.746C114.188 213.047 112.254 215.215 109.383 215.215ZM109.383 213.73C111.512 213.73 112.508 211.855 112.508 209.746C112.508 207.637 111.512 205.742 109.383 205.742C107.215 205.742 106.219 207.637 106.219 209.746C106.219 211.855 107.215 213.73 109.383 213.73ZM118.074 208.633V215H116.395V204.395H118.016V206.055H118.152C118.66 204.98 119.637 204.258 121.258 204.258C123.406 204.258 124.832 205.566 124.832 208.262V215H123.152V208.379C123.152 206.738 122.254 205.762 120.75 205.762C119.207 205.762 118.074 206.797 118.074 208.633Z" fill="#DFDFDF"/>
<path d="M27 189H317.5" stroke="#DFDFDF" stroke-width="0.5"/>
<circle cx="143.5" cy="106.5" r="12.5" fill="#537893"/>
<path d="M53.5 93L40 106.5L53.5 120" stroke="#DFDFDF" stroke-width="2" stroke-linecap="round"/>
<path d="M288.5 120L302 106.5L288.5 93" stroke="#DFDFDF" stroke-width="2" stroke-linecap="round"/>
<circle cx="83.5" cy="107" r="5" fill="#D9D9D9"/>
<circle cx="113.5" cy="107" r="5" fill="#D9D9D9"/>
<circle cx="143.5" cy="107" r="5" fill="#2A6490"/>
<circle cx="173.5" cy="107" r="5" fill="#D9D9D9"/>
<circle cx="208" cy="107.5" r="2.5" fill="#D9D9D9"/>
<circle cx="216" cy="107.5" r="2.5" fill="#D9D9D9"/>
<circle cx="224" cy="107.5" r="2.5" fill="#D9D9D9"/>
<circle cx="258.5" cy="107" r="5" fill="#D9D9D9"/>
<defs>
<filter id="filter0_d_751_799" x="0" y="0" width="343" height="251" filterUnits="userSpaceOnUse" color-interpolation-filters="sRGB">
<feFlood flood-opacity="0" result="BackgroundImageFix"/>
<feColorMatrix in="SourceAlpha" type="matrix" values="0 0 0 0 0 0 0 0 0 0 0 0 0 0 0 0 0 0 127 0" result="hardAlpha"/>
<feOffset dy="5"/>
<feGaussianBlur stdDeviation="7.5"/>
<feComposite in2="hardAlpha" operator="out"/>
<feColorMatrix type="matrix" values="0 0 0 0 0 0 0 0 0 0 0 0 0 0 0 0 0 0 0.25 0"/>
<feBlend mode="normal" in2="BackgroundImageFix" result="effect1_dropShadow_751_799"/>
<feBlend mode="normal" in="SourceGraphic" in2="effect1_dropShadow_751_799" result="shape"/>
</filter>
</defs>
</svg>
