<svg width="343" height="251" viewBox="0 0 343 251" fill="none" xmlns="http://www.w3.org/2000/svg">
<g filter="url(#filter0_d_608_48)">
<rect x="15" y="10" width="313" height="221" rx="18" fill="white"/>
</g>
<path d="M33.5625 215V200.859H38.3672C41.6777 200.859 43.1914 202.832 43.1914 205.352C43.1914 207.861 41.6777 209.863 38.3867 209.863H35.3203V215H33.5625ZM35.3203 208.301H38.3086C40.5645 208.301 41.4434 207.031 41.4531 205.352C41.4434 203.662 40.5645 202.422 38.2891 202.422H35.3203V208.301ZM44.9102 211.992C44.9102 209.561 47.0586 209.004 48.8945 208.867C49.5781 208.818 51.2871 208.721 51.7656 208.711V207.852C51.7656 206.504 50.9648 205.723 49.3633 205.723C48.0254 205.723 47.2148 206.338 46.9805 207.148H45.2227C45.4375 205.439 47.0977 204.258 49.4414 204.258C50.8281 204.258 53.4355 204.668 53.4258 208.008V215H51.7656V213.555H51.6875C51.3359 214.268 50.3691 215.244 48.5234 215.254C46.5117 215.244 44.9102 214.062 44.9102 211.992ZM46.5898 212.07C46.5996 213.193 47.5273 213.76 48.8164 213.75C50.7109 213.76 51.7656 212.49 51.7656 211.152V210.088C51.2676 210.117 49.5977 210.244 49.0898 210.273C47.5664 210.371 46.5996 210.908 46.5898 212.07ZM60.418 219.199C57.8496 219.199 56.1113 218.076 55.9258 216.113H57.6836C57.9082 217.197 58.9141 217.734 60.418 217.734C62.2344 217.734 63.3477 216.943 63.3477 215.195V213.047H63.2109C62.8496 213.633 62.1758 214.834 60.125 214.844C57.5469 214.834 55.6133 212.891 55.6133 209.551C55.6133 206.289 57.4785 204.258 60.1445 204.258C62.2051 204.258 62.8691 205.508 63.25 206.074H63.3867V204.395H65.0273V215.293C65.0176 218.027 63.0059 219.199 60.418 219.199ZM57.3125 209.609C57.3125 211.807 58.3477 213.34 60.3594 213.34C62.3027 213.34 63.377 211.943 63.3867 209.609C63.377 207.334 62.332 205.762 60.3594 205.762C58.3184 205.762 57.3125 207.471 57.3125 209.609ZM67.7031 215V204.395H69.3828V215H67.7031ZM67.3711 201.523C67.3613 200.898 67.8984 200.4 68.543 200.41C69.1875 200.4 69.7246 200.898 69.7344 201.523C69.7246 202.139 69.1875 202.637 68.543 202.637C67.8984 202.637 67.3613 202.139 67.3711 201.523ZM73.7383 208.633V215H72.0586V204.395H73.6797V206.055H73.8164C74.3145 204.971 75.3105 204.258 76.9219 204.258C79.0703 204.258 80.5059 205.566 80.4961 208.262V215H78.8164V208.379C78.8164 206.738 77.918 205.762 76.4141 205.762C74.8711 205.762 73.7383 206.797 73.7383 208.633ZM82.6836 211.992C82.6836 209.561 84.832 209.004 86.668 208.867C87.3516 208.818 89.0605 208.721 89.5391 208.711V207.852C89.5391 206.504 88.7383 205.723 87.1367 205.723C85.7988 205.723 84.9883 206.338 84.7539 207.148H82.9961C83.2109 205.439 84.8711 204.258 87.2148 204.258C88.6016 204.258 91.209 204.668 91.1992 208.008V215H89.5391V213.555H89.4609C89.1094 214.268 88.1426 215.244 86.2969 215.254C84.2852 215.244 82.6836 214.062 82.6836 211.992ZM84.3633 212.07C84.373 213.193 85.3008 213.76 86.5898 213.75C88.4844 213.76 89.5391 212.49 89.5391 211.152V210.088C89.041 210.117 87.3711 210.244 86.8633 210.273C85.3398 210.371 84.373 210.908 84.3633 212.07ZM98.5234 204.395V205.801H96.2969V211.953C96.2871 213.311 96.9707 213.535 97.6836 213.535C97.9863 213.535 98.4355 213.506 98.6797 213.496V215.059C98.416 215.098 98.0059 215.137 97.5078 215.137C96.0918 215.137 94.6074 214.258 94.5977 212.383V205.801H92.9961V204.395H94.5977V201.855H96.2969V204.395H98.5234ZM100.691 215V204.395H102.371V215H100.691ZM100.359 201.523C100.35 200.898 100.887 200.4 101.531 200.41C102.176 200.4 102.713 200.898 102.723 201.523C102.713 202.139 102.176 202.637 101.531 202.637C100.887 202.637 100.35 202.139 100.359 201.523ZM109.383 215.215C106.492 215.225 104.539 213.037 104.539 209.746C104.539 206.436 106.492 204.258 109.383 204.258C112.264 204.258 114.197 206.436 114.188 209.746C114.197 213.037 112.264 215.225 109.383 215.215ZM106.219 209.746C106.229 211.865 107.225 213.73 109.383 213.73C111.521 213.73 112.508 211.865 112.508 209.746C112.508 207.637 111.521 205.742 109.383 205.742C107.225 205.742 106.229 207.637 106.219 209.746ZM118.074 208.633V215H116.395V204.395H118.016V206.055H118.152C118.65 204.971 119.646 204.258 121.258 204.258C123.406 204.258 124.842 205.566 124.832 208.262V215H123.152V208.379C123.152 206.738 122.254 205.762 120.75 205.762C119.207 205.762 118.074 206.797 118.074 208.633Z" fill="#474747"/>
<path d="M27 189H317.5" stroke="#494949" stroke-width="0.5"/>
<circle cx="143.5" cy="106.5" r="12.5" fill="#DEF1FF"/>
<path d="M53.5 93L40 106.5L53.5 120" stroke="#D9D9D9" stroke-width="2" stroke-linecap="round"/>
<path d="M288.5 120L302 106.5L288.5 93" stroke="#D9D9D9" stroke-width="2" stroke-linecap="round"/>
<circle cx="83.5" cy="107" r="5" fill="#D9D9D9"/>
<circle cx="113.5" cy="107" r="5" fill="#D9D9D9"/>
<circle cx="143.5" cy="107" r="5" fill="#9AC5E5"/>
<circle cx="173.5" cy="107" r="5" fill="#D9D9D9"/>
<circle cx="208" cy="107.5" r="2.5" fill="#D9D9D9"/>
<circle cx="216" cy="107.5" r="2.5" fill="#D9D9D9"/>
<circle cx="224" cy="107.5" r="2.5" fill="#D9D9D9"/>
<circle cx="258.5" cy="107" r="5" fill="#D9D9D9"/>
<defs>
<filter id="filter0_d_608_48" x="0" y="0" width="343" height="251" filterUnits="userSpaceOnUse" color-interpolation-filters="sRGB">
<feFlood flood-opacity="0" result="BackgroundImageFix"/>
<feColorMatrix in="SourceAlpha" type="matrix" values="0 0 0 0 0 0 0 0 0 0 0 0 0 0 0 0 0 0 127 0" result="hardAlpha"/>
<feOffset dy="5"/>
<feGaussianBlur stdDeviation="7.5"/>
<feComposite in2="hardAlpha" operator="out"/>
<feColorMatrix type="matrix" values="0 0 0 0 0 0 0 0 0 0 0 0 0 0 0 0 0 0 0.25 0"/>
<feBlend mode="normal" in2="BackgroundImageFix" result="effect1_dropShadow_608_48"/>
<feBlend mode="normal" in="SourceGraphic" in2="effect1_dropShadow_608_48" result="shape"/>
</filter>
</defs>
</svg>
