<svg width="343" height="251" viewBox="0 0 343 251" fill="none" xmlns="http://www.w3.org/2000/svg">
<g filter="url(#filter0_d_926_3)">
<rect x="15" y="10" width="313" height="221" rx="18" fill="#333742"/>
</g>
<path d="M31.5625 215V200.859H36.3672C39.6875 200.859 41.1914 202.832 41.1914 205.352C41.1914 207.852 39.6875 209.863 36.3867 209.863H33.3203V215H31.5625ZM33.3203 208.301H36.3086C38.5547 208.301 39.4531 207.031 39.4531 205.352C39.4531 203.652 38.5547 202.422 36.2891 202.422H33.3203V208.301ZM43.4375 215V204.395H45.0586V206.016H45.1758C45.5664 204.941 46.6602 204.219 47.9102 204.219C48.1641 204.219 48.5938 204.238 48.7891 204.258V205.957C48.6719 205.918 48.2031 205.84 47.7734 205.84C46.25 205.84 45.1172 206.895 45.1172 208.32V215H43.4375ZM54.4141 215.215C51.5234 215.215 49.5703 213.047 49.5703 209.746C49.5703 206.445 51.5234 204.258 54.4141 204.258C57.2852 204.258 59.2188 206.445 59.2188 209.746C59.2188 213.047 57.2852 215.215 54.4141 215.215ZM54.4141 213.73C56.543 213.73 57.5391 211.855 57.5391 209.746C57.5391 207.637 56.543 205.742 54.4141 205.742C52.2461 205.742 51.25 207.637 51.25 209.746C51.25 211.855 52.2461 213.73 54.4141 213.73ZM65.7227 219.199C63.1641 219.199 61.4258 218.086 61.2305 216.113H62.9883C63.2227 217.188 64.2188 217.734 65.7227 217.734C67.5391 217.734 68.6523 216.953 68.6523 215.195V213.047H68.5156C68.1641 213.633 67.4805 214.844 65.4297 214.844C62.8516 214.844 60.918 212.891 60.918 209.551C60.918 206.289 62.793 204.258 65.4492 204.258C67.5 204.258 68.1641 205.508 68.5547 206.074H68.6914V204.395H70.332V215.293C70.332 218.027 68.3008 219.199 65.7227 219.199ZM65.6641 213.34C67.5977 213.34 68.6914 211.953 68.6914 209.609C68.6914 207.344 67.6367 205.762 65.6641 205.762C63.6328 205.762 62.6172 207.48 62.6172 209.609C62.6172 211.816 63.6523 213.34 65.6641 213.34ZM73.0078 215V204.395H74.6289V206.016H74.7461C75.1367 204.941 76.2305 204.219 77.4805 204.219C77.7344 204.219 78.1641 204.238 78.3594 204.258V205.957C78.2422 205.918 77.7734 205.84 77.3438 205.84C75.8203 205.84 74.6875 206.895 74.6875 208.32V215H73.0078ZM84.1016 215.215C81.0352 215.215 79.1406 213.047 79.1406 209.785C79.1406 206.523 81.0547 204.258 83.9453 204.258C86.1719 204.258 88.5156 205.625 88.5156 209.551V210.254H80.8203C80.8984 212.5 82.207 213.73 84.1016 213.73C85.3711 213.73 86.1719 213.184 86.5625 212.52H88.3594C87.8516 214.121 86.2891 215.215 84.1016 215.215ZM80.8398 208.828H86.8164C86.8164 207.051 85.6836 205.742 83.9453 205.742C82.1094 205.742 80.9375 207.188 80.8398 208.828ZM96.6016 207.148C96.3672 206.27 95.7031 205.684 94.4531 205.684C93.1445 205.684 92.207 206.387 92.207 207.285C92.207 207.988 92.7734 208.477 94.0234 208.77L95.6055 209.16C97.5 209.609 98.4375 210.547 98.4375 212.031C98.4375 213.867 96.9336 215.215 94.2773 215.215C91.8945 215.215 90.4688 214.16 90.1953 212.227H91.9531C92.1484 213.262 92.9102 213.75 94.2383 213.75C95.7422 213.75 96.6992 213.125 96.6992 212.129C96.6992 211.387 96.1719 210.879 94.9609 210.605L93.3594 210.234C91.5039 209.805 90.5273 208.789 90.5273 207.383C90.5273 205.566 92.1094 204.258 94.4531 204.258C96.6406 204.258 98.0273 205.43 98.2422 207.148H96.6016ZM106.523 207.148C106.289 206.27 105.625 205.684 104.375 205.684C103.066 205.684 102.129 206.387 102.129 207.285C102.129 207.988 102.695 208.477 103.945 208.77L105.527 209.16C107.422 209.609 108.359 210.547 108.359 212.031C108.359 213.867 106.855 215.215 104.199 215.215C101.816 215.215 100.391 214.16 100.117 212.227H101.875C102.07 213.262 102.832 213.75 104.16 213.75C105.664 213.75 106.621 213.125 106.621 212.129C106.621 211.387 106.094 210.879 104.883 210.605L103.281 210.234C101.426 209.805 100.449 208.789 100.449 207.383C100.449 205.566 102.031 204.258 104.375 204.258C106.562 204.258 107.949 205.43 108.164 207.148H106.523ZM110.762 215V200.859H115.723C118.691 200.859 120.078 202.52 120.078 204.609C120.078 206.426 119.004 207.246 117.773 207.578V207.715C119.082 207.793 120.645 209.004 120.645 211.25C120.645 213.379 119.238 215 115.898 215H110.762ZM115.879 213.438C118.086 213.438 118.945 212.461 118.945 211.23C118.945 209.785 117.793 208.574 115.977 208.574H112.52V213.438H115.879ZM115.664 207.051C117.188 207.051 118.398 206.113 118.398 204.629C118.398 203.398 117.578 202.422 115.723 202.422H112.52V207.051H115.664ZM122.422 211.992C122.422 209.551 124.57 209.004 126.406 208.867C127.08 208.818 128.799 208.73 129.277 208.711V207.852C129.277 206.504 128.477 205.723 126.875 205.723C125.527 205.723 124.727 206.348 124.492 207.148H122.734C122.949 205.449 124.609 204.258 126.953 204.258C128.34 204.258 130.938 204.668 130.938 208.008V215H129.277V213.555H129.199C128.848 214.277 127.871 215.254 126.035 215.254C124.023 215.254 122.422 214.062 122.422 211.992ZM124.102 212.07C124.102 213.184 125.039 213.75 126.328 213.75C128.223 213.75 129.277 212.48 129.277 211.152V210.078L126.602 210.273C125.078 210.371 124.102 210.918 124.102 212.07ZM133.633 215V204.395H135.254V206.016H135.371C135.762 204.941 136.855 204.219 138.105 204.219C138.359 204.219 138.789 204.238 138.984 204.258V205.957C138.867 205.918 138.398 205.84 137.969 205.84C136.445 205.84 135.312 206.895 135.312 208.32V215H133.633Z" fill="white"/>
<path d="M27 189H317.5" stroke="#DFDFDF" stroke-width="0.5"/>
<rect x="62" y="85.2352" width="220" height="17.6471" rx="8.82353" fill="#898989"/>
<rect x="62" y="85.2352" width="73.5294" height="17.6471" rx="8.82353" fill="#2A6490"/>
<path d="M164.445 101.195C161.516 101.195 159.426 99.6133 159.348 97.3086H161.535C161.613 98.5586 162.844 99.3398 164.426 99.3398C166.125 99.3398 167.375 98.4023 167.375 97.0352C167.375 95.6484 166.203 94.6328 164.191 94.6328H162.98V92.875H164.191C165.793 92.875 166.926 91.9766 166.926 90.6289C166.926 89.3398 165.969 88.4609 164.465 88.4609C163.039 88.4609 161.789 89.2422 161.73 90.5312H159.66C159.719 88.2266 161.848 86.6641 164.484 86.6641C167.258 86.6641 169.016 88.4219 168.996 90.5117C169.016 92.1133 168.02 93.2852 166.496 93.6562V93.7539C168.43 94.0273 169.543 95.3164 169.543 97.1133C169.543 99.4766 167.375 101.195 164.445 101.195ZM171.906 101V99.4375L176.809 94.4961C178.352 92.875 179.133 91.9766 179.133 90.7461C179.133 89.3594 178 88.4609 176.516 88.4609C174.953 88.4609 173.938 89.457 173.938 90.9609H171.906C171.887 88.3828 173.859 86.6641 176.555 86.6641C179.289 86.6641 181.164 88.3828 181.184 90.6875C181.164 92.2695 180.422 93.5195 177.766 96.1367L174.895 99.0469V99.1641H181.418V101H171.906ZM187.043 93.5781C185.109 93.5977 184.055 92.1523 184.074 90.0625C184.055 87.9922 185.148 86.5664 187.043 86.5664C188.977 86.5664 190.012 87.9922 190.012 90.0625C190.012 92.1719 188.938 93.5977 187.043 93.5781ZM187.043 92.2109C187.961 92.2109 188.391 91.3516 188.391 90.0625C188.391 88.793 187.98 87.9336 187.043 87.9336C186.145 87.9531 185.676 88.793 185.676 90.0625C185.676 91.3516 186.125 92.2109 187.043 92.2109ZM195.969 101.293C194.035 101.293 192.98 99.8672 193 97.7773C192.98 95.6875 194.094 94.2617 195.969 94.2617C197.902 94.2617 198.938 95.6875 198.938 97.7773C198.938 99.8672 197.863 101.293 195.969 101.293ZM195.969 99.9062C196.887 99.9062 197.316 99.0469 197.316 97.7773C197.316 96.4883 196.906 95.6289 195.969 95.6289C195.07 95.6484 194.602 96.5078 194.602 97.7773C194.602 99.0469 195.07 99.9062 195.969 99.9062ZM185.676 101L195.383 86.8594H197.16L187.453 101H185.676Z" fill="white"/>
<rect x="62" y="117.235" width="220" height="18" rx="9" fill="#2A6490"/>
<path d="M156.621 119.095V133.235H154.453V121.243H154.375L150.996 123.45V121.399L154.512 119.095H156.621ZM165.137 133.431C161.855 133.431 159.941 130.794 159.941 126.165C159.941 121.575 161.895 118.899 165.137 118.899C168.379 118.899 170.332 121.575 170.332 126.165C170.332 130.794 168.398 133.431 165.137 133.431ZM165.137 131.575C167.051 131.575 168.184 129.7 168.184 126.165C168.184 122.649 167.031 120.716 165.137 120.716C163.242 120.716 162.09 122.649 162.09 126.165C162.09 129.7 163.223 131.575 165.137 131.575ZM177.48 133.431C174.199 133.431 172.285 130.794 172.285 126.165C172.285 121.575 174.238 118.899 177.48 118.899C180.723 118.899 182.676 121.575 182.676 126.165C182.676 130.794 180.742 133.431 177.48 133.431ZM177.48 131.575C179.395 131.575 180.527 129.7 180.527 126.165C180.527 122.649 179.375 120.716 177.48 120.716C175.586 120.716 174.434 122.649 174.434 126.165C174.434 129.7 175.566 131.575 177.48 131.575ZM188.145 125.813C186.211 125.833 185.156 124.388 185.176 122.298C185.156 120.228 186.25 118.802 188.145 118.802C190.078 118.802 191.113 120.228 191.113 122.298C191.113 124.407 190.039 125.833 188.145 125.813ZM188.145 124.446C189.062 124.446 189.492 123.587 189.492 122.298C189.492 121.028 189.082 120.169 188.145 120.169C187.246 120.188 186.777 121.028 186.777 122.298C186.777 123.587 187.227 124.446 188.145 124.446ZM197.07 133.528C195.137 133.528 194.082 132.103 194.102 130.013C194.082 127.923 195.195 126.497 197.07 126.497C199.004 126.497 200.039 127.923 200.039 130.013C200.039 132.103 198.965 133.528 197.07 133.528ZM197.07 132.142C197.988 132.142 198.418 131.282 198.418 130.013C198.418 128.724 198.008 127.864 197.07 127.864C196.172 127.884 195.703 128.743 195.703 130.013C195.703 131.282 196.172 132.142 197.07 132.142ZM186.777 133.235L196.484 119.095H198.262L188.555 133.235H186.777Z" fill="white"/>
<defs>
<filter id="filter0_d_926_3" x="0" y="0" width="343" height="251" filterUnits="userSpaceOnUse" color-interpolation-filters="sRGB">
<feFlood flood-opacity="0" result="BackgroundImageFix"/>
<feColorMatrix in="SourceAlpha" type="matrix" values="0 0 0 0 0 0 0 0 0 0 0 0 0 0 0 0 0 0 127 0" result="hardAlpha"/>
<feOffset dy="5"/>
<feGaussianBlur stdDeviation="7.5"/>
<feComposite in2="hardAlpha" operator="out"/>
<feColorMatrix type="matrix" values="0 0 0 0 0 0 0 0 0 0 0 0 0 0 0 0 0 0 0.25 0"/>
<feBlend mode="normal" in2="BackgroundImageFix" result="effect1_dropShadow_926_3"/>
<feBlend mode="normal" in="SourceGraphic" in2="effect1_dropShadow_926_3" result="shape"/>
</filter>
</defs>
</svg>
