<svg width="343" height="251" viewBox="0 0 343 251" fill="none" xmlns="http://www.w3.org/2000/svg">
<g filter="url(#filter0_d_926_2)">
<rect x="15" y="10" width="313" height="221" rx="18" fill="white"/>
</g>
<path d="M31.5625 215V200.859H36.3672C39.6875 200.859 41.1914 202.832 41.1914 205.352C41.1914 207.852 39.6875 209.863 36.3867 209.863H33.3203V215H31.5625ZM33.3203 208.301H36.3086C38.5547 208.301 39.4531 207.031 39.4531 205.352C39.4531 203.652 38.5547 202.422 36.2891 202.422H33.3203V208.301ZM43.4375 215V204.395H45.0586V206.016H45.1758C45.5664 204.941 46.6602 204.219 47.9102 204.219C48.1641 204.219 48.5938 204.238 48.7891 204.258V205.957C48.6719 205.918 48.2031 205.84 47.7734 205.84C46.25 205.84 45.1172 206.895 45.1172 208.32V215H43.4375ZM54.4141 215.215C51.5234 215.215 49.5703 213.047 49.5703 209.746C49.5703 206.445 51.5234 204.258 54.4141 204.258C57.2852 204.258 59.2188 206.445 59.2188 209.746C59.2188 213.047 57.2852 215.215 54.4141 215.215ZM54.4141 213.73C56.543 213.73 57.5391 211.855 57.5391 209.746C57.5391 207.637 56.543 205.742 54.4141 205.742C52.2461 205.742 51.25 207.637 51.25 209.746C51.25 211.855 52.2461 213.73 54.4141 213.73ZM65.7227 219.199C63.1641 219.199 61.4258 218.086 61.2305 216.113H62.9883C63.2227 217.188 64.2188 217.734 65.7227 217.734C67.5391 217.734 68.6523 216.953 68.6523 215.195V213.047H68.5156C68.1641 213.633 67.4805 214.844 65.4297 214.844C62.8516 214.844 60.918 212.891 60.918 209.551C60.918 206.289 62.793 204.258 65.4492 204.258C67.5 204.258 68.1641 205.508 68.5547 206.074H68.6914V204.395H70.332V215.293C70.332 218.027 68.3008 219.199 65.7227 219.199ZM65.6641 213.34C67.5977 213.34 68.6914 211.953 68.6914 209.609C68.6914 207.344 67.6367 205.762 65.6641 205.762C63.6328 205.762 62.6172 207.48 62.6172 209.609C62.6172 211.816 63.6523 213.34 65.6641 213.34ZM73.0078 215V204.395H74.6289V206.016H74.7461C75.1367 204.941 76.2305 204.219 77.4805 204.219C77.7344 204.219 78.1641 204.238 78.3594 204.258V205.957C78.2422 205.918 77.7734 205.84 77.3438 205.84C75.8203 205.84 74.6875 206.895 74.6875 208.32V215H73.0078ZM84.1016 215.215C81.0352 215.215 79.1406 213.047 79.1406 209.785C79.1406 206.523 81.0547 204.258 83.9453 204.258C86.1719 204.258 88.5156 205.625 88.5156 209.551V210.254H80.8203C80.8984 212.5 82.207 213.73 84.1016 213.73C85.3711 213.73 86.1719 213.184 86.5625 212.52H88.3594C87.8516 214.121 86.2891 215.215 84.1016 215.215ZM80.8398 208.828H86.8164C86.8164 207.051 85.6836 205.742 83.9453 205.742C82.1094 205.742 80.9375 207.188 80.8398 208.828ZM96.6016 207.148C96.3672 206.27 95.7031 205.684 94.4531 205.684C93.1445 205.684 92.207 206.387 92.207 207.285C92.207 207.988 92.7734 208.477 94.0234 208.77L95.6055 209.16C97.5 209.609 98.4375 210.547 98.4375 212.031C98.4375 213.867 96.9336 215.215 94.2773 215.215C91.8945 215.215 90.4688 214.16 90.1953 212.227H91.9531C92.1484 213.262 92.9102 213.75 94.2383 213.75C95.7422 213.75 96.6992 213.125 96.6992 212.129C96.6992 211.387 96.1719 210.879 94.9609 210.605L93.3594 210.234C91.5039 209.805 90.5273 208.789 90.5273 207.383C90.5273 205.566 92.1094 204.258 94.4531 204.258C96.6406 204.258 98.0273 205.43 98.2422 207.148H96.6016ZM106.523 207.148C106.289 206.27 105.625 205.684 104.375 205.684C103.066 205.684 102.129 206.387 102.129 207.285C102.129 207.988 102.695 208.477 103.945 208.77L105.527 209.16C107.422 209.609 108.359 210.547 108.359 212.031C108.359 213.867 106.855 215.215 104.199 215.215C101.816 215.215 100.391 214.16 100.117 212.227H101.875C102.07 213.262 102.832 213.75 104.16 213.75C105.664 213.75 106.621 213.125 106.621 212.129C106.621 211.387 106.094 210.879 104.883 210.605L103.281 210.234C101.426 209.805 100.449 208.789 100.449 207.383C100.449 205.566 102.031 204.258 104.375 204.258C106.562 204.258 107.949 205.43 108.164 207.148H106.523ZM110.762 215V200.859H115.723C118.691 200.859 120.078 202.52 120.078 204.609C120.078 206.426 119.004 207.246 117.773 207.578V207.715C119.082 207.793 120.645 209.004 120.645 211.25C120.645 213.379 119.238 215 115.898 215H110.762ZM115.879 213.438C118.086 213.438 118.945 212.461 118.945 211.23C118.945 209.785 117.793 208.574 115.977 208.574H112.52V213.438H115.879ZM115.664 207.051C117.188 207.051 118.398 206.113 118.398 204.629C118.398 203.398 117.578 202.422 115.723 202.422H112.52V207.051H115.664ZM122.422 211.992C122.422 209.551 124.57 209.004 126.406 208.867C127.08 208.818 128.799 208.73 129.277 208.711V207.852C129.277 206.504 128.477 205.723 126.875 205.723C125.527 205.723 124.727 206.348 124.492 207.148H122.734C122.949 205.449 124.609 204.258 126.953 204.258C128.34 204.258 130.938 204.668 130.938 208.008V215H129.277V213.555H129.199C128.848 214.277 127.871 215.254 126.035 215.254C124.023 215.254 122.422 214.062 122.422 211.992ZM124.102 212.07C124.102 213.184 125.039 213.75 126.328 213.75C128.223 213.75 129.277 212.48 129.277 211.152V210.078L126.602 210.273C125.078 210.371 124.102 210.918 124.102 212.07ZM133.633 215V204.395H135.254V206.016H135.371C135.762 204.941 136.855 204.219 138.105 204.219C138.359 204.219 138.789 204.238 138.984 204.258V205.957C138.867 205.918 138.398 205.84 137.969 205.84C136.445 205.84 135.312 206.895 135.312 208.32V215H133.633Z" fill="#474747"/>
<path d="M27 189H317.5" stroke="#494949" stroke-width="0.5"/>
<rect x="60" y="76.9999" width="220" height="17.6471" rx="8.82353" fill="#D9D9D9"/>
<rect x="60" y="76.9999" width="73.5294" height="17.6471" rx="8.82353" fill="#9AC5E5"/>
<path d="M162.445 92.96C159.516 92.96 157.426 91.3779 157.348 89.0732H159.535C159.613 90.3232 160.844 91.1045 162.426 91.1045C164.125 91.1045 165.375 90.167 165.375 88.7998C165.375 87.4131 164.203 86.3975 162.191 86.3975H160.98V84.6396H162.191C163.793 84.6396 164.926 83.7412 164.926 82.3936C164.926 81.1045 163.969 80.2256 162.465 80.2256C161.039 80.2256 159.789 81.0068 159.73 82.2959H157.66C157.719 79.9912 159.848 78.4287 162.484 78.4287C165.258 78.4287 167.016 80.1865 166.996 82.2764C167.016 83.8779 166.02 85.0498 164.496 85.4209V85.5186C166.43 85.792 167.543 87.0811 167.543 88.8779C167.543 91.2412 165.375 92.96 162.445 92.96ZM169.906 92.7646V91.2021L174.809 86.2607C176.352 84.6396 177.133 83.7412 177.133 82.5107C177.133 81.124 176 80.2256 174.516 80.2256C172.953 80.2256 171.938 81.2217 171.938 82.7256H169.906C169.887 80.1475 171.859 78.4287 174.555 78.4287C177.289 78.4287 179.164 80.1475 179.184 82.4521C179.164 84.0342 178.422 85.2842 175.766 87.9014L172.895 90.8115V90.9287H179.418V92.7646H169.906ZM185.043 85.3428C183.109 85.3623 182.055 83.917 182.074 81.8271C182.055 79.7568 183.148 78.3311 185.043 78.3311C186.977 78.3311 188.012 79.7568 188.012 81.8271C188.012 83.9365 186.938 85.3623 185.043 85.3428ZM185.043 83.9756C185.961 83.9756 186.391 83.1162 186.391 81.8271C186.391 80.5576 185.98 79.6982 185.043 79.6982C184.145 79.7178 183.676 80.5576 183.676 81.8271C183.676 83.1162 184.125 83.9756 185.043 83.9756ZM193.969 93.0576C192.035 93.0576 190.98 91.6318 191 89.542C190.98 87.4521 192.094 86.0264 193.969 86.0264C195.902 86.0264 196.938 87.4521 196.938 89.542C196.938 91.6318 195.863 93.0576 193.969 93.0576ZM193.969 91.6709C194.887 91.6709 195.316 90.8115 195.316 89.542C195.316 88.2529 194.906 87.3936 193.969 87.3936C193.07 87.4131 192.602 88.2725 192.602 89.542C192.602 90.8115 193.07 91.6709 193.969 91.6709ZM183.676 92.7646L193.383 78.624H195.16L185.453 92.7646H183.676Z" fill="white"/>
<rect x="60" y="109" width="220" height="18" rx="9" fill="#9AC5E5"/>
<path d="M154.621 110.859V125H152.453V113.008H152.375L148.996 115.215V113.164L152.512 110.859H154.621ZM163.137 125.195C159.855 125.195 157.941 122.559 157.941 117.93C157.941 113.34 159.895 110.664 163.137 110.664C166.379 110.664 168.332 113.34 168.332 117.93C168.332 122.559 166.398 125.195 163.137 125.195ZM163.137 123.34C165.051 123.34 166.184 121.465 166.184 117.93C166.184 114.414 165.031 112.48 163.137 112.48C161.242 112.48 160.09 114.414 160.09 117.93C160.09 121.465 161.223 123.34 163.137 123.34ZM175.48 125.195C172.199 125.195 170.285 122.559 170.285 117.93C170.285 113.34 172.238 110.664 175.48 110.664C178.723 110.664 180.676 113.34 180.676 117.93C180.676 122.559 178.742 125.195 175.48 125.195ZM175.48 123.34C177.395 123.34 178.527 121.465 178.527 117.93C178.527 114.414 177.375 112.48 175.48 112.48C173.586 112.48 172.434 114.414 172.434 117.93C172.434 121.465 173.566 123.34 175.48 123.34ZM186.145 117.578C184.211 117.598 183.156 116.152 183.176 114.062C183.156 111.992 184.25 110.566 186.145 110.566C188.078 110.566 189.113 111.992 189.113 114.062C189.113 116.172 188.039 117.598 186.145 117.578ZM186.145 116.211C187.062 116.211 187.492 115.352 187.492 114.062C187.492 112.793 187.082 111.934 186.145 111.934C185.246 111.953 184.777 112.793 184.777 114.062C184.777 115.352 185.227 116.211 186.145 116.211ZM195.07 125.293C193.137 125.293 192.082 123.867 192.102 121.777C192.082 119.688 193.195 118.262 195.07 118.262C197.004 118.262 198.039 119.688 198.039 121.777C198.039 123.867 196.965 125.293 195.07 125.293ZM195.07 123.906C195.988 123.906 196.418 123.047 196.418 121.777C196.418 120.488 196.008 119.629 195.07 119.629C194.172 119.648 193.703 120.508 193.703 121.777C193.703 123.047 194.172 123.906 195.07 123.906ZM184.777 125L194.484 110.859H196.262L186.555 125H184.777Z" fill="white"/>
<defs>
<filter id="filter0_d_926_2" x="0" y="0" width="343" height="251" filterUnits="userSpaceOnUse" color-interpolation-filters="sRGB">
<feFlood flood-opacity="0" result="BackgroundImageFix"/>
<feColorMatrix in="SourceAlpha" type="matrix" values="0 0 0 0 0 0 0 0 0 0 0 0 0 0 0 0 0 0 127 0" result="hardAlpha"/>
<feOffset dy="5"/>
<feGaussianBlur stdDeviation="7.5"/>
<feComposite in2="hardAlpha" operator="out"/>
<feColorMatrix type="matrix" values="0 0 0 0 0 0 0 0 0 0 0 0 0 0 0 0 0 0 0.25 0"/>
<feBlend mode="normal" in2="BackgroundImageFix" result="effect1_dropShadow_926_2"/>
<feBlend mode="normal" in="SourceGraphic" in2="effect1_dropShadow_926_2" result="shape"/>
</filter>
</defs>
</svg>
