<svg width="343" height="251" viewBox="0 0 343 251" fill="none" xmlns="http://www.w3.org/2000/svg">
<g filter="url(#filter0_d_751_572)">
<rect x="15" y="10" width="313" height="221" rx="18" fill="#333742"/>
</g>
<path d="M39.5625 215V200.859H44.3672C47.6875 200.859 49.1914 202.695 49.1914 205.215C49.1914 207.08 48.3516 208.555 46.5547 209.18L49.7383 215H47.6875L44.7383 209.492L44.3867 209.512H41.3203V215H39.5625ZM41.3203 207.91H44.3086C46.5547 207.91 47.4531 206.895 47.4531 205.215C47.4531 203.516 46.5547 202.422 44.2891 202.422H41.3203V207.91ZM51.0078 211.992C51.0078 209.551 53.1562 209.004 54.9922 208.867C55.666 208.818 57.3848 208.73 57.8633 208.711V207.852C57.8633 206.504 57.0625 205.723 55.4609 205.723C54.1133 205.723 53.3125 206.348 53.0781 207.148H51.3203C51.5352 205.449 53.1953 204.258 55.5391 204.258C56.9258 204.258 59.5234 204.668 59.5234 208.008V215H57.8633V213.555H57.7852C57.4336 214.277 56.457 215.254 54.6211 215.254C52.6094 215.254 51.0078 214.062 51.0078 211.992ZM52.6875 212.07C52.6875 213.184 53.625 213.75 54.9141 213.75C56.8086 213.75 57.8633 212.48 57.8633 211.152V210.078L55.1875 210.273C53.6641 210.371 52.6875 210.918 52.6875 212.07ZM66.2227 215.215C63.5859 215.215 61.7109 213.086 61.7109 209.727C61.7109 206.367 63.5859 204.258 66.2422 204.258C68.293 204.258 68.957 205.508 69.3086 206.074H69.4258V200.859H71.125V215H69.4844V213.379H69.3086C68.9375 213.965 68.2539 215.215 66.2227 215.215ZM66.457 213.711C68.3906 213.711 69.4844 212.07 69.4844 209.688C69.4844 207.344 68.4297 205.762 66.457 205.762C64.4258 205.762 63.4102 207.48 63.4102 209.688C63.4102 211.953 64.4453 213.711 66.457 213.711ZM74.0352 215V204.395H75.7148V215H74.0352ZM74.875 202.637C74.2305 202.637 73.7031 202.148 73.7031 201.523C73.7031 200.898 74.2305 200.41 74.875 200.41C75.5195 200.41 76.0664 200.898 76.0664 201.523C76.0664 202.148 75.5195 202.637 74.875 202.637ZM82.7266 215.215C79.8359 215.215 77.8828 213.047 77.8828 209.746C77.8828 206.445 79.8359 204.258 82.7266 204.258C85.5977 204.258 87.5312 206.445 87.5312 209.746C87.5312 213.047 85.5977 215.215 82.7266 215.215ZM82.7266 213.73C84.8555 213.73 85.8516 211.855 85.8516 209.746C85.8516 207.637 84.8555 205.742 82.7266 205.742C80.5586 205.742 79.5625 207.637 79.5625 209.746C79.5625 211.855 80.5586 213.73 82.7266 213.73ZM94.9727 215V200.859H99.9336C102.902 200.859 104.289 202.52 104.289 204.609C104.289 206.426 103.215 207.246 101.984 207.578V207.715C103.293 207.793 104.855 209.004 104.855 211.25C104.855 213.379 103.449 215 100.109 215H94.9727ZM100.09 213.438C102.297 213.438 103.156 212.461 103.156 211.23C103.156 209.785 102.004 208.574 100.188 208.574H96.7305V213.438H100.09ZM99.875 207.051C101.398 207.051 102.609 206.113 102.609 204.629C102.609 203.398 101.789 202.422 99.9336 202.422H96.7305V207.051H99.875ZM113.84 210.645V204.395H115.5V215H113.84V213.203H113.723C113.215 214.277 112.18 215.137 110.578 215.137C108.566 215.137 107.141 213.828 107.141 211.133V204.395H108.82V211.016C108.82 212.539 109.777 213.516 111.125 213.516C112.316 213.516 113.84 212.617 113.84 210.645ZM122.824 204.395V205.801H120.598V211.953C120.598 213.32 121.262 213.535 121.984 213.535C122.297 213.535 122.727 213.516 122.98 213.496V215.059C122.727 215.098 122.297 215.137 121.809 215.137C120.402 215.137 118.898 214.258 118.898 212.383V205.801H117.297V204.395H118.898V201.855H120.598V204.395H122.824ZM129.621 204.395V205.801H127.395V211.953C127.395 213.32 128.059 213.535 128.781 213.535C129.094 213.535 129.523 213.516 129.777 213.496V215.059C129.523 215.098 129.094 215.137 128.605 215.137C127.199 215.137 125.695 214.258 125.695 212.383V205.801H124.094V204.395H125.695V201.855H127.395V204.395H129.621ZM136.008 215.215C133.117 215.215 131.164 213.047 131.164 209.746C131.164 206.445 133.117 204.258 136.008 204.258C138.879 204.258 140.812 206.445 140.812 209.746C140.812 213.047 138.879 215.215 136.008 215.215ZM136.008 213.73C138.137 213.73 139.133 211.855 139.133 209.746C139.133 207.637 138.137 205.742 136.008 205.742C133.84 205.742 132.844 207.637 132.844 209.746C132.844 211.855 133.84 213.73 136.008 213.73ZM144.699 208.633V215H143.02V204.395H144.641V206.055H144.777C145.285 204.98 146.262 204.258 147.883 204.258C150.031 204.258 151.457 205.566 151.457 208.262V215H149.777V208.379C149.777 206.738 148.879 205.762 147.375 205.762C145.832 205.762 144.699 206.797 144.699 208.633Z" fill="#DFDFDF"/>
<path d="M27 189H317.5" stroke="#DFDFDF" stroke-width="0.5"/>
<rect x="43" y="83" width="255.164" height="46.0503" rx="12" fill="#2A2E39"/>
<circle cx="69.0451" cy="106.78" r="12.2062" stroke="#2A6490" stroke-width="0.5"/>
<circle cx="109.056" cy="106.78" r="12.4562" fill="#3E78A4"/>
<circle cx="149.067" cy="106.78" r="11.9562" stroke="#2A6490"/>
<circle cx="189.077" cy="106.78" r="11.9562" stroke="#B7B7B7"/>
<circle cx="229.088" cy="106.78" r="12.4562" fill="#B7B7B7"/>
<circle cx="269.1" cy="106.78" r="12.4562" fill="#A4A4A4"/>
<circle cx="269.1" cy="106.78" r="8.68161" fill="#B7B7B7"/>
<circle cx="69.0449" cy="106.78" r="8.68161" fill="#2A6490"/>
<circle cx="109.056" cy="106.78" r="8.68161" fill="#2A6490"/>
<defs>
<filter id="filter0_d_751_572" x="0" y="0" width="343" height="251" filterUnits="userSpaceOnUse" color-interpolation-filters="sRGB">
<feFlood flood-opacity="0" result="BackgroundImageFix"/>
<feColorMatrix in="SourceAlpha" type="matrix" values="0 0 0 0 0 0 0 0 0 0 0 0 0 0 0 0 0 0 127 0" result="hardAlpha"/>
<feOffset dy="5"/>
<feGaussianBlur stdDeviation="7.5"/>
<feComposite in2="hardAlpha" operator="out"/>
<feColorMatrix type="matrix" values="0 0 0 0 0 0 0 0 0 0 0 0 0 0 0 0 0 0 0.25 0"/>
<feBlend mode="normal" in2="BackgroundImageFix" result="effect1_dropShadow_751_572"/>
<feBlend mode="normal" in="SourceGraphic" in2="effect1_dropShadow_751_572" result="shape"/>
</filter>
</defs>
</svg>
