<svg width="343" height="251" viewBox="0 0 343 251" fill="none" xmlns="http://www.w3.org/2000/svg">
<g filter="url(#filter0_d_487_989)">
<rect x="15" y="10" width="313" height="221" rx="18" fill="white"/>
</g>
<path d="M39.5625 215V200.859H44.3672C47.6777 200.859 49.1914 202.695 49.1914 205.215C49.1914 207.09 48.3516 208.555 46.5547 209.18L49.7383 215H47.6875L44.7285 209.502C44.6211 209.512 44.5039 209.512 44.3867 209.512H41.3203V215H39.5625ZM41.3203 207.91H44.3086C46.5645 207.91 47.4434 206.895 47.4531 205.215C47.4434 203.525 46.5645 202.422 44.2891 202.422H41.3203V207.91ZM51.0078 211.992C51.0078 209.561 53.1562 209.004 54.9922 208.867C55.6758 208.818 57.3848 208.721 57.8633 208.711V207.852C57.8633 206.504 57.0625 205.723 55.4609 205.723C54.123 205.723 53.3125 206.338 53.0781 207.148H51.3203C51.5352 205.439 53.1953 204.258 55.5391 204.258C56.9258 204.258 59.5332 204.668 59.5234 208.008V215H57.8633V213.555H57.7852C57.4336 214.268 56.4668 215.244 54.6211 215.254C52.6094 215.244 51.0078 214.062 51.0078 211.992ZM52.6875 212.07C52.6973 213.193 53.625 213.76 54.9141 213.75C56.8086 213.76 57.8633 212.49 57.8633 211.152V210.088C57.3652 210.117 55.6953 210.244 55.1875 210.273C53.6641 210.371 52.6973 210.908 52.6875 212.07ZM66.2227 215.215C63.5762 215.225 61.7109 213.096 61.7109 209.727C61.7109 206.367 63.5762 204.258 66.2422 204.258C68.3027 204.258 68.9473 205.508 69.3086 206.074H69.4258V200.859H71.125V215H69.4844V213.379H69.3086C68.9375 213.965 68.2441 215.225 66.2227 215.215ZM63.4102 209.688C63.4102 211.943 64.4453 213.711 66.457 213.711C68.4004 213.711 69.4746 212.07 69.4844 209.688C69.4746 207.334 68.4297 205.762 66.457 205.762C64.416 205.762 63.4102 207.471 63.4102 209.688ZM74.0352 215V204.395H75.7148V215H74.0352ZM73.7031 201.523C73.6934 200.898 74.2305 200.4 74.875 200.41C75.5195 200.4 76.0566 200.898 76.0664 201.523C76.0566 202.139 75.5195 202.637 74.875 202.637C74.2305 202.637 73.6934 202.139 73.7031 201.523ZM82.7266 215.215C79.8359 215.225 77.8828 213.037 77.8828 209.746C77.8828 206.436 79.8359 204.258 82.7266 204.258C85.6074 204.258 87.541 206.436 87.5312 209.746C87.541 213.037 85.6074 215.225 82.7266 215.215ZM79.5625 209.746C79.5723 211.865 80.5684 213.73 82.7266 213.73C84.8652 213.73 85.8516 211.865 85.8516 209.746C85.8516 207.637 84.8652 205.742 82.7266 205.742C80.5684 205.742 79.5723 207.637 79.5625 209.746ZM94.9727 215V200.859H99.9336C102.902 200.859 104.299 202.529 104.289 204.609C104.299 206.426 103.215 207.236 101.984 207.578V207.715C103.303 207.793 104.846 209.004 104.855 211.25C104.846 213.369 103.449 215 100.109 215H94.9727ZM96.7305 213.438H100.09C102.307 213.438 103.166 212.461 103.156 211.23C103.166 209.795 102.004 208.574 100.188 208.574H96.7305V213.438ZM96.7305 207.051H99.875C101.408 207.061 102.609 206.104 102.609 204.629C102.609 203.398 101.779 202.422 99.9336 202.422H96.7305V207.051ZM113.84 210.645V204.395H115.5V215H113.84V213.203H113.723C113.225 214.277 112.17 215.137 110.578 215.137C108.566 215.137 107.131 213.828 107.141 211.133V204.395H108.82V211.016C108.82 212.539 109.768 213.525 111.125 213.516C112.326 213.525 113.83 212.627 113.84 210.645ZM122.824 204.395V205.801H120.598V211.953C120.588 213.311 121.271 213.535 121.984 213.535C122.287 213.535 122.736 213.506 122.98 213.496V215.059C122.717 215.098 122.307 215.137 121.809 215.137C120.393 215.137 118.908 214.258 118.898 212.383V205.801H117.297V204.395H118.898V201.855H120.598V204.395H122.824ZM129.621 204.395V205.801H127.395V211.953C127.385 213.311 128.068 213.535 128.781 213.535C129.084 213.535 129.533 213.506 129.777 213.496V215.059C129.514 215.098 129.104 215.137 128.605 215.137C127.189 215.137 125.705 214.258 125.695 212.383V205.801H124.094V204.395H125.695V201.855H127.395V204.395H129.621ZM136.008 215.215C133.117 215.225 131.164 213.037 131.164 209.746C131.164 206.436 133.117 204.258 136.008 204.258C138.889 204.258 140.822 206.436 140.812 209.746C140.822 213.037 138.889 215.225 136.008 215.215ZM132.844 209.746C132.854 211.865 133.85 213.73 136.008 213.73C138.146 213.73 139.133 211.865 139.133 209.746C139.133 207.637 138.146 205.742 136.008 205.742C133.85 205.742 132.854 207.637 132.844 209.746ZM144.699 208.633V215H143.02V204.395H144.641V206.055H144.777C145.275 204.971 146.271 204.258 147.883 204.258C150.031 204.258 151.467 205.566 151.457 208.262V215H149.777V208.379C149.777 206.738 148.879 205.762 147.375 205.762C145.832 205.762 144.699 206.797 144.699 208.633Z" fill="#474747"/>
<path d="M27 189H317.5" stroke="#494949" stroke-width="0.5"/>
<rect x="43" y="83" width="255.164" height="46.0503" rx="12" fill="#EDEDED"/>
<circle cx="69.0448" cy="106.78" r="12.2062" stroke="#9AC5E5" stroke-width="0.5"/>
<circle cx="109.056" cy="106.78" r="12.4562" fill="#C4E5FD"/>
<circle cx="149.067" cy="106.78" r="11.9562" stroke="#9AC5E5"/>
<circle cx="189.078" cy="106.78" r="11.9562" stroke="#878787"/>
<circle cx="229.088" cy="106.78" r="12.4562" fill="#D9D9D9"/>
<circle cx="269.099" cy="106.78" r="12.4562" fill="#D9D9D9"/>
<circle cx="269.099" cy="106.78" r="8.68161" fill="#C2C2C2"/>
<circle cx="69.0448" cy="106.78" r="8.68161" fill="#9AC5E5"/>
<circle cx="109.056" cy="106.78" r="8.68161" fill="#9AC5E5"/>
<defs>
<filter id="filter0_d_487_989" x="0" y="0" width="343" height="251" filterUnits="userSpaceOnUse" color-interpolation-filters="sRGB">
<feFlood flood-opacity="0" result="BackgroundImageFix"/>
<feColorMatrix in="SourceAlpha" type="matrix" values="0 0 0 0 0 0 0 0 0 0 0 0 0 0 0 0 0 0 127 0" result="hardAlpha"/>
<feOffset dy="5"/>
<feGaussianBlur stdDeviation="7.5"/>
<feComposite in2="hardAlpha" operator="out"/>
<feColorMatrix type="matrix" values="0 0 0 0 0 0 0 0 0 0 0 0 0 0 0 0 0 0 0.25 0"/>
<feBlend mode="normal" in2="BackgroundImageFix" result="effect1_dropShadow_487_989"/>
<feBlend mode="normal" in="SourceGraphic" in2="effect1_dropShadow_487_989" result="shape"/>
</filter>
</defs>
</svg>
