<svg width="343" height="251" viewBox="0 0 343 251" fill="none" xmlns="http://www.w3.org/2000/svg">
<g filter="url(#filter0_d_1357_164)">
<rect x="15" y="10" width="313" height="221" rx="18" fill="white"/>
</g>
<path d="M38.5625 215V200.859H43.3672C46.6777 200.859 48.1914 202.695 48.1914 205.215C48.1914 207.09 47.3516 208.555 45.5547 209.18L48.7383 215H46.6875L43.7285 209.502C43.6211 209.512 43.5039 209.512 43.3867 209.512H40.3203V215H38.5625ZM40.3203 207.91H43.3086C45.5645 207.91 46.4434 206.895 46.4531 205.215C46.4434 203.525 45.5645 202.422 43.2891 202.422H40.3203V207.91ZM50.0078 211.992C50.0078 209.561 52.1562 209.004 53.9922 208.867C54.6758 208.818 56.3848 208.721 56.8633 208.711V207.852C56.8633 206.504 56.0625 205.723 54.4609 205.723C53.123 205.723 52.3125 206.338 52.0781 207.148H50.3203C50.5352 205.439 52.1953 204.258 54.5391 204.258C55.9258 204.258 58.5332 204.668 58.5234 208.008V215H56.8633V213.555H56.7852C56.4336 214.268 55.4668 215.244 53.6211 215.254C51.6094 215.244 50.0078 214.062 50.0078 211.992ZM51.6875 212.07C51.6973 213.193 52.625 213.76 53.9141 213.75C55.8086 213.76 56.8633 212.49 56.8633 211.152V210.088C56.3652 210.117 54.6953 210.244 54.1875 210.273C52.6641 210.371 51.6973 210.908 51.6875 212.07ZM65.8477 204.395V205.801H63.6211V211.953C63.6113 213.311 64.2949 213.535 65.0078 213.535C65.3105 213.535 65.7598 213.506 66.0039 213.496V215.059C65.7402 215.098 65.3301 215.137 64.832 215.137C63.416 215.137 61.9316 214.258 61.9219 212.383V205.801H60.3203V204.395H61.9219V201.855H63.6211V204.395H65.8477ZM68.0156 215V204.395H69.6953V215H68.0156ZM67.6836 201.523C67.6738 200.898 68.2109 200.4 68.8555 200.41C69.5 200.4 70.0371 200.898 70.0469 201.523C70.0371 202.139 69.5 202.637 68.8555 202.637C68.2109 202.637 67.6738 202.139 67.6836 201.523ZM74.0508 208.633V215H72.3711V204.395H73.9922V206.055H74.1289C74.627 204.971 75.623 204.258 77.2344 204.258C79.3828 204.258 80.8184 205.566 80.8086 208.262V215H79.1289V208.379C79.1289 206.738 78.2305 205.762 76.7266 205.762C75.1836 205.762 74.0508 206.797 74.0508 208.633ZM87.8008 219.199C85.2324 219.199 83.4941 218.076 83.3086 216.113H85.0664C85.291 217.197 86.2969 217.734 87.8008 217.734C89.6172 217.734 90.7305 216.943 90.7305 215.195V213.047H90.5938C90.2324 213.633 89.5586 214.834 87.5078 214.844C84.9297 214.834 82.9961 212.891 82.9961 209.551C82.9961 206.289 84.8613 204.258 87.5273 204.258C89.5879 204.258 90.252 205.508 90.6328 206.074H90.7695V204.395H92.4102V215.293C92.4004 218.027 90.3887 219.199 87.8008 219.199ZM84.6953 209.609C84.6953 211.807 85.7305 213.34 87.7422 213.34C89.6855 213.34 90.7598 211.943 90.7695 209.609C90.7598 207.334 89.7148 205.762 87.7422 205.762C85.7012 205.762 84.6953 207.471 84.6953 209.609Z" fill="#474747"/>
<path d="M28.5 189H319" stroke="#494949" stroke-width="0.5"/>
<path d="M89.1051 97.7942C89.4733 97.056 90.5267 97.056 90.8949 97.7942L95.0194 106.064C95.1657 106.357 95.4466 106.56 95.7711 106.607L104.979 107.939C105.802 108.058 106.128 109.071 105.53 109.649L98.8819 116.057C98.6431 116.287 98.5339 116.621 98.5906 116.947L100.161 126.01C100.302 126.825 99.4483 127.45 98.7141 127.067L90.4617 122.772C90.1723 122.622 89.8277 122.622 89.5383 122.772L81.2859 127.067C80.5517 127.45 79.6976 126.825 79.8389 126.01L81.4094 116.947C81.4661 116.621 81.3569 116.287 81.1181 116.057L74.4703 109.649C73.8715 109.071 74.198 108.058 75.0212 107.939L84.2289 106.607C84.5534 106.56 84.8343 106.357 84.9806 106.064L89.1051 97.7942Z" fill="#9AC5E5"/>
<path d="M129.6 97.8593C129.964 97.1069 131.036 97.1069 131.4 97.8593L135.368 106.057C135.512 106.354 135.794 106.561 136.121 106.61L145.028 107.937C145.842 108.059 146.169 109.056 145.586 109.636L139.117 116.06C138.887 116.289 138.782 116.615 138.836 116.935L140.359 125.989C140.497 126.809 139.633 127.429 138.9 127.036L130.973 122.785C130.677 122.627 130.323 122.627 130.027 122.785L122.1 127.036C121.367 127.429 120.503 126.809 120.641 125.989L122.164 116.935C122.218 116.615 122.113 116.289 121.883 116.06L115.414 109.636C114.831 109.056 115.158 108.059 115.972 107.937L124.879 106.61C125.206 106.561 125.488 106.354 125.632 106.057L129.6 97.8593Z" fill="#9AC5E5"/>
<path d="M170.6 97.8593C170.964 97.1069 172.036 97.1069 172.4 97.8593L176.368 106.057C176.512 106.354 176.794 106.561 177.121 106.61L186.028 107.937C186.842 108.059 187.169 109.056 186.586 109.636L180.117 116.06C179.887 116.289 179.782 116.615 179.836 116.935L181.359 125.989C181.497 126.809 180.633 127.429 179.9 127.036L171.973 122.785C171.677 122.627 171.323 122.627 171.027 122.785L163.1 127.036C162.367 127.429 161.503 126.809 161.641 125.989L163.164 116.935C163.218 116.615 163.113 116.289 162.883 116.06L156.414 109.636C155.831 109.056 156.158 108.059 156.972 107.937L165.879 106.61C166.206 106.561 166.488 106.354 166.632 106.057L170.6 97.8593Z" fill="#9AC5E5"/>
<path d="M211.6 97.8593C211.964 97.1069 213.036 97.1069 213.4 97.8593L217.368 106.057C217.512 106.354 217.794 106.561 218.121 106.61L227.028 107.937C227.842 108.059 228.169 109.056 227.586 109.636L221.117 116.06C220.887 116.289 220.782 116.615 220.836 116.935L222.359 125.989C222.497 126.809 221.633 127.429 220.9 127.036L212.973 122.785C212.677 122.627 212.323 122.627 212.027 122.785L204.1 127.036C203.367 127.429 202.503 126.809 202.641 125.989L204.164 116.935C204.218 116.615 204.113 116.289 203.883 116.06L197.414 109.636C196.831 109.056 197.158 108.059 197.972 107.937L206.879 106.61C207.206 106.561 207.488 106.354 207.632 106.057L211.6 97.8593Z" fill="#D9D9D9"/>
<path d="M252.105 97.7942C252.473 97.056 253.527 97.056 253.895 97.7942L258.019 106.064C258.166 106.357 258.447 106.56 258.771 106.607L267.979 107.939C268.802 108.058 269.128 109.071 268.53 109.649L261.882 116.057C261.643 116.287 261.534 116.621 261.591 116.947L263.161 126.01C263.302 126.825 262.448 127.45 261.714 127.067L253.462 122.772C253.172 122.622 252.828 122.622 252.538 122.772L244.286 127.067C243.552 127.45 242.698 126.825 242.839 126.01L244.409 116.947C244.466 116.621 244.357 116.287 244.118 116.057L237.47 109.649C236.872 109.071 237.198 108.058 238.021 107.939L247.229 106.607C247.553 106.56 247.834 106.357 247.981 106.064L252.105 97.7942Z" fill="#D9D9D9"/>
<g filter="url(#filter1_d_1357_164)">
<rect x="15" y="10" width="313" height="221" rx="18" fill="#333742"/>
</g>
<path d="M38.5625 215V200.859H43.3672C46.6777 200.859 48.1914 202.695 48.1914 205.215C48.1914 207.09 47.3516 208.555 45.5547 209.18L48.7383 215H46.6875L43.7285 209.502C43.6211 209.512 43.5039 209.512 43.3867 209.512H40.3203V215H38.5625ZM40.3203 207.91H43.3086C45.5645 207.91 46.4434 206.895 46.4531 205.215C46.4434 203.525 45.5645 202.422 43.2891 202.422H40.3203V207.91ZM50.0078 211.992C50.0078 209.561 52.1562 209.004 53.9922 208.867C54.6758 208.818 56.3848 208.721 56.8633 208.711V207.852C56.8633 206.504 56.0625 205.723 54.4609 205.723C53.123 205.723 52.3125 206.338 52.0781 207.148H50.3203C50.5352 205.439 52.1953 204.258 54.5391 204.258C55.9258 204.258 58.5332 204.668 58.5234 208.008V215H56.8633V213.555H56.7852C56.4336 214.268 55.4668 215.244 53.6211 215.254C51.6094 215.244 50.0078 214.062 50.0078 211.992ZM51.6875 212.07C51.6973 213.193 52.625 213.76 53.9141 213.75C55.8086 213.76 56.8633 212.49 56.8633 211.152V210.088C56.3652 210.117 54.6953 210.244 54.1875 210.273C52.6641 210.371 51.6973 210.908 51.6875 212.07ZM65.8477 204.395V205.801H63.6211V211.953C63.6113 213.311 64.2949 213.535 65.0078 213.535C65.3105 213.535 65.7598 213.506 66.0039 213.496V215.059C65.7402 215.098 65.3301 215.137 64.832 215.137C63.416 215.137 61.9316 214.258 61.9219 212.383V205.801H60.3203V204.395H61.9219V201.855H63.6211V204.395H65.8477ZM68.0156 215V204.395H69.6953V215H68.0156ZM67.6836 201.523C67.6738 200.898 68.2109 200.4 68.8555 200.41C69.5 200.4 70.0371 200.898 70.0469 201.523C70.0371 202.139 69.5 202.637 68.8555 202.637C68.2109 202.637 67.6738 202.139 67.6836 201.523ZM74.0508 208.633V215H72.3711V204.395H73.9922V206.055H74.1289C74.627 204.971 75.623 204.258 77.2344 204.258C79.3828 204.258 80.8184 205.566 80.8086 208.262V215H79.1289V208.379C79.1289 206.738 78.2305 205.762 76.7266 205.762C75.1836 205.762 74.0508 206.797 74.0508 208.633ZM87.8008 219.199C85.2324 219.199 83.4941 218.076 83.3086 216.113H85.0664C85.291 217.197 86.2969 217.734 87.8008 217.734C89.6172 217.734 90.7305 216.943 90.7305 215.195V213.047H90.5938C90.2324 213.633 89.5586 214.834 87.5078 214.844C84.9297 214.834 82.9961 212.891 82.9961 209.551C82.9961 206.289 84.8613 204.258 87.5273 204.258C89.5879 204.258 90.252 205.508 90.6328 206.074H90.7695V204.395H92.4102V215.293C92.4004 218.027 90.3887 219.199 87.8008 219.199ZM84.6953 209.609C84.6953 211.807 85.7305 213.34 87.7422 213.34C89.6855 213.34 90.7598 211.943 90.7695 209.609C90.7598 207.334 89.7148 205.762 87.7422 205.762C85.7012 205.762 84.6953 207.471 84.6953 209.609Z" fill="#DFDFDF"/>
<path d="M28.5 189H319" stroke="#DFDFDF" stroke-width="0.5"/>
<path d="M89.1051 97.7942C89.4733 97.056 90.5267 97.056 90.8949 97.7942L95.0194 106.064C95.1657 106.357 95.4466 106.56 95.7711 106.607L104.979 107.939C105.802 108.058 106.128 109.071 105.53 109.649L98.8819 116.057C98.6431 116.287 98.5339 116.621 98.5906 116.947L100.161 126.01C100.302 126.825 99.4483 127.45 98.7141 127.067L90.4617 122.772C90.1723 122.622 89.8277 122.622 89.5383 122.772L81.2859 127.067C80.5517 127.45 79.6976 126.825 79.8389 126.01L81.4094 116.947C81.4661 116.621 81.3569 116.287 81.1181 116.057L74.4703 109.649C73.8715 109.071 74.198 108.058 75.0212 107.939L84.2289 106.607C84.5534 106.56 84.8343 106.357 84.9806 106.064L89.1051 97.7942Z" fill="#9AC5E5"/>
<path d="M129.6 97.8593C129.964 97.1069 131.036 97.1069 131.4 97.8593L135.368 106.057C135.512 106.354 135.794 106.561 136.121 106.61L145.028 107.937C145.842 108.059 146.169 109.056 145.586 109.636L139.117 116.06C138.887 116.289 138.782 116.615 138.836 116.935L140.359 125.989C140.497 126.809 139.633 127.429 138.9 127.036L130.973 122.785C130.677 122.627 130.323 122.627 130.027 122.785L122.1 127.036C121.367 127.429 120.503 126.809 120.641 125.989L122.164 116.935C122.218 116.615 122.113 116.289 121.883 116.06L115.414 109.636C114.831 109.056 115.158 108.059 115.972 107.937L124.879 106.61C125.206 106.561 125.488 106.354 125.632 106.057L129.6 97.8593Z" fill="#9AC5E5"/>
<path d="M170.6 97.8593C170.964 97.1069 172.036 97.1069 172.4 97.8593L176.368 106.057C176.512 106.354 176.794 106.561 177.121 106.61L186.028 107.937C186.842 108.059 187.169 109.056 186.586 109.636L180.117 116.06C179.887 116.289 179.782 116.615 179.836 116.935L181.359 125.989C181.497 126.809 180.633 127.429 179.9 127.036L171.973 122.785C171.677 122.627 171.323 122.627 171.027 122.785L163.1 127.036C162.367 127.429 161.503 126.809 161.641 125.989L163.164 116.935C163.218 116.615 163.113 116.289 162.883 116.06L156.414 109.636C155.831 109.056 156.158 108.059 156.972 107.937L165.879 106.61C166.206 106.561 166.488 106.354 166.632 106.057L170.6 97.8593Z" fill="#9AC5E5"/>
<path d="M211.6 97.8593C211.964 97.1069 213.036 97.1069 213.4 97.8593L217.368 106.057C217.512 106.354 217.794 106.561 218.121 106.61L227.028 107.937C227.842 108.059 228.169 109.056 227.586 109.636L221.117 116.06C220.887 116.289 220.782 116.615 220.836 116.935L222.359 125.989C222.497 126.809 221.633 127.429 220.9 127.036L212.973 122.785C212.677 122.627 212.323 122.627 212.027 122.785L204.1 127.036C203.367 127.429 202.503 126.809 202.641 125.989L204.164 116.935C204.218 116.615 204.113 116.289 203.883 116.06L197.414 109.636C196.831 109.056 197.158 108.059 197.972 107.937L206.879 106.61C207.206 106.561 207.488 106.354 207.632 106.057L211.6 97.8593Z" fill="#D9D9D9"/>
<path d="M252.105 97.7942C252.473 97.056 253.527 97.056 253.895 97.7942L258.019 106.064C258.166 106.357 258.447 106.56 258.771 106.607L267.979 107.939C268.802 108.058 269.128 109.071 268.53 109.649L261.882 116.057C261.643 116.287 261.534 116.621 261.591 116.947L263.161 126.01C263.302 126.825 262.448 127.45 261.714 127.067L253.462 122.772C253.172 122.622 252.828 122.622 252.538 122.772L244.286 127.067C243.552 127.45 242.698 126.825 242.839 126.01L244.409 116.947C244.466 116.621 244.357 116.287 244.118 116.057L237.47 109.649C236.872 109.071 237.198 108.058 238.021 107.939L247.229 106.607C247.553 106.56 247.834 106.357 247.981 106.064L252.105 97.7942Z" fill="#D9D9D9"/>
<defs>
<filter id="filter0_d_1357_164" x="0" y="0" width="343" height="251" filterUnits="userSpaceOnUse" color-interpolation-filters="sRGB">
<feFlood flood-opacity="0" result="BackgroundImageFix"/>
<feColorMatrix in="SourceAlpha" type="matrix" values="0 0 0 0 0 0 0 0 0 0 0 0 0 0 0 0 0 0 127 0" result="hardAlpha"/>
<feOffset dy="5"/>
<feGaussianBlur stdDeviation="7.5"/>
<feComposite in2="hardAlpha" operator="out"/>
<feColorMatrix type="matrix" values="0 0 0 0 0 0 0 0 0 0 0 0 0 0 0 0 0 0 0.25 0"/>
<feBlend mode="normal" in2="BackgroundImageFix" result="effect1_dropShadow_1357_164"/>
<feBlend mode="normal" in="SourceGraphic" in2="effect1_dropShadow_1357_164" result="shape"/>
</filter>
<filter id="filter1_d_1357_164" x="0" y="0" width="343" height="251" filterUnits="userSpaceOnUse" color-interpolation-filters="sRGB">
<feFlood flood-opacity="0" result="BackgroundImageFix"/>
<feColorMatrix in="SourceAlpha" type="matrix" values="0 0 0 0 0 0 0 0 0 0 0 0 0 0 0 0 0 0 127 0" result="hardAlpha"/>
<feOffset dy="5"/>
<feGaussianBlur stdDeviation="7.5"/>
<feComposite in2="hardAlpha" operator="out"/>
<feColorMatrix type="matrix" values="0 0 0 0 0 0 0 0 0 0 0 0 0 0 0 0 0 0 0.25 0"/>
<feBlend mode="normal" in2="BackgroundImageFix" result="effect1_dropShadow_1357_164"/>
<feBlend mode="normal" in="SourceGraphic" in2="effect1_dropShadow_1357_164" result="shape"/>
</filter>
</defs>
</svg>
