<svg width="50" height="49" viewBox="0 0 50 49" fill="none" xmlns="http://www.w3.org/2000/svg">
<path d="M37.5645 33.9261L46.4868 42.67L43.5406 45.5573L34.6183 36.8135C31.4102 39.3288 27.3416 40.8335 22.9166 40.8335C12.5666 40.8335 4.16663 32.6015 4.16663 22.4585C4.16663 12.3155 12.5666 4.0835 22.9166 4.0835C33.2666 4.0835 41.6666 12.3155 41.6666 22.4585C41.6666 26.795 40.1312 30.7822 37.5645 33.9261ZM33.3848 32.4112C35.9323 29.8383 37.5 26.3287 37.5 22.4585C37.5 14.5623 30.9739 8.16683 22.9166 8.16683C14.8593 8.16683 8.33329 14.5623 8.33329 22.4585C8.33329 30.3546 14.8593 36.7502 22.9166 36.7502C26.8658 36.7502 30.447 35.2138 33.0725 32.7173L33.3848 32.4112Z" fill="#B9B9B9"/>
</svg>
