<svg width="31" height="31" viewBox="0 0 31 31" fill="none" xmlns="http://www.w3.org/2000/svg">
<g opacity="0.8">
<path d="M14.2083 2.58325C20.6253 2.58325 25.8333 7.79125 25.8333 14.2083C25.8333 20.6253 20.6253 25.8333 14.2083 25.8333C7.79131 25.8333 2.58331 20.6253 2.58331 14.2083C2.58331 7.79125 7.79131 2.58325 14.2083 2.58325ZM14.2083 23.2499C19.2038 23.2499 23.25 19.2038 23.25 14.2083C23.25 9.21273 19.2038 5.16659 14.2083 5.16659C9.21279 5.16659 5.16665 9.21273 5.16665 14.2083C5.16665 19.2038 9.21279 23.2499 14.2083 23.2499ZM25.1685 23.3418L28.8218 26.9951L26.9952 28.8218L23.3418 25.1684L25.1685 23.3418Z" fill="black"/>
</g>
</svg>
