<svg width="343" height="251" viewBox="0 0 343 251" fill="none" xmlns="http://www.w3.org/2000/svg">
<g filter="url(#filter0_d_751_700)">
<rect x="15" y="10" width="313" height="221" rx="18" fill="#333742"/>
</g>
<rect x="54" y="95" width="235" height="19" rx="4" fill="#5584A8"/>
<path d="M43.2773 206.414C43.1211 205.027 41.8516 204.227 40.1523 204.227C38.2773 204.227 37.0469 205.203 37.0469 206.551C37.0469 208.035 38.707 208.582 39.7812 208.855L41.1875 209.246C42.7109 209.637 45.1914 210.516 45.1914 213.152C45.1914 215.457 43.3359 217.254 40.0547 217.254C37.0078 217.254 35.1133 215.672 34.957 213.328H36.7539C36.9102 214.91 38.375 215.652 40.0547 215.652C42.0078 215.652 43.4727 214.656 43.4727 213.113C43.4727 211.746 42.1641 211.219 40.6797 210.789L38.9414 210.32C36.7148 209.676 35.3477 208.543 35.3477 206.629C35.3477 204.246 37.4766 202.664 40.2109 202.664C42.9453 202.664 44.918 204.266 44.9961 206.414H43.2773ZM51.9492 217.215C48.8828 217.215 46.9883 215.047 46.9883 211.785C46.9883 208.523 48.9023 206.258 51.793 206.258C54.0195 206.258 56.3633 207.625 56.3633 211.551V212.254H48.668C48.7461 214.5 50.0547 215.73 51.9492 215.73C53.2188 215.73 54.0195 215.184 54.4102 214.52H56.207C55.6992 216.121 54.1367 217.215 51.9492 217.215ZM48.6875 210.828H54.6641C54.6641 209.051 53.5312 207.742 51.793 207.742C49.957 207.742 48.7852 209.188 48.6875 210.828ZM60.2305 202.859V217H58.5508V202.859H60.2305ZM67.3594 217.215C64.293 217.215 62.3984 215.047 62.3984 211.785C62.3984 208.523 64.3125 206.258 67.2031 206.258C69.4297 206.258 71.7734 207.625 71.7734 211.551V212.254H64.0781C64.1562 214.5 65.4648 215.73 67.3594 215.73C68.6289 215.73 69.4297 215.184 69.8203 214.52H71.6172C71.1094 216.121 69.5469 217.215 67.3594 217.215ZM64.0977 210.828H70.0742C70.0742 209.051 68.9414 207.742 67.2031 207.742C65.3672 207.742 64.1953 209.188 64.0977 210.828ZM78.2969 217.215C75.2891 217.215 73.4531 214.93 73.4531 211.746C73.4531 208.523 75.3672 206.258 78.2578 206.258C80.5234 206.258 82.2031 207.586 82.4766 209.598H80.7969C80.5625 208.621 79.7031 207.742 78.2969 207.742C76.4023 207.742 75.1328 209.305 75.1328 211.688C75.1328 214.148 76.3633 215.711 78.2969 215.711C79.5469 215.711 80.5039 215.047 80.7969 213.875H82.4766C82.2031 215.77 80.6602 217.215 78.2969 217.215ZM89.1758 206.395V207.801H86.9492V213.953C86.9492 215.32 87.6133 215.535 88.3359 215.535C88.6484 215.535 89.0781 215.516 89.332 215.496V217.059C89.0781 217.098 88.6484 217.137 88.1602 217.137C86.7539 217.137 85.25 216.258 85.25 214.383V207.801H83.6484V206.395H85.25V203.855H86.9492V206.395H89.1758Z" fill="#DFDFDF"/>
<path d="M68.2773 43.4141C68.1309 42.0273 66.8418 41.2266 65.1523 41.2266C63.2773 41.2266 62.0566 42.2031 62.0469 43.5508C62.0566 45.0352 63.707 45.5918 64.7812 45.8555L66.1875 46.2461C67.7012 46.6367 70.1914 47.5059 70.1914 50.1523C70.1914 52.457 68.3359 54.2441 65.0547 54.2539C62.0078 54.2441 60.123 52.6719 59.957 50.3281H61.7539C61.9004 51.9102 63.375 52.6621 65.0547 52.6523C67.0078 52.6621 68.4727 51.6562 68.4727 50.1133C68.4727 48.7363 67.1641 48.209 65.6797 47.7891L63.9414 47.3203C61.7246 46.6758 60.3379 45.543 60.3477 43.6289C60.3379 41.2363 62.4668 39.6641 65.2109 39.6641C67.9551 39.6641 69.9277 41.2656 69.9961 43.4141H68.2773ZM76.9492 54.2148C73.8828 54.2246 71.9883 52.0371 71.9883 48.7852C71.9883 45.5234 73.9121 43.2578 76.793 43.2578C79.0195 43.2578 81.373 44.625 81.3633 48.5508V49.2539H73.668C73.7559 51.5 75.0645 52.7305 76.9492 52.7305C78.2188 52.7305 79.0195 52.1738 79.4102 51.5195H81.207C80.709 53.1309 79.1367 54.2246 76.9492 54.2148ZM73.6777 47.8281H79.6641C79.6543 46.0605 78.541 44.7422 76.793 44.7422C74.957 44.7422 73.7949 46.1875 73.6777 47.8281ZM85.2305 39.8594V54H83.5508V39.8594H85.2305ZM92.3594 54.2148C89.293 54.2246 87.3984 52.0371 87.3984 48.7852C87.3984 45.5234 89.3223 43.2578 92.2031 43.2578C94.4297 43.2578 96.7832 44.625 96.7734 48.5508V49.2539H89.0781C89.166 51.5 90.4746 52.7305 92.3594 52.7305C93.6289 52.7305 94.4297 52.1738 94.8203 51.5195H96.6172C96.1191 53.1309 94.5469 54.2246 92.3594 54.2148ZM89.0879 47.8281H95.0742C95.0645 46.0605 93.9512 44.7422 92.2031 44.7422C90.3672 44.7422 89.2051 46.1875 89.0879 47.8281ZM103.297 54.2148C100.289 54.2246 98.4531 51.9297 98.4531 48.7461C98.4531 45.5234 100.377 43.2578 103.258 43.2578C105.514 43.2578 107.213 44.5957 107.477 46.5977H105.797C105.553 45.6309 104.713 44.7422 103.297 44.7422C101.402 44.7422 100.143 46.3047 100.133 48.6875C100.143 51.1387 101.373 52.7109 103.297 52.7109C104.547 52.7109 105.504 52.0371 105.797 50.875H107.477C107.213 52.7695 105.65 54.2246 103.297 54.2148ZM114.176 43.3945V44.8008H111.949V50.9531C111.939 52.3105 112.623 52.5352 113.336 52.5352C113.639 52.5352 114.088 52.5059 114.332 52.4961V54.0586C114.068 54.0977 113.658 54.1367 113.16 54.1367C111.744 54.1367 110.26 53.2578 110.25 51.3828V44.8008H108.648V43.3945H110.25V40.8555H111.949V43.3945H114.176Z" fill="#BABABA"/>
<path d="M67.2041 84.1611C65.1167 84.1685 63.6665 82.4912 63.6738 80.0596C63.6665 77.6133 65.1167 75.936 67.2041 75.9287C69.2842 75.936 70.7271 77.6133 70.7197 80.0596C70.7271 82.4912 69.2842 84.1685 67.2041 84.1611ZM64.6699 80.0596C64.6699 81.8027 65.5635 83.2676 67.2041 83.2676C68.8301 83.2676 69.7236 81.8027 69.7236 80.0596C69.7236 78.3091 68.8301 76.8296 67.2041 76.8369C65.5708 76.8296 64.6699 78.3164 64.6699 80.0596ZM72.4629 86.9883V76.0459H73.4297V77.5254H73.5469C73.8691 76.8442 74.4917 75.936 75.9639 75.9287C77.9268 75.936 79.2598 77.5693 79.2598 80.0449C79.2598 82.5205 77.9268 84.1685 75.9785 84.1611C74.5283 84.1685 73.8618 83.2529 73.5469 82.5645H73.4736V86.9883H72.4629ZM73.459 80.0303C73.4517 81.9126 74.3232 83.2603 75.8467 83.2676C77.4067 83.2603 78.2563 81.8467 78.2637 80.0303C78.2563 78.2212 77.4214 76.8369 75.8467 76.8369C74.3013 76.8369 73.4517 78.1479 73.459 80.0303ZM84.2109 76.0459V76.8955H82.541V81.876C82.5337 82.8794 83.0977 83.1577 83.6982 83.165L84.3574 83.1357V84.0732C84.1963 84.0879 83.9473 84.1172 83.6104 84.1172C82.5776 84.1172 81.5303 83.4434 81.5303 82.125V76.8955H80.3438V76.0459H81.5303V74.1416H82.541V76.0459H84.2109ZM86.0127 84V76.0459H87.0088V84H86.0127ZM85.793 73.9951C85.793 73.6069 86.1226 73.2993 86.5254 73.292C86.9209 73.2993 87.2505 73.6069 87.2578 73.9951C87.2505 74.3833 86.9209 74.6909 86.5254 74.6836C86.1226 74.6909 85.793 74.3833 85.793 73.9951ZM92.2969 84.1611C90.2095 84.1685 88.7593 82.4912 88.7666 80.0596C88.7593 77.6133 90.2095 75.936 92.2969 75.9287C94.377 75.936 95.8198 77.6133 95.8125 80.0596C95.8198 82.4912 94.377 84.1685 92.2969 84.1611ZM89.7627 80.0596C89.7627 81.8027 90.6562 83.2676 92.2969 83.2676C93.9229 83.2676 94.8164 81.8027 94.8164 80.0596C94.8164 78.3091 93.9229 76.8296 92.2969 76.8369C90.6636 76.8296 89.7627 78.3164 89.7627 80.0596ZM98.5664 79.0635V84H97.5557V76.0459H98.5225V77.3057H98.6104C98.9912 76.478 99.7822 75.9434 100.954 75.9434C102.565 75.9434 103.649 76.9614 103.649 78.8584V84H102.653V78.9316C102.653 77.6499 101.892 76.8442 100.69 76.8516C99.4526 76.8442 98.5591 77.6865 98.5664 79.0635ZM112.761 73.3945V84H111.706V74.4785H111.647L109.143 76.1338V75.0645L111.677 73.3945H112.761Z" fill="#BABABA"/>
<path d="M67.2041 109.161C65.124 109.161 63.6738 107.491 63.6738 105.06C63.6738 102.613 65.124 100.929 67.2041 100.929C69.2842 100.929 70.7197 102.613 70.7197 105.06C70.7197 107.491 69.2842 109.161 67.2041 109.161ZM67.2041 108.268C68.8301 108.268 69.7236 106.803 69.7236 105.06C69.7236 103.316 68.8301 101.837 67.2041 101.837C65.5635 101.837 64.6699 103.316 64.6699 105.06C64.6699 106.803 65.5635 108.268 67.2041 108.268ZM72.4629 111.988V101.046H73.4297V102.525H73.5469C73.8691 101.852 74.499 100.929 75.9639 100.929C77.9268 100.929 79.2598 102.569 79.2598 105.045C79.2598 107.521 77.9268 109.161 75.9785 109.161C74.5283 109.161 73.8691 108.253 73.5469 107.564H73.4736V111.988H72.4629ZM73.459 105.03C73.459 106.92 74.3232 108.268 75.8467 108.268C77.3994 108.268 78.2637 106.847 78.2637 105.03C78.2637 103.229 77.4141 101.837 75.8467 101.837C74.3086 101.837 73.459 103.155 73.459 105.03ZM84.2109 101.046V101.896H82.541V106.876C82.541 107.887 83.0977 108.165 83.6982 108.165C83.9033 108.165 84.1963 108.136 84.3574 108.136V109.073C84.1963 109.088 83.9473 109.117 83.6104 109.117C82.5703 109.117 81.5303 108.443 81.5303 107.125V101.896H80.3438V101.046H81.5303V99.1416H82.541V101.046H84.2109ZM86.0127 109V101.046H87.0088V109H86.0127ZM86.5254 99.6836C86.1299 99.6836 85.793 99.376 85.793 98.9951C85.793 98.6143 86.1299 98.292 86.5254 98.292C86.9209 98.292 87.2578 98.6143 87.2578 98.9951C87.2578 99.376 86.9209 99.6836 86.5254 99.6836ZM92.2969 109.161C90.2168 109.161 88.7666 107.491 88.7666 105.06C88.7666 102.613 90.2168 100.929 92.2969 100.929C94.377 100.929 95.8125 102.613 95.8125 105.06C95.8125 107.491 94.377 109.161 92.2969 109.161ZM92.2969 108.268C93.9229 108.268 94.8164 106.803 94.8164 105.06C94.8164 103.316 93.9229 101.837 92.2969 101.837C90.6562 101.837 89.7627 103.316 89.7627 105.06C89.7627 106.803 90.6562 108.268 92.2969 108.268ZM98.5664 104.063V109H97.5557V101.046H98.5225V102.306H98.6104C98.9912 101.485 99.7822 100.943 100.954 100.943C102.565 100.943 103.649 101.969 103.649 103.858V109H102.653V103.932C102.653 102.643 101.892 101.852 100.69 101.852C99.46 101.852 98.5664 102.687 98.5664 104.063ZM109.377 109V108.238L112.966 104.356C114.328 102.877 114.885 102.13 114.899 101.134C114.885 99.9619 113.933 99.1709 112.673 99.1709C111.325 99.1709 110.461 100.05 110.461 101.295H109.465C109.465 99.5078 110.842 98.248 112.702 98.248C114.548 98.248 115.866 99.5078 115.866 101.134C115.866 102.32 115.324 103.214 113.493 105.147L110.856 107.989V108.062H116.188V109H109.377Z" fill="#2A6490"/>
<path d="M67.2041 134.161C65.1167 134.168 63.6665 132.491 63.6738 130.06C63.6665 127.613 65.1167 125.936 67.2041 125.929C69.2842 125.936 70.7271 127.613 70.7197 130.06C70.7271 132.491 69.2842 134.168 67.2041 134.161ZM64.6699 130.06C64.6699 131.803 65.5635 133.268 67.2041 133.268C68.8301 133.268 69.7236 131.803 69.7236 130.06C69.7236 128.309 68.8301 126.83 67.2041 126.837C65.5708 126.83 64.6699 128.316 64.6699 130.06ZM72.4629 136.988V126.046H73.4297V127.525H73.5469C73.8691 126.844 74.4917 125.936 75.9639 125.929C77.9268 125.936 79.2598 127.569 79.2598 130.045C79.2598 132.521 77.9268 134.168 75.9785 134.161C74.5283 134.168 73.8618 133.253 73.5469 132.564H73.4736V136.988H72.4629ZM73.459 130.03C73.4517 131.913 74.3232 133.26 75.8467 133.268C77.4067 133.26 78.2563 131.847 78.2637 130.03C78.2563 128.221 77.4214 126.837 75.8467 126.837C74.3013 126.837 73.4517 128.148 73.459 130.03ZM84.2109 126.046V126.896H82.541V131.876C82.5337 132.879 83.0977 133.158 83.6982 133.165L84.3574 133.136V134.073C84.1963 134.088 83.9473 134.117 83.6104 134.117C82.5776 134.117 81.5303 133.443 81.5303 132.125V126.896H80.3438V126.046H81.5303V124.142H82.541V126.046H84.2109ZM86.0127 134V126.046H87.0088V134H86.0127ZM85.793 123.995C85.793 123.607 86.1226 123.299 86.5254 123.292C86.9209 123.299 87.2505 123.607 87.2578 123.995C87.2505 124.383 86.9209 124.691 86.5254 124.684C86.1226 124.691 85.793 124.383 85.793 123.995ZM92.2969 134.161C90.2095 134.168 88.7593 132.491 88.7666 130.06C88.7593 127.613 90.2095 125.936 92.2969 125.929C94.377 125.936 95.8198 127.613 95.8125 130.06C95.8198 132.491 94.377 134.168 92.2969 134.161ZM89.7627 130.06C89.7627 131.803 90.6562 133.268 92.2969 133.268C93.9229 133.268 94.8164 131.803 94.8164 130.06C94.8164 128.309 93.9229 126.83 92.2969 126.837C90.6636 126.83 89.7627 128.316 89.7627 130.06ZM98.5664 129.063V134H97.5557V126.046H98.5225V127.306H98.6104C98.9912 126.478 99.7822 125.943 100.954 125.943C102.565 125.943 103.649 126.961 103.649 128.858V134H102.653V128.932C102.653 127.65 101.892 126.844 100.69 126.852C99.4526 126.844 98.5591 127.687 98.5664 129.063ZM112.937 134.146C110.9 134.146 109.421 133.004 109.362 131.334H110.417C110.476 132.462 111.552 133.209 112.922 133.209C114.416 133.209 115.478 132.345 115.485 131.144C115.478 129.891 114.431 129.02 112.717 129.02H112.058V128.082H112.717C114.108 128.089 115.112 127.306 115.119 126.104C115.112 124.962 114.255 124.164 112.951 124.171C111.706 124.164 110.651 124.896 110.622 126.046H109.611C109.648 124.383 111.127 123.248 112.966 123.248C114.899 123.248 116.13 124.53 116.115 126.061C116.13 127.269 115.397 128.17 114.255 128.492V128.565C115.646 128.807 116.503 129.803 116.496 131.158C116.503 132.865 114.995 134.146 112.937 134.146Z" fill="#BABABA"/>
<path d="M67.2041 159.161C65.1167 159.168 63.6665 157.491 63.6738 155.06C63.6665 152.613 65.1167 150.936 67.2041 150.929C69.2842 150.936 70.7271 152.613 70.7197 155.06C70.7271 157.491 69.2842 159.168 67.2041 159.161ZM64.6699 155.06C64.6699 156.803 65.5635 158.268 67.2041 158.268C68.8301 158.268 69.7236 156.803 69.7236 155.06C69.7236 153.309 68.8301 151.83 67.2041 151.837C65.5708 151.83 64.6699 153.316 64.6699 155.06ZM72.4629 161.988V151.046H73.4297V152.525H73.5469C73.8691 151.844 74.4917 150.936 75.9639 150.929C77.9268 150.936 79.2598 152.569 79.2598 155.045C79.2598 157.521 77.9268 159.168 75.9785 159.161C74.5283 159.168 73.8618 158.253 73.5469 157.564H73.4736V161.988H72.4629ZM73.459 155.03C73.4517 156.913 74.3232 158.26 75.8467 158.268C77.4067 158.26 78.2563 156.847 78.2637 155.03C78.2563 153.221 77.4214 151.837 75.8467 151.837C74.3013 151.837 73.4517 153.148 73.459 155.03ZM84.2109 151.046V151.896H82.541V156.876C82.5337 157.879 83.0977 158.158 83.6982 158.165L84.3574 158.136V159.073C84.1963 159.088 83.9473 159.117 83.6104 159.117C82.5776 159.117 81.5303 158.443 81.5303 157.125V151.896H80.3438V151.046H81.5303V149.142H82.541V151.046H84.2109ZM86.0127 159V151.046H87.0088V159H86.0127ZM85.793 148.995C85.793 148.607 86.1226 148.299 86.5254 148.292C86.9209 148.299 87.2505 148.607 87.2578 148.995C87.2505 149.383 86.9209 149.691 86.5254 149.684C86.1226 149.691 85.793 149.383 85.793 148.995ZM92.2969 159.161C90.2095 159.168 88.7593 157.491 88.7666 155.06C88.7593 152.613 90.2095 150.936 92.2969 150.929C94.377 150.936 95.8198 152.613 95.8125 155.06C95.8198 157.491 94.377 159.168 92.2969 159.161ZM89.7627 155.06C89.7627 156.803 90.6562 158.268 92.2969 158.268C93.9229 158.268 94.8164 156.803 94.8164 155.06C94.8164 153.309 93.9229 151.83 92.2969 151.837C90.6636 151.83 89.7627 153.316 89.7627 155.06ZM98.5664 154.063V159H97.5557V151.046H98.5225V152.306H98.6104C98.9912 151.478 99.7822 150.943 100.954 150.943C102.565 150.943 103.649 151.961 103.649 153.858V159H102.653V153.932C102.653 152.65 101.892 151.844 100.69 151.852C99.4526 151.844 98.5591 152.687 98.5664 154.063ZM109.128 156.744V155.895L113.962 148.395H115.222V155.821H116.672V156.744H115.222V159H114.226V156.744H109.128ZM110.285 155.821H114.226V149.786H114.123L110.285 155.748V155.821Z" fill="#BABABA"/>
<path d="M27 191H317.5" stroke="#DFDFDF" stroke-width="0.5"/>
<rect x="45.25" y="31.25" width="252.5" height="30.5" rx="15.25" stroke="#DFDFDF" stroke-width="0.5"/>
<rect x="45.25" y="67.25" width="252.5" height="98.5" rx="7.75" stroke="#DFDFDF" stroke-width="0.5"/>
<path d="M279.634 42.5C280.019 41.8333 280.981 41.8333 281.366 42.5L284.397 47.75C284.782 48.4167 284.301 49.25 283.531 49.25H277.469C276.699 49.25 276.218 48.4167 276.603 47.75L279.634 42.5Z" fill="#D9D9D9"/>
<path d="M58 92H285" stroke="#DFDFDF" stroke-width="0.5"/>
<path d="M58 116H285" stroke="#DFDFDF" stroke-width="0.5"/>
<path d="M58 140H285" stroke="#DFDFDF" stroke-width="0.5"/>
<defs>
<filter id="filter0_d_751_700" x="0" y="0" width="343" height="251" filterUnits="userSpaceOnUse" color-interpolation-filters="sRGB">
<feFlood flood-opacity="0" result="BackgroundImageFix"/>
<feColorMatrix in="SourceAlpha" type="matrix" values="0 0 0 0 0 0 0 0 0 0 0 0 0 0 0 0 0 0 127 0" result="hardAlpha"/>
<feOffset dy="5"/>
<feGaussianBlur stdDeviation="7.5"/>
<feComposite in2="hardAlpha" operator="out"/>
<feColorMatrix type="matrix" values="0 0 0 0 0 0 0 0 0 0 0 0 0 0 0 0 0 0 0.25 0"/>
<feBlend mode="normal" in2="BackgroundImageFix" result="effect1_dropShadow_751_700"/>
<feBlend mode="normal" in="SourceGraphic" in2="effect1_dropShadow_751_700" result="shape"/>
</filter>
</defs>
</svg>
