<svg width="343" height="251" viewBox="0 0 343 251" fill="none" xmlns="http://www.w3.org/2000/svg">
<g filter="url(#filter0_d_487_1160)">
<rect x="15" y="10" width="313" height="221" rx="18" fill="white"/>
</g>
<path d="M46.2773 204.414C46.1309 203.027 44.8418 202.227 43.1523 202.227C41.2773 202.227 40.0566 203.203 40.0469 204.551C40.0566 206.035 41.707 206.592 42.7812 206.855L44.1875 207.246C45.7012 207.637 48.1914 208.506 48.1914 211.152C48.1914 213.457 46.3359 215.244 43.0547 215.254C40.0078 215.244 38.123 213.672 37.957 211.328H39.7539C39.9004 212.91 41.375 213.662 43.0547 213.652C45.0078 213.662 46.4727 212.656 46.4727 211.113C46.4727 209.736 45.1641 209.209 43.6797 208.789L41.9414 208.32C39.7246 207.676 38.3379 206.543 38.3477 204.629C38.3379 202.236 40.4668 200.664 43.2109 200.664C45.9551 200.664 47.9277 202.266 47.9961 204.414H46.2773ZM50.4961 215V200.859H52.1758V209.082H52.3711L56.9609 204.395H59.0312L54.5586 208.936L59.3633 215H57.2344L53.2988 210L52.1758 211.045V215H50.4961ZM64.832 215.215C61.7656 215.225 59.8711 213.037 59.8711 209.785C59.8711 206.523 61.7949 204.258 64.6758 204.258C66.9023 204.258 69.2559 205.625 69.2461 209.551V210.254H61.5508C61.6387 212.5 62.9473 213.73 64.832 213.73C66.1016 213.73 66.9023 213.174 67.293 212.52H69.0898C68.5918 214.131 67.0195 215.225 64.832 215.215ZM61.5605 208.828H67.5469C67.5371 207.061 66.4238 205.742 64.6758 205.742C62.8398 205.742 61.6777 207.188 61.5605 208.828ZM73.1133 200.859V215H71.4336V200.859H73.1133ZM80.2422 215.215C77.1758 215.225 75.2812 213.037 75.2812 209.785C75.2812 206.523 77.2051 204.258 80.0859 204.258C82.3125 204.258 84.666 205.625 84.6562 209.551V210.254H76.9609C77.0488 212.5 78.3574 213.73 80.2422 213.73C81.5117 213.73 82.3125 213.174 82.7031 212.52H84.5C84.002 214.131 82.4297 215.225 80.2422 215.215ZM76.9707 208.828H82.957C82.9473 207.061 81.834 205.742 80.0859 205.742C78.25 205.742 77.0879 207.188 76.9707 208.828ZM91.4727 204.395V205.801H89.2461V211.953C89.2363 213.311 89.9199 213.535 90.6328 213.535C90.9355 213.535 91.3848 213.506 91.6289 213.496V215.059C91.3652 215.098 90.9551 215.137 90.457 215.137C89.041 215.137 87.5566 214.258 87.5469 212.383V205.801H85.9453V204.395H87.5469V201.855H89.2461V204.395H91.4727ZM97.8594 215.215C94.9688 215.225 93.0156 213.037 93.0156 209.746C93.0156 206.436 94.9688 204.258 97.8594 204.258C100.74 204.258 102.674 206.436 102.664 209.746C102.674 213.037 100.74 215.225 97.8594 215.215ZM94.6953 209.746C94.7051 211.865 95.7012 213.73 97.8594 213.73C99.998 213.73 100.984 211.865 100.984 209.746C100.984 207.637 99.998 205.742 97.8594 205.742C95.7012 205.742 94.7051 207.637 94.6953 209.746ZM106.551 208.633V215H104.871V204.395H106.492V206.055H106.629C107.127 204.971 108.123 204.258 109.734 204.258C111.883 204.258 113.318 205.566 113.309 208.262V215H111.629V208.379C111.629 206.738 110.73 205.762 109.227 205.762C107.684 205.762 106.551 206.797 106.551 208.633Z" fill="#474747"/>
<path d="M28.5 189H319" stroke="#494949" stroke-width="0.5"/>
<circle cx="54" cy="58" r="17" fill="#D9D9D9"/>
<rect x="37" y="87" width="273" height="22" rx="3" fill="#D9D9D9"/>
<rect x="37" y="114" width="273" height="22" rx="3" fill="#D9D9D9"/>
<rect x="37" y="141" width="273" height="22" rx="3" fill="#D9D9D9"/>
<defs>
<filter id="filter0_d_487_1160" x="0" y="0" width="343" height="251" filterUnits="userSpaceOnUse" color-interpolation-filters="sRGB">
<feFlood flood-opacity="0" result="BackgroundImageFix"/>
<feColorMatrix in="SourceAlpha" type="matrix" values="0 0 0 0 0 0 0 0 0 0 0 0 0 0 0 0 0 0 127 0" result="hardAlpha"/>
<feOffset dy="5"/>
<feGaussianBlur stdDeviation="7.5"/>
<feComposite in2="hardAlpha" operator="out"/>
<feColorMatrix type="matrix" values="0 0 0 0 0 0 0 0 0 0 0 0 0 0 0 0 0 0 0.25 0"/>
<feBlend mode="normal" in2="BackgroundImageFix" result="effect1_dropShadow_487_1160"/>
<feBlend mode="normal" in="SourceGraphic" in2="effect1_dropShadow_487_1160" result="shape"/>
</filter>
</defs>
</svg>
