<svg width="343" height="251" viewBox="0 0 343 251" fill="none" xmlns="http://www.w3.org/2000/svg">
<g filter="url(#filter0_d_751_736)">
<rect x="15" y="10" width="313" height="221" rx="18" fill="#333742"/>
</g>
<path d="M46.2773 204.414C46.1211 203.027 44.8516 202.227 43.1523 202.227C41.2773 202.227 40.0469 203.203 40.0469 204.551C40.0469 206.035 41.707 206.582 42.7812 206.855L44.1875 207.246C45.7109 207.637 48.1914 208.516 48.1914 211.152C48.1914 213.457 46.3359 215.254 43.0547 215.254C40.0078 215.254 38.1133 213.672 37.957 211.328H39.7539C39.9102 212.91 41.375 213.652 43.0547 213.652C45.0078 213.652 46.4727 212.656 46.4727 211.113C46.4727 209.746 45.1641 209.219 43.6797 208.789L41.9414 208.32C39.7148 207.676 38.3477 206.543 38.3477 204.629C38.3477 202.246 40.4766 200.664 43.2109 200.664C45.9453 200.664 47.918 202.266 47.9961 204.414H46.2773ZM50.4961 215V200.859H52.1758V209.082H52.3711L56.9609 204.395H59.0312L54.5586 208.926L59.3633 215H57.2344L53.3086 210L52.1758 211.035V215H50.4961ZM64.832 215.215C61.7656 215.215 59.8711 213.047 59.8711 209.785C59.8711 206.523 61.7852 204.258 64.6758 204.258C66.9023 204.258 69.2461 205.625 69.2461 209.551V210.254H61.5508C61.6289 212.5 62.9375 213.73 64.832 213.73C66.1016 213.73 66.9023 213.184 67.293 212.52H69.0898C68.582 214.121 67.0195 215.215 64.832 215.215ZM61.5703 208.828H67.5469C67.5469 207.051 66.4141 205.742 64.6758 205.742C62.8398 205.742 61.668 207.188 61.5703 208.828ZM73.1133 200.859V215H71.4336V200.859H73.1133ZM80.2422 215.215C77.1758 215.215 75.2812 213.047 75.2812 209.785C75.2812 206.523 77.1953 204.258 80.0859 204.258C82.3125 204.258 84.6562 205.625 84.6562 209.551V210.254H76.9609C77.0391 212.5 78.3477 213.73 80.2422 213.73C81.5117 213.73 82.3125 213.184 82.7031 212.52H84.5C83.9922 214.121 82.4297 215.215 80.2422 215.215ZM76.9805 208.828H82.957C82.957 207.051 81.8242 205.742 80.0859 205.742C78.25 205.742 77.0781 207.188 76.9805 208.828ZM91.4727 204.395V205.801H89.2461V211.953C89.2461 213.32 89.9102 213.535 90.6328 213.535C90.9453 213.535 91.375 213.516 91.6289 213.496V215.059C91.375 215.098 90.9453 215.137 90.457 215.137C89.0508 215.137 87.5469 214.258 87.5469 212.383V205.801H85.9453V204.395H87.5469V201.855H89.2461V204.395H91.4727ZM97.8594 215.215C94.9688 215.215 93.0156 213.047 93.0156 209.746C93.0156 206.445 94.9688 204.258 97.8594 204.258C100.73 204.258 102.664 206.445 102.664 209.746C102.664 213.047 100.73 215.215 97.8594 215.215ZM97.8594 213.73C99.9883 213.73 100.984 211.855 100.984 209.746C100.984 207.637 99.9883 205.742 97.8594 205.742C95.6914 205.742 94.6953 207.637 94.6953 209.746C94.6953 211.855 95.6914 213.73 97.8594 213.73ZM106.551 208.633V215H104.871V204.395H106.492V206.055H106.629C107.137 204.98 108.113 204.258 109.734 204.258C111.883 204.258 113.309 205.566 113.309 208.262V215H111.629V208.379C111.629 206.738 110.73 205.762 109.227 205.762C107.684 205.762 106.551 206.797 106.551 208.633Z" fill="#DFDFDF"/>
<path d="M28.5 189H319" stroke="#DFDFDF" stroke-width="0.5"/>
<circle cx="54" cy="58" r="17" fill="#2A2E39"/>
<rect x="37" y="87" width="273" height="22" rx="3" fill="#2A2E39"/>
<rect x="37" y="114" width="273" height="22" rx="3" fill="#2A2E39"/>
<rect x="37" y="141" width="273" height="22" rx="3" fill="#2A2E39"/>
<defs>
<filter id="filter0_d_751_736" x="0" y="0" width="343" height="251" filterUnits="userSpaceOnUse" color-interpolation-filters="sRGB">
<feFlood flood-opacity="0" result="BackgroundImageFix"/>
<feColorMatrix in="SourceAlpha" type="matrix" values="0 0 0 0 0 0 0 0 0 0 0 0 0 0 0 0 0 0 127 0" result="hardAlpha"/>
<feOffset dy="5"/>
<feGaussianBlur stdDeviation="7.5"/>
<feComposite in2="hardAlpha" operator="out"/>
<feColorMatrix type="matrix" values="0 0 0 0 0 0 0 0 0 0 0 0 0 0 0 0 0 0 0.25 0"/>
<feBlend mode="normal" in2="BackgroundImageFix" result="effect1_dropShadow_751_736"/>
<feBlend mode="normal" in="SourceGraphic" in2="effect1_dropShadow_751_736" result="shape"/>
</filter>
</defs>
</svg>
