<svg width="343" height="251" viewBox="0 0 343 251" fill="none" xmlns="http://www.w3.org/2000/svg">
<g filter="url(#filter0_d_751_717)">
<rect x="15" y="10" width="313" height="221" rx="18" fill="#333742"/>
</g>
<path d="M41.2773 204.414C41.1211 203.027 39.8516 202.227 38.1523 202.227C36.2773 202.227 35.0469 203.203 35.0469 204.551C35.0469 206.035 36.707 206.582 37.7812 206.855L39.1875 207.246C40.7109 207.637 43.1914 208.516 43.1914 211.152C43.1914 213.457 41.3359 215.254 38.0547 215.254C35.0078 215.254 33.1133 213.672 32.957 211.328H34.7539C34.9102 212.91 36.375 213.652 38.0547 213.652C40.0078 213.652 41.4727 212.656 41.4727 211.113C41.4727 209.746 40.1641 209.219 38.6797 208.789L36.9414 208.32C34.7148 207.676 33.3477 206.543 33.3477 204.629C33.3477 202.246 35.4766 200.664 38.2109 200.664C40.9453 200.664 42.918 202.266 42.9961 204.414H41.2773ZM45.4961 218.984V204.395H47.1172V206.074H47.3125C47.6641 205.508 48.3281 204.258 50.3789 204.258C53.0352 204.258 54.8906 206.367 54.8906 209.727C54.8906 213.086 53.0352 215.215 50.3984 215.215C48.3672 215.215 47.6641 213.965 47.3125 213.379H47.1758V218.984H45.4961ZM47.1367 209.688C47.1367 212.07 48.2109 213.711 50.1641 213.711C52.1758 213.711 53.2109 211.953 53.2109 209.688C53.2109 207.48 52.1953 205.762 50.1641 205.762C48.1719 205.762 47.1367 207.344 47.1367 209.688ZM57.0781 215V204.395H58.7578V215H57.0781ZM57.918 202.637C57.2734 202.637 56.7461 202.148 56.7461 201.523C56.7461 200.898 57.2734 200.41 57.918 200.41C58.5625 200.41 59.1094 200.898 59.1094 201.523C59.1094 202.148 58.5625 202.637 57.918 202.637ZM63.1133 208.633V215H61.4336V204.395H63.0547V206.055H63.1914C63.6992 204.98 64.6758 204.258 66.2969 204.258C68.4453 204.258 69.8711 205.566 69.8711 208.262V215H68.1914V208.379C68.1914 206.738 67.293 205.762 65.7891 205.762C64.2461 205.762 63.1133 206.797 63.1133 208.633ZM74.2461 208.633V215H72.5664V204.395H74.1875V206.055H74.3242C74.832 204.98 75.8086 204.258 77.4297 204.258C79.5781 204.258 81.0039 205.566 81.0039 208.262V215H79.3242V208.379C79.3242 206.738 78.4258 205.762 76.9219 205.762C75.3789 205.762 74.2461 206.797 74.2461 208.633ZM88.1523 215.215C85.0859 215.215 83.1914 213.047 83.1914 209.785C83.1914 206.523 85.1055 204.258 87.9961 204.258C90.2227 204.258 92.5664 205.625 92.5664 209.551V210.254H84.8711C84.9492 212.5 86.2578 213.73 88.1523 213.73C89.4219 213.73 90.2227 213.184 90.6133 212.52H92.4102C91.9023 214.121 90.3398 215.215 88.1523 215.215ZM84.8906 208.828H90.8672C90.8672 207.051 89.7344 205.742 87.9961 205.742C86.1602 205.742 84.9883 207.188 84.8906 208.828ZM94.7539 215V204.395H96.375V206.016H96.4922C96.8828 204.941 97.9766 204.219 99.2266 204.219C99.4805 204.219 99.9102 204.238 100.105 204.258V205.957C99.9883 205.918 99.5195 205.84 99.0898 205.84C97.5664 205.84 96.4336 206.895 96.4336 208.32V215H94.7539Z" fill="#DFDFDF"/>
<path d="M27 189H317.5" stroke="#DFDFDF" stroke-width="0.5"/>
<path d="M224 104.5C224 133.495 200.495 157 171.5 157C142.505 157 119 133.495 119 104.5C119 75.5051 142.505 52 171.5 52C200.495 52 224 75.5051 224 104.5ZM129.237 104.5C129.237 127.841 148.159 146.763 171.5 146.763C194.841 146.763 213.763 127.841 213.763 104.5C213.763 81.1588 194.841 62.237 171.5 62.237C148.159 62.237 129.237 81.1588 129.237 104.5Z" fill="#898989"/>
<path d="M164.358 57.6598C163.932 54.8652 165.854 52.228 168.677 52.076C175.781 51.6933 182.907 52.7579 189.618 55.2255C197.935 58.2834 205.342 63.3966 211.15 70.0886C216.958 76.7807 220.977 84.8339 222.834 93.498C224.333 100.489 224.383 107.695 223.005 114.675C222.457 117.448 219.575 118.979 216.869 118.164C214.162 117.349 212.661 114.495 213.144 111.709C214.063 106.398 213.961 100.944 212.825 95.6433C211.33 88.6686 208.094 82.1857 203.418 76.7985C198.743 71.4114 192.78 67.2952 186.085 64.8335C180.997 62.9626 175.612 62.0936 170.224 62.2563C167.399 62.3416 164.784 60.4544 164.358 57.6598Z" fill="#2A6490"/>
<defs>
<filter id="filter0_d_751_717" x="0" y="0" width="343" height="251" filterUnits="userSpaceOnUse" color-interpolation-filters="sRGB">
<feFlood flood-opacity="0" result="BackgroundImageFix"/>
<feColorMatrix in="SourceAlpha" type="matrix" values="0 0 0 0 0 0 0 0 0 0 0 0 0 0 0 0 0 0 127 0" result="hardAlpha"/>
<feOffset dy="5"/>
<feGaussianBlur stdDeviation="7.5"/>
<feComposite in2="hardAlpha" operator="out"/>
<feColorMatrix type="matrix" values="0 0 0 0 0 0 0 0 0 0 0 0 0 0 0 0 0 0 0.25 0"/>
<feBlend mode="normal" in2="BackgroundImageFix" result="effect1_dropShadow_751_717"/>
<feBlend mode="normal" in="SourceGraphic" in2="effect1_dropShadow_751_717" result="shape"/>
</filter>
</defs>
</svg>
