<svg width="22" height="22" viewBox="0 0 22 22" fill="none" xmlns="http://www.w3.org/2000/svg">
<path d="M11 17C7.68629 17 5 14.3137 5 11C5 7.68629 7.68629 5 11 5C14.3137 5 17 7.68629 17 11C17 14.3137 14.3137 17 11 17ZM10 0H12V3H10V0ZM10 19H12V22H10V19ZM2.51472 3.92893L3.92893 2.51472L6.05025 4.63604L4.63604 6.05025L2.51472 3.92893ZM15.9497 17.364L17.364 15.9497L19.4853 18.0711L18.0711 19.4853L15.9497 17.364ZM18.0711 2.51472L19.4853 3.92893L17.364 6.05025L15.9497 4.63604L18.0711 2.51472ZM4.63604 15.9497L6.05025 17.364L3.92893 19.4853L2.51472 18.0711L4.63604 15.9497ZM22 10V12H19V10H22ZM3 10V12H0V10H3Z" fill="#EDCE7B"/>
</svg>
