<svg width="343" height="251" viewBox="0 0 343 251" fill="none" xmlns="http://www.w3.org/2000/svg">
<g filter="url(#filter0_d_751_594)">
<rect x="15" y="10" width="313" height="221" rx="18" fill="#333742"/>
</g>
<rect x="131" y="111" width="80" height="34" rx="17" fill="#252C33"/>
<rect x="131" y="69" width="80" height="34" rx="17" fill="#2A6490"/>
<circle cx="148" cy="128" r="16" fill="#333742"/>
<circle cx="194" cy="86" r="16" fill="#A1A4A9"/>
<path d="M43.2773 204.414C43.1211 203.027 41.8516 202.227 40.1523 202.227C38.2773 202.227 37.0469 203.203 37.0469 204.551C37.0469 206.035 38.707 206.582 39.7812 206.855L41.1875 207.246C42.7109 207.637 45.1914 208.516 45.1914 211.152C45.1914 213.457 43.3359 215.254 40.0547 215.254C37.0078 215.254 35.1133 213.672 34.957 211.328H36.7539C36.9102 212.91 38.375 213.652 40.0547 213.652C42.0078 213.652 43.4727 212.656 43.4727 211.113C43.4727 209.746 42.1641 209.219 40.6797 208.789L38.9414 208.32C36.7148 207.676 35.3477 206.543 35.3477 204.629C35.3477 202.246 37.4766 200.664 40.2109 200.664C42.9453 200.664 44.918 202.266 44.9961 204.414H43.2773ZM49.8789 215L46.6562 204.395H48.4336L50.6992 212.48H50.7969L53.043 204.395H54.8398L57.0469 212.441H57.1641L59.4297 204.395H61.1875L57.9648 215H56.3047L54 206.914H53.8438L51.5586 215H49.8789ZM63.043 215V204.395H64.7227V215H63.043ZM63.8828 202.637C63.2383 202.637 62.7109 202.148 62.7109 201.523C62.7109 200.898 63.2383 200.41 63.8828 200.41C64.5273 200.41 65.0742 200.898 65.0742 201.523C65.0742 202.148 64.5273 202.637 63.8828 202.637ZM72.0273 204.395V205.801H69.8008V211.953C69.8008 213.32 70.4648 213.535 71.1875 213.535C71.5 213.535 71.9297 213.516 72.1836 213.496V215.059C71.9297 215.098 71.5 215.137 71.0117 215.137C69.6055 215.137 68.1016 214.258 68.1016 212.383V205.801H66.5V204.395H68.1016V201.855H69.8008V204.395H72.0273ZM78.4141 215.215C75.4062 215.215 73.5703 212.93 73.5703 209.746C73.5703 206.523 75.4844 204.258 78.375 204.258C80.6406 204.258 82.3203 205.586 82.5938 207.598H80.9141C80.6797 206.621 79.8203 205.742 78.4141 205.742C76.5195 205.742 75.25 207.305 75.25 209.688C75.25 212.148 76.4805 213.711 78.4141 213.711C79.6641 213.711 80.6211 213.047 80.9141 211.875H82.5938C82.3203 213.77 80.7773 215.215 78.4141 215.215ZM86.3438 208.633V215H84.6641V200.859H86.3438V206.055H86.4805C86.9688 204.961 87.9258 204.258 89.6055 204.258C91.7734 204.258 93.2188 205.547 93.2188 208.262V215H91.5391V208.379C91.5391 206.719 90.6211 205.762 89.0977 205.762C87.5156 205.762 86.3438 206.797 86.3438 208.633Z" fill="#DFDFDF"/>
<path d="M27 189H317.5" stroke="#DFDFDF" stroke-width="0.5"/>
<defs>
<filter id="filter0_d_751_594" x="0" y="0" width="343" height="251" filterUnits="userSpaceOnUse" color-interpolation-filters="sRGB">
<feFlood flood-opacity="0" result="BackgroundImageFix"/>
<feColorMatrix in="SourceAlpha" type="matrix" values="0 0 0 0 0 0 0 0 0 0 0 0 0 0 0 0 0 0 127 0" result="hardAlpha"/>
<feOffset dy="5"/>
<feGaussianBlur stdDeviation="7.5"/>
<feComposite in2="hardAlpha" operator="out"/>
<feColorMatrix type="matrix" values="0 0 0 0 0 0 0 0 0 0 0 0 0 0 0 0 0 0 0.25 0"/>
<feBlend mode="normal" in2="BackgroundImageFix" result="effect1_dropShadow_751_594"/>
<feBlend mode="normal" in="SourceGraphic" in2="effect1_dropShadow_751_594" result="shape"/>
</filter>
</defs>
</svg>
