<svg width="343" height="251" viewBox="0 0 343 251" fill="none" xmlns="http://www.w3.org/2000/svg">
<g filter="url(#filter0_d_656_4)">
<rect x="15" y="10" width="313" height="221" rx="18" fill="white"/>
</g>
<path d="M32.7812 202.422V200.859H43.4453V202.422H39.0117V215H37.2344V202.422H32.7812ZM48.4844 215.215C45.418 215.225 43.5234 213.037 43.5234 209.785C43.5234 206.523 45.4473 204.258 48.3281 204.258C50.5547 204.258 52.9082 205.625 52.8984 209.551V210.254H45.2031C45.291 212.5 46.5996 213.73 48.4844 213.73C49.7539 213.73 50.5547 213.174 50.9453 212.52H52.7422C52.2441 214.131 50.6719 215.225 48.4844 215.215ZM45.2129 208.828H51.1992C51.1895 207.061 50.0762 205.742 48.3281 205.742C46.4922 205.742 45.3301 207.188 45.2129 208.828ZM56.082 204.395L58.582 208.711L61.1016 204.395H63.0352L59.6172 209.688L63.0352 215H61.1211L58.582 210.898L56.082 215H54.1484L57.4883 209.688L54.1484 204.395H56.082ZM69.6953 204.395V205.801H67.4688V211.953C67.459 213.311 68.1426 213.535 68.8555 213.535C69.1582 213.535 69.6074 213.506 69.8516 213.496V215.059C69.5879 215.098 69.1777 215.137 68.6797 215.137C67.2637 215.137 65.7793 214.258 65.7695 212.383V205.801H64.168V204.395H65.7695V201.855H67.4688V204.395H69.6953ZM71.3555 211.992C71.3555 209.561 73.5039 209.004 75.3398 208.867C76.0234 208.818 77.7324 208.721 78.2109 208.711V207.852C78.2109 206.504 77.4102 205.723 75.8086 205.723C74.4707 205.723 73.6602 206.338 73.4258 207.148H71.668C71.8828 205.439 73.543 204.258 75.8867 204.258C77.2734 204.258 79.8809 204.668 79.8711 208.008V215H78.2109V213.555H78.1328C77.7812 214.268 76.8145 215.244 74.9688 215.254C72.957 215.244 71.3555 214.062 71.3555 211.992ZM73.0352 212.07C73.0449 213.193 73.9727 213.76 75.2617 213.75C77.1562 213.76 78.2109 212.49 78.2109 211.152V210.088C77.7129 210.117 76.043 210.244 75.5352 210.273C74.0117 210.371 73.0449 210.908 73.0352 212.07ZM82.5664 215V204.395H84.1875V206.016H84.3047C84.6855 204.941 85.7891 204.229 87.0391 204.219C87.293 204.229 87.7227 204.238 87.918 204.258V205.957C87.791 205.928 87.3418 205.84 86.9023 205.84C85.3789 205.84 84.2461 206.895 84.2461 208.32V215H82.5664ZM93.6602 215.215C90.5938 215.225 88.6992 213.037 88.6992 209.785C88.6992 206.523 90.623 204.258 93.5039 204.258C95.7305 204.258 98.084 205.625 98.0742 209.551V210.254H90.3789C90.4668 212.5 91.7754 213.73 93.6602 213.73C94.9297 213.73 95.7305 213.174 96.1211 212.52H97.918C97.4199 214.131 95.8477 215.225 93.6602 215.215ZM90.3887 208.828H96.375C96.3652 207.061 95.252 205.742 93.5039 205.742C91.668 205.742 90.5059 207.188 90.3887 208.828ZM99.7539 211.992C99.7539 209.561 101.902 209.004 103.738 208.867C104.422 208.818 106.131 208.721 106.609 208.711V207.852C106.609 206.504 105.809 205.723 104.207 205.723C102.869 205.723 102.059 206.338 101.824 207.148H100.066C100.281 205.439 101.941 204.258 104.285 204.258C105.672 204.258 108.279 204.668 108.27 208.008V215H106.609V213.555H106.531C106.18 214.268 105.213 215.244 103.367 215.254C101.355 215.244 99.7539 214.062 99.7539 211.992ZM101.434 212.07C101.443 213.193 102.371 213.76 103.66 213.75C105.555 213.76 106.609 212.49 106.609 211.152V210.088C106.111 210.117 104.441 210.244 103.934 210.273C102.41 210.371 101.443 210.908 101.434 212.07Z" fill="#474747"/>
<path d="M27 189H317.5" stroke="#494949" stroke-width="0.5"/>
<rect x="34.25" y="66.25" width="276.5" height="79.5" rx="5.75" stroke="black" stroke-width="0.5"/>
<path d="M45.7139 80.043V78.9805H54.4961V80.043H50.7109V91H49.5156V80.043H45.7139ZM58.7959 91.1826C56.2476 91.1909 54.6538 89.29 54.6621 86.5508C54.6538 83.8115 56.2808 81.8608 58.6299 81.8525C60.5889 81.8608 62.4731 83.2388 62.4814 86.3018V86.833H55.791C55.8408 88.875 57.0029 90.1699 58.7959 90.1699C60.0327 90.1699 60.7632 89.5308 61.0869 88.958H62.2988C61.8921 90.2031 60.6138 91.1909 58.7959 91.1826ZM55.7993 85.8535H61.3193C61.3193 84.1685 60.2236 82.8735 58.6465 82.8818C57.0195 82.8735 55.8989 84.2349 55.7993 85.8535ZM64.9551 81.9854L67.2295 85.7871L69.5205 81.9854H70.832L67.9268 86.4844L70.832 91H69.5205L67.2295 87.3145L64.9551 91H63.6436L66.499 86.4844L63.6436 81.9854H64.9551ZM76.3271 81.9854V82.9482H74.4346V88.5928C74.4263 89.73 75.0654 90.0454 75.7461 90.0537L76.4932 90.0205V91.083C76.3105 91.0996 76.0283 91.1328 75.6465 91.1328C74.4761 91.1328 73.2891 90.3691 73.2891 88.875V82.9482H71.9443V81.9854H73.2891V79.8271H74.4346V81.9854H76.3271ZM79.2324 91.083C78.7427 91.0913 78.3359 90.6846 78.3359 90.2031C78.3359 89.7134 78.7427 89.3149 79.2324 89.3066C79.7139 89.3149 80.1123 89.7134 80.1123 90.2031C80.1123 90.6846 79.7139 91.0913 79.2324 91.083ZM83.3994 91.083C82.9097 91.0913 82.5029 90.6846 82.5029 90.2031C82.5029 89.7134 82.9097 89.3149 83.3994 89.3066C83.8809 89.3149 84.2793 89.7134 84.2793 90.2031C84.2793 90.6846 83.8809 91.0913 83.3994 91.083Z" fill="#BABABA" fill-opacity="0.729412"/>
<defs>
<filter id="filter0_d_656_4" x="0" y="0" width="343" height="251" filterUnits="userSpaceOnUse" color-interpolation-filters="sRGB">
<feFlood flood-opacity="0" result="BackgroundImageFix"/>
<feColorMatrix in="SourceAlpha" type="matrix" values="0 0 0 0 0 0 0 0 0 0 0 0 0 0 0 0 0 0 127 0" result="hardAlpha"/>
<feOffset dy="5"/>
<feGaussianBlur stdDeviation="7.5"/>
<feComposite in2="hardAlpha" operator="out"/>
<feColorMatrix type="matrix" values="0 0 0 0 0 0 0 0 0 0 0 0 0 0 0 0 0 0 0.25 0"/>
<feBlend mode="normal" in2="BackgroundImageFix" result="effect1_dropShadow_656_4"/>
<feBlend mode="normal" in="SourceGraphic" in2="effect1_dropShadow_656_4" result="shape"/>
</filter>
</defs>
</svg>
