<svg width="343" height="251" viewBox="0 0 343 251" fill="none" xmlns="http://www.w3.org/2000/svg">
<g filter="url(#filter0_d_953_3)">
<rect x="15" y="10" width="313" height="221" rx="18" fill="white"/>
</g>
<path d="M36.7812 202.422V200.859H47.4453V202.422H43.0117V215H41.2344V202.422H36.7812ZM52.3672 215.215C49.4766 215.215 47.5234 213.047 47.5234 209.746C47.5234 206.445 49.4766 204.258 52.3672 204.258C55.2383 204.258 57.1719 206.445 57.1719 209.746C57.1719 213.047 55.2383 215.215 52.3672 215.215ZM52.3672 213.73C54.4961 213.73 55.4922 211.855 55.4922 209.746C55.4922 207.637 54.4961 205.742 52.3672 205.742C50.1992 205.742 49.2031 207.637 49.2031 209.746C49.2031 211.855 50.1992 213.73 52.3672 213.73ZM58.8711 211.992C58.8711 209.551 61.0195 209.004 62.8555 208.867C63.5293 208.818 65.248 208.73 65.7266 208.711V207.852C65.7266 206.504 64.9258 205.723 63.3242 205.723C61.9766 205.723 61.1758 206.348 60.9414 207.148H59.1836C59.3984 205.449 61.0586 204.258 63.4023 204.258C64.7891 204.258 67.3867 204.668 67.3867 208.008V215H65.7266V213.555H65.6484C65.2969 214.277 64.3203 215.254 62.4844 215.254C60.4727 215.254 58.8711 214.062 58.8711 211.992ZM60.5508 212.07C60.5508 213.184 61.4883 213.75 62.7773 213.75C64.6719 213.75 65.7266 212.48 65.7266 211.152V210.078L63.0508 210.273C61.5273 210.371 60.5508 210.918 60.5508 212.07ZM75.9805 207.148C75.7461 206.27 75.082 205.684 73.832 205.684C72.5234 205.684 71.5859 206.387 71.5859 207.285C71.5859 207.988 72.1523 208.477 73.4023 208.77L74.9844 209.16C76.8789 209.609 77.8164 210.547 77.8164 212.031C77.8164 213.867 76.3125 215.215 73.6562 215.215C71.2734 215.215 69.8477 214.16 69.5742 212.227H71.332C71.5273 213.262 72.2891 213.75 73.6172 213.75C75.1211 213.75 76.0781 213.125 76.0781 212.129C76.0781 211.387 75.5508 210.879 74.3398 210.605L72.7383 210.234C70.8828 209.805 69.9062 208.789 69.9062 207.383C69.9062 205.566 71.4883 204.258 73.832 204.258C76.0195 204.258 77.4062 205.43 77.6211 207.148H75.9805ZM84.6328 204.395V205.801H82.4062V211.953C82.4062 213.32 83.0703 213.535 83.793 213.535C84.1055 213.535 84.5352 213.516 84.7891 213.496V215.059C84.5352 215.098 84.1055 215.137 83.6172 215.137C82.2109 215.137 80.707 214.258 80.707 212.383V205.801H79.1055V204.395H80.707V201.855H82.4062V204.395H84.6328Z" fill="#474747"/>
<path d="M29 189H319.5" stroke="#494949" stroke-width="0.5"/>
<rect x="32" y="94" width="287" height="37" rx="5" fill="#9AC5E5"/>
<path d="M67.7812 107.422V105.859H78.4453V107.422H74.0117V120H72.2344V107.422H67.7812ZM83.3672 120.215C80.4766 120.225 78.5234 118.037 78.5234 114.746C78.5234 111.436 80.4766 109.258 83.3672 109.258C86.248 109.258 88.1816 111.436 88.1719 114.746C88.1816 118.037 86.248 120.225 83.3672 120.215ZM80.2031 114.746C80.2129 116.865 81.209 118.73 83.3672 118.73C85.5059 118.73 86.4922 116.865 86.4922 114.746C86.4922 112.637 85.5059 110.742 83.3672 110.742C81.209 110.742 80.2129 112.637 80.2031 114.746ZM89.8711 116.992C89.8711 114.561 92.0195 114.004 93.8555 113.867C94.5391 113.818 96.248 113.721 96.7266 113.711V112.852C96.7266 111.504 95.9258 110.723 94.3242 110.723C92.9863 110.723 92.1758 111.338 91.9414 112.148H90.1836C90.3984 110.439 92.0586 109.258 94.4023 109.258C95.7891 109.258 98.3965 109.668 98.3867 113.008V120H96.7266V118.555H96.6484C96.2969 119.268 95.3301 120.244 93.4844 120.254C91.4727 120.244 89.8711 119.062 89.8711 116.992ZM91.5508 117.07C91.5605 118.193 92.4883 118.76 93.7773 118.75C95.6719 118.76 96.7266 117.49 96.7266 116.152V115.088C96.2285 115.117 94.5586 115.244 94.0508 115.273C92.5273 115.371 91.5605 115.908 91.5508 117.07ZM106.98 112.148C106.746 111.27 106.072 110.693 104.832 110.684C103.523 110.693 102.596 111.396 102.586 112.285C102.596 112.988 103.162 113.467 104.402 113.77L105.984 114.16C107.879 114.609 108.807 115.557 108.816 117.031C108.807 118.867 107.312 120.225 104.656 120.215C102.273 120.225 100.857 119.16 100.574 117.227H102.332C102.527 118.262 103.279 118.76 104.617 118.75C106.131 118.76 107.078 118.125 107.078 117.129C107.078 116.377 106.541 115.889 105.34 115.605L103.738 115.234C101.893 114.805 100.906 113.799 100.906 112.383C100.906 110.566 102.498 109.258 104.832 109.258C107.029 109.258 108.406 110.43 108.621 112.148H106.98ZM115.633 109.395V110.801H113.406V116.953C113.396 118.311 114.08 118.535 114.793 118.535C115.096 118.535 115.545 118.506 115.789 118.496V120.059C115.525 120.098 115.115 120.137 114.617 120.137C113.201 120.137 111.717 119.258 111.707 117.383V110.801H110.105V109.395H111.707V106.855H113.406V109.395H115.633Z" fill="white"/>
<circle cx="48.5" cy="112.5" r="9.5" fill="white"/>
<path d="M309 107L298 118" stroke="white" stroke-linecap="round"/>
<path d="M309 118L298 107" stroke="white" stroke-linecap="round"/>
<defs>
<filter id="filter0_d_953_3" x="0" y="0" width="343" height="251" filterUnits="userSpaceOnUse" color-interpolation-filters="sRGB">
<feFlood flood-opacity="0" result="BackgroundImageFix"/>
<feColorMatrix in="SourceAlpha" type="matrix" values="0 0 0 0 0 0 0 0 0 0 0 0 0 0 0 0 0 0 127 0" result="hardAlpha"/>
<feOffset dy="5"/>
<feGaussianBlur stdDeviation="7.5"/>
<feComposite in2="hardAlpha" operator="out"/>
<feColorMatrix type="matrix" values="0 0 0 0 0 0 0 0 0 0 0 0 0 0 0 0 0 0 0.25 0"/>
<feBlend mode="normal" in2="BackgroundImageFix" result="effect1_dropShadow_953_3"/>
<feBlend mode="normal" in="SourceGraphic" in2="effect1_dropShadow_953_3" result="shape"/>
</filter>
</defs>
</svg>
