<svg width="343" height="251" viewBox="0 0 343 251" fill="none" xmlns="http://www.w3.org/2000/svg">
<path d="M36.7812 202.422V200.859H47.4453V202.422H43.0117V215H41.2344V202.422H36.7812ZM52.3672 215.215C49.4766 215.225 47.5234 213.037 47.5234 209.746C47.5234 206.436 49.4766 204.258 52.3672 204.258C55.248 204.258 57.1816 206.436 57.1719 209.746C57.1816 213.037 55.248 215.225 52.3672 215.215ZM49.2031 209.746C49.2129 211.865 50.209 213.73 52.3672 213.73C54.5059 213.73 55.4922 211.865 55.4922 209.746C55.4922 207.637 54.5059 205.742 52.3672 205.742C50.209 205.742 49.2129 207.637 49.2031 209.746ZM58.8711 211.992C58.8711 209.561 61.0195 209.004 62.8555 208.867C63.5391 208.818 65.248 208.721 65.7266 208.711V207.852C65.7266 206.504 64.9258 205.723 63.3242 205.723C61.9863 205.723 61.1758 206.338 60.9414 207.148H59.1836C59.3984 205.439 61.0586 204.258 63.4023 204.258C64.7891 204.258 67.3965 204.668 67.3867 208.008V215H65.7266V213.555H65.6484C65.2969 214.268 64.3301 215.244 62.4844 215.254C60.4727 215.244 58.8711 214.062 58.8711 211.992ZM60.5508 212.07C60.5605 213.193 61.4883 213.76 62.7773 213.75C64.6719 213.76 65.7266 212.49 65.7266 211.152V210.088C65.2285 210.117 63.5586 210.244 63.0508 210.273C61.5273 210.371 60.5605 210.908 60.5508 212.07ZM75.9805 207.148C75.7461 206.27 75.0723 205.693 73.832 205.684C72.5234 205.693 71.5957 206.396 71.5859 207.285C71.5957 207.988 72.1621 208.467 73.4023 208.77L74.9844 209.16C76.8789 209.609 77.8066 210.557 77.8164 212.031C77.8066 213.867 76.3125 215.225 73.6562 215.215C71.2734 215.225 69.8574 214.16 69.5742 212.227H71.332C71.5273 213.262 72.2793 213.76 73.6172 213.75C75.1309 213.76 76.0781 213.125 76.0781 212.129C76.0781 211.377 75.541 210.889 74.3398 210.605L72.7383 210.234C70.8926 209.805 69.9062 208.799 69.9062 207.383C69.9062 205.566 71.498 204.258 73.832 204.258C76.0293 204.258 77.4062 205.43 77.6211 207.148H75.9805ZM84.6328 204.395V205.801H82.4062V211.953C82.3965 213.311 83.0801 213.535 83.793 213.535C84.0957 213.535 84.5449 213.506 84.7891 213.496V215.059C84.5254 215.098 84.1152 215.137 83.6172 215.137C82.2012 215.137 80.7168 214.258 80.707 212.383V205.801H79.1055V204.395H80.707V201.855H82.4062V204.395H84.6328ZM87.2305 209.609C87.25 205.928 88.2461 202.861 90.043 200.254H91.5273C90.209 202.178 88.9785 206.133 88.9688 209.609C88.9785 213.096 90.209 217.041 91.5273 218.984H90.043C88.2461 216.367 87.25 213.301 87.2305 209.609ZM93.1094 211.992C93.1094 209.561 95.2578 209.004 97.0938 208.867C97.7773 208.818 99.4863 208.721 99.9648 208.711V207.852C99.9648 206.504 99.1641 205.723 97.5625 205.723C96.2246 205.723 95.4141 206.338 95.1797 207.148H93.4219C93.6367 205.439 95.2969 204.258 97.6406 204.258C99.0273 204.258 101.635 204.668 101.625 208.008V215H99.9648V213.555H99.8867C99.5352 214.268 98.5684 215.244 96.7227 215.254C94.7109 215.244 93.1094 214.062 93.1094 211.992ZM94.7891 212.07C94.7988 213.193 95.7266 213.76 97.0156 213.75C98.9102 213.76 99.9648 212.49 99.9648 211.152V210.088C99.4668 210.117 97.7969 210.244 97.2891 210.273C95.7656 210.371 94.7988 210.908 94.7891 212.07ZM106 200.859V215H104.32V200.859H106ZM113.129 215.215C110.062 215.225 108.168 213.037 108.168 209.785C108.168 206.523 110.092 204.258 112.973 204.258C115.199 204.258 117.553 205.625 117.543 209.551V210.254H109.848C109.936 212.5 111.244 213.73 113.129 213.73C114.398 213.73 115.199 213.174 115.59 212.52H117.387C116.889 214.131 115.316 215.225 113.129 215.215ZM109.857 208.828H115.844C115.834 207.061 114.721 205.742 112.973 205.742C111.137 205.742 109.975 207.188 109.857 208.828ZM119.73 215V204.395H121.352V206.016H121.469C121.85 204.941 122.953 204.229 124.203 204.219C124.457 204.229 124.887 204.238 125.082 204.258V205.957C124.955 205.928 124.506 205.84 124.066 205.84C122.543 205.84 121.41 206.895 121.41 208.32V215H119.73ZM132.016 204.395V205.801H129.789V211.953C129.779 213.311 130.463 213.535 131.176 213.535C131.479 213.535 131.928 213.506 132.172 213.496V215.059C131.908 215.098 131.498 215.137 131 215.137C129.584 215.137 128.1 214.258 128.09 212.383V205.801H126.488V204.395H128.09V201.855H129.789V204.395H132.016ZM137.875 209.609C137.855 213.301 136.859 216.367 135.062 218.984H133.578C134.896 217.041 136.127 213.096 136.137 209.609C136.127 206.133 134.896 202.178 133.578 200.254H135.062C136.859 202.861 137.855 205.928 137.875 209.609Z" fill="#474747"/>
<path d="M29 189H319.5" stroke="#494949" stroke-width="0.5"/>
<g filter="url(#filter0_d_636_3)">
<rect x="15" y="10" width="313" height="221" rx="18" fill="white"/>
</g>
<rect x="32" y="94" width="287" height="37" rx="5" fill="#9AC5E5"/>
<path d="M41.7812 107.422V105.859H52.4453V107.422H48.0117V120H46.2344V107.422H41.7812ZM57.3672 120.215C54.4766 120.215 52.5234 118.047 52.5234 114.746C52.5234 111.445 54.4766 109.258 57.3672 109.258C60.2383 109.258 62.1719 111.445 62.1719 114.746C62.1719 118.047 60.2383 120.215 57.3672 120.215ZM57.3672 118.73C59.4961 118.73 60.4922 116.855 60.4922 114.746C60.4922 112.637 59.4961 110.742 57.3672 110.742C55.1992 110.742 54.2031 112.637 54.2031 114.746C54.2031 116.855 55.1992 118.73 57.3672 118.73ZM63.8711 116.992C63.8711 114.551 66.0195 114.004 67.8555 113.867C68.5293 113.818 70.248 113.73 70.7266 113.711V112.852C70.7266 111.504 69.9258 110.723 68.3242 110.723C66.9766 110.723 66.1758 111.348 65.9414 112.148H64.1836C64.3984 110.449 66.0586 109.258 68.4023 109.258C69.7891 109.258 72.3867 109.668 72.3867 113.008V120H70.7266V118.555H70.6484C70.2969 119.277 69.3203 120.254 67.4844 120.254C65.4727 120.254 63.8711 119.062 63.8711 116.992ZM65.5508 117.07C65.5508 118.184 66.4883 118.75 67.7773 118.75C69.6719 118.75 70.7266 117.48 70.7266 116.152V115.078L68.0508 115.273C66.5273 115.371 65.5508 115.918 65.5508 117.07ZM80.9805 112.148C80.7461 111.27 80.082 110.684 78.832 110.684C77.5234 110.684 76.5859 111.387 76.5859 112.285C76.5859 112.988 77.1523 113.477 78.4023 113.77L79.9844 114.16C81.8789 114.609 82.8164 115.547 82.8164 117.031C82.8164 118.867 81.3125 120.215 78.6562 120.215C76.2734 120.215 74.8477 119.16 74.5742 117.227H76.332C76.5273 118.262 77.2891 118.75 78.6172 118.75C80.1211 118.75 81.0781 118.125 81.0781 117.129C81.0781 116.387 80.5508 115.879 79.3398 115.605L77.7383 115.234C75.8828 114.805 74.9062 113.789 74.9062 112.383C74.9062 110.566 76.4883 109.258 78.832 109.258C81.0195 109.258 82.4062 110.43 82.6211 112.148H80.9805ZM89.6328 109.395V110.801H87.4062V116.953C87.4062 118.32 88.0703 118.535 88.793 118.535C89.1055 118.535 89.5352 118.516 89.7891 118.496V120.059C89.5352 120.098 89.1055 120.137 88.6172 120.137C87.2109 120.137 85.707 119.258 85.707 117.383V110.801H84.1055V109.395H85.707V106.855H87.4062V109.395H89.6328Z" fill="white"/>
<path d="M309 107L298 118" stroke="white" stroke-linecap="round"/>
<path d="M309 118L298 107" stroke="white" stroke-linecap="round"/>
<defs>
<filter id="filter0_d_636_3" x="0" y="0" width="343" height="251" filterUnits="userSpaceOnUse" color-interpolation-filters="sRGB">
<feFlood flood-opacity="0" result="BackgroundImageFix"/>
<feColorMatrix in="SourceAlpha" type="matrix" values="0 0 0 0 0 0 0 0 0 0 0 0 0 0 0 0 0 0 127 0" result="hardAlpha"/>
<feOffset dy="5"/>
<feGaussianBlur stdDeviation="7.5"/>
<feComposite in2="hardAlpha" operator="out"/>
<feColorMatrix type="matrix" values="0 0 0 0 0 0 0 0 0 0 0 0 0 0 0 0 0 0 0.25 0"/>
<feBlend mode="normal" in2="BackgroundImageFix" result="effect1_dropShadow_636_3"/>
<feBlend mode="normal" in="SourceGraphic" in2="effect1_dropShadow_636_3" result="shape"/>
</filter>
</defs>
</svg>
