<svg width="343" height="251" viewBox="0 0 343 251" fill="none" xmlns="http://www.w3.org/2000/svg">
<g filter="url(#filter0_d_1357_165)">
<rect x="15" y="10" width="313" height="221" rx="18" fill="white"/>
</g>
<path d="M37.7812 202.422V200.859H48.4453V202.422H44.0117V215H42.2344V202.422H37.7812ZM53.3672 215.215C50.4766 215.225 48.5234 213.037 48.5234 209.746C48.5234 206.436 50.4766 204.258 53.3672 204.258C56.248 204.258 58.1816 206.436 58.1719 209.746C58.1816 213.037 56.248 215.225 53.3672 215.215ZM50.2031 209.746C50.2129 211.865 51.209 213.73 53.3672 213.73C55.5059 213.73 56.4922 211.865 56.4922 209.746C56.4922 207.637 55.5059 205.742 53.3672 205.742C51.209 205.742 50.2129 207.637 50.2031 209.746ZM64.7148 215.215C61.8242 215.225 59.8711 213.037 59.8711 209.746C59.8711 206.436 61.8242 204.258 64.7148 204.258C67.5957 204.258 69.5293 206.436 69.5195 209.746C69.5293 213.037 67.5957 215.225 64.7148 215.215ZM61.5508 209.746C61.5605 211.865 62.5566 213.73 64.7148 213.73C66.8535 213.73 67.8398 211.865 67.8398 209.746C67.8398 207.637 66.8535 205.742 64.7148 205.742C62.5566 205.742 61.5605 207.637 61.5508 209.746ZM73.4062 200.859V215H71.7266V200.859H73.4062ZM80.7109 204.395V205.801H78.4844V211.953C78.4746 213.311 79.1582 213.535 79.8711 213.535C80.1738 213.535 80.623 213.506 80.8672 213.496V215.059C80.6035 215.098 80.1934 215.137 79.6953 215.137C78.2793 215.137 76.7949 214.258 76.7852 212.383V205.801H75.1836V204.395H76.7852V201.855H78.4844V204.395H80.7109ZM82.8789 215V204.395H84.5586V215H82.8789ZM82.5469 201.523C82.5371 200.898 83.0742 200.4 83.7188 200.41C84.3633 200.4 84.9004 200.898 84.9102 201.523C84.9004 202.139 84.3633 202.637 83.7188 202.637C83.0742 202.637 82.5371 202.139 82.5469 201.523ZM87.2344 218.984V204.395H88.8555V206.074H89.0508C89.4121 205.508 90.0566 204.258 92.1172 204.258C94.7832 204.258 96.6289 206.367 96.6289 209.727C96.6289 213.096 94.7832 215.225 92.1367 215.215C90.1152 215.225 89.4121 213.965 89.0508 213.379H88.9141V218.984H87.2344ZM88.875 209.688C88.8848 212.07 89.9492 213.711 91.9023 213.711C93.9141 213.711 94.9492 211.943 94.9492 209.688C94.9492 207.471 93.9434 205.762 91.9023 205.762C89.9199 205.762 88.8848 207.334 88.875 209.688Z" fill="#474747"/>
<path d="M28.5 189H319" stroke="#494949" stroke-width="0.5"/>
<rect x="114" y="104" width="116" height="34" rx="4" fill="#D9D9D9"/>
<g filter="url(#filter1_d_1357_165)">
<rect x="114" y="65" width="116" height="34" rx="4" fill="white"/>
<rect x="114.5" y="65.5" width="115" height="33" rx="3.5" stroke="#9AC5E5"/>
</g>
<path d="M211.991 128.727L215.083 137.221L212.264 138.247L209.172 129.753L205 132.909L206.491 118L217.216 128.463L211.991 128.727Z" fill="white"/>
<g filter="url(#filter2_d_1357_165)">
<rect x="15" y="10" width="313" height="221" rx="18" fill="#333742"/>
</g>
<path d="M37.7812 202.422V200.859H48.4453V202.422H44.0117V215H42.2344V202.422H37.7812ZM53.3672 215.215C50.4766 215.225 48.5234 213.037 48.5234 209.746C48.5234 206.436 50.4766 204.258 53.3672 204.258C56.248 204.258 58.1816 206.436 58.1719 209.746C58.1816 213.037 56.248 215.225 53.3672 215.215ZM50.2031 209.746C50.2129 211.865 51.209 213.73 53.3672 213.73C55.5059 213.73 56.4922 211.865 56.4922 209.746C56.4922 207.637 55.5059 205.742 53.3672 205.742C51.209 205.742 50.2129 207.637 50.2031 209.746ZM64.7148 215.215C61.8242 215.225 59.8711 213.037 59.8711 209.746C59.8711 206.436 61.8242 204.258 64.7148 204.258C67.5957 204.258 69.5293 206.436 69.5195 209.746C69.5293 213.037 67.5957 215.225 64.7148 215.215ZM61.5508 209.746C61.5605 211.865 62.5566 213.73 64.7148 213.73C66.8535 213.73 67.8398 211.865 67.8398 209.746C67.8398 207.637 66.8535 205.742 64.7148 205.742C62.5566 205.742 61.5605 207.637 61.5508 209.746ZM73.4062 200.859V215H71.7266V200.859H73.4062ZM80.7109 204.395V205.801H78.4844V211.953C78.4746 213.311 79.1582 213.535 79.8711 213.535C80.1738 213.535 80.623 213.506 80.8672 213.496V215.059C80.6035 215.098 80.1934 215.137 79.6953 215.137C78.2793 215.137 76.7949 214.258 76.7852 212.383V205.801H75.1836V204.395H76.7852V201.855H78.4844V204.395H80.7109ZM82.8789 215V204.395H84.5586V215H82.8789ZM82.5469 201.523C82.5371 200.898 83.0742 200.4 83.7188 200.41C84.3633 200.4 84.9004 200.898 84.9102 201.523C84.9004 202.139 84.3633 202.637 83.7188 202.637C83.0742 202.637 82.5371 202.139 82.5469 201.523ZM87.2344 218.984V204.395H88.8555V206.074H89.0508C89.4121 205.508 90.0566 204.258 92.1172 204.258C94.7832 204.258 96.6289 206.367 96.6289 209.727C96.6289 213.096 94.7832 215.225 92.1367 215.215C90.1152 215.225 89.4121 213.965 89.0508 213.379H88.9141V218.984H87.2344ZM88.875 209.688C88.8848 212.07 89.9492 213.711 91.9023 213.711C93.9141 213.711 94.9492 211.943 94.9492 209.688C94.9492 207.471 93.9434 205.762 91.9023 205.762C89.9199 205.762 88.8848 207.334 88.875 209.688Z" fill="#DFDFDF"/>
<path d="M28.5 189H319" stroke="#DFDFDF" stroke-width="0.5"/>
<rect x="114" y="104" width="116" height="34" rx="4" fill="#D9D9D9"/>
<g filter="url(#filter3_d_1357_165)">
<rect x="114" y="65" width="116" height="34" rx="4" fill="white"/>
<rect x="114.5" y="65.5" width="115" height="33" rx="3.5" stroke="#9AC5E5"/>
</g>
<path d="M211.991 128.727L215.083 137.221L212.264 138.247L209.172 129.753L205 132.909L206.491 118L217.216 128.463L211.991 128.727Z" fill="white"/>
<defs>
<filter id="filter0_d_1357_165" x="0" y="0" width="343" height="251" filterUnits="userSpaceOnUse" color-interpolation-filters="sRGB">
<feFlood flood-opacity="0" result="BackgroundImageFix"/>
<feColorMatrix in="SourceAlpha" type="matrix" values="0 0 0 0 0 0 0 0 0 0 0 0 0 0 0 0 0 0 127 0" result="hardAlpha"/>
<feOffset dy="5"/>
<feGaussianBlur stdDeviation="7.5"/>
<feComposite in2="hardAlpha" operator="out"/>
<feColorMatrix type="matrix" values="0 0 0 0 0 0 0 0 0 0 0 0 0 0 0 0 0 0 0.25 0"/>
<feBlend mode="normal" in2="BackgroundImageFix" result="effect1_dropShadow_1357_165"/>
<feBlend mode="normal" in="SourceGraphic" in2="effect1_dropShadow_1357_165" result="shape"/>
</filter>
<filter id="filter1_d_1357_165" x="110" y="61" width="124" height="42" filterUnits="userSpaceOnUse" color-interpolation-filters="sRGB">
<feFlood flood-opacity="0" result="BackgroundImageFix"/>
<feColorMatrix in="SourceAlpha" type="matrix" values="0 0 0 0 0 0 0 0 0 0 0 0 0 0 0 0 0 0 127 0" result="hardAlpha"/>
<feOffset/>
<feGaussianBlur stdDeviation="2"/>
<feComposite in2="hardAlpha" operator="out"/>
<feColorMatrix type="matrix" values="0 0 0 0 0 0 0 0 0 0 0 0 0 0 0 0 0 0 0.1 0"/>
<feBlend mode="normal" in2="BackgroundImageFix" result="effect1_dropShadow_1357_165"/>
<feBlend mode="normal" in="SourceGraphic" in2="effect1_dropShadow_1357_165" result="shape"/>
</filter>
<filter id="filter2_d_1357_165" x="0" y="0" width="343" height="251" filterUnits="userSpaceOnUse" color-interpolation-filters="sRGB">
<feFlood flood-opacity="0" result="BackgroundImageFix"/>
<feColorMatrix in="SourceAlpha" type="matrix" values="0 0 0 0 0 0 0 0 0 0 0 0 0 0 0 0 0 0 127 0" result="hardAlpha"/>
<feOffset dy="5"/>
<feGaussianBlur stdDeviation="7.5"/>
<feComposite in2="hardAlpha" operator="out"/>
<feColorMatrix type="matrix" values="0 0 0 0 0 0 0 0 0 0 0 0 0 0 0 0 0 0 0.25 0"/>
<feBlend mode="normal" in2="BackgroundImageFix" result="effect1_dropShadow_1357_165"/>
<feBlend mode="normal" in="SourceGraphic" in2="effect1_dropShadow_1357_165" result="shape"/>
</filter>
<filter id="filter3_d_1357_165" x="110" y="61" width="124" height="42" filterUnits="userSpaceOnUse" color-interpolation-filters="sRGB">
<feFlood flood-opacity="0" result="BackgroundImageFix"/>
<feColorMatrix in="SourceAlpha" type="matrix" values="0 0 0 0 0 0 0 0 0 0 0 0 0 0 0 0 0 0 127 0" result="hardAlpha"/>
<feOffset/>
<feGaussianBlur stdDeviation="2"/>
<feComposite in2="hardAlpha" operator="out"/>
<feColorMatrix type="matrix" values="0 0 0 0 0 0 0 0 0 0 0 0 0 0 0 0 0 0 0.1 0"/>
<feBlend mode="normal" in2="BackgroundImageFix" result="effect1_dropShadow_1357_165"/>
<feBlend mode="normal" in="SourceGraphic" in2="effect1_dropShadow_1357_165" result="shape"/>
</filter>
</defs>
</svg>
