<?xml version="1.0" encoding="utf-8"?>
<!-- Generator: Adobe Illustrator 26.5.0, SVG Export Plug-In . SVG Version: 6.00 Build 0)  -->
<svg version="1.1" id="Layer_1" xmlns="http://www.w3.org/2000/svg" xmlns:xlink="http://www.w3.org/1999/xlink" x="0px" y="0px"
	 viewBox="0 0 339 445" style="enable-background:new 0 0 339 445;" xml:space="preserve">
<style type="text/css">
	.st0{fill:#333742;}
	.st1{fill:#2A2E39;}
	.st2{fill:#464B58;}
</style>
<g>
	<path class="st0" d="M8.8-9h321.4c7.2,0,13.1,5.9,13.1,13.1v436.9c0,7.2-5.9,13.1-13.1,13.1H8.8c-7.2,0-13.1-5.9-13.1-13.1V4.1
		C-4.3-3.1,1.6-9,8.8-9z"/>
</g>
<path class="st1" d="M67.5,169h227c1.9,0,3.5,1.6,3.5,3.5l0,0c0,1.9-1.6,3.5-3.5,3.5h-227c-1.9,0-3.5-1.6-3.5-3.5l0,0
	C64,170.6,65.6,169,67.5,169z"/>
<path class="st1" d="M67.5,301h227c1.9,0,3.5,1.6,3.5,3.5l0,0c0,1.9-1.6,3.5-3.5,3.5h-227c-1.9,0-3.5-1.6-3.5-3.5l0,0
	C64,302.6,65.6,301,67.5,301z"/>
<path class="st1" d="M67.5,319h227c1.9,0,3.5,1.6,3.5,3.5l0,0c0,1.9-1.6,3.5-3.5,3.5h-227c-1.9,0-3.5-1.6-3.5-3.5l0,0
	C64,320.6,65.6,319,67.5,319z"/>
<path class="st1" d="M67.5,337h227c1.9,0,3.5,1.6,3.5,3.5l0,0c0,1.9-1.6,3.5-3.5,3.5h-227c-1.9,0-3.5-1.6-3.5-3.5l0,0
	C64,338.6,65.6,337,67.5,337z"/>
<path class="st1" d="M67.5,354h227c1.9,0,3.5,1.6,3.5,3.5l0,0c0,1.9-1.6,3.5-3.5,3.5h-227c-1.9,0-3.5-1.6-3.5-3.5l0,0
	C64,355.6,65.6,354,67.5,354z"/>
<path class="st1" d="M67.5,372h227c1.9,0,3.5,1.6,3.5,3.5l0,0c0,1.9-1.6,3.5-3.5,3.5h-227c-1.9,0-3.5-1.6-3.5-3.5l0,0
	C64,373.6,65.6,372,67.5,372z"/>
<path class="st1" d="M67.5,186h227c1.9,0,3.5,1.6,3.5,3.5l0,0c0,1.9-1.6,3.5-3.5,3.5h-227c-1.9,0-3.5-1.6-3.5-3.5l0,0
	C64,187.6,65.6,186,67.5,186z"/>
<path class="st1" d="M67.5,203h227c1.9,0,3.5,1.6,3.5,3.5l0,0c0,1.9-1.6,3.5-3.5,3.5h-227c-1.9,0-3.5-1.6-3.5-3.5l0,0
	C64,204.6,65.6,203,67.5,203z"/>
<path class="st1" d="M67.5,220h227c1.9,0,3.5,1.6,3.5,3.5l0,0c0,1.9-1.6,3.5-3.5,3.5h-227c-1.9,0-3.5-1.6-3.5-3.5l0,0
	C64,221.6,65.6,220,67.5,220z"/>
<circle class="st1" cx="47.5" cy="304.5" r="6.5"/>
<circle class="st1" cx="47.5" cy="322.5" r="6.5"/>
<circle class="st1" cx="47.5" cy="340.5" r="6.5"/>
<circle class="st1" cx="47.5" cy="358.5" r="6.5"/>
<circle class="st1" cx="47.5" cy="376.5" r="6.5"/>
<path class="st2" d="M49.5,33h240c4.7,0,8.5,3.8,8.5,8.5l0,0c0,4.7-3.8,8.5-8.5,8.5h-240c-4.7,0-8.5-3.8-8.5-8.5l0,0
	C41,36.8,44.8,33,49.5,33z"/>
<path class="st1" d="M44,64h251c1.7,0,3,1.3,3,3v19c0,1.7-1.3,3-3,3H44c-1.7,0-3-1.3-3-3V67C41,65.3,42.3,64,44,64z"/>
<path class="st1" d="M44,108h251c1.7,0,3,1.3,3,3v41c0,1.7-1.3,3-3,3H44c-1.7,0-3-1.3-3-3v-41C41,109.3,42.3,108,44,108z"/>
<path class="st1" d="M44,244h251c1.7,0,3,1.3,3,3v41c0,1.7-1.3,3-3,3H44c-1.7,0-3-1.3-3-3v-41C41,245.3,42.3,244,44,244z"/>
<rect x="41" y="166" class="st1" width="13" height="13"/>
<rect x="41" y="183" class="st1" width="13" height="13"/>
<rect x="41" y="200" class="st1" width="13" height="13"/>
<rect x="41" y="217" class="st1" width="13" height="13"/>
</svg>
