<svg width="319" height="425" viewBox="0 0 319 425" fill="none" xmlns="http://www.w3.org/2000/svg">
<rect width="319" height="425" rx="12" fill="white"/>
<rect x="44" y="33" width="257" height="25" rx="3" fill="#F6F6F6"/>
<rect x="44" y="93" width="257" height="25" rx="3" fill="#F6F6F6"/>
<rect x="44" y="153" width="257" height="25" rx="3" fill="#F6F6F6"/>
<rect x="44" y="63" width="257" height="25" rx="3" fill="#F6F6F6"/>
<rect x="44" y="123" width="257" height="25" rx="3" fill="#F6F6F6"/>
<rect x="44" y="183" width="257" height="25" rx="3" fill="#F6F6F6"/>
<rect x="44" y="213" width="257" height="25" rx="3" fill="#F6F6F6"/>
<rect x="44" y="243" width="257" height="25" rx="3" fill="#F6F6F6"/>
<rect x="15" y="33" width="25" height="25" rx="3" fill="#F6F6F6"/>
<rect x="15" y="93" width="25" height="25" rx="3" fill="#F6F6F6"/>
<rect x="15" y="153" width="25" height="25" rx="3" fill="#F6F6F6"/>
<rect x="15" y="63" width="25" height="25" rx="3" fill="#F6F6F6"/>
<rect x="15" y="123" width="25" height="25" rx="3" fill="#F6F6F6"/>
<rect x="15" y="183" width="25" height="25" rx="3" fill="#F6F6F6"/>
<rect x="15" y="213" width="25" height="25" rx="3" fill="#F6F6F6"/>
<rect x="15" y="243" width="25" height="25" rx="3" fill="#F6F6F6"/>
</svg>
