<?xml version="1.0" encoding="utf-8"?>
<!-- Generator: Adobe Illustrator 26.5.0, SVG Export Plug-In . SVG Version: 6.00 Build 0)  -->
<svg version="1.1" id="Layer_1" xmlns="http://www.w3.org/2000/svg" xmlns:xlink="http://www.w3.org/1999/xlink" x="0px" y="0px"
	 viewBox="0 0 300 407" style="enable-background:new 0 0 300 407;" xml:space="preserve">
<style type="text/css">
	.st0{fill:#333742;}
	.st1{fill:#2A2E39;}
	.st2{fill:#2A6490;}
</style>
<path class="st0" d="M12,0h276c6.6,0,12,5.4,12,12v382.9c0,6.6-5.4,12-12,12H12c-6.6,0-12-5.4-12-12V12C0,5.4,5.4,0,12,0z"/>
<path class="st1" d="M26.7,20.6H278c3.9,0,7,3.1,7,7v16c0,3.9-3.1,7-7,7H26.7c-3.9,0-7-3.1-7-7v-16C19.7,23.8,22.8,20.6,26.7,20.6z"
	/>
<path class="st1" d="M54.8,76.9h34.8c3.9,0,7,3.1,7,7v57.2c0,3.9-3.1,7-7,7H54.8c-3.9,0-7-3.1-7-7V83.9C47.8,80,50.9,76.9,54.8,76.9
	z"/>
<path class="st1" d="M55.8,172.5h34.8c3.9,0,7,3.1,7,7v57.2c0,3.9-3.1,7-7,7H55.8c-3.9,0-7-3.1-7-7v-57.2
	C48.8,175.6,51.9,172.5,55.8,172.5z"/>
<path class="st1" d="M27.6,319.7h109.8c3.9,0,7,3.1,7,7v57.2c0,3.9-3.1,7-7,7H27.6c-3.9,0-7-3.1-7-7v-57.2
	C20.6,322.8,23.8,319.7,27.6,319.7z"/>
<path class="st1" d="M158,319.7H277c1.3,0,2.3,1,2.3,2.3l0,0c0,1.3-1,2.3-2.3,2.3H158c-1.3,0-2.3-1-2.3-2.3l0,0
	C155.6,320.7,156.7,319.7,158,319.7z"/>
<path class="st1" d="M158,332.8H277c1.3,0,2.3,1,2.3,2.3l0,0c0,1.3-1,2.3-2.3,2.3H158c-1.3,0-2.3-1-2.3-2.3l0,0
	C155.6,333.9,156.7,332.8,158,332.8z"/>
<path class="st1" d="M158,345h95.6c1.3,0,2.3,1,2.3,2.3l0,0c0,1.3-1,2.3-2.3,2.3H158c-1.3,0-2.3-1-2.3-2.3l0,0
	C155.6,346,156.7,345,158,345z"/>
<path class="st1" d="M162.6,76.9h34.8c3.9,0,7,3.1,7,7v57.2c0,3.9-3.1,7-7,7h-34.8c-3.9,0-7-3.1-7-7V83.9
	C155.6,80,158.8,76.9,162.6,76.9z"/>
<path class="st1" d="M163.6,172.5h34.8c3.9,0,7,3.1,7,7v57.2c0,3.9-3.1,7-7,7h-34.8c-3.9,0-7-3.1-7-7v-57.2
	C156.6,175.6,159.7,172.5,163.6,172.5z"/>
<path class="st1" d="M109.2,76.9H143c3.9,0,7,3.1,7,7v57.2c0,3.9-3.1,7-7,7h-33.8c-3.9,0-7-3.1-7-7V83.9
	C102.2,80,105.3,76.9,109.2,76.9z"/>
<path class="st1" d="M110.1,172.5h33.8c3.9,0,7,3.1,7,7v57.2c0,3.9-3.1,7-7,7h-33.8c-3.9,0-7-3.1-7-7v-57.2
	C103.1,175.6,106.3,172.5,110.1,172.5z"/>
<path class="st1" d="M217,76.9h34.8c3.9,0,7,3.1,7,7v57.2c0,3.9-3.1,7-7,7H217c-3.9,0-7-3.1-7-7V83.9C210,80,213.1,76.9,217,76.9z"
	/>
<path class="st1" d="M217.9,172.5h34.7c3.9,0,7,3.1,7,7v57.2c0,3.9-3.1,7-7,7h-34.7c-3.9,0-7-3.1-7-7v-57.2
	C210.9,175.6,214.1,172.5,217.9,172.5z"/>
<path class="st1" d="M42.7,285.1c-0.3,0-0.5-0.1-0.7-0.3l-13.4-13.4L41.9,258c0.4-0.4,1-0.4,1.4,0s0.4,1,0,1.4l-11.9,11.9l11.9,11.9
	c0.4,0.4,0.4,1,0,1.4C43.2,285,42.9,285.1,42.7,285.1z"/>
<path class="st1" d="M263,285.1c-0.3,0-0.5-0.1-0.7-0.3c-0.4-0.4-0.4-1,0-1.4l11.9-11.9l-11.9-11.9c-0.4-0.4-0.4-1,0-1.4
	s1-0.4,1.4,0l13.4,13.4l-13.4,13.4C263.5,285,263.2,285.1,263,285.1z"/>
<circle class="st1" cx="70.8" cy="271.9" r="4.7"/>
<circle class="st1" cx="98.9" cy="271.9" r="4.7"/>
<circle class="st2" cx="127" cy="271.9" r="4.7"/>
<circle class="st1" cx="155.2" cy="271.9" r="4.7"/>
<circle class="st1" cx="187.5" cy="272.3" r="2.3"/>
<circle class="st1" cx="195" cy="272.3" r="2.3"/>
<circle class="st1" cx="202.5" cy="272.3" r="2.3"/>
<circle class="st1" cx="234.8" cy="271.9" r="4.7"/>
</svg>
