<?xml version="1.0" encoding="utf-8"?>
<!-- Generator: Adobe Illustrator 26.5.0, SVG Export Plug-In . SVG Version: 6.00 Build 0)  -->
<svg version="1.1" id="Layer_1" xmlns="http://www.w3.org/2000/svg" xmlns:xlink="http://www.w3.org/1999/xlink" x="0px" y="0px"
	 viewBox="0 0 340 426" style="enable-background:new 0 0 340 426;" xml:space="preserve">
<style type="text/css">
	.st0{fill:#FFFFFF;}
	.st1{fill:#F7F7F7;}
</style>
<g>
	<path class="st0" d="M12.8-2.7h314.5c7,0,12.8,5.7,12.8,12.8V416c0,7-5.7,12.8-12.8,12.8H12.8c-7,0-12.8-5.7-12.8-12.8V10.1
		C0,3,5.7-2.7,12.8-2.7z"/>
</g>
<path class="st1" d="M166,55h140c6.1,0,11,4.9,11,11v13c0,6.1-4.9,11-11,11H166c-6.1,0-11-4.9-11-11V66C155,59.9,159.9,55,166,55z"
	/>
<path class="st1" d="M44,55h79c8.3,0,15,6.7,15,15v5c0,8.3-6.7,15-15,15H44c-8.3,0-15-6.7-15-15v-5C29,61.7,35.7,55,44,55z"/>
<path class="st1" d="M44,107h103c8.3,0,15,6.7,15,15v5c0,8.3-6.7,15-15,15H44c-8.3,0-15-6.7-15-15v-5C29,113.7,35.7,107,44,107z"/>
<path class="st1" d="M40,161h260c6.1,0,11,4.9,11,11v10c0,6.1-4.9,11-11,11H40c-6.1,0-11-4.9-11-11v-10C29,165.9,33.9,161,40,161z"
	/>
<path class="st1" d="M40,207h260c6.1,0,11,4.9,11,11v33c0,6.1-4.9,11-11,11H40c-6.1,0-11-4.9-11-11v-33C29,211.9,33.9,207,40,207z"
	/>
<path class="st1" d="M32.5,31h281c1.9,0,3.5,1.6,3.5,3.5l0,0c0,1.9-1.6,3.5-3.5,3.5h-281c-1.9,0-3.5-1.6-3.5-3.5l0,0
	C29,32.6,30.6,31,32.5,31z"/>
<circle class="st1" cx="64.5" cy="310.5" r="35.5"/>
<path class="st1" d="M180,375h100c2.8,0,5,2.2,5,5v10c0,2.8-2.2,5-5,5H180c-2.8,0-5-2.2-5-5v-10C175,377.2,177.2,375,180,375z"/>
<path class="st1" d="M61,375h100c2.8,0,5,2.2,5,5v10c0,2.8-2.2,5-5,5H61c-2.8,0-5-2.2-5-5v-10C56,377.2,58.2,375,61,375z"/>
</svg>
