<svg width="319" height="425" viewBox="0 0 319 425" fill="none" xmlns="http://www.w3.org/2000/svg">
<rect width="319" height="425" rx="12" fill="#333742"/>
<circle cx="27.5" cy="98.5" r="6.5" fill="#2A2E39"/>
<circle cx="27.5" cy="276.5" r="6.5" fill="#2A2E39"/>
<circle cx="27.5" cy="305.5" r="6.5" fill="#2A2E39"/>
<circle cx="27.5" cy="341.5" r="6.5" fill="#2A2E39"/>
<circle cx="27.5" cy="128.5" r="6.5" fill="#2A2E39"/>
<circle cx="27.5" cy="170.5" r="6.5" fill="#2A2E39"/>
<circle cx="27.5" cy="223.5" r="6.5" fill="#2A2E39"/>
<rect x="46" y="86" width="257" height="25" rx="3" fill="#2A2E39"/>
<rect x="46" y="264" width="257" height="25" rx="3" fill="#2A2E39"/>
<rect x="46" y="293" width="257" height="25" rx="3" fill="#2A2E39"/>
<rect x="46" y="329" width="257" height="25" rx="3" fill="#2A2E39"/>
<rect x="46" y="116" width="257" height="25" rx="3" fill="#2A2E39"/>
<rect x="46" y="158" width="257" height="47" rx="3" fill="#2A2E39"/>
<rect x="46" y="211" width="257" height="47" rx="3" fill="#2A2E39"/>
</svg>
