<svg width="320" height="490" viewBox="0 0 320 490" fill="none" xmlns="http://www.w3.org/2000/svg">
<rect width="320" height="490" rx="12" fill="white"/>
<rect x="19" y="23" width="282" height="122" rx="5" fill="#F6F6F6"/>
<rect x="224" y="435" width="82" height="30" rx="5" fill="#F6F6F6"/>
<rect x="135" y="435" width="82" height="30" rx="5" fill="#F6F6F6"/>
<rect x="19" y="205" width="32" height="31" rx="5" fill="#F6F6F6"/>
<rect x="19" y="243" width="32" height="31" rx="5" fill="#F6F6F6"/>
<rect x="19" y="281" width="32" height="31" rx="5" fill="#F6F6F6"/>
<rect x="19" y="319" width="32" height="31" rx="5" fill="#F6F6F6"/>
<rect x="19" y="357" width="32" height="31" rx="5" fill="#F6F6F6"/>
<rect x="103" y="205" width="32" height="31" rx="5" fill="#F6F6F6"/>
<rect x="103" y="243" width="32" height="31" rx="5" fill="#F6F6F6"/>
<rect x="103" y="281" width="32" height="31" rx="5" fill="#F6F6F6"/>
<rect x="103" y="319" width="32" height="31" rx="5" fill="#F6F6F6"/>
<rect x="103" y="357" width="32" height="31" rx="5" fill="#F6F6F6"/>
<rect x="227" y="205" width="33" height="31" rx="5" fill="#F6F6F6"/>
<rect x="227" y="243" width="33" height="31" rx="5" fill="#F6F6F6"/>
<rect x="227" y="281" width="33" height="31" rx="5" fill="#F6F6F6"/>
<rect x="227" y="319" width="33" height="31" rx="5" fill="#F6F6F6"/>
<rect x="60" y="205" width="34" height="31" rx="5" fill="#F6F6F6"/>
<rect x="60" y="243" width="34" height="31" rx="5" fill="#F6F6F6"/>
<rect x="60" y="281" width="34" height="31" rx="5" fill="#F6F6F6"/>
<rect x="60" y="319" width="34" height="31" rx="5" fill="#F6F6F6"/>
<rect x="60" y="357" width="34" height="31" rx="5" fill="#F6F6F6"/>
<rect x="185" y="205" width="33" height="31" rx="5" fill="#F6F6F6"/>
<rect x="185" y="243" width="33" height="31" rx="5" fill="#F6F6F6"/>
<rect x="185" y="281" width="33" height="31" rx="5" fill="#F6F6F6"/>
<rect x="185" y="319" width="33" height="31" rx="5" fill="#F6F6F6"/>
<rect x="144" y="205" width="32" height="31" rx="5" fill="#F6F6F6"/>
<rect x="144" y="243" width="32" height="31" rx="5" fill="#F6F6F6"/>
<rect x="144" y="281" width="32" height="31" rx="5" fill="#F6F6F6"/>
<rect x="144" y="319" width="32" height="31" rx="5" fill="#F6F6F6"/>
<rect x="144" y="357" width="32" height="31" rx="5" fill="#F6F6F6"/>
<rect x="269" y="205" width="32" height="31" rx="5" fill="#F6F6F6"/>
<rect x="269" y="243" width="32" height="31" rx="5" fill="#F6F6F6"/>
<rect x="269" y="281" width="32" height="31" rx="5" fill="#F6F6F6"/>
<rect x="269" y="319" width="32" height="31" rx="5" fill="#F6F6F6"/>
<rect x="19" y="185" width="85" height="13" rx="5" fill="#F6F6F6"/>
</svg>
