<svg width="343" height="251" viewBox="0 0 343 251" fill="none" xmlns="http://www.w3.org/2000/svg">
<g filter="url(#filter0_d_1357_163)">
<rect x="15" y="10" width="313" height="221" rx="18" fill="white"/>
</g>
<path d="M38.5625 215V200.859H47.0781V202.422H40.3203V207.148H46.4336V208.691H40.3203V215H38.5625ZM53.0352 215.215C50.1445 215.215 48.1914 213.047 48.1914 209.746C48.1914 206.445 50.1445 204.258 53.0352 204.258C55.9062 204.258 57.8398 206.445 57.8398 209.746C57.8398 213.047 55.9062 215.215 53.0352 215.215ZM53.0352 213.73C55.1641 213.73 56.1602 211.855 56.1602 209.746C56.1602 207.637 55.1641 205.742 53.0352 205.742C50.8672 205.742 49.8711 207.637 49.8711 209.746C49.8711 211.855 50.8672 213.73 53.0352 213.73ZM60.0469 215V204.395H61.668V206.016H61.7852C62.1758 204.941 63.2695 204.219 64.5195 204.219C64.7734 204.219 65.2031 204.238 65.3984 204.258V205.957C65.2812 205.918 64.8125 205.84 64.3828 205.84C62.8594 205.84 61.7266 206.895 61.7266 208.32V215H60.0469ZM67.0391 215V204.395H68.6602V206.055H68.7969C69.2461 204.922 70.2617 204.258 71.6484 204.258C73.0352 204.258 73.9727 204.922 74.4805 206.055H74.5977C75.1445 204.961 76.2578 204.258 77.7812 204.258C79.6758 204.258 81.0234 205.41 81.0234 207.91V215H79.3438V207.93C79.3438 206.367 78.3477 205.762 77.1953 205.762C75.7109 205.762 74.8711 206.758 74.8711 208.105V215H73.1719V207.754C73.1719 206.562 72.3125 205.762 71.1016 205.762C69.832 205.762 68.7188 206.836 68.7188 208.379V215H67.0391ZM89.5977 200.859L93.7578 212.715H93.9141L98.0938 200.859H99.9492L94.7734 215H92.918L87.7422 200.859H89.5977ZM100.125 211.992C100.125 209.551 102.273 209.004 104.109 208.867C104.783 208.818 106.502 208.73 106.98 208.711V207.852C106.98 206.504 106.18 205.723 104.578 205.723C103.23 205.723 102.43 206.348 102.195 207.148H100.438C100.652 205.449 102.312 204.258 104.656 204.258C106.043 204.258 108.641 204.668 108.641 208.008V215H106.98V213.555H106.902C106.551 214.277 105.574 215.254 103.738 215.254C101.727 215.254 100.125 214.062 100.125 211.992ZM101.805 212.07C101.805 213.184 102.742 213.75 104.031 213.75C105.926 213.75 106.98 212.48 106.98 211.152V210.078L104.305 210.273C102.781 210.371 101.805 210.918 101.805 212.07ZM113.016 200.859V215H111.336V200.859H113.016ZM115.691 215V204.395H117.371V215H115.691ZM116.531 202.637C115.887 202.637 115.359 202.148 115.359 201.523C115.359 200.898 115.887 200.41 116.531 200.41C117.176 200.41 117.723 200.898 117.723 201.523C117.723 202.148 117.176 202.637 116.531 202.637ZM124.051 215.215C121.414 215.215 119.539 213.086 119.539 209.727C119.539 206.367 121.414 204.258 124.07 204.258C126.121 204.258 126.785 205.508 127.137 206.074H127.254V200.859H128.953V215H127.312V213.379H127.137C126.766 213.965 126.082 215.215 124.051 215.215ZM124.285 213.711C126.219 213.711 127.312 212.07 127.312 209.688C127.312 207.344 126.258 205.762 124.285 205.762C122.254 205.762 121.238 207.48 121.238 209.688C121.238 211.953 122.273 213.711 124.285 213.711ZM131.355 211.992C131.355 209.551 133.504 209.004 135.34 208.867C136.014 208.818 137.732 208.73 138.211 208.711V207.852C138.211 206.504 137.41 205.723 135.809 205.723C134.461 205.723 133.66 206.348 133.426 207.148H131.668C131.883 205.449 133.543 204.258 135.887 204.258C137.273 204.258 139.871 204.668 139.871 208.008V215H138.211V213.555H138.133C137.781 214.277 136.805 215.254 134.969 215.254C132.957 215.254 131.355 214.062 131.355 211.992ZM133.035 212.07C133.035 213.184 133.973 213.75 135.262 213.75C137.156 213.75 138.211 212.48 138.211 211.152V210.078L135.535 210.273C134.012 210.371 133.035 210.918 133.035 212.07ZM147.195 204.395V205.801H144.969V211.953C144.969 213.32 145.633 213.535 146.355 213.535C146.668 213.535 147.098 213.516 147.352 213.496V215.059C147.098 215.098 146.668 215.137 146.18 215.137C144.773 215.137 143.27 214.258 143.27 212.383V205.801H141.668V204.395H143.27V201.855H144.969V204.395H147.195ZM149.363 215V204.395H151.043V215H149.363ZM150.203 202.637C149.559 202.637 149.031 202.148 149.031 201.523C149.031 200.898 149.559 200.41 150.203 200.41C150.848 200.41 151.395 200.898 151.395 201.523C151.395 202.148 150.848 202.637 150.203 202.637ZM158.055 215.215C155.164 215.215 153.211 213.047 153.211 209.746C153.211 206.445 155.164 204.258 158.055 204.258C160.926 204.258 162.859 206.445 162.859 209.746C162.859 213.047 160.926 215.215 158.055 215.215ZM158.055 213.73C160.184 213.73 161.18 211.855 161.18 209.746C161.18 207.637 160.184 205.742 158.055 205.742C155.887 205.742 154.891 207.637 154.891 209.746C154.891 211.855 155.887 213.73 158.055 213.73ZM166.746 208.633V215H165.066V204.395H166.688V206.055H166.824C167.332 204.98 168.309 204.258 169.93 204.258C172.078 204.258 173.504 205.566 173.504 208.262V215H171.824V208.379C171.824 206.738 170.926 205.762 169.422 205.762C167.879 205.762 166.746 206.797 166.746 208.633Z" fill="#474747"/>
<path d="M28.5 189H319" stroke="#494949" stroke-width="0.5"/>
<g filter="url(#filter1_d_1357_163)">
<rect x="69" y="96" width="209" height="34" rx="4" fill="white"/>
<rect x="69.5" y="96.5" width="208" height="33" rx="3.5" stroke="#E59A9A"/>
</g>
<circle cx="172" cy="76" r="8" fill="#F7DBD4"/>
<circle cx="261" cy="113" r="8" fill="#EEEEEE"/>
<path d="M261.297 112.375L264.523 109.148L265.445 110.07L262.218 113.296L265.445 116.523L264.523 117.444L261.297 114.218L258.07 117.444L257.148 116.523L260.375 113.296L257.148 110.07L258.07 109.148L261.297 112.375Z" fill="white"/>
<circle cx="172" cy="85" r="2" fill="#E59A9A"/>
<path d="M170.063 61.999C170.029 60.9054 170.906 60 172 60V60C173.094 60 173.971 60.9054 173.937 61.999L173.376 79.6673C173.352 80.4101 172.743 81 172 81V81C171.257 81 170.648 80.4101 170.624 79.6673L170.063 61.999Z" fill="#E59A9A"/>
<g filter="url(#filter2_d_1357_163)">
<rect x="15" y="10" width="313" height="221" rx="18" fill="#333742"/>
</g>
<path d="M38.5625 215V200.859H47.0781V202.422H40.3203V207.148H46.4336V208.691H40.3203V215H38.5625ZM53.0352 215.215C50.1445 215.215 48.1914 213.047 48.1914 209.746C48.1914 206.445 50.1445 204.258 53.0352 204.258C55.9062 204.258 57.8398 206.445 57.8398 209.746C57.8398 213.047 55.9062 215.215 53.0352 215.215ZM53.0352 213.73C55.1641 213.73 56.1602 211.855 56.1602 209.746C56.1602 207.637 55.1641 205.742 53.0352 205.742C50.8672 205.742 49.8711 207.637 49.8711 209.746C49.8711 211.855 50.8672 213.73 53.0352 213.73ZM60.0469 215V204.395H61.668V206.016H61.7852C62.1758 204.941 63.2695 204.219 64.5195 204.219C64.7734 204.219 65.2031 204.238 65.3984 204.258V205.957C65.2812 205.918 64.8125 205.84 64.3828 205.84C62.8594 205.84 61.7266 206.895 61.7266 208.32V215H60.0469ZM67.0391 215V204.395H68.6602V206.055H68.7969C69.2461 204.922 70.2617 204.258 71.6484 204.258C73.0352 204.258 73.9727 204.922 74.4805 206.055H74.5977C75.1445 204.961 76.2578 204.258 77.7812 204.258C79.6758 204.258 81.0234 205.41 81.0234 207.91V215H79.3438V207.93C79.3438 206.367 78.3477 205.762 77.1953 205.762C75.7109 205.762 74.8711 206.758 74.8711 208.105V215H73.1719V207.754C73.1719 206.562 72.3125 205.762 71.1016 205.762C69.832 205.762 68.7188 206.836 68.7188 208.379V215H67.0391ZM89.5977 200.859L93.7578 212.715H93.9141L98.0938 200.859H99.9492L94.7734 215H92.918L87.7422 200.859H89.5977ZM100.125 211.992C100.125 209.551 102.273 209.004 104.109 208.867C104.783 208.818 106.502 208.73 106.98 208.711V207.852C106.98 206.504 106.18 205.723 104.578 205.723C103.23 205.723 102.43 206.348 102.195 207.148H100.438C100.652 205.449 102.312 204.258 104.656 204.258C106.043 204.258 108.641 204.668 108.641 208.008V215H106.98V213.555H106.902C106.551 214.277 105.574 215.254 103.738 215.254C101.727 215.254 100.125 214.062 100.125 211.992ZM101.805 212.07C101.805 213.184 102.742 213.75 104.031 213.75C105.926 213.75 106.98 212.48 106.98 211.152V210.078L104.305 210.273C102.781 210.371 101.805 210.918 101.805 212.07ZM113.016 200.859V215H111.336V200.859H113.016ZM115.691 215V204.395H117.371V215H115.691ZM116.531 202.637C115.887 202.637 115.359 202.148 115.359 201.523C115.359 200.898 115.887 200.41 116.531 200.41C117.176 200.41 117.723 200.898 117.723 201.523C117.723 202.148 117.176 202.637 116.531 202.637ZM124.051 215.215C121.414 215.215 119.539 213.086 119.539 209.727C119.539 206.367 121.414 204.258 124.07 204.258C126.121 204.258 126.785 205.508 127.137 206.074H127.254V200.859H128.953V215H127.312V213.379H127.137C126.766 213.965 126.082 215.215 124.051 215.215ZM124.285 213.711C126.219 213.711 127.312 212.07 127.312 209.688C127.312 207.344 126.258 205.762 124.285 205.762C122.254 205.762 121.238 207.48 121.238 209.688C121.238 211.953 122.273 213.711 124.285 213.711ZM131.355 211.992C131.355 209.551 133.504 209.004 135.34 208.867C136.014 208.818 137.732 208.73 138.211 208.711V207.852C138.211 206.504 137.41 205.723 135.809 205.723C134.461 205.723 133.66 206.348 133.426 207.148H131.668C131.883 205.449 133.543 204.258 135.887 204.258C137.273 204.258 139.871 204.668 139.871 208.008V215H138.211V213.555H138.133C137.781 214.277 136.805 215.254 134.969 215.254C132.957 215.254 131.355 214.062 131.355 211.992ZM133.035 212.07C133.035 213.184 133.973 213.75 135.262 213.75C137.156 213.75 138.211 212.48 138.211 211.152V210.078L135.535 210.273C134.012 210.371 133.035 210.918 133.035 212.07ZM147.195 204.395V205.801H144.969V211.953C144.969 213.32 145.633 213.535 146.355 213.535C146.668 213.535 147.098 213.516 147.352 213.496V215.059C147.098 215.098 146.668 215.137 146.18 215.137C144.773 215.137 143.27 214.258 143.27 212.383V205.801H141.668V204.395H143.27V201.855H144.969V204.395H147.195ZM149.363 215V204.395H151.043V215H149.363ZM150.203 202.637C149.559 202.637 149.031 202.148 149.031 201.523C149.031 200.898 149.559 200.41 150.203 200.41C150.848 200.41 151.395 200.898 151.395 201.523C151.395 202.148 150.848 202.637 150.203 202.637ZM158.055 215.215C155.164 215.215 153.211 213.047 153.211 209.746C153.211 206.445 155.164 204.258 158.055 204.258C160.926 204.258 162.859 206.445 162.859 209.746C162.859 213.047 160.926 215.215 158.055 215.215ZM158.055 213.73C160.184 213.73 161.18 211.855 161.18 209.746C161.18 207.637 160.184 205.742 158.055 205.742C155.887 205.742 154.891 207.637 154.891 209.746C154.891 211.855 155.887 213.73 158.055 213.73ZM166.746 208.633V215H165.066V204.395H166.688V206.055H166.824C167.332 204.98 168.309 204.258 169.93 204.258C172.078 204.258 173.504 205.566 173.504 208.262V215H171.824V208.379C171.824 206.738 170.926 205.762 169.422 205.762C167.879 205.762 166.746 206.797 166.746 208.633Z" fill="#DFDFDF"/>
<path d="M28.5 189H319" stroke="#DFDFDF" stroke-opacity="0.6" stroke-width="0.5"/>
<g filter="url(#filter3_d_1357_163)">
<rect x="69" y="96" width="209" height="34" rx="4" fill="white"/>
<rect x="69.5" y="96.5" width="208" height="33" rx="3.5" stroke="#E59A9A"/>
</g>
<circle cx="172" cy="76" r="8" fill="#F7DBD4"/>
<circle cx="261" cy="113" r="8" fill="#EEEEEE"/>
<path d="M261.297 112.375L264.523 109.148L265.445 110.07L262.218 113.296L265.445 116.523L264.523 117.444L261.297 114.218L258.07 117.444L257.148 116.523L260.375 113.296L257.148 110.07L258.07 109.148L261.297 112.375Z" fill="white"/>
<circle cx="172" cy="85" r="2" fill="#E59A9A"/>
<path d="M170.063 61.999C170.029 60.9054 170.906 60 172 60V60C173.094 60 173.971 60.9054 173.937 61.999L173.376 79.6673C173.352 80.4101 172.743 81 172 81V81C171.257 81 170.648 80.4101 170.624 79.6673L170.063 61.999Z" fill="#E59A9A"/>
<defs>
<filter id="filter0_d_1357_163" x="0" y="0" width="343" height="251" filterUnits="userSpaceOnUse" color-interpolation-filters="sRGB">
<feFlood flood-opacity="0" result="BackgroundImageFix"/>
<feColorMatrix in="SourceAlpha" type="matrix" values="0 0 0 0 0 0 0 0 0 0 0 0 0 0 0 0 0 0 127 0" result="hardAlpha"/>
<feOffset dy="5"/>
<feGaussianBlur stdDeviation="7.5"/>
<feComposite in2="hardAlpha" operator="out"/>
<feColorMatrix type="matrix" values="0 0 0 0 0 0 0 0 0 0 0 0 0 0 0 0 0 0 0.25 0"/>
<feBlend mode="normal" in2="BackgroundImageFix" result="effect1_dropShadow_1357_163"/>
<feBlend mode="normal" in="SourceGraphic" in2="effect1_dropShadow_1357_163" result="shape"/>
</filter>
<filter id="filter1_d_1357_163" x="65" y="92" width="217" height="42" filterUnits="userSpaceOnUse" color-interpolation-filters="sRGB">
<feFlood flood-opacity="0" result="BackgroundImageFix"/>
<feColorMatrix in="SourceAlpha" type="matrix" values="0 0 0 0 0 0 0 0 0 0 0 0 0 0 0 0 0 0 127 0" result="hardAlpha"/>
<feOffset/>
<feGaussianBlur stdDeviation="2"/>
<feComposite in2="hardAlpha" operator="out"/>
<feColorMatrix type="matrix" values="0 0 0 0 0 0 0 0 0 0 0 0 0 0 0 0 0 0 0.1 0"/>
<feBlend mode="normal" in2="BackgroundImageFix" result="effect1_dropShadow_1357_163"/>
<feBlend mode="normal" in="SourceGraphic" in2="effect1_dropShadow_1357_163" result="shape"/>
</filter>
<filter id="filter2_d_1357_163" x="0" y="0" width="343" height="251" filterUnits="userSpaceOnUse" color-interpolation-filters="sRGB">
<feFlood flood-opacity="0" result="BackgroundImageFix"/>
<feColorMatrix in="SourceAlpha" type="matrix" values="0 0 0 0 0 0 0 0 0 0 0 0 0 0 0 0 0 0 127 0" result="hardAlpha"/>
<feOffset dy="5"/>
<feGaussianBlur stdDeviation="7.5"/>
<feComposite in2="hardAlpha" operator="out"/>
<feColorMatrix type="matrix" values="0 0 0 0 0 0 0 0 0 0 0 0 0 0 0 0 0 0 0.25 0"/>
<feBlend mode="normal" in2="BackgroundImageFix" result="effect1_dropShadow_1357_163"/>
<feBlend mode="normal" in="SourceGraphic" in2="effect1_dropShadow_1357_163" result="shape"/>
</filter>
<filter id="filter3_d_1357_163" x="65" y="92" width="217" height="42" filterUnits="userSpaceOnUse" color-interpolation-filters="sRGB">
<feFlood flood-opacity="0" result="BackgroundImageFix"/>
<feColorMatrix in="SourceAlpha" type="matrix" values="0 0 0 0 0 0 0 0 0 0 0 0 0 0 0 0 0 0 127 0" result="hardAlpha"/>
<feOffset/>
<feGaussianBlur stdDeviation="2"/>
<feComposite in2="hardAlpha" operator="out"/>
<feColorMatrix type="matrix" values="0 0 0 0 0 0 0 0 0 0 0 0 0 0 0 0 0 0 0.1 0"/>
<feBlend mode="normal" in2="BackgroundImageFix" result="effect1_dropShadow_1357_163"/>
<feBlend mode="normal" in="SourceGraphic" in2="effect1_dropShadow_1357_163" result="shape"/>
</filter>
</defs>
</svg>
